M48
; DRILL file {KiCad 7.0.5-0} date 2023 December 22, Friday 09:44:47
; FORMAT={-:-/ absolute / metric / decimal}
; #@! TF.CreationDate,2023-12-22T09:44:47-05:00
; #@! TF.GenerationSoftware,Kicad,Pcbnew,7.0.5-0
; #@! TF.FileFunction,Plated,1,4,PTH
FMAT,2
METRIC
; #@! TA.AperFunction,Plated,PTH,ViaDrill
T1C0.400
; #@! TA.AperFunction,Plated,PTH,ComponentDrill
T2C0.500
; #@! TA.AperFunction,Plated,PTH,ViaDrill
T3C0.600
; #@! TA.AperFunction,Plated,PTH,ComponentDrill
T4C0.800
; #@! TA.AperFunction,Plated,PTH,ComponentDrill
T5C1.000
; #@! TA.AperFunction,Plated,PTH,ComponentDrill
T6C1.300
; #@! TA.AperFunction,Plated,PTH,ComponentDrill
T7C3.500
%
G90
G05
T1
X142.9Y-119.5
X151.1Y-117.0
X151.1Y-118.2
T2
X119.575Y-110.4
X120.344Y-108.544
X120.344Y-112.256
X122.2Y-107.775
X122.2Y-113.025
X124.056Y-108.544
X124.056Y-112.256
X124.825Y-110.4
X162.631Y-105.944
X163.4Y-104.088
X163.4Y-107.8
X165.256Y-103.319
X165.256Y-108.569
X167.112Y-104.088
X167.112Y-107.8
X167.881Y-105.944
T3
X118.5Y-114.4
X119.0Y-103.9
X119.5Y-119.5
X122.0Y-105.4
X122.1Y-115.8
X123.5Y-118.1
X126.0Y-115.9
X126.1Y-119.6
X127.0Y-104.1
X128.9Y-111.8
X130.9Y-107.6
X132.2Y-90.1
X137.7Y-119.3
X138.1Y-114.7
X138.2Y-90.1
X140.3Y-97.5
X140.5Y-101.1
X140.5Y-118.7
X140.9Y-104.6
X141.8Y-113.8
X142.0Y-109.3
X147.0Y-112.6
X147.3Y-108.2
X152.5Y-116.3
X152.7Y-109.8
X153.0Y-113.6
X154.7Y-90.6
X154.8Y-112.7
X155.0Y-101.7
X155.4Y-97.2
X155.4Y-109.1
X155.5Y-105.5
X159.0Y-95.2
X159.3Y-120.5
X160.1Y-103.2
X160.2Y-117.5
X160.4Y-108.4
X160.7Y-113.4
X164.7Y-94.0
X166.9Y-101.1
X167.0Y-111.4
X167.6Y-96.0
X167.7Y-89.9
X167.9Y-93.1
X168.6Y-111.6
T4
X163.1Y-96.9
X163.1Y-99.4
T6
X131.26Y-117.1
X133.8Y-117.1
X163.73Y-116.9
X166.27Y-116.9
T7
X122.2Y-110.4
X165.256Y-105.944
T5
X118.1Y-95.9G85X118.1Y-97.9
G05
X123.8Y-93.9G85X121.8Y-93.9
G05
X124.05Y-100.1G85X121.55Y-100.1
G05
T0
M30
