G04 #@! TF.GenerationSoftware,KiCad,Pcbnew,7.0.5-0*
G04 #@! TF.CreationDate,2023-12-22T09:44:44-05:00*
G04 #@! TF.ProjectId,PierogiNixiePSU,50696572-6f67-4694-9e69-786965505355,rev?*
G04 #@! TF.SameCoordinates,Original*
G04 #@! TF.FileFunction,Copper,L4,Bot*
G04 #@! TF.FilePolarity,Positive*
%FSLAX46Y46*%
G04 Gerber Fmt 4.6, Leading zero omitted, Abs format (unit mm)*
G04 Created by KiCad (PCBNEW 7.0.5-0) date 2023-12-22 09:44:44*
%MOMM*%
%LPD*%
G01*
G04 APERTURE LIST*
G04 #@! TA.AperFunction,ComponentPad*
%ADD10C,1.950000*%
G04 #@! TD*
G04 #@! TA.AperFunction,ComponentPad*
%ADD11C,0.800000*%
G04 #@! TD*
G04 #@! TA.AperFunction,ComponentPad*
%ADD12C,7.000000*%
G04 #@! TD*
G04 #@! TA.AperFunction,ComponentPad*
%ADD13R,1.600000X1.600000*%
G04 #@! TD*
G04 #@! TA.AperFunction,ComponentPad*
%ADD14C,1.600000*%
G04 #@! TD*
G04 #@! TA.AperFunction,ComponentPad*
%ADD15R,4.500000X2.000000*%
G04 #@! TD*
G04 #@! TA.AperFunction,ComponentPad*
%ADD16O,4.000000X2.000000*%
G04 #@! TD*
G04 #@! TA.AperFunction,ComponentPad*
%ADD17O,2.000000X4.000000*%
G04 #@! TD*
G04 #@! TA.AperFunction,ViaPad*
%ADD18C,0.800000*%
G04 #@! TD*
G04 #@! TA.AperFunction,ViaPad*
%ADD19C,1.200000*%
G04 #@! TD*
G04 #@! TA.AperFunction,ViaPad*
%ADD20C,1.000000*%
G04 #@! TD*
G04 APERTURE END LIST*
D10*
X131260000Y-117100000D03*
X133800000Y-117100000D03*
D11*
X162631155Y-105943845D03*
X163400000Y-104087690D03*
X163400000Y-107800000D03*
X165256155Y-103318845D03*
D12*
X165256155Y-105943845D03*
D11*
X165256155Y-108568845D03*
X167112310Y-104087690D03*
X167112310Y-107800000D03*
X167881155Y-105943845D03*
D13*
X163100000Y-96900000D03*
D14*
X163100000Y-99400000D03*
D10*
X163730000Y-116900000D03*
X166270000Y-116900000D03*
D15*
X122800000Y-100100000D03*
D16*
X122800000Y-93900000D03*
D17*
X118100000Y-96900000D03*
D11*
X119575000Y-110400000D03*
X120343845Y-108543845D03*
X120343845Y-112256155D03*
X122200000Y-107775000D03*
D12*
X122200000Y-110400000D03*
D11*
X122200000Y-113025000D03*
X124056155Y-108543845D03*
X124056155Y-112256155D03*
X124825000Y-110400000D03*
D18*
X151100000Y-117000000D03*
D19*
X141800000Y-113800000D03*
D20*
X126000000Y-115900000D03*
D18*
X142900000Y-119500000D03*
D20*
X138200000Y-90100000D03*
X154800000Y-112700000D03*
D18*
X151100000Y-118200000D03*
D20*
X160700000Y-113400000D03*
X137700000Y-119300000D03*
X152700000Y-109800000D03*
X167600000Y-96000000D03*
X155500000Y-105500000D03*
X168600000Y-111600000D03*
X147000000Y-112600000D03*
X166900000Y-101100000D03*
X128900000Y-111800000D03*
D19*
X153000000Y-113600000D03*
D20*
X164700000Y-94000000D03*
X140300000Y-97500000D03*
D19*
X142000000Y-109300000D03*
D20*
X155400000Y-109100000D03*
X119500000Y-119500000D03*
X127000000Y-104100000D03*
X155000000Y-101700000D03*
D19*
X167000000Y-111400000D03*
D20*
X160400000Y-108400000D03*
X147300000Y-108200000D03*
X119000000Y-103900000D03*
X140500000Y-118700000D03*
D19*
X159300000Y-120500000D03*
D20*
X132200000Y-90100000D03*
X138100000Y-114700000D03*
X160100000Y-103200000D03*
X122100000Y-115800000D03*
X140900000Y-104600000D03*
X118500000Y-114400000D03*
X140500000Y-101100000D03*
X130900000Y-107600000D03*
D19*
X152500000Y-116300000D03*
D20*
X123500000Y-118100000D03*
X160200000Y-117500000D03*
X159000000Y-95200000D03*
X155400000Y-97200000D03*
X154700000Y-90600000D03*
X167900000Y-93100000D03*
X122000000Y-105400000D03*
X167700000Y-89900000D03*
X126100000Y-119600000D03*
M02*
