%TF.GenerationSoftware,KiCad,Pcbnew,7.0.5-0*%
%TF.CreationDate,2023-12-22T09:44:48-05:00*%
%TF.ProjectId,PierogiNixiePSU,50696572-6f67-4694-9e69-786965505355,rev?*%
%TF.SameCoordinates,Original*%
%TF.FileFunction,Drillmap*%
%TF.FilePolarity,Positive*%
%FSLAX45Y45*%
G04 Gerber Fmt 4.5, Leading zero omitted, Abs format (unit mm)*
G04 Created by KiCad (PCBNEW 7.0.5-0) date 2023-12-22 09:44:48*
%MOMM*%
%LPD*%
G01*
G04 APERTURE LIST*
%ADD10C,0.050000*%
%ADD11C,0.200000*%
G04 APERTURE END LIST*
D10*
X16960485Y-8834110D02*
X11650000Y-8833750D01*
X11650000Y-8833750D02*
X11650000Y-12166250D01*
X16960485Y-12166610D02*
X16960485Y-8834110D01*
X11650000Y-12166250D02*
X16960485Y-12166610D01*
D11*
X11908277Y-12480594D02*
X11908277Y-12280594D01*
X11908277Y-12280594D02*
X11955896Y-12280594D01*
X11955896Y-12280594D02*
X11984467Y-12290118D01*
X11984467Y-12290118D02*
X12003515Y-12309165D01*
X12003515Y-12309165D02*
X12013039Y-12328213D01*
X12013039Y-12328213D02*
X12022562Y-12366308D01*
X12022562Y-12366308D02*
X12022562Y-12394879D01*
X12022562Y-12394879D02*
X12013039Y-12432975D01*
X12013039Y-12432975D02*
X12003515Y-12452022D01*
X12003515Y-12452022D02*
X11984467Y-12471070D01*
X11984467Y-12471070D02*
X11955896Y-12480594D01*
X11955896Y-12480594D02*
X11908277Y-12480594D01*
X12108277Y-12480594D02*
X12108277Y-12347260D01*
X12108277Y-12385356D02*
X12117801Y-12366308D01*
X12117801Y-12366308D02*
X12127324Y-12356784D01*
X12127324Y-12356784D02*
X12146372Y-12347260D01*
X12146372Y-12347260D02*
X12165420Y-12347260D01*
X12232086Y-12480594D02*
X12232086Y-12347260D01*
X12232086Y-12280594D02*
X12222562Y-12290118D01*
X12222562Y-12290118D02*
X12232086Y-12299641D01*
X12232086Y-12299641D02*
X12241610Y-12290118D01*
X12241610Y-12290118D02*
X12232086Y-12280594D01*
X12232086Y-12280594D02*
X12232086Y-12299641D01*
X12355896Y-12480594D02*
X12336848Y-12471070D01*
X12336848Y-12471070D02*
X12327324Y-12452022D01*
X12327324Y-12452022D02*
X12327324Y-12280594D01*
X12460658Y-12480594D02*
X12441610Y-12471070D01*
X12441610Y-12471070D02*
X12432086Y-12452022D01*
X12432086Y-12452022D02*
X12432086Y-12280594D01*
X12689229Y-12480594D02*
X12689229Y-12280594D01*
X12689229Y-12280594D02*
X12755896Y-12423451D01*
X12755896Y-12423451D02*
X12822562Y-12280594D01*
X12822562Y-12280594D02*
X12822562Y-12480594D01*
X13003515Y-12480594D02*
X13003515Y-12375832D01*
X13003515Y-12375832D02*
X12993991Y-12356784D01*
X12993991Y-12356784D02*
X12974943Y-12347260D01*
X12974943Y-12347260D02*
X12936848Y-12347260D01*
X12936848Y-12347260D02*
X12917801Y-12356784D01*
X13003515Y-12471070D02*
X12984467Y-12480594D01*
X12984467Y-12480594D02*
X12936848Y-12480594D01*
X12936848Y-12480594D02*
X12917801Y-12471070D01*
X12917801Y-12471070D02*
X12908277Y-12452022D01*
X12908277Y-12452022D02*
X12908277Y-12432975D01*
X12908277Y-12432975D02*
X12917801Y-12413927D01*
X12917801Y-12413927D02*
X12936848Y-12404403D01*
X12936848Y-12404403D02*
X12984467Y-12404403D01*
X12984467Y-12404403D02*
X13003515Y-12394879D01*
X13098753Y-12347260D02*
X13098753Y-12547260D01*
X13098753Y-12356784D02*
X13117801Y-12347260D01*
X13117801Y-12347260D02*
X13155896Y-12347260D01*
X13155896Y-12347260D02*
X13174943Y-12356784D01*
X13174943Y-12356784D02*
X13184467Y-12366308D01*
X13184467Y-12366308D02*
X13193991Y-12385356D01*
X13193991Y-12385356D02*
X13193991Y-12442498D01*
X13193991Y-12442498D02*
X13184467Y-12461546D01*
X13184467Y-12461546D02*
X13174943Y-12471070D01*
X13174943Y-12471070D02*
X13155896Y-12480594D01*
X13155896Y-12480594D02*
X13117801Y-12480594D01*
X13117801Y-12480594D02*
X13098753Y-12471070D01*
X13279705Y-12461546D02*
X13289229Y-12471070D01*
X13289229Y-12471070D02*
X13279705Y-12480594D01*
X13279705Y-12480594D02*
X13270182Y-12471070D01*
X13270182Y-12471070D02*
X13279705Y-12461546D01*
X13279705Y-12461546D02*
X13279705Y-12480594D01*
X13279705Y-12356784D02*
X13289229Y-12366308D01*
X13289229Y-12366308D02*
X13279705Y-12375832D01*
X13279705Y-12375832D02*
X13270182Y-12366308D01*
X13270182Y-12366308D02*
X13279705Y-12356784D01*
X13279705Y-12356784D02*
X13279705Y-12375832D01*
M02*
