%TF.GenerationSoftware,KiCad,Pcbnew,7.0.5-0*%
%TF.CreationDate,2023-12-22T09:44:48-05:00*%
%TF.ProjectId,PierogiNixiePSU,50696572-6f67-4694-9e69-786965505355,rev?*%
%TF.SameCoordinates,Original*%
%TF.FileFunction,Drillmap*%
%TF.FilePolarity,Positive*%
%FSLAX45Y45*%
G04 Gerber Fmt 4.5, Leading zero omitted, Abs format (unit mm)*
G04 Created by KiCad (PCBNEW 7.0.5-0) date 2023-12-22 09:44:48*
%MOMM*%
%LPD*%
G01*
G04 APERTURE LIST*
%ADD10C,0.050000*%
%ADD11C,0.200000*%
%ADD12C,0.040000*%
%ADD13C,0.060000*%
%ADD14C,0.080000*%
%ADD15C,0.100000*%
%ADD16C,0.130000*%
%ADD17C,0.350000*%
G04 APERTURE END LIST*
D10*
X16960485Y-8834110D02*
X11650000Y-8833750D01*
X11650000Y-8833750D02*
X11650000Y-12166250D01*
X16960485Y-12166610D02*
X16960485Y-8834110D01*
X11650000Y-12166250D02*
X16960485Y-12166610D01*
D11*
D12*
X14270000Y-11930000D02*
X14310000Y-11970000D01*
X14310000Y-11930000D02*
X14270000Y-11970000D01*
X15090000Y-11680000D02*
X15130000Y-11720000D01*
X15130000Y-11680000D02*
X15090000Y-11720000D01*
X15090000Y-11800000D02*
X15130000Y-11840000D01*
X15130000Y-11800000D02*
X15090000Y-11840000D01*
D10*
X11982500Y-11040000D02*
G75*
G03*
X11982500Y-11040000I-25000J0D01*
G01*
X12059384Y-10854385D02*
G75*
G03*
X12059384Y-10854385I-25000J0D01*
G01*
X12059384Y-11225615D02*
G75*
G03*
X12059384Y-11225615I-25000J0D01*
G01*
X12245000Y-10777500D02*
G75*
G03*
X12245000Y-10777500I-25000J0D01*
G01*
X12245000Y-11302500D02*
G75*
G03*
X12245000Y-11302500I-25000J0D01*
G01*
X12430615Y-10854385D02*
G75*
G03*
X12430615Y-10854385I-25000J0D01*
G01*
X12430615Y-11225615D02*
G75*
G03*
X12430615Y-11225615I-25000J0D01*
G01*
X12507500Y-11040000D02*
G75*
G03*
X12507500Y-11040000I-25000J0D01*
G01*
X16288115Y-10594385D02*
G75*
G03*
X16288115Y-10594385I-25000J0D01*
G01*
X16365000Y-10408769D02*
G75*
G03*
X16365000Y-10408769I-25000J0D01*
G01*
X16365000Y-10780000D02*
G75*
G03*
X16365000Y-10780000I-25000J0D01*
G01*
X16550615Y-10331885D02*
G75*
G03*
X16550615Y-10331885I-25000J0D01*
G01*
X16550615Y-10856885D02*
G75*
G03*
X16550615Y-10856885I-25000J0D01*
G01*
X16736231Y-10408769D02*
G75*
G03*
X16736231Y-10408769I-25000J0D01*
G01*
X16736231Y-10780000D02*
G75*
G03*
X16736231Y-10780000I-25000J0D01*
G01*
X16813116Y-10594385D02*
G75*
G03*
X16813116Y-10594385I-25000J0D01*
G01*
D13*
X11850000Y-11410000D02*
X11850000Y-11470000D01*
X11820000Y-11440000D02*
X11880000Y-11440000D01*
X11900000Y-10360000D02*
X11900000Y-10420000D01*
X11870000Y-10390000D02*
X11930000Y-10390000D01*
X11950000Y-11920000D02*
X11950000Y-11980000D01*
X11920000Y-11950000D02*
X11980000Y-11950000D01*
X12200000Y-10510000D02*
X12200000Y-10570000D01*
X12170000Y-10540000D02*
X12230000Y-10540000D01*
X12210000Y-11550000D02*
X12210000Y-11610000D01*
X12180000Y-11580000D02*
X12240000Y-11580000D01*
X12350000Y-11780000D02*
X12350000Y-11840000D01*
X12320000Y-11810000D02*
X12380000Y-11810000D01*
X12600000Y-11560000D02*
X12600000Y-11620000D01*
X12570000Y-11590000D02*
X12630000Y-11590000D01*
X12610000Y-11930000D02*
X12610000Y-11990000D01*
X12580000Y-11960000D02*
X12640000Y-11960000D01*
X12700000Y-10380000D02*
X12700000Y-10440000D01*
X12670000Y-10410000D02*
X12730000Y-10410000D01*
X12890000Y-11150000D02*
X12890000Y-11210000D01*
X12860000Y-11180000D02*
X12920000Y-11180000D01*
X13090000Y-10730000D02*
X13090000Y-10790000D01*
X13060000Y-10760000D02*
X13120000Y-10760000D01*
X13220000Y-8980000D02*
X13220000Y-9040000D01*
X13190000Y-9010000D02*
X13250000Y-9010000D01*
X13770000Y-11900000D02*
X13770000Y-11960000D01*
X13740000Y-11930000D02*
X13800000Y-11930000D01*
X13810000Y-11440000D02*
X13810000Y-11500000D01*
X13780000Y-11470000D02*
X13840000Y-11470000D01*
X13820000Y-8980000D02*
X13820000Y-9040000D01*
X13790000Y-9010000D02*
X13850000Y-9010000D01*
X14030000Y-9720000D02*
X14030000Y-9780000D01*
X14000000Y-9750000D02*
X14060000Y-9750000D01*
X14050000Y-10080000D02*
X14050000Y-10140000D01*
X14020000Y-10110000D02*
X14080000Y-10110000D01*
X14050000Y-11840000D02*
X14050000Y-11900000D01*
X14020000Y-11870000D02*
X14080000Y-11870000D01*
X14090000Y-10430000D02*
X14090000Y-10490000D01*
X14060000Y-10460000D02*
X14120000Y-10460000D01*
X14180000Y-11350000D02*
X14180000Y-11410000D01*
X14150000Y-11380000D02*
X14210000Y-11380000D01*
X14200000Y-10900000D02*
X14200000Y-10960000D01*
X14170000Y-10930000D02*
X14230000Y-10930000D01*
X14700000Y-11230000D02*
X14700000Y-11290000D01*
X14670000Y-11260000D02*
X14730000Y-11260000D01*
X14730000Y-10790000D02*
X14730000Y-10850000D01*
X14700000Y-10820000D02*
X14760000Y-10820000D01*
X15250000Y-11600000D02*
X15250000Y-11660000D01*
X15220000Y-11630000D02*
X15280000Y-11630000D01*
X15270000Y-10950000D02*
X15270000Y-11010000D01*
X15240000Y-10980000D02*
X15300000Y-10980000D01*
X15300000Y-11330000D02*
X15300000Y-11390000D01*
X15270000Y-11360000D02*
X15330000Y-11360000D01*
X15470000Y-9030000D02*
X15470000Y-9090000D01*
X15440000Y-9060000D02*
X15500000Y-9060000D01*
X15480000Y-11240000D02*
X15480000Y-11300000D01*
X15450000Y-11270000D02*
X15510000Y-11270000D01*
X15500000Y-10140000D02*
X15500000Y-10200000D01*
X15470000Y-10170000D02*
X15530000Y-10170000D01*
X15540000Y-9690000D02*
X15540000Y-9750000D01*
X15510000Y-9720000D02*
X15570000Y-9720000D01*
X15540000Y-10880000D02*
X15540000Y-10940000D01*
X15510000Y-10910000D02*
X15570000Y-10910000D01*
X15550000Y-10520000D02*
X15550000Y-10580000D01*
X15520000Y-10550000D02*
X15580000Y-10550000D01*
X15900000Y-9490000D02*
X15900000Y-9550000D01*
X15870000Y-9520000D02*
X15930000Y-9520000D01*
X15930000Y-12020000D02*
X15930000Y-12080000D01*
X15900000Y-12050000D02*
X15960000Y-12050000D01*
X16010000Y-10290000D02*
X16010000Y-10350000D01*
X15980000Y-10320000D02*
X16040000Y-10320000D01*
X16020000Y-11720000D02*
X16020000Y-11780000D01*
X15990000Y-11750000D02*
X16050000Y-11750000D01*
X16040000Y-10810000D02*
X16040000Y-10870000D01*
X16010000Y-10840000D02*
X16070000Y-10840000D01*
X16070000Y-11310000D02*
X16070000Y-11370000D01*
X16040000Y-11340000D02*
X16100000Y-11340000D01*
X16470000Y-9370000D02*
X16470000Y-9430000D01*
X16440000Y-9400000D02*
X16500000Y-9400000D01*
X16690000Y-10080000D02*
X16690000Y-10140000D01*
X16660000Y-10110000D02*
X16720000Y-10110000D01*
X16700000Y-11110000D02*
X16700000Y-11170000D01*
X16670000Y-11140000D02*
X16730000Y-11140000D01*
X16760000Y-9570000D02*
X16760000Y-9630000D01*
X16730000Y-9600000D02*
X16790000Y-9600000D01*
X16770000Y-8960000D02*
X16770000Y-9020000D01*
X16740000Y-8990000D02*
X16800000Y-8990000D01*
X16790000Y-9280000D02*
X16790000Y-9340000D01*
X16760000Y-9310000D02*
X16820000Y-9310000D01*
X16860000Y-11130000D02*
X16860000Y-11190000D01*
X16830000Y-11160000D02*
X16890000Y-11160000D01*
D14*
X16338284Y-9718285D02*
X16338284Y-9661716D01*
X16281715Y-9661716D01*
X16281715Y-9718285D01*
X16338284Y-9718285D01*
X16338284Y-9968285D02*
X16338284Y-9911716D01*
X16281715Y-9911716D01*
X16281715Y-9968285D01*
X16338284Y-9968285D01*
D15*
X11810000Y-9740000D02*
X11860000Y-9690000D01*
X11810000Y-9640000D01*
X11760000Y-9690000D01*
X11810000Y-9740000D01*
D11*
X11760000Y-9590000D02*
X11760000Y-9790000D01*
X11760000Y-9790000D02*
G75*
G03*
X11860000Y-9790000I50000J0D01*
G01*
X11860000Y-9790000D02*
X11860000Y-9590000D01*
X11860000Y-9590000D02*
G75*
G03*
X11760000Y-9590000I-50000J0D01*
G01*
D15*
X12280000Y-9440000D02*
X12330000Y-9390000D01*
X12280000Y-9340000D01*
X12230000Y-9390000D01*
X12280000Y-9440000D01*
D11*
X12380000Y-9340000D02*
X12180000Y-9340000D01*
X12180000Y-9340000D02*
G75*
G03*
X12180000Y-9440000I0J-50000D01*
G01*
X12180000Y-9440000D02*
X12380000Y-9440000D01*
X12380000Y-9440000D02*
G75*
G03*
X12380000Y-9340000I0J50000D01*
G01*
D15*
X12280000Y-10060000D02*
X12330000Y-10010000D01*
X12280000Y-9960000D01*
X12230000Y-10010000D01*
X12280000Y-10060000D01*
D11*
X12405000Y-9960000D02*
X12155000Y-9960000D01*
X12155000Y-9960000D02*
G75*
G03*
X12155000Y-10060000I0J-50000D01*
G01*
X12155000Y-10060000D02*
X12405000Y-10060000D01*
X12405000Y-10060000D02*
G75*
G03*
X12405000Y-9960000I0J50000D01*
G01*
D16*
X13061000Y-11645000D02*
X13191000Y-11775000D01*
X13191000Y-11645000D02*
X13061000Y-11775000D01*
X13191000Y-11710000D02*
G75*
G03*
X13191000Y-11710000I-65000J0D01*
G01*
X13315000Y-11645000D02*
X13445000Y-11775000D01*
X13445000Y-11645000D02*
X13315000Y-11775000D01*
X13445000Y-11710000D02*
G75*
G03*
X13445000Y-11710000I-65000J0D01*
G01*
X16308000Y-11625000D02*
X16438000Y-11755000D01*
X16438000Y-11625000D02*
X16308000Y-11755000D01*
X16438000Y-11690000D02*
G75*
G03*
X16438000Y-11690000I-65000J0D01*
G01*
X16562000Y-11625000D02*
X16692000Y-11755000D01*
X16692000Y-11625000D02*
X16562000Y-11755000D01*
X16692000Y-11690000D02*
G75*
G03*
X16692000Y-11690000I-65000J0D01*
G01*
D17*
X12045000Y-10865000D02*
X12395000Y-11215000D01*
X12395000Y-10865000D02*
X12045000Y-11215000D01*
X12220000Y-10865000D02*
X12220000Y-11215000D01*
X12045000Y-11040000D02*
X12395000Y-11040000D01*
X16350615Y-10419385D02*
X16700615Y-10769385D01*
X16700615Y-10419385D02*
X16350615Y-10769385D01*
X16525615Y-10419385D02*
X16525615Y-10769385D01*
X16350615Y-10594385D02*
X16700615Y-10594385D01*
D11*
X11908277Y-12480594D02*
X11908277Y-12280594D01*
X11908277Y-12280594D02*
X11955896Y-12280594D01*
X11955896Y-12280594D02*
X11984467Y-12290118D01*
X11984467Y-12290118D02*
X12003515Y-12309165D01*
X12003515Y-12309165D02*
X12013039Y-12328213D01*
X12013039Y-12328213D02*
X12022562Y-12366308D01*
X12022562Y-12366308D02*
X12022562Y-12394879D01*
X12022562Y-12394879D02*
X12013039Y-12432975D01*
X12013039Y-12432975D02*
X12003515Y-12452022D01*
X12003515Y-12452022D02*
X11984467Y-12471070D01*
X11984467Y-12471070D02*
X11955896Y-12480594D01*
X11955896Y-12480594D02*
X11908277Y-12480594D01*
X12108277Y-12480594D02*
X12108277Y-12347260D01*
X12108277Y-12385356D02*
X12117801Y-12366308D01*
X12117801Y-12366308D02*
X12127324Y-12356784D01*
X12127324Y-12356784D02*
X12146372Y-12347260D01*
X12146372Y-12347260D02*
X12165420Y-12347260D01*
X12232086Y-12480594D02*
X12232086Y-12347260D01*
X12232086Y-12280594D02*
X12222562Y-12290118D01*
X12222562Y-12290118D02*
X12232086Y-12299641D01*
X12232086Y-12299641D02*
X12241610Y-12290118D01*
X12241610Y-12290118D02*
X12232086Y-12280594D01*
X12232086Y-12280594D02*
X12232086Y-12299641D01*
X12355896Y-12480594D02*
X12336848Y-12471070D01*
X12336848Y-12471070D02*
X12327324Y-12452022D01*
X12327324Y-12452022D02*
X12327324Y-12280594D01*
X12460658Y-12480594D02*
X12441610Y-12471070D01*
X12441610Y-12471070D02*
X12432086Y-12452022D01*
X12432086Y-12452022D02*
X12432086Y-12280594D01*
X12689229Y-12480594D02*
X12689229Y-12280594D01*
X12689229Y-12280594D02*
X12755896Y-12423451D01*
X12755896Y-12423451D02*
X12822562Y-12280594D01*
X12822562Y-12280594D02*
X12822562Y-12480594D01*
X13003515Y-12480594D02*
X13003515Y-12375832D01*
X13003515Y-12375832D02*
X12993991Y-12356784D01*
X12993991Y-12356784D02*
X12974943Y-12347260D01*
X12974943Y-12347260D02*
X12936848Y-12347260D01*
X12936848Y-12347260D02*
X12917801Y-12356784D01*
X13003515Y-12471070D02*
X12984467Y-12480594D01*
X12984467Y-12480594D02*
X12936848Y-12480594D01*
X12936848Y-12480594D02*
X12917801Y-12471070D01*
X12917801Y-12471070D02*
X12908277Y-12452022D01*
X12908277Y-12452022D02*
X12908277Y-12432975D01*
X12908277Y-12432975D02*
X12917801Y-12413927D01*
X12917801Y-12413927D02*
X12936848Y-12404403D01*
X12936848Y-12404403D02*
X12984467Y-12404403D01*
X12984467Y-12404403D02*
X13003515Y-12394879D01*
X13098753Y-12347260D02*
X13098753Y-12547260D01*
X13098753Y-12356784D02*
X13117801Y-12347260D01*
X13117801Y-12347260D02*
X13155896Y-12347260D01*
X13155896Y-12347260D02*
X13174943Y-12356784D01*
X13174943Y-12356784D02*
X13184467Y-12366308D01*
X13184467Y-12366308D02*
X13193991Y-12385356D01*
X13193991Y-12385356D02*
X13193991Y-12442498D01*
X13193991Y-12442498D02*
X13184467Y-12461546D01*
X13184467Y-12461546D02*
X13174943Y-12471070D01*
X13174943Y-12471070D02*
X13155896Y-12480594D01*
X13155896Y-12480594D02*
X13117801Y-12480594D01*
X13117801Y-12480594D02*
X13098753Y-12471070D01*
X13279705Y-12461546D02*
X13289229Y-12471070D01*
X13289229Y-12471070D02*
X13279705Y-12480594D01*
X13279705Y-12480594D02*
X13270182Y-12471070D01*
X13270182Y-12471070D02*
X13279705Y-12461546D01*
X13279705Y-12461546D02*
X13279705Y-12480594D01*
X13279705Y-12356784D02*
X13289229Y-12366308D01*
X13289229Y-12366308D02*
X13279705Y-12375832D01*
X13279705Y-12375832D02*
X13270182Y-12366308D01*
X13270182Y-12366308D02*
X13279705Y-12356784D01*
X13279705Y-12356784D02*
X13279705Y-12375832D01*
D12*
X11607500Y-12789110D02*
X11647500Y-12829110D01*
X11647500Y-12789110D02*
X11607500Y-12829110D01*
D11*
X11946372Y-12700594D02*
X11965420Y-12700594D01*
X11965420Y-12700594D02*
X11984467Y-12710118D01*
X11984467Y-12710118D02*
X11993991Y-12719641D01*
X11993991Y-12719641D02*
X12003515Y-12738689D01*
X12003515Y-12738689D02*
X12013039Y-12776784D01*
X12013039Y-12776784D02*
X12013039Y-12824403D01*
X12013039Y-12824403D02*
X12003515Y-12862498D01*
X12003515Y-12862498D02*
X11993991Y-12881546D01*
X11993991Y-12881546D02*
X11984467Y-12891070D01*
X11984467Y-12891070D02*
X11965420Y-12900594D01*
X11965420Y-12900594D02*
X11946372Y-12900594D01*
X11946372Y-12900594D02*
X11927324Y-12891070D01*
X11927324Y-12891070D02*
X11917801Y-12881546D01*
X11917801Y-12881546D02*
X11908277Y-12862498D01*
X11908277Y-12862498D02*
X11898753Y-12824403D01*
X11898753Y-12824403D02*
X11898753Y-12776784D01*
X11898753Y-12776784D02*
X11908277Y-12738689D01*
X11908277Y-12738689D02*
X11917801Y-12719641D01*
X11917801Y-12719641D02*
X11927324Y-12710118D01*
X11927324Y-12710118D02*
X11946372Y-12700594D01*
X12098753Y-12881546D02*
X12108277Y-12891070D01*
X12108277Y-12891070D02*
X12098753Y-12900594D01*
X12098753Y-12900594D02*
X12089229Y-12891070D01*
X12089229Y-12891070D02*
X12098753Y-12881546D01*
X12098753Y-12881546D02*
X12098753Y-12900594D01*
X12279705Y-12767260D02*
X12279705Y-12900594D01*
X12232086Y-12691070D02*
X12184467Y-12833927D01*
X12184467Y-12833927D02*
X12308277Y-12833927D01*
X12422562Y-12700594D02*
X12441610Y-12700594D01*
X12441610Y-12700594D02*
X12460658Y-12710118D01*
X12460658Y-12710118D02*
X12470182Y-12719641D01*
X12470182Y-12719641D02*
X12479705Y-12738689D01*
X12479705Y-12738689D02*
X12489229Y-12776784D01*
X12489229Y-12776784D02*
X12489229Y-12824403D01*
X12489229Y-12824403D02*
X12479705Y-12862498D01*
X12479705Y-12862498D02*
X12470182Y-12881546D01*
X12470182Y-12881546D02*
X12460658Y-12891070D01*
X12460658Y-12891070D02*
X12441610Y-12900594D01*
X12441610Y-12900594D02*
X12422562Y-12900594D01*
X12422562Y-12900594D02*
X12403515Y-12891070D01*
X12403515Y-12891070D02*
X12393991Y-12881546D01*
X12393991Y-12881546D02*
X12384467Y-12862498D01*
X12384467Y-12862498D02*
X12374943Y-12824403D01*
X12374943Y-12824403D02*
X12374943Y-12776784D01*
X12374943Y-12776784D02*
X12384467Y-12738689D01*
X12384467Y-12738689D02*
X12393991Y-12719641D01*
X12393991Y-12719641D02*
X12403515Y-12710118D01*
X12403515Y-12710118D02*
X12422562Y-12700594D01*
X12613039Y-12700594D02*
X12632086Y-12700594D01*
X12632086Y-12700594D02*
X12651134Y-12710118D01*
X12651134Y-12710118D02*
X12660658Y-12719641D01*
X12660658Y-12719641D02*
X12670182Y-12738689D01*
X12670182Y-12738689D02*
X12679705Y-12776784D01*
X12679705Y-12776784D02*
X12679705Y-12824403D01*
X12679705Y-12824403D02*
X12670182Y-12862498D01*
X12670182Y-12862498D02*
X12660658Y-12881546D01*
X12660658Y-12881546D02*
X12651134Y-12891070D01*
X12651134Y-12891070D02*
X12632086Y-12900594D01*
X12632086Y-12900594D02*
X12613039Y-12900594D01*
X12613039Y-12900594D02*
X12593991Y-12891070D01*
X12593991Y-12891070D02*
X12584467Y-12881546D01*
X12584467Y-12881546D02*
X12574943Y-12862498D01*
X12574943Y-12862498D02*
X12565420Y-12824403D01*
X12565420Y-12824403D02*
X12565420Y-12776784D01*
X12565420Y-12776784D02*
X12574943Y-12738689D01*
X12574943Y-12738689D02*
X12584467Y-12719641D01*
X12584467Y-12719641D02*
X12593991Y-12710118D01*
X12593991Y-12710118D02*
X12613039Y-12700594D01*
X12765420Y-12900594D02*
X12765420Y-12767260D01*
X12765420Y-12786308D02*
X12774943Y-12776784D01*
X12774943Y-12776784D02*
X12793991Y-12767260D01*
X12793991Y-12767260D02*
X12822563Y-12767260D01*
X12822563Y-12767260D02*
X12841610Y-12776784D01*
X12841610Y-12776784D02*
X12851134Y-12795832D01*
X12851134Y-12795832D02*
X12851134Y-12900594D01*
X12851134Y-12795832D02*
X12860658Y-12776784D01*
X12860658Y-12776784D02*
X12879705Y-12767260D01*
X12879705Y-12767260D02*
X12908277Y-12767260D01*
X12908277Y-12767260D02*
X12927324Y-12776784D01*
X12927324Y-12776784D02*
X12936848Y-12795832D01*
X12936848Y-12795832D02*
X12936848Y-12900594D01*
X13032086Y-12900594D02*
X13032086Y-12767260D01*
X13032086Y-12786308D02*
X13041610Y-12776784D01*
X13041610Y-12776784D02*
X13060658Y-12767260D01*
X13060658Y-12767260D02*
X13089229Y-12767260D01*
X13089229Y-12767260D02*
X13108277Y-12776784D01*
X13108277Y-12776784D02*
X13117801Y-12795832D01*
X13117801Y-12795832D02*
X13117801Y-12900594D01*
X13117801Y-12795832D02*
X13127324Y-12776784D01*
X13127324Y-12776784D02*
X13146372Y-12767260D01*
X13146372Y-12767260D02*
X13174943Y-12767260D01*
X13174943Y-12767260D02*
X13193991Y-12776784D01*
X13193991Y-12776784D02*
X13203515Y-12795832D01*
X13203515Y-12795832D02*
X13203515Y-12900594D01*
X13593991Y-12691070D02*
X13422563Y-12948213D01*
X13851134Y-12700594D02*
X13870182Y-12700594D01*
X13870182Y-12700594D02*
X13889229Y-12710118D01*
X13889229Y-12710118D02*
X13898753Y-12719641D01*
X13898753Y-12719641D02*
X13908277Y-12738689D01*
X13908277Y-12738689D02*
X13917801Y-12776784D01*
X13917801Y-12776784D02*
X13917801Y-12824403D01*
X13917801Y-12824403D02*
X13908277Y-12862498D01*
X13908277Y-12862498D02*
X13898753Y-12881546D01*
X13898753Y-12881546D02*
X13889229Y-12891070D01*
X13889229Y-12891070D02*
X13870182Y-12900594D01*
X13870182Y-12900594D02*
X13851134Y-12900594D01*
X13851134Y-12900594D02*
X13832086Y-12891070D01*
X13832086Y-12891070D02*
X13822563Y-12881546D01*
X13822563Y-12881546D02*
X13813039Y-12862498D01*
X13813039Y-12862498D02*
X13803515Y-12824403D01*
X13803515Y-12824403D02*
X13803515Y-12776784D01*
X13803515Y-12776784D02*
X13813039Y-12738689D01*
X13813039Y-12738689D02*
X13822563Y-12719641D01*
X13822563Y-12719641D02*
X13832086Y-12710118D01*
X13832086Y-12710118D02*
X13851134Y-12700594D01*
X14003515Y-12881546D02*
X14013039Y-12891070D01*
X14013039Y-12891070D02*
X14003515Y-12900594D01*
X14003515Y-12900594D02*
X13993991Y-12891070D01*
X13993991Y-12891070D02*
X14003515Y-12881546D01*
X14003515Y-12881546D02*
X14003515Y-12900594D01*
X14136848Y-12700594D02*
X14155896Y-12700594D01*
X14155896Y-12700594D02*
X14174944Y-12710118D01*
X14174944Y-12710118D02*
X14184467Y-12719641D01*
X14184467Y-12719641D02*
X14193991Y-12738689D01*
X14193991Y-12738689D02*
X14203515Y-12776784D01*
X14203515Y-12776784D02*
X14203515Y-12824403D01*
X14203515Y-12824403D02*
X14193991Y-12862498D01*
X14193991Y-12862498D02*
X14184467Y-12881546D01*
X14184467Y-12881546D02*
X14174944Y-12891070D01*
X14174944Y-12891070D02*
X14155896Y-12900594D01*
X14155896Y-12900594D02*
X14136848Y-12900594D01*
X14136848Y-12900594D02*
X14117801Y-12891070D01*
X14117801Y-12891070D02*
X14108277Y-12881546D01*
X14108277Y-12881546D02*
X14098753Y-12862498D01*
X14098753Y-12862498D02*
X14089229Y-12824403D01*
X14089229Y-12824403D02*
X14089229Y-12776784D01*
X14089229Y-12776784D02*
X14098753Y-12738689D01*
X14098753Y-12738689D02*
X14108277Y-12719641D01*
X14108277Y-12719641D02*
X14117801Y-12710118D01*
X14117801Y-12710118D02*
X14136848Y-12700594D01*
X14393991Y-12900594D02*
X14279706Y-12900594D01*
X14336848Y-12900594D02*
X14336848Y-12700594D01*
X14336848Y-12700594D02*
X14317801Y-12729165D01*
X14317801Y-12729165D02*
X14298753Y-12748213D01*
X14298753Y-12748213D02*
X14279706Y-12757737D01*
X14574944Y-12700594D02*
X14479706Y-12700594D01*
X14479706Y-12700594D02*
X14470182Y-12795832D01*
X14470182Y-12795832D02*
X14479706Y-12786308D01*
X14479706Y-12786308D02*
X14498753Y-12776784D01*
X14498753Y-12776784D02*
X14546372Y-12776784D01*
X14546372Y-12776784D02*
X14565420Y-12786308D01*
X14565420Y-12786308D02*
X14574944Y-12795832D01*
X14574944Y-12795832D02*
X14584467Y-12814879D01*
X14584467Y-12814879D02*
X14584467Y-12862498D01*
X14584467Y-12862498D02*
X14574944Y-12881546D01*
X14574944Y-12881546D02*
X14565420Y-12891070D01*
X14565420Y-12891070D02*
X14546372Y-12900594D01*
X14546372Y-12900594D02*
X14498753Y-12900594D01*
X14498753Y-12900594D02*
X14479706Y-12891070D01*
X14479706Y-12891070D02*
X14470182Y-12881546D01*
X14651134Y-12700594D02*
X14784467Y-12700594D01*
X14784467Y-12700594D02*
X14698753Y-12900594D01*
X14851134Y-12700594D02*
X14851134Y-12738689D01*
X14927325Y-12700594D02*
X14927325Y-12738689D01*
X15222563Y-12976784D02*
X15213039Y-12967260D01*
X15213039Y-12967260D02*
X15193991Y-12938689D01*
X15193991Y-12938689D02*
X15184468Y-12919641D01*
X15184468Y-12919641D02*
X15174944Y-12891070D01*
X15174944Y-12891070D02*
X15165420Y-12843451D01*
X15165420Y-12843451D02*
X15165420Y-12805356D01*
X15165420Y-12805356D02*
X15174944Y-12757737D01*
X15174944Y-12757737D02*
X15184468Y-12729165D01*
X15184468Y-12729165D02*
X15193991Y-12710118D01*
X15193991Y-12710118D02*
X15213039Y-12681546D01*
X15213039Y-12681546D02*
X15222563Y-12672022D01*
X15279706Y-12700594D02*
X15403515Y-12700594D01*
X15403515Y-12700594D02*
X15336848Y-12776784D01*
X15336848Y-12776784D02*
X15365420Y-12776784D01*
X15365420Y-12776784D02*
X15384468Y-12786308D01*
X15384468Y-12786308D02*
X15393991Y-12795832D01*
X15393991Y-12795832D02*
X15403515Y-12814879D01*
X15403515Y-12814879D02*
X15403515Y-12862498D01*
X15403515Y-12862498D02*
X15393991Y-12881546D01*
X15393991Y-12881546D02*
X15384468Y-12891070D01*
X15384468Y-12891070D02*
X15365420Y-12900594D01*
X15365420Y-12900594D02*
X15308277Y-12900594D01*
X15308277Y-12900594D02*
X15289229Y-12891070D01*
X15289229Y-12891070D02*
X15279706Y-12881546D01*
X15641610Y-12900594D02*
X15641610Y-12700594D01*
X15727325Y-12900594D02*
X15727325Y-12795832D01*
X15727325Y-12795832D02*
X15717801Y-12776784D01*
X15717801Y-12776784D02*
X15698753Y-12767260D01*
X15698753Y-12767260D02*
X15670182Y-12767260D01*
X15670182Y-12767260D02*
X15651134Y-12776784D01*
X15651134Y-12776784D02*
X15641610Y-12786308D01*
X15851134Y-12900594D02*
X15832087Y-12891070D01*
X15832087Y-12891070D02*
X15822563Y-12881546D01*
X15822563Y-12881546D02*
X15813039Y-12862498D01*
X15813039Y-12862498D02*
X15813039Y-12805356D01*
X15813039Y-12805356D02*
X15822563Y-12786308D01*
X15822563Y-12786308D02*
X15832087Y-12776784D01*
X15832087Y-12776784D02*
X15851134Y-12767260D01*
X15851134Y-12767260D02*
X15879706Y-12767260D01*
X15879706Y-12767260D02*
X15898753Y-12776784D01*
X15898753Y-12776784D02*
X15908277Y-12786308D01*
X15908277Y-12786308D02*
X15917801Y-12805356D01*
X15917801Y-12805356D02*
X15917801Y-12862498D01*
X15917801Y-12862498D02*
X15908277Y-12881546D01*
X15908277Y-12881546D02*
X15898753Y-12891070D01*
X15898753Y-12891070D02*
X15879706Y-12900594D01*
X15879706Y-12900594D02*
X15851134Y-12900594D01*
X16032087Y-12900594D02*
X16013039Y-12891070D01*
X16013039Y-12891070D02*
X16003515Y-12872022D01*
X16003515Y-12872022D02*
X16003515Y-12700594D01*
X16184468Y-12891070D02*
X16165420Y-12900594D01*
X16165420Y-12900594D02*
X16127325Y-12900594D01*
X16127325Y-12900594D02*
X16108277Y-12891070D01*
X16108277Y-12891070D02*
X16098753Y-12872022D01*
X16098753Y-12872022D02*
X16098753Y-12795832D01*
X16098753Y-12795832D02*
X16108277Y-12776784D01*
X16108277Y-12776784D02*
X16127325Y-12767260D01*
X16127325Y-12767260D02*
X16165420Y-12767260D01*
X16165420Y-12767260D02*
X16184468Y-12776784D01*
X16184468Y-12776784D02*
X16193991Y-12795832D01*
X16193991Y-12795832D02*
X16193991Y-12814879D01*
X16193991Y-12814879D02*
X16098753Y-12833927D01*
X16270182Y-12891070D02*
X16289230Y-12900594D01*
X16289230Y-12900594D02*
X16327325Y-12900594D01*
X16327325Y-12900594D02*
X16346372Y-12891070D01*
X16346372Y-12891070D02*
X16355896Y-12872022D01*
X16355896Y-12872022D02*
X16355896Y-12862498D01*
X16355896Y-12862498D02*
X16346372Y-12843451D01*
X16346372Y-12843451D02*
X16327325Y-12833927D01*
X16327325Y-12833927D02*
X16298753Y-12833927D01*
X16298753Y-12833927D02*
X16279706Y-12824403D01*
X16279706Y-12824403D02*
X16270182Y-12805356D01*
X16270182Y-12805356D02*
X16270182Y-12795832D01*
X16270182Y-12795832D02*
X16279706Y-12776784D01*
X16279706Y-12776784D02*
X16298753Y-12767260D01*
X16298753Y-12767260D02*
X16327325Y-12767260D01*
X16327325Y-12767260D02*
X16346372Y-12776784D01*
X16422563Y-12976784D02*
X16432087Y-12967260D01*
X16432087Y-12967260D02*
X16451134Y-12938689D01*
X16451134Y-12938689D02*
X16460658Y-12919641D01*
X16460658Y-12919641D02*
X16470182Y-12891070D01*
X16470182Y-12891070D02*
X16479706Y-12843451D01*
X16479706Y-12843451D02*
X16479706Y-12805356D01*
X16479706Y-12805356D02*
X16470182Y-12757737D01*
X16470182Y-12757737D02*
X16460658Y-12729165D01*
X16460658Y-12729165D02*
X16451134Y-12710118D01*
X16451134Y-12710118D02*
X16432087Y-12681546D01*
X16432087Y-12681546D02*
X16422563Y-12672022D01*
D10*
X11647500Y-13073110D02*
G75*
G03*
X11647500Y-13073110I-25000J0D01*
G01*
D11*
X11946372Y-12964594D02*
X11965420Y-12964594D01*
X11965420Y-12964594D02*
X11984467Y-12974118D01*
X11984467Y-12974118D02*
X11993991Y-12983641D01*
X11993991Y-12983641D02*
X12003515Y-13002689D01*
X12003515Y-13002689D02*
X12013039Y-13040784D01*
X12013039Y-13040784D02*
X12013039Y-13088403D01*
X12013039Y-13088403D02*
X12003515Y-13126498D01*
X12003515Y-13126498D02*
X11993991Y-13145546D01*
X11993991Y-13145546D02*
X11984467Y-13155070D01*
X11984467Y-13155070D02*
X11965420Y-13164594D01*
X11965420Y-13164594D02*
X11946372Y-13164594D01*
X11946372Y-13164594D02*
X11927324Y-13155070D01*
X11927324Y-13155070D02*
X11917801Y-13145546D01*
X11917801Y-13145546D02*
X11908277Y-13126498D01*
X11908277Y-13126498D02*
X11898753Y-13088403D01*
X11898753Y-13088403D02*
X11898753Y-13040784D01*
X11898753Y-13040784D02*
X11908277Y-13002689D01*
X11908277Y-13002689D02*
X11917801Y-12983641D01*
X11917801Y-12983641D02*
X11927324Y-12974118D01*
X11927324Y-12974118D02*
X11946372Y-12964594D01*
X12098753Y-13145546D02*
X12108277Y-13155070D01*
X12108277Y-13155070D02*
X12098753Y-13164594D01*
X12098753Y-13164594D02*
X12089229Y-13155070D01*
X12089229Y-13155070D02*
X12098753Y-13145546D01*
X12098753Y-13145546D02*
X12098753Y-13164594D01*
X12289229Y-12964594D02*
X12193991Y-12964594D01*
X12193991Y-12964594D02*
X12184467Y-13059832D01*
X12184467Y-13059832D02*
X12193991Y-13050308D01*
X12193991Y-13050308D02*
X12213039Y-13040784D01*
X12213039Y-13040784D02*
X12260658Y-13040784D01*
X12260658Y-13040784D02*
X12279705Y-13050308D01*
X12279705Y-13050308D02*
X12289229Y-13059832D01*
X12289229Y-13059832D02*
X12298753Y-13078879D01*
X12298753Y-13078879D02*
X12298753Y-13126498D01*
X12298753Y-13126498D02*
X12289229Y-13145546D01*
X12289229Y-13145546D02*
X12279705Y-13155070D01*
X12279705Y-13155070D02*
X12260658Y-13164594D01*
X12260658Y-13164594D02*
X12213039Y-13164594D01*
X12213039Y-13164594D02*
X12193991Y-13155070D01*
X12193991Y-13155070D02*
X12184467Y-13145546D01*
X12422562Y-12964594D02*
X12441610Y-12964594D01*
X12441610Y-12964594D02*
X12460658Y-12974118D01*
X12460658Y-12974118D02*
X12470182Y-12983641D01*
X12470182Y-12983641D02*
X12479705Y-13002689D01*
X12479705Y-13002689D02*
X12489229Y-13040784D01*
X12489229Y-13040784D02*
X12489229Y-13088403D01*
X12489229Y-13088403D02*
X12479705Y-13126498D01*
X12479705Y-13126498D02*
X12470182Y-13145546D01*
X12470182Y-13145546D02*
X12460658Y-13155070D01*
X12460658Y-13155070D02*
X12441610Y-13164594D01*
X12441610Y-13164594D02*
X12422562Y-13164594D01*
X12422562Y-13164594D02*
X12403515Y-13155070D01*
X12403515Y-13155070D02*
X12393991Y-13145546D01*
X12393991Y-13145546D02*
X12384467Y-13126498D01*
X12384467Y-13126498D02*
X12374943Y-13088403D01*
X12374943Y-13088403D02*
X12374943Y-13040784D01*
X12374943Y-13040784D02*
X12384467Y-13002689D01*
X12384467Y-13002689D02*
X12393991Y-12983641D01*
X12393991Y-12983641D02*
X12403515Y-12974118D01*
X12403515Y-12974118D02*
X12422562Y-12964594D01*
X12613039Y-12964594D02*
X12632086Y-12964594D01*
X12632086Y-12964594D02*
X12651134Y-12974118D01*
X12651134Y-12974118D02*
X12660658Y-12983641D01*
X12660658Y-12983641D02*
X12670182Y-13002689D01*
X12670182Y-13002689D02*
X12679705Y-13040784D01*
X12679705Y-13040784D02*
X12679705Y-13088403D01*
X12679705Y-13088403D02*
X12670182Y-13126498D01*
X12670182Y-13126498D02*
X12660658Y-13145546D01*
X12660658Y-13145546D02*
X12651134Y-13155070D01*
X12651134Y-13155070D02*
X12632086Y-13164594D01*
X12632086Y-13164594D02*
X12613039Y-13164594D01*
X12613039Y-13164594D02*
X12593991Y-13155070D01*
X12593991Y-13155070D02*
X12584467Y-13145546D01*
X12584467Y-13145546D02*
X12574943Y-13126498D01*
X12574943Y-13126498D02*
X12565420Y-13088403D01*
X12565420Y-13088403D02*
X12565420Y-13040784D01*
X12565420Y-13040784D02*
X12574943Y-13002689D01*
X12574943Y-13002689D02*
X12584467Y-12983641D01*
X12584467Y-12983641D02*
X12593991Y-12974118D01*
X12593991Y-12974118D02*
X12613039Y-12964594D01*
X12765420Y-13164594D02*
X12765420Y-13031260D01*
X12765420Y-13050308D02*
X12774943Y-13040784D01*
X12774943Y-13040784D02*
X12793991Y-13031260D01*
X12793991Y-13031260D02*
X12822563Y-13031260D01*
X12822563Y-13031260D02*
X12841610Y-13040784D01*
X12841610Y-13040784D02*
X12851134Y-13059832D01*
X12851134Y-13059832D02*
X12851134Y-13164594D01*
X12851134Y-13059832D02*
X12860658Y-13040784D01*
X12860658Y-13040784D02*
X12879705Y-13031260D01*
X12879705Y-13031260D02*
X12908277Y-13031260D01*
X12908277Y-13031260D02*
X12927324Y-13040784D01*
X12927324Y-13040784D02*
X12936848Y-13059832D01*
X12936848Y-13059832D02*
X12936848Y-13164594D01*
X13032086Y-13164594D02*
X13032086Y-13031260D01*
X13032086Y-13050308D02*
X13041610Y-13040784D01*
X13041610Y-13040784D02*
X13060658Y-13031260D01*
X13060658Y-13031260D02*
X13089229Y-13031260D01*
X13089229Y-13031260D02*
X13108277Y-13040784D01*
X13108277Y-13040784D02*
X13117801Y-13059832D01*
X13117801Y-13059832D02*
X13117801Y-13164594D01*
X13117801Y-13059832D02*
X13127324Y-13040784D01*
X13127324Y-13040784D02*
X13146372Y-13031260D01*
X13146372Y-13031260D02*
X13174943Y-13031260D01*
X13174943Y-13031260D02*
X13193991Y-13040784D01*
X13193991Y-13040784D02*
X13203515Y-13059832D01*
X13203515Y-13059832D02*
X13203515Y-13164594D01*
X13593991Y-12955070D02*
X13422563Y-13212213D01*
X13851134Y-12964594D02*
X13870182Y-12964594D01*
X13870182Y-12964594D02*
X13889229Y-12974118D01*
X13889229Y-12974118D02*
X13898753Y-12983641D01*
X13898753Y-12983641D02*
X13908277Y-13002689D01*
X13908277Y-13002689D02*
X13917801Y-13040784D01*
X13917801Y-13040784D02*
X13917801Y-13088403D01*
X13917801Y-13088403D02*
X13908277Y-13126498D01*
X13908277Y-13126498D02*
X13898753Y-13145546D01*
X13898753Y-13145546D02*
X13889229Y-13155070D01*
X13889229Y-13155070D02*
X13870182Y-13164594D01*
X13870182Y-13164594D02*
X13851134Y-13164594D01*
X13851134Y-13164594D02*
X13832086Y-13155070D01*
X13832086Y-13155070D02*
X13822563Y-13145546D01*
X13822563Y-13145546D02*
X13813039Y-13126498D01*
X13813039Y-13126498D02*
X13803515Y-13088403D01*
X13803515Y-13088403D02*
X13803515Y-13040784D01*
X13803515Y-13040784D02*
X13813039Y-13002689D01*
X13813039Y-13002689D02*
X13822563Y-12983641D01*
X13822563Y-12983641D02*
X13832086Y-12974118D01*
X13832086Y-12974118D02*
X13851134Y-12964594D01*
X14003515Y-13145546D02*
X14013039Y-13155070D01*
X14013039Y-13155070D02*
X14003515Y-13164594D01*
X14003515Y-13164594D02*
X13993991Y-13155070D01*
X13993991Y-13155070D02*
X14003515Y-13145546D01*
X14003515Y-13145546D02*
X14003515Y-13164594D01*
X14136848Y-12964594D02*
X14155896Y-12964594D01*
X14155896Y-12964594D02*
X14174944Y-12974118D01*
X14174944Y-12974118D02*
X14184467Y-12983641D01*
X14184467Y-12983641D02*
X14193991Y-13002689D01*
X14193991Y-13002689D02*
X14203515Y-13040784D01*
X14203515Y-13040784D02*
X14203515Y-13088403D01*
X14203515Y-13088403D02*
X14193991Y-13126498D01*
X14193991Y-13126498D02*
X14184467Y-13145546D01*
X14184467Y-13145546D02*
X14174944Y-13155070D01*
X14174944Y-13155070D02*
X14155896Y-13164594D01*
X14155896Y-13164594D02*
X14136848Y-13164594D01*
X14136848Y-13164594D02*
X14117801Y-13155070D01*
X14117801Y-13155070D02*
X14108277Y-13145546D01*
X14108277Y-13145546D02*
X14098753Y-13126498D01*
X14098753Y-13126498D02*
X14089229Y-13088403D01*
X14089229Y-13088403D02*
X14089229Y-13040784D01*
X14089229Y-13040784D02*
X14098753Y-13002689D01*
X14098753Y-13002689D02*
X14108277Y-12983641D01*
X14108277Y-12983641D02*
X14117801Y-12974118D01*
X14117801Y-12974118D02*
X14136848Y-12964594D01*
X14393991Y-13164594D02*
X14279706Y-13164594D01*
X14336848Y-13164594D02*
X14336848Y-12964594D01*
X14336848Y-12964594D02*
X14317801Y-12993165D01*
X14317801Y-12993165D02*
X14298753Y-13012213D01*
X14298753Y-13012213D02*
X14279706Y-13021737D01*
X14489229Y-13164594D02*
X14527325Y-13164594D01*
X14527325Y-13164594D02*
X14546372Y-13155070D01*
X14546372Y-13155070D02*
X14555896Y-13145546D01*
X14555896Y-13145546D02*
X14574944Y-13116975D01*
X14574944Y-13116975D02*
X14584467Y-13078879D01*
X14584467Y-13078879D02*
X14584467Y-13002689D01*
X14584467Y-13002689D02*
X14574944Y-12983641D01*
X14574944Y-12983641D02*
X14565420Y-12974118D01*
X14565420Y-12974118D02*
X14546372Y-12964594D01*
X14546372Y-12964594D02*
X14508277Y-12964594D01*
X14508277Y-12964594D02*
X14489229Y-12974118D01*
X14489229Y-12974118D02*
X14479706Y-12983641D01*
X14479706Y-12983641D02*
X14470182Y-13002689D01*
X14470182Y-13002689D02*
X14470182Y-13050308D01*
X14470182Y-13050308D02*
X14479706Y-13069356D01*
X14479706Y-13069356D02*
X14489229Y-13078879D01*
X14489229Y-13078879D02*
X14508277Y-13088403D01*
X14508277Y-13088403D02*
X14546372Y-13088403D01*
X14546372Y-13088403D02*
X14565420Y-13078879D01*
X14565420Y-13078879D02*
X14574944Y-13069356D01*
X14574944Y-13069356D02*
X14584467Y-13050308D01*
X14651134Y-12964594D02*
X14784467Y-12964594D01*
X14784467Y-12964594D02*
X14698753Y-13164594D01*
X14851134Y-12964594D02*
X14851134Y-13002689D01*
X14927325Y-12964594D02*
X14927325Y-13002689D01*
X15222563Y-13240784D02*
X15213039Y-13231260D01*
X15213039Y-13231260D02*
X15193991Y-13202689D01*
X15193991Y-13202689D02*
X15184468Y-13183641D01*
X15184468Y-13183641D02*
X15174944Y-13155070D01*
X15174944Y-13155070D02*
X15165420Y-13107451D01*
X15165420Y-13107451D02*
X15165420Y-13069356D01*
X15165420Y-13069356D02*
X15174944Y-13021737D01*
X15174944Y-13021737D02*
X15184468Y-12993165D01*
X15184468Y-12993165D02*
X15193991Y-12974118D01*
X15193991Y-12974118D02*
X15213039Y-12945546D01*
X15213039Y-12945546D02*
X15222563Y-12936022D01*
X15403515Y-13164594D02*
X15289229Y-13164594D01*
X15346372Y-13164594D02*
X15346372Y-12964594D01*
X15346372Y-12964594D02*
X15327325Y-12993165D01*
X15327325Y-12993165D02*
X15308277Y-13012213D01*
X15308277Y-13012213D02*
X15289229Y-13021737D01*
X15574944Y-12964594D02*
X15536848Y-12964594D01*
X15536848Y-12964594D02*
X15517801Y-12974118D01*
X15517801Y-12974118D02*
X15508277Y-12983641D01*
X15508277Y-12983641D02*
X15489229Y-13012213D01*
X15489229Y-13012213D02*
X15479706Y-13050308D01*
X15479706Y-13050308D02*
X15479706Y-13126498D01*
X15479706Y-13126498D02*
X15489229Y-13145546D01*
X15489229Y-13145546D02*
X15498753Y-13155070D01*
X15498753Y-13155070D02*
X15517801Y-13164594D01*
X15517801Y-13164594D02*
X15555896Y-13164594D01*
X15555896Y-13164594D02*
X15574944Y-13155070D01*
X15574944Y-13155070D02*
X15584468Y-13145546D01*
X15584468Y-13145546D02*
X15593991Y-13126498D01*
X15593991Y-13126498D02*
X15593991Y-13078879D01*
X15593991Y-13078879D02*
X15584468Y-13059832D01*
X15584468Y-13059832D02*
X15574944Y-13050308D01*
X15574944Y-13050308D02*
X15555896Y-13040784D01*
X15555896Y-13040784D02*
X15517801Y-13040784D01*
X15517801Y-13040784D02*
X15498753Y-13050308D01*
X15498753Y-13050308D02*
X15489229Y-13059832D01*
X15489229Y-13059832D02*
X15479706Y-13078879D01*
X15832087Y-13164594D02*
X15832087Y-12964594D01*
X15917801Y-13164594D02*
X15917801Y-13059832D01*
X15917801Y-13059832D02*
X15908277Y-13040784D01*
X15908277Y-13040784D02*
X15889230Y-13031260D01*
X15889230Y-13031260D02*
X15860658Y-13031260D01*
X15860658Y-13031260D02*
X15841610Y-13040784D01*
X15841610Y-13040784D02*
X15832087Y-13050308D01*
X16041610Y-13164594D02*
X16022563Y-13155070D01*
X16022563Y-13155070D02*
X16013039Y-13145546D01*
X16013039Y-13145546D02*
X16003515Y-13126498D01*
X16003515Y-13126498D02*
X16003515Y-13069356D01*
X16003515Y-13069356D02*
X16013039Y-13050308D01*
X16013039Y-13050308D02*
X16022563Y-13040784D01*
X16022563Y-13040784D02*
X16041610Y-13031260D01*
X16041610Y-13031260D02*
X16070182Y-13031260D01*
X16070182Y-13031260D02*
X16089230Y-13040784D01*
X16089230Y-13040784D02*
X16098753Y-13050308D01*
X16098753Y-13050308D02*
X16108277Y-13069356D01*
X16108277Y-13069356D02*
X16108277Y-13126498D01*
X16108277Y-13126498D02*
X16098753Y-13145546D01*
X16098753Y-13145546D02*
X16089230Y-13155070D01*
X16089230Y-13155070D02*
X16070182Y-13164594D01*
X16070182Y-13164594D02*
X16041610Y-13164594D01*
X16222563Y-13164594D02*
X16203515Y-13155070D01*
X16203515Y-13155070D02*
X16193991Y-13136022D01*
X16193991Y-13136022D02*
X16193991Y-12964594D01*
X16374944Y-13155070D02*
X16355896Y-13164594D01*
X16355896Y-13164594D02*
X16317801Y-13164594D01*
X16317801Y-13164594D02*
X16298753Y-13155070D01*
X16298753Y-13155070D02*
X16289230Y-13136022D01*
X16289230Y-13136022D02*
X16289230Y-13059832D01*
X16289230Y-13059832D02*
X16298753Y-13040784D01*
X16298753Y-13040784D02*
X16317801Y-13031260D01*
X16317801Y-13031260D02*
X16355896Y-13031260D01*
X16355896Y-13031260D02*
X16374944Y-13040784D01*
X16374944Y-13040784D02*
X16384468Y-13059832D01*
X16384468Y-13059832D02*
X16384468Y-13078879D01*
X16384468Y-13078879D02*
X16289230Y-13097927D01*
X16460658Y-13155070D02*
X16479706Y-13164594D01*
X16479706Y-13164594D02*
X16517801Y-13164594D01*
X16517801Y-13164594D02*
X16536849Y-13155070D01*
X16536849Y-13155070D02*
X16546372Y-13136022D01*
X16546372Y-13136022D02*
X16546372Y-13126498D01*
X16546372Y-13126498D02*
X16536849Y-13107451D01*
X16536849Y-13107451D02*
X16517801Y-13097927D01*
X16517801Y-13097927D02*
X16489230Y-13097927D01*
X16489230Y-13097927D02*
X16470182Y-13088403D01*
X16470182Y-13088403D02*
X16460658Y-13069356D01*
X16460658Y-13069356D02*
X16460658Y-13059832D01*
X16460658Y-13059832D02*
X16470182Y-13040784D01*
X16470182Y-13040784D02*
X16489230Y-13031260D01*
X16489230Y-13031260D02*
X16517801Y-13031260D01*
X16517801Y-13031260D02*
X16536849Y-13040784D01*
X16613039Y-13240784D02*
X16622563Y-13231260D01*
X16622563Y-13231260D02*
X16641611Y-13202689D01*
X16641611Y-13202689D02*
X16651134Y-13183641D01*
X16651134Y-13183641D02*
X16660658Y-13155070D01*
X16660658Y-13155070D02*
X16670182Y-13107451D01*
X16670182Y-13107451D02*
X16670182Y-13069356D01*
X16670182Y-13069356D02*
X16660658Y-13021737D01*
X16660658Y-13021737D02*
X16651134Y-12993165D01*
X16651134Y-12993165D02*
X16641611Y-12974118D01*
X16641611Y-12974118D02*
X16622563Y-12945546D01*
X16622563Y-12945546D02*
X16613039Y-12936022D01*
D13*
X11617500Y-13307110D02*
X11617500Y-13367110D01*
X11587500Y-13337110D02*
X11647500Y-13337110D01*
D11*
X11946372Y-13228594D02*
X11965420Y-13228594D01*
X11965420Y-13228594D02*
X11984467Y-13238118D01*
X11984467Y-13238118D02*
X11993991Y-13247641D01*
X11993991Y-13247641D02*
X12003515Y-13266689D01*
X12003515Y-13266689D02*
X12013039Y-13304784D01*
X12013039Y-13304784D02*
X12013039Y-13352403D01*
X12013039Y-13352403D02*
X12003515Y-13390498D01*
X12003515Y-13390498D02*
X11993991Y-13409546D01*
X11993991Y-13409546D02*
X11984467Y-13419070D01*
X11984467Y-13419070D02*
X11965420Y-13428594D01*
X11965420Y-13428594D02*
X11946372Y-13428594D01*
X11946372Y-13428594D02*
X11927324Y-13419070D01*
X11927324Y-13419070D02*
X11917801Y-13409546D01*
X11917801Y-13409546D02*
X11908277Y-13390498D01*
X11908277Y-13390498D02*
X11898753Y-13352403D01*
X11898753Y-13352403D02*
X11898753Y-13304784D01*
X11898753Y-13304784D02*
X11908277Y-13266689D01*
X11908277Y-13266689D02*
X11917801Y-13247641D01*
X11917801Y-13247641D02*
X11927324Y-13238118D01*
X11927324Y-13238118D02*
X11946372Y-13228594D01*
X12098753Y-13409546D02*
X12108277Y-13419070D01*
X12108277Y-13419070D02*
X12098753Y-13428594D01*
X12098753Y-13428594D02*
X12089229Y-13419070D01*
X12089229Y-13419070D02*
X12098753Y-13409546D01*
X12098753Y-13409546D02*
X12098753Y-13428594D01*
X12279705Y-13228594D02*
X12241610Y-13228594D01*
X12241610Y-13228594D02*
X12222562Y-13238118D01*
X12222562Y-13238118D02*
X12213039Y-13247641D01*
X12213039Y-13247641D02*
X12193991Y-13276213D01*
X12193991Y-13276213D02*
X12184467Y-13314308D01*
X12184467Y-13314308D02*
X12184467Y-13390498D01*
X12184467Y-13390498D02*
X12193991Y-13409546D01*
X12193991Y-13409546D02*
X12203515Y-13419070D01*
X12203515Y-13419070D02*
X12222562Y-13428594D01*
X12222562Y-13428594D02*
X12260658Y-13428594D01*
X12260658Y-13428594D02*
X12279705Y-13419070D01*
X12279705Y-13419070D02*
X12289229Y-13409546D01*
X12289229Y-13409546D02*
X12298753Y-13390498D01*
X12298753Y-13390498D02*
X12298753Y-13342879D01*
X12298753Y-13342879D02*
X12289229Y-13323832D01*
X12289229Y-13323832D02*
X12279705Y-13314308D01*
X12279705Y-13314308D02*
X12260658Y-13304784D01*
X12260658Y-13304784D02*
X12222562Y-13304784D01*
X12222562Y-13304784D02*
X12203515Y-13314308D01*
X12203515Y-13314308D02*
X12193991Y-13323832D01*
X12193991Y-13323832D02*
X12184467Y-13342879D01*
X12422562Y-13228594D02*
X12441610Y-13228594D01*
X12441610Y-13228594D02*
X12460658Y-13238118D01*
X12460658Y-13238118D02*
X12470182Y-13247641D01*
X12470182Y-13247641D02*
X12479705Y-13266689D01*
X12479705Y-13266689D02*
X12489229Y-13304784D01*
X12489229Y-13304784D02*
X12489229Y-13352403D01*
X12489229Y-13352403D02*
X12479705Y-13390498D01*
X12479705Y-13390498D02*
X12470182Y-13409546D01*
X12470182Y-13409546D02*
X12460658Y-13419070D01*
X12460658Y-13419070D02*
X12441610Y-13428594D01*
X12441610Y-13428594D02*
X12422562Y-13428594D01*
X12422562Y-13428594D02*
X12403515Y-13419070D01*
X12403515Y-13419070D02*
X12393991Y-13409546D01*
X12393991Y-13409546D02*
X12384467Y-13390498D01*
X12384467Y-13390498D02*
X12374943Y-13352403D01*
X12374943Y-13352403D02*
X12374943Y-13304784D01*
X12374943Y-13304784D02*
X12384467Y-13266689D01*
X12384467Y-13266689D02*
X12393991Y-13247641D01*
X12393991Y-13247641D02*
X12403515Y-13238118D01*
X12403515Y-13238118D02*
X12422562Y-13228594D01*
X12613039Y-13228594D02*
X12632086Y-13228594D01*
X12632086Y-13228594D02*
X12651134Y-13238118D01*
X12651134Y-13238118D02*
X12660658Y-13247641D01*
X12660658Y-13247641D02*
X12670182Y-13266689D01*
X12670182Y-13266689D02*
X12679705Y-13304784D01*
X12679705Y-13304784D02*
X12679705Y-13352403D01*
X12679705Y-13352403D02*
X12670182Y-13390498D01*
X12670182Y-13390498D02*
X12660658Y-13409546D01*
X12660658Y-13409546D02*
X12651134Y-13419070D01*
X12651134Y-13419070D02*
X12632086Y-13428594D01*
X12632086Y-13428594D02*
X12613039Y-13428594D01*
X12613039Y-13428594D02*
X12593991Y-13419070D01*
X12593991Y-13419070D02*
X12584467Y-13409546D01*
X12584467Y-13409546D02*
X12574943Y-13390498D01*
X12574943Y-13390498D02*
X12565420Y-13352403D01*
X12565420Y-13352403D02*
X12565420Y-13304784D01*
X12565420Y-13304784D02*
X12574943Y-13266689D01*
X12574943Y-13266689D02*
X12584467Y-13247641D01*
X12584467Y-13247641D02*
X12593991Y-13238118D01*
X12593991Y-13238118D02*
X12613039Y-13228594D01*
X12765420Y-13428594D02*
X12765420Y-13295260D01*
X12765420Y-13314308D02*
X12774943Y-13304784D01*
X12774943Y-13304784D02*
X12793991Y-13295260D01*
X12793991Y-13295260D02*
X12822563Y-13295260D01*
X12822563Y-13295260D02*
X12841610Y-13304784D01*
X12841610Y-13304784D02*
X12851134Y-13323832D01*
X12851134Y-13323832D02*
X12851134Y-13428594D01*
X12851134Y-13323832D02*
X12860658Y-13304784D01*
X12860658Y-13304784D02*
X12879705Y-13295260D01*
X12879705Y-13295260D02*
X12908277Y-13295260D01*
X12908277Y-13295260D02*
X12927324Y-13304784D01*
X12927324Y-13304784D02*
X12936848Y-13323832D01*
X12936848Y-13323832D02*
X12936848Y-13428594D01*
X13032086Y-13428594D02*
X13032086Y-13295260D01*
X13032086Y-13314308D02*
X13041610Y-13304784D01*
X13041610Y-13304784D02*
X13060658Y-13295260D01*
X13060658Y-13295260D02*
X13089229Y-13295260D01*
X13089229Y-13295260D02*
X13108277Y-13304784D01*
X13108277Y-13304784D02*
X13117801Y-13323832D01*
X13117801Y-13323832D02*
X13117801Y-13428594D01*
X13117801Y-13323832D02*
X13127324Y-13304784D01*
X13127324Y-13304784D02*
X13146372Y-13295260D01*
X13146372Y-13295260D02*
X13174943Y-13295260D01*
X13174943Y-13295260D02*
X13193991Y-13304784D01*
X13193991Y-13304784D02*
X13203515Y-13323832D01*
X13203515Y-13323832D02*
X13203515Y-13428594D01*
X13593991Y-13219070D02*
X13422563Y-13476213D01*
X13851134Y-13228594D02*
X13870182Y-13228594D01*
X13870182Y-13228594D02*
X13889229Y-13238118D01*
X13889229Y-13238118D02*
X13898753Y-13247641D01*
X13898753Y-13247641D02*
X13908277Y-13266689D01*
X13908277Y-13266689D02*
X13917801Y-13304784D01*
X13917801Y-13304784D02*
X13917801Y-13352403D01*
X13917801Y-13352403D02*
X13908277Y-13390498D01*
X13908277Y-13390498D02*
X13898753Y-13409546D01*
X13898753Y-13409546D02*
X13889229Y-13419070D01*
X13889229Y-13419070D02*
X13870182Y-13428594D01*
X13870182Y-13428594D02*
X13851134Y-13428594D01*
X13851134Y-13428594D02*
X13832086Y-13419070D01*
X13832086Y-13419070D02*
X13822563Y-13409546D01*
X13822563Y-13409546D02*
X13813039Y-13390498D01*
X13813039Y-13390498D02*
X13803515Y-13352403D01*
X13803515Y-13352403D02*
X13803515Y-13304784D01*
X13803515Y-13304784D02*
X13813039Y-13266689D01*
X13813039Y-13266689D02*
X13822563Y-13247641D01*
X13822563Y-13247641D02*
X13832086Y-13238118D01*
X13832086Y-13238118D02*
X13851134Y-13228594D01*
X14003515Y-13409546D02*
X14013039Y-13419070D01*
X14013039Y-13419070D02*
X14003515Y-13428594D01*
X14003515Y-13428594D02*
X13993991Y-13419070D01*
X13993991Y-13419070D02*
X14003515Y-13409546D01*
X14003515Y-13409546D02*
X14003515Y-13428594D01*
X14136848Y-13228594D02*
X14155896Y-13228594D01*
X14155896Y-13228594D02*
X14174944Y-13238118D01*
X14174944Y-13238118D02*
X14184467Y-13247641D01*
X14184467Y-13247641D02*
X14193991Y-13266689D01*
X14193991Y-13266689D02*
X14203515Y-13304784D01*
X14203515Y-13304784D02*
X14203515Y-13352403D01*
X14203515Y-13352403D02*
X14193991Y-13390498D01*
X14193991Y-13390498D02*
X14184467Y-13409546D01*
X14184467Y-13409546D02*
X14174944Y-13419070D01*
X14174944Y-13419070D02*
X14155896Y-13428594D01*
X14155896Y-13428594D02*
X14136848Y-13428594D01*
X14136848Y-13428594D02*
X14117801Y-13419070D01*
X14117801Y-13419070D02*
X14108277Y-13409546D01*
X14108277Y-13409546D02*
X14098753Y-13390498D01*
X14098753Y-13390498D02*
X14089229Y-13352403D01*
X14089229Y-13352403D02*
X14089229Y-13304784D01*
X14089229Y-13304784D02*
X14098753Y-13266689D01*
X14098753Y-13266689D02*
X14108277Y-13247641D01*
X14108277Y-13247641D02*
X14117801Y-13238118D01*
X14117801Y-13238118D02*
X14136848Y-13228594D01*
X14279706Y-13247641D02*
X14289229Y-13238118D01*
X14289229Y-13238118D02*
X14308277Y-13228594D01*
X14308277Y-13228594D02*
X14355896Y-13228594D01*
X14355896Y-13228594D02*
X14374944Y-13238118D01*
X14374944Y-13238118D02*
X14384467Y-13247641D01*
X14384467Y-13247641D02*
X14393991Y-13266689D01*
X14393991Y-13266689D02*
X14393991Y-13285737D01*
X14393991Y-13285737D02*
X14384467Y-13314308D01*
X14384467Y-13314308D02*
X14270182Y-13428594D01*
X14270182Y-13428594D02*
X14393991Y-13428594D01*
X14460658Y-13228594D02*
X14584467Y-13228594D01*
X14584467Y-13228594D02*
X14517801Y-13304784D01*
X14517801Y-13304784D02*
X14546372Y-13304784D01*
X14546372Y-13304784D02*
X14565420Y-13314308D01*
X14565420Y-13314308D02*
X14574944Y-13323832D01*
X14574944Y-13323832D02*
X14584467Y-13342879D01*
X14584467Y-13342879D02*
X14584467Y-13390498D01*
X14584467Y-13390498D02*
X14574944Y-13409546D01*
X14574944Y-13409546D02*
X14565420Y-13419070D01*
X14565420Y-13419070D02*
X14546372Y-13428594D01*
X14546372Y-13428594D02*
X14489229Y-13428594D01*
X14489229Y-13428594D02*
X14470182Y-13419070D01*
X14470182Y-13419070D02*
X14460658Y-13409546D01*
X14755896Y-13228594D02*
X14717801Y-13228594D01*
X14717801Y-13228594D02*
X14698753Y-13238118D01*
X14698753Y-13238118D02*
X14689229Y-13247641D01*
X14689229Y-13247641D02*
X14670182Y-13276213D01*
X14670182Y-13276213D02*
X14660658Y-13314308D01*
X14660658Y-13314308D02*
X14660658Y-13390498D01*
X14660658Y-13390498D02*
X14670182Y-13409546D01*
X14670182Y-13409546D02*
X14679706Y-13419070D01*
X14679706Y-13419070D02*
X14698753Y-13428594D01*
X14698753Y-13428594D02*
X14736848Y-13428594D01*
X14736848Y-13428594D02*
X14755896Y-13419070D01*
X14755896Y-13419070D02*
X14765420Y-13409546D01*
X14765420Y-13409546D02*
X14774944Y-13390498D01*
X14774944Y-13390498D02*
X14774944Y-13342879D01*
X14774944Y-13342879D02*
X14765420Y-13323832D01*
X14765420Y-13323832D02*
X14755896Y-13314308D01*
X14755896Y-13314308D02*
X14736848Y-13304784D01*
X14736848Y-13304784D02*
X14698753Y-13304784D01*
X14698753Y-13304784D02*
X14679706Y-13314308D01*
X14679706Y-13314308D02*
X14670182Y-13323832D01*
X14670182Y-13323832D02*
X14660658Y-13342879D01*
X14851134Y-13228594D02*
X14851134Y-13266689D01*
X14927325Y-13228594D02*
X14927325Y-13266689D01*
X15222563Y-13504784D02*
X15213039Y-13495260D01*
X15213039Y-13495260D02*
X15193991Y-13466689D01*
X15193991Y-13466689D02*
X15184468Y-13447641D01*
X15184468Y-13447641D02*
X15174944Y-13419070D01*
X15174944Y-13419070D02*
X15165420Y-13371451D01*
X15165420Y-13371451D02*
X15165420Y-13333356D01*
X15165420Y-13333356D02*
X15174944Y-13285737D01*
X15174944Y-13285737D02*
X15184468Y-13257165D01*
X15184468Y-13257165D02*
X15193991Y-13238118D01*
X15193991Y-13238118D02*
X15213039Y-13209546D01*
X15213039Y-13209546D02*
X15222563Y-13200022D01*
X15384468Y-13295260D02*
X15384468Y-13428594D01*
X15336848Y-13219070D02*
X15289229Y-13361927D01*
X15289229Y-13361927D02*
X15413039Y-13361927D01*
X15584468Y-13228594D02*
X15489229Y-13228594D01*
X15489229Y-13228594D02*
X15479706Y-13323832D01*
X15479706Y-13323832D02*
X15489229Y-13314308D01*
X15489229Y-13314308D02*
X15508277Y-13304784D01*
X15508277Y-13304784D02*
X15555896Y-13304784D01*
X15555896Y-13304784D02*
X15574944Y-13314308D01*
X15574944Y-13314308D02*
X15584468Y-13323832D01*
X15584468Y-13323832D02*
X15593991Y-13342879D01*
X15593991Y-13342879D02*
X15593991Y-13390498D01*
X15593991Y-13390498D02*
X15584468Y-13409546D01*
X15584468Y-13409546D02*
X15574944Y-13419070D01*
X15574944Y-13419070D02*
X15555896Y-13428594D01*
X15555896Y-13428594D02*
X15508277Y-13428594D01*
X15508277Y-13428594D02*
X15489229Y-13419070D01*
X15489229Y-13419070D02*
X15479706Y-13409546D01*
X15832087Y-13428594D02*
X15832087Y-13228594D01*
X15917801Y-13428594D02*
X15917801Y-13323832D01*
X15917801Y-13323832D02*
X15908277Y-13304784D01*
X15908277Y-13304784D02*
X15889230Y-13295260D01*
X15889230Y-13295260D02*
X15860658Y-13295260D01*
X15860658Y-13295260D02*
X15841610Y-13304784D01*
X15841610Y-13304784D02*
X15832087Y-13314308D01*
X16041610Y-13428594D02*
X16022563Y-13419070D01*
X16022563Y-13419070D02*
X16013039Y-13409546D01*
X16013039Y-13409546D02*
X16003515Y-13390498D01*
X16003515Y-13390498D02*
X16003515Y-13333356D01*
X16003515Y-13333356D02*
X16013039Y-13314308D01*
X16013039Y-13314308D02*
X16022563Y-13304784D01*
X16022563Y-13304784D02*
X16041610Y-13295260D01*
X16041610Y-13295260D02*
X16070182Y-13295260D01*
X16070182Y-13295260D02*
X16089230Y-13304784D01*
X16089230Y-13304784D02*
X16098753Y-13314308D01*
X16098753Y-13314308D02*
X16108277Y-13333356D01*
X16108277Y-13333356D02*
X16108277Y-13390498D01*
X16108277Y-13390498D02*
X16098753Y-13409546D01*
X16098753Y-13409546D02*
X16089230Y-13419070D01*
X16089230Y-13419070D02*
X16070182Y-13428594D01*
X16070182Y-13428594D02*
X16041610Y-13428594D01*
X16222563Y-13428594D02*
X16203515Y-13419070D01*
X16203515Y-13419070D02*
X16193991Y-13400022D01*
X16193991Y-13400022D02*
X16193991Y-13228594D01*
X16374944Y-13419070D02*
X16355896Y-13428594D01*
X16355896Y-13428594D02*
X16317801Y-13428594D01*
X16317801Y-13428594D02*
X16298753Y-13419070D01*
X16298753Y-13419070D02*
X16289230Y-13400022D01*
X16289230Y-13400022D02*
X16289230Y-13323832D01*
X16289230Y-13323832D02*
X16298753Y-13304784D01*
X16298753Y-13304784D02*
X16317801Y-13295260D01*
X16317801Y-13295260D02*
X16355896Y-13295260D01*
X16355896Y-13295260D02*
X16374944Y-13304784D01*
X16374944Y-13304784D02*
X16384468Y-13323832D01*
X16384468Y-13323832D02*
X16384468Y-13342879D01*
X16384468Y-13342879D02*
X16289230Y-13361927D01*
X16460658Y-13419070D02*
X16479706Y-13428594D01*
X16479706Y-13428594D02*
X16517801Y-13428594D01*
X16517801Y-13428594D02*
X16536849Y-13419070D01*
X16536849Y-13419070D02*
X16546372Y-13400022D01*
X16546372Y-13400022D02*
X16546372Y-13390498D01*
X16546372Y-13390498D02*
X16536849Y-13371451D01*
X16536849Y-13371451D02*
X16517801Y-13361927D01*
X16517801Y-13361927D02*
X16489230Y-13361927D01*
X16489230Y-13361927D02*
X16470182Y-13352403D01*
X16470182Y-13352403D02*
X16460658Y-13333356D01*
X16460658Y-13333356D02*
X16460658Y-13323832D01*
X16460658Y-13323832D02*
X16470182Y-13304784D01*
X16470182Y-13304784D02*
X16489230Y-13295260D01*
X16489230Y-13295260D02*
X16517801Y-13295260D01*
X16517801Y-13295260D02*
X16536849Y-13304784D01*
X16613039Y-13504784D02*
X16622563Y-13495260D01*
X16622563Y-13495260D02*
X16641611Y-13466689D01*
X16641611Y-13466689D02*
X16651134Y-13447641D01*
X16651134Y-13447641D02*
X16660658Y-13419070D01*
X16660658Y-13419070D02*
X16670182Y-13371451D01*
X16670182Y-13371451D02*
X16670182Y-13333356D01*
X16670182Y-13333356D02*
X16660658Y-13285737D01*
X16660658Y-13285737D02*
X16651134Y-13257165D01*
X16651134Y-13257165D02*
X16641611Y-13238118D01*
X16641611Y-13238118D02*
X16622563Y-13209546D01*
X16622563Y-13209546D02*
X16613039Y-13200022D01*
D14*
X11635784Y-13629394D02*
X11635784Y-13572825D01*
X11579215Y-13572825D01*
X11579215Y-13629394D01*
X11635784Y-13629394D01*
D11*
X11946372Y-13492594D02*
X11965420Y-13492594D01*
X11965420Y-13492594D02*
X11984467Y-13502118D01*
X11984467Y-13502118D02*
X11993991Y-13511641D01*
X11993991Y-13511641D02*
X12003515Y-13530689D01*
X12003515Y-13530689D02*
X12013039Y-13568784D01*
X12013039Y-13568784D02*
X12013039Y-13616403D01*
X12013039Y-13616403D02*
X12003515Y-13654498D01*
X12003515Y-13654498D02*
X11993991Y-13673546D01*
X11993991Y-13673546D02*
X11984467Y-13683070D01*
X11984467Y-13683070D02*
X11965420Y-13692594D01*
X11965420Y-13692594D02*
X11946372Y-13692594D01*
X11946372Y-13692594D02*
X11927324Y-13683070D01*
X11927324Y-13683070D02*
X11917801Y-13673546D01*
X11917801Y-13673546D02*
X11908277Y-13654498D01*
X11908277Y-13654498D02*
X11898753Y-13616403D01*
X11898753Y-13616403D02*
X11898753Y-13568784D01*
X11898753Y-13568784D02*
X11908277Y-13530689D01*
X11908277Y-13530689D02*
X11917801Y-13511641D01*
X11917801Y-13511641D02*
X11927324Y-13502118D01*
X11927324Y-13502118D02*
X11946372Y-13492594D01*
X12098753Y-13673546D02*
X12108277Y-13683070D01*
X12108277Y-13683070D02*
X12098753Y-13692594D01*
X12098753Y-13692594D02*
X12089229Y-13683070D01*
X12089229Y-13683070D02*
X12098753Y-13673546D01*
X12098753Y-13673546D02*
X12098753Y-13692594D01*
X12222562Y-13578308D02*
X12203515Y-13568784D01*
X12203515Y-13568784D02*
X12193991Y-13559260D01*
X12193991Y-13559260D02*
X12184467Y-13540213D01*
X12184467Y-13540213D02*
X12184467Y-13530689D01*
X12184467Y-13530689D02*
X12193991Y-13511641D01*
X12193991Y-13511641D02*
X12203515Y-13502118D01*
X12203515Y-13502118D02*
X12222562Y-13492594D01*
X12222562Y-13492594D02*
X12260658Y-13492594D01*
X12260658Y-13492594D02*
X12279705Y-13502118D01*
X12279705Y-13502118D02*
X12289229Y-13511641D01*
X12289229Y-13511641D02*
X12298753Y-13530689D01*
X12298753Y-13530689D02*
X12298753Y-13540213D01*
X12298753Y-13540213D02*
X12289229Y-13559260D01*
X12289229Y-13559260D02*
X12279705Y-13568784D01*
X12279705Y-13568784D02*
X12260658Y-13578308D01*
X12260658Y-13578308D02*
X12222562Y-13578308D01*
X12222562Y-13578308D02*
X12203515Y-13587832D01*
X12203515Y-13587832D02*
X12193991Y-13597356D01*
X12193991Y-13597356D02*
X12184467Y-13616403D01*
X12184467Y-13616403D02*
X12184467Y-13654498D01*
X12184467Y-13654498D02*
X12193991Y-13673546D01*
X12193991Y-13673546D02*
X12203515Y-13683070D01*
X12203515Y-13683070D02*
X12222562Y-13692594D01*
X12222562Y-13692594D02*
X12260658Y-13692594D01*
X12260658Y-13692594D02*
X12279705Y-13683070D01*
X12279705Y-13683070D02*
X12289229Y-13673546D01*
X12289229Y-13673546D02*
X12298753Y-13654498D01*
X12298753Y-13654498D02*
X12298753Y-13616403D01*
X12298753Y-13616403D02*
X12289229Y-13597356D01*
X12289229Y-13597356D02*
X12279705Y-13587832D01*
X12279705Y-13587832D02*
X12260658Y-13578308D01*
X12422562Y-13492594D02*
X12441610Y-13492594D01*
X12441610Y-13492594D02*
X12460658Y-13502118D01*
X12460658Y-13502118D02*
X12470182Y-13511641D01*
X12470182Y-13511641D02*
X12479705Y-13530689D01*
X12479705Y-13530689D02*
X12489229Y-13568784D01*
X12489229Y-13568784D02*
X12489229Y-13616403D01*
X12489229Y-13616403D02*
X12479705Y-13654498D01*
X12479705Y-13654498D02*
X12470182Y-13673546D01*
X12470182Y-13673546D02*
X12460658Y-13683070D01*
X12460658Y-13683070D02*
X12441610Y-13692594D01*
X12441610Y-13692594D02*
X12422562Y-13692594D01*
X12422562Y-13692594D02*
X12403515Y-13683070D01*
X12403515Y-13683070D02*
X12393991Y-13673546D01*
X12393991Y-13673546D02*
X12384467Y-13654498D01*
X12384467Y-13654498D02*
X12374943Y-13616403D01*
X12374943Y-13616403D02*
X12374943Y-13568784D01*
X12374943Y-13568784D02*
X12384467Y-13530689D01*
X12384467Y-13530689D02*
X12393991Y-13511641D01*
X12393991Y-13511641D02*
X12403515Y-13502118D01*
X12403515Y-13502118D02*
X12422562Y-13492594D01*
X12613039Y-13492594D02*
X12632086Y-13492594D01*
X12632086Y-13492594D02*
X12651134Y-13502118D01*
X12651134Y-13502118D02*
X12660658Y-13511641D01*
X12660658Y-13511641D02*
X12670182Y-13530689D01*
X12670182Y-13530689D02*
X12679705Y-13568784D01*
X12679705Y-13568784D02*
X12679705Y-13616403D01*
X12679705Y-13616403D02*
X12670182Y-13654498D01*
X12670182Y-13654498D02*
X12660658Y-13673546D01*
X12660658Y-13673546D02*
X12651134Y-13683070D01*
X12651134Y-13683070D02*
X12632086Y-13692594D01*
X12632086Y-13692594D02*
X12613039Y-13692594D01*
X12613039Y-13692594D02*
X12593991Y-13683070D01*
X12593991Y-13683070D02*
X12584467Y-13673546D01*
X12584467Y-13673546D02*
X12574943Y-13654498D01*
X12574943Y-13654498D02*
X12565420Y-13616403D01*
X12565420Y-13616403D02*
X12565420Y-13568784D01*
X12565420Y-13568784D02*
X12574943Y-13530689D01*
X12574943Y-13530689D02*
X12584467Y-13511641D01*
X12584467Y-13511641D02*
X12593991Y-13502118D01*
X12593991Y-13502118D02*
X12613039Y-13492594D01*
X12765420Y-13692594D02*
X12765420Y-13559260D01*
X12765420Y-13578308D02*
X12774943Y-13568784D01*
X12774943Y-13568784D02*
X12793991Y-13559260D01*
X12793991Y-13559260D02*
X12822563Y-13559260D01*
X12822563Y-13559260D02*
X12841610Y-13568784D01*
X12841610Y-13568784D02*
X12851134Y-13587832D01*
X12851134Y-13587832D02*
X12851134Y-13692594D01*
X12851134Y-13587832D02*
X12860658Y-13568784D01*
X12860658Y-13568784D02*
X12879705Y-13559260D01*
X12879705Y-13559260D02*
X12908277Y-13559260D01*
X12908277Y-13559260D02*
X12927324Y-13568784D01*
X12927324Y-13568784D02*
X12936848Y-13587832D01*
X12936848Y-13587832D02*
X12936848Y-13692594D01*
X13032086Y-13692594D02*
X13032086Y-13559260D01*
X13032086Y-13578308D02*
X13041610Y-13568784D01*
X13041610Y-13568784D02*
X13060658Y-13559260D01*
X13060658Y-13559260D02*
X13089229Y-13559260D01*
X13089229Y-13559260D02*
X13108277Y-13568784D01*
X13108277Y-13568784D02*
X13117801Y-13587832D01*
X13117801Y-13587832D02*
X13117801Y-13692594D01*
X13117801Y-13587832D02*
X13127324Y-13568784D01*
X13127324Y-13568784D02*
X13146372Y-13559260D01*
X13146372Y-13559260D02*
X13174943Y-13559260D01*
X13174943Y-13559260D02*
X13193991Y-13568784D01*
X13193991Y-13568784D02*
X13203515Y-13587832D01*
X13203515Y-13587832D02*
X13203515Y-13692594D01*
X13593991Y-13483070D02*
X13422563Y-13740213D01*
X13851134Y-13492594D02*
X13870182Y-13492594D01*
X13870182Y-13492594D02*
X13889229Y-13502118D01*
X13889229Y-13502118D02*
X13898753Y-13511641D01*
X13898753Y-13511641D02*
X13908277Y-13530689D01*
X13908277Y-13530689D02*
X13917801Y-13568784D01*
X13917801Y-13568784D02*
X13917801Y-13616403D01*
X13917801Y-13616403D02*
X13908277Y-13654498D01*
X13908277Y-13654498D02*
X13898753Y-13673546D01*
X13898753Y-13673546D02*
X13889229Y-13683070D01*
X13889229Y-13683070D02*
X13870182Y-13692594D01*
X13870182Y-13692594D02*
X13851134Y-13692594D01*
X13851134Y-13692594D02*
X13832086Y-13683070D01*
X13832086Y-13683070D02*
X13822563Y-13673546D01*
X13822563Y-13673546D02*
X13813039Y-13654498D01*
X13813039Y-13654498D02*
X13803515Y-13616403D01*
X13803515Y-13616403D02*
X13803515Y-13568784D01*
X13803515Y-13568784D02*
X13813039Y-13530689D01*
X13813039Y-13530689D02*
X13822563Y-13511641D01*
X13822563Y-13511641D02*
X13832086Y-13502118D01*
X13832086Y-13502118D02*
X13851134Y-13492594D01*
X14003515Y-13673546D02*
X14013039Y-13683070D01*
X14013039Y-13683070D02*
X14003515Y-13692594D01*
X14003515Y-13692594D02*
X13993991Y-13683070D01*
X13993991Y-13683070D02*
X14003515Y-13673546D01*
X14003515Y-13673546D02*
X14003515Y-13692594D01*
X14136848Y-13492594D02*
X14155896Y-13492594D01*
X14155896Y-13492594D02*
X14174944Y-13502118D01*
X14174944Y-13502118D02*
X14184467Y-13511641D01*
X14184467Y-13511641D02*
X14193991Y-13530689D01*
X14193991Y-13530689D02*
X14203515Y-13568784D01*
X14203515Y-13568784D02*
X14203515Y-13616403D01*
X14203515Y-13616403D02*
X14193991Y-13654498D01*
X14193991Y-13654498D02*
X14184467Y-13673546D01*
X14184467Y-13673546D02*
X14174944Y-13683070D01*
X14174944Y-13683070D02*
X14155896Y-13692594D01*
X14155896Y-13692594D02*
X14136848Y-13692594D01*
X14136848Y-13692594D02*
X14117801Y-13683070D01*
X14117801Y-13683070D02*
X14108277Y-13673546D01*
X14108277Y-13673546D02*
X14098753Y-13654498D01*
X14098753Y-13654498D02*
X14089229Y-13616403D01*
X14089229Y-13616403D02*
X14089229Y-13568784D01*
X14089229Y-13568784D02*
X14098753Y-13530689D01*
X14098753Y-13530689D02*
X14108277Y-13511641D01*
X14108277Y-13511641D02*
X14117801Y-13502118D01*
X14117801Y-13502118D02*
X14136848Y-13492594D01*
X14270182Y-13492594D02*
X14393991Y-13492594D01*
X14393991Y-13492594D02*
X14327325Y-13568784D01*
X14327325Y-13568784D02*
X14355896Y-13568784D01*
X14355896Y-13568784D02*
X14374944Y-13578308D01*
X14374944Y-13578308D02*
X14384467Y-13587832D01*
X14384467Y-13587832D02*
X14393991Y-13606879D01*
X14393991Y-13606879D02*
X14393991Y-13654498D01*
X14393991Y-13654498D02*
X14384467Y-13673546D01*
X14384467Y-13673546D02*
X14374944Y-13683070D01*
X14374944Y-13683070D02*
X14355896Y-13692594D01*
X14355896Y-13692594D02*
X14298753Y-13692594D01*
X14298753Y-13692594D02*
X14279706Y-13683070D01*
X14279706Y-13683070D02*
X14270182Y-13673546D01*
X14584467Y-13692594D02*
X14470182Y-13692594D01*
X14527325Y-13692594D02*
X14527325Y-13492594D01*
X14527325Y-13492594D02*
X14508277Y-13521165D01*
X14508277Y-13521165D02*
X14489229Y-13540213D01*
X14489229Y-13540213D02*
X14470182Y-13549737D01*
X14765420Y-13492594D02*
X14670182Y-13492594D01*
X14670182Y-13492594D02*
X14660658Y-13587832D01*
X14660658Y-13587832D02*
X14670182Y-13578308D01*
X14670182Y-13578308D02*
X14689229Y-13568784D01*
X14689229Y-13568784D02*
X14736848Y-13568784D01*
X14736848Y-13568784D02*
X14755896Y-13578308D01*
X14755896Y-13578308D02*
X14765420Y-13587832D01*
X14765420Y-13587832D02*
X14774944Y-13606879D01*
X14774944Y-13606879D02*
X14774944Y-13654498D01*
X14774944Y-13654498D02*
X14765420Y-13673546D01*
X14765420Y-13673546D02*
X14755896Y-13683070D01*
X14755896Y-13683070D02*
X14736848Y-13692594D01*
X14736848Y-13692594D02*
X14689229Y-13692594D01*
X14689229Y-13692594D02*
X14670182Y-13683070D01*
X14670182Y-13683070D02*
X14660658Y-13673546D01*
X14851134Y-13492594D02*
X14851134Y-13530689D01*
X14927325Y-13492594D02*
X14927325Y-13530689D01*
X15222563Y-13768784D02*
X15213039Y-13759260D01*
X15213039Y-13759260D02*
X15193991Y-13730689D01*
X15193991Y-13730689D02*
X15184468Y-13711641D01*
X15184468Y-13711641D02*
X15174944Y-13683070D01*
X15174944Y-13683070D02*
X15165420Y-13635451D01*
X15165420Y-13635451D02*
X15165420Y-13597356D01*
X15165420Y-13597356D02*
X15174944Y-13549737D01*
X15174944Y-13549737D02*
X15184468Y-13521165D01*
X15184468Y-13521165D02*
X15193991Y-13502118D01*
X15193991Y-13502118D02*
X15213039Y-13473546D01*
X15213039Y-13473546D02*
X15222563Y-13464022D01*
X15289229Y-13511641D02*
X15298753Y-13502118D01*
X15298753Y-13502118D02*
X15317801Y-13492594D01*
X15317801Y-13492594D02*
X15365420Y-13492594D01*
X15365420Y-13492594D02*
X15384468Y-13502118D01*
X15384468Y-13502118D02*
X15393991Y-13511641D01*
X15393991Y-13511641D02*
X15403515Y-13530689D01*
X15403515Y-13530689D02*
X15403515Y-13549737D01*
X15403515Y-13549737D02*
X15393991Y-13578308D01*
X15393991Y-13578308D02*
X15279706Y-13692594D01*
X15279706Y-13692594D02*
X15403515Y-13692594D01*
X15641610Y-13692594D02*
X15641610Y-13492594D01*
X15727325Y-13692594D02*
X15727325Y-13587832D01*
X15727325Y-13587832D02*
X15717801Y-13568784D01*
X15717801Y-13568784D02*
X15698753Y-13559260D01*
X15698753Y-13559260D02*
X15670182Y-13559260D01*
X15670182Y-13559260D02*
X15651134Y-13568784D01*
X15651134Y-13568784D02*
X15641610Y-13578308D01*
X15851134Y-13692594D02*
X15832087Y-13683070D01*
X15832087Y-13683070D02*
X15822563Y-13673546D01*
X15822563Y-13673546D02*
X15813039Y-13654498D01*
X15813039Y-13654498D02*
X15813039Y-13597356D01*
X15813039Y-13597356D02*
X15822563Y-13578308D01*
X15822563Y-13578308D02*
X15832087Y-13568784D01*
X15832087Y-13568784D02*
X15851134Y-13559260D01*
X15851134Y-13559260D02*
X15879706Y-13559260D01*
X15879706Y-13559260D02*
X15898753Y-13568784D01*
X15898753Y-13568784D02*
X15908277Y-13578308D01*
X15908277Y-13578308D02*
X15917801Y-13597356D01*
X15917801Y-13597356D02*
X15917801Y-13654498D01*
X15917801Y-13654498D02*
X15908277Y-13673546D01*
X15908277Y-13673546D02*
X15898753Y-13683070D01*
X15898753Y-13683070D02*
X15879706Y-13692594D01*
X15879706Y-13692594D02*
X15851134Y-13692594D01*
X16032087Y-13692594D02*
X16013039Y-13683070D01*
X16013039Y-13683070D02*
X16003515Y-13664022D01*
X16003515Y-13664022D02*
X16003515Y-13492594D01*
X16184468Y-13683070D02*
X16165420Y-13692594D01*
X16165420Y-13692594D02*
X16127325Y-13692594D01*
X16127325Y-13692594D02*
X16108277Y-13683070D01*
X16108277Y-13683070D02*
X16098753Y-13664022D01*
X16098753Y-13664022D02*
X16098753Y-13587832D01*
X16098753Y-13587832D02*
X16108277Y-13568784D01*
X16108277Y-13568784D02*
X16127325Y-13559260D01*
X16127325Y-13559260D02*
X16165420Y-13559260D01*
X16165420Y-13559260D02*
X16184468Y-13568784D01*
X16184468Y-13568784D02*
X16193991Y-13587832D01*
X16193991Y-13587832D02*
X16193991Y-13606879D01*
X16193991Y-13606879D02*
X16098753Y-13625927D01*
X16270182Y-13683070D02*
X16289230Y-13692594D01*
X16289230Y-13692594D02*
X16327325Y-13692594D01*
X16327325Y-13692594D02*
X16346372Y-13683070D01*
X16346372Y-13683070D02*
X16355896Y-13664022D01*
X16355896Y-13664022D02*
X16355896Y-13654498D01*
X16355896Y-13654498D02*
X16346372Y-13635451D01*
X16346372Y-13635451D02*
X16327325Y-13625927D01*
X16327325Y-13625927D02*
X16298753Y-13625927D01*
X16298753Y-13625927D02*
X16279706Y-13616403D01*
X16279706Y-13616403D02*
X16270182Y-13597356D01*
X16270182Y-13597356D02*
X16270182Y-13587832D01*
X16270182Y-13587832D02*
X16279706Y-13568784D01*
X16279706Y-13568784D02*
X16298753Y-13559260D01*
X16298753Y-13559260D02*
X16327325Y-13559260D01*
X16327325Y-13559260D02*
X16346372Y-13568784D01*
X16422563Y-13768784D02*
X16432087Y-13759260D01*
X16432087Y-13759260D02*
X16451134Y-13730689D01*
X16451134Y-13730689D02*
X16460658Y-13711641D01*
X16460658Y-13711641D02*
X16470182Y-13683070D01*
X16470182Y-13683070D02*
X16479706Y-13635451D01*
X16479706Y-13635451D02*
X16479706Y-13597356D01*
X16479706Y-13597356D02*
X16470182Y-13549737D01*
X16470182Y-13549737D02*
X16460658Y-13521165D01*
X16460658Y-13521165D02*
X16451134Y-13502118D01*
X16451134Y-13502118D02*
X16432087Y-13473546D01*
X16432087Y-13473546D02*
X16422563Y-13464022D01*
D15*
X11597500Y-13915110D02*
X11647500Y-13865110D01*
X11597500Y-13815110D01*
X11547500Y-13865110D01*
X11597500Y-13915110D01*
D11*
X12013039Y-13956594D02*
X11898753Y-13956594D01*
X11955896Y-13956594D02*
X11955896Y-13756594D01*
X11955896Y-13756594D02*
X11936848Y-13785165D01*
X11936848Y-13785165D02*
X11917801Y-13804213D01*
X11917801Y-13804213D02*
X11898753Y-13813737D01*
X12098753Y-13937546D02*
X12108277Y-13947070D01*
X12108277Y-13947070D02*
X12098753Y-13956594D01*
X12098753Y-13956594D02*
X12089229Y-13947070D01*
X12089229Y-13947070D02*
X12098753Y-13937546D01*
X12098753Y-13937546D02*
X12098753Y-13956594D01*
X12232086Y-13756594D02*
X12251134Y-13756594D01*
X12251134Y-13756594D02*
X12270182Y-13766118D01*
X12270182Y-13766118D02*
X12279705Y-13775641D01*
X12279705Y-13775641D02*
X12289229Y-13794689D01*
X12289229Y-13794689D02*
X12298753Y-13832784D01*
X12298753Y-13832784D02*
X12298753Y-13880403D01*
X12298753Y-13880403D02*
X12289229Y-13918498D01*
X12289229Y-13918498D02*
X12279705Y-13937546D01*
X12279705Y-13937546D02*
X12270182Y-13947070D01*
X12270182Y-13947070D02*
X12251134Y-13956594D01*
X12251134Y-13956594D02*
X12232086Y-13956594D01*
X12232086Y-13956594D02*
X12213039Y-13947070D01*
X12213039Y-13947070D02*
X12203515Y-13937546D01*
X12203515Y-13937546D02*
X12193991Y-13918498D01*
X12193991Y-13918498D02*
X12184467Y-13880403D01*
X12184467Y-13880403D02*
X12184467Y-13832784D01*
X12184467Y-13832784D02*
X12193991Y-13794689D01*
X12193991Y-13794689D02*
X12203515Y-13775641D01*
X12203515Y-13775641D02*
X12213039Y-13766118D01*
X12213039Y-13766118D02*
X12232086Y-13756594D01*
X12422562Y-13756594D02*
X12441610Y-13756594D01*
X12441610Y-13756594D02*
X12460658Y-13766118D01*
X12460658Y-13766118D02*
X12470182Y-13775641D01*
X12470182Y-13775641D02*
X12479705Y-13794689D01*
X12479705Y-13794689D02*
X12489229Y-13832784D01*
X12489229Y-13832784D02*
X12489229Y-13880403D01*
X12489229Y-13880403D02*
X12479705Y-13918498D01*
X12479705Y-13918498D02*
X12470182Y-13937546D01*
X12470182Y-13937546D02*
X12460658Y-13947070D01*
X12460658Y-13947070D02*
X12441610Y-13956594D01*
X12441610Y-13956594D02*
X12422562Y-13956594D01*
X12422562Y-13956594D02*
X12403515Y-13947070D01*
X12403515Y-13947070D02*
X12393991Y-13937546D01*
X12393991Y-13937546D02*
X12384467Y-13918498D01*
X12384467Y-13918498D02*
X12374943Y-13880403D01*
X12374943Y-13880403D02*
X12374943Y-13832784D01*
X12374943Y-13832784D02*
X12384467Y-13794689D01*
X12384467Y-13794689D02*
X12393991Y-13775641D01*
X12393991Y-13775641D02*
X12403515Y-13766118D01*
X12403515Y-13766118D02*
X12422562Y-13756594D01*
X12613039Y-13756594D02*
X12632086Y-13756594D01*
X12632086Y-13756594D02*
X12651134Y-13766118D01*
X12651134Y-13766118D02*
X12660658Y-13775641D01*
X12660658Y-13775641D02*
X12670182Y-13794689D01*
X12670182Y-13794689D02*
X12679705Y-13832784D01*
X12679705Y-13832784D02*
X12679705Y-13880403D01*
X12679705Y-13880403D02*
X12670182Y-13918498D01*
X12670182Y-13918498D02*
X12660658Y-13937546D01*
X12660658Y-13937546D02*
X12651134Y-13947070D01*
X12651134Y-13947070D02*
X12632086Y-13956594D01*
X12632086Y-13956594D02*
X12613039Y-13956594D01*
X12613039Y-13956594D02*
X12593991Y-13947070D01*
X12593991Y-13947070D02*
X12584467Y-13937546D01*
X12584467Y-13937546D02*
X12574943Y-13918498D01*
X12574943Y-13918498D02*
X12565420Y-13880403D01*
X12565420Y-13880403D02*
X12565420Y-13832784D01*
X12565420Y-13832784D02*
X12574943Y-13794689D01*
X12574943Y-13794689D02*
X12584467Y-13775641D01*
X12584467Y-13775641D02*
X12593991Y-13766118D01*
X12593991Y-13766118D02*
X12613039Y-13756594D01*
X12765420Y-13956594D02*
X12765420Y-13823260D01*
X12765420Y-13842308D02*
X12774943Y-13832784D01*
X12774943Y-13832784D02*
X12793991Y-13823260D01*
X12793991Y-13823260D02*
X12822563Y-13823260D01*
X12822563Y-13823260D02*
X12841610Y-13832784D01*
X12841610Y-13832784D02*
X12851134Y-13851832D01*
X12851134Y-13851832D02*
X12851134Y-13956594D01*
X12851134Y-13851832D02*
X12860658Y-13832784D01*
X12860658Y-13832784D02*
X12879705Y-13823260D01*
X12879705Y-13823260D02*
X12908277Y-13823260D01*
X12908277Y-13823260D02*
X12927324Y-13832784D01*
X12927324Y-13832784D02*
X12936848Y-13851832D01*
X12936848Y-13851832D02*
X12936848Y-13956594D01*
X13032086Y-13956594D02*
X13032086Y-13823260D01*
X13032086Y-13842308D02*
X13041610Y-13832784D01*
X13041610Y-13832784D02*
X13060658Y-13823260D01*
X13060658Y-13823260D02*
X13089229Y-13823260D01*
X13089229Y-13823260D02*
X13108277Y-13832784D01*
X13108277Y-13832784D02*
X13117801Y-13851832D01*
X13117801Y-13851832D02*
X13117801Y-13956594D01*
X13117801Y-13851832D02*
X13127324Y-13832784D01*
X13127324Y-13832784D02*
X13146372Y-13823260D01*
X13146372Y-13823260D02*
X13174943Y-13823260D01*
X13174943Y-13823260D02*
X13193991Y-13832784D01*
X13193991Y-13832784D02*
X13203515Y-13851832D01*
X13203515Y-13851832D02*
X13203515Y-13956594D01*
X13593991Y-13747070D02*
X13422563Y-14004213D01*
X13851134Y-13756594D02*
X13870182Y-13756594D01*
X13870182Y-13756594D02*
X13889229Y-13766118D01*
X13889229Y-13766118D02*
X13898753Y-13775641D01*
X13898753Y-13775641D02*
X13908277Y-13794689D01*
X13908277Y-13794689D02*
X13917801Y-13832784D01*
X13917801Y-13832784D02*
X13917801Y-13880403D01*
X13917801Y-13880403D02*
X13908277Y-13918498D01*
X13908277Y-13918498D02*
X13898753Y-13937546D01*
X13898753Y-13937546D02*
X13889229Y-13947070D01*
X13889229Y-13947070D02*
X13870182Y-13956594D01*
X13870182Y-13956594D02*
X13851134Y-13956594D01*
X13851134Y-13956594D02*
X13832086Y-13947070D01*
X13832086Y-13947070D02*
X13822563Y-13937546D01*
X13822563Y-13937546D02*
X13813039Y-13918498D01*
X13813039Y-13918498D02*
X13803515Y-13880403D01*
X13803515Y-13880403D02*
X13803515Y-13832784D01*
X13803515Y-13832784D02*
X13813039Y-13794689D01*
X13813039Y-13794689D02*
X13822563Y-13775641D01*
X13822563Y-13775641D02*
X13832086Y-13766118D01*
X13832086Y-13766118D02*
X13851134Y-13756594D01*
X14003515Y-13937546D02*
X14013039Y-13947070D01*
X14013039Y-13947070D02*
X14003515Y-13956594D01*
X14003515Y-13956594D02*
X13993991Y-13947070D01*
X13993991Y-13947070D02*
X14003515Y-13937546D01*
X14003515Y-13937546D02*
X14003515Y-13956594D01*
X14136848Y-13756594D02*
X14155896Y-13756594D01*
X14155896Y-13756594D02*
X14174944Y-13766118D01*
X14174944Y-13766118D02*
X14184467Y-13775641D01*
X14184467Y-13775641D02*
X14193991Y-13794689D01*
X14193991Y-13794689D02*
X14203515Y-13832784D01*
X14203515Y-13832784D02*
X14203515Y-13880403D01*
X14203515Y-13880403D02*
X14193991Y-13918498D01*
X14193991Y-13918498D02*
X14184467Y-13937546D01*
X14184467Y-13937546D02*
X14174944Y-13947070D01*
X14174944Y-13947070D02*
X14155896Y-13956594D01*
X14155896Y-13956594D02*
X14136848Y-13956594D01*
X14136848Y-13956594D02*
X14117801Y-13947070D01*
X14117801Y-13947070D02*
X14108277Y-13937546D01*
X14108277Y-13937546D02*
X14098753Y-13918498D01*
X14098753Y-13918498D02*
X14089229Y-13880403D01*
X14089229Y-13880403D02*
X14089229Y-13832784D01*
X14089229Y-13832784D02*
X14098753Y-13794689D01*
X14098753Y-13794689D02*
X14108277Y-13775641D01*
X14108277Y-13775641D02*
X14117801Y-13766118D01*
X14117801Y-13766118D02*
X14136848Y-13756594D01*
X14270182Y-13756594D02*
X14393991Y-13756594D01*
X14393991Y-13756594D02*
X14327325Y-13832784D01*
X14327325Y-13832784D02*
X14355896Y-13832784D01*
X14355896Y-13832784D02*
X14374944Y-13842308D01*
X14374944Y-13842308D02*
X14384467Y-13851832D01*
X14384467Y-13851832D02*
X14393991Y-13870879D01*
X14393991Y-13870879D02*
X14393991Y-13918498D01*
X14393991Y-13918498D02*
X14384467Y-13937546D01*
X14384467Y-13937546D02*
X14374944Y-13947070D01*
X14374944Y-13947070D02*
X14355896Y-13956594D01*
X14355896Y-13956594D02*
X14298753Y-13956594D01*
X14298753Y-13956594D02*
X14279706Y-13947070D01*
X14279706Y-13947070D02*
X14270182Y-13937546D01*
X14489229Y-13956594D02*
X14527325Y-13956594D01*
X14527325Y-13956594D02*
X14546372Y-13947070D01*
X14546372Y-13947070D02*
X14555896Y-13937546D01*
X14555896Y-13937546D02*
X14574944Y-13908975D01*
X14574944Y-13908975D02*
X14584467Y-13870879D01*
X14584467Y-13870879D02*
X14584467Y-13794689D01*
X14584467Y-13794689D02*
X14574944Y-13775641D01*
X14574944Y-13775641D02*
X14565420Y-13766118D01*
X14565420Y-13766118D02*
X14546372Y-13756594D01*
X14546372Y-13756594D02*
X14508277Y-13756594D01*
X14508277Y-13756594D02*
X14489229Y-13766118D01*
X14489229Y-13766118D02*
X14479706Y-13775641D01*
X14479706Y-13775641D02*
X14470182Y-13794689D01*
X14470182Y-13794689D02*
X14470182Y-13842308D01*
X14470182Y-13842308D02*
X14479706Y-13861356D01*
X14479706Y-13861356D02*
X14489229Y-13870879D01*
X14489229Y-13870879D02*
X14508277Y-13880403D01*
X14508277Y-13880403D02*
X14546372Y-13880403D01*
X14546372Y-13880403D02*
X14565420Y-13870879D01*
X14565420Y-13870879D02*
X14574944Y-13861356D01*
X14574944Y-13861356D02*
X14584467Y-13842308D01*
X14755896Y-13823260D02*
X14755896Y-13956594D01*
X14708277Y-13747070D02*
X14660658Y-13889927D01*
X14660658Y-13889927D02*
X14784467Y-13889927D01*
X14851134Y-13756594D02*
X14851134Y-13794689D01*
X14927325Y-13756594D02*
X14927325Y-13794689D01*
X15222563Y-14032784D02*
X15213039Y-14023260D01*
X15213039Y-14023260D02*
X15193991Y-13994689D01*
X15193991Y-13994689D02*
X15184468Y-13975641D01*
X15184468Y-13975641D02*
X15174944Y-13947070D01*
X15174944Y-13947070D02*
X15165420Y-13899451D01*
X15165420Y-13899451D02*
X15165420Y-13861356D01*
X15165420Y-13861356D02*
X15174944Y-13813737D01*
X15174944Y-13813737D02*
X15184468Y-13785165D01*
X15184468Y-13785165D02*
X15193991Y-13766118D01*
X15193991Y-13766118D02*
X15213039Y-13737546D01*
X15213039Y-13737546D02*
X15222563Y-13728022D01*
X15336848Y-13756594D02*
X15355896Y-13756594D01*
X15355896Y-13756594D02*
X15374944Y-13766118D01*
X15374944Y-13766118D02*
X15384468Y-13775641D01*
X15384468Y-13775641D02*
X15393991Y-13794689D01*
X15393991Y-13794689D02*
X15403515Y-13832784D01*
X15403515Y-13832784D02*
X15403515Y-13880403D01*
X15403515Y-13880403D02*
X15393991Y-13918498D01*
X15393991Y-13918498D02*
X15384468Y-13937546D01*
X15384468Y-13937546D02*
X15374944Y-13947070D01*
X15374944Y-13947070D02*
X15355896Y-13956594D01*
X15355896Y-13956594D02*
X15336848Y-13956594D01*
X15336848Y-13956594D02*
X15317801Y-13947070D01*
X15317801Y-13947070D02*
X15308277Y-13937546D01*
X15308277Y-13937546D02*
X15298753Y-13918498D01*
X15298753Y-13918498D02*
X15289229Y-13880403D01*
X15289229Y-13880403D02*
X15289229Y-13832784D01*
X15289229Y-13832784D02*
X15298753Y-13794689D01*
X15298753Y-13794689D02*
X15308277Y-13775641D01*
X15308277Y-13775641D02*
X15317801Y-13766118D01*
X15317801Y-13766118D02*
X15336848Y-13756594D01*
X15641610Y-13956594D02*
X15641610Y-13756594D01*
X15727325Y-13956594D02*
X15727325Y-13851832D01*
X15727325Y-13851832D02*
X15717801Y-13832784D01*
X15717801Y-13832784D02*
X15698753Y-13823260D01*
X15698753Y-13823260D02*
X15670182Y-13823260D01*
X15670182Y-13823260D02*
X15651134Y-13832784D01*
X15651134Y-13832784D02*
X15641610Y-13842308D01*
X15851134Y-13956594D02*
X15832087Y-13947070D01*
X15832087Y-13947070D02*
X15822563Y-13937546D01*
X15822563Y-13937546D02*
X15813039Y-13918498D01*
X15813039Y-13918498D02*
X15813039Y-13861356D01*
X15813039Y-13861356D02*
X15822563Y-13842308D01*
X15822563Y-13842308D02*
X15832087Y-13832784D01*
X15832087Y-13832784D02*
X15851134Y-13823260D01*
X15851134Y-13823260D02*
X15879706Y-13823260D01*
X15879706Y-13823260D02*
X15898753Y-13832784D01*
X15898753Y-13832784D02*
X15908277Y-13842308D01*
X15908277Y-13842308D02*
X15917801Y-13861356D01*
X15917801Y-13861356D02*
X15917801Y-13918498D01*
X15917801Y-13918498D02*
X15908277Y-13937546D01*
X15908277Y-13937546D02*
X15898753Y-13947070D01*
X15898753Y-13947070D02*
X15879706Y-13956594D01*
X15879706Y-13956594D02*
X15851134Y-13956594D01*
X16032087Y-13956594D02*
X16013039Y-13947070D01*
X16013039Y-13947070D02*
X16003515Y-13928022D01*
X16003515Y-13928022D02*
X16003515Y-13756594D01*
X16184468Y-13947070D02*
X16165420Y-13956594D01*
X16165420Y-13956594D02*
X16127325Y-13956594D01*
X16127325Y-13956594D02*
X16108277Y-13947070D01*
X16108277Y-13947070D02*
X16098753Y-13928022D01*
X16098753Y-13928022D02*
X16098753Y-13851832D01*
X16098753Y-13851832D02*
X16108277Y-13832784D01*
X16108277Y-13832784D02*
X16127325Y-13823260D01*
X16127325Y-13823260D02*
X16165420Y-13823260D01*
X16165420Y-13823260D02*
X16184468Y-13832784D01*
X16184468Y-13832784D02*
X16193991Y-13851832D01*
X16193991Y-13851832D02*
X16193991Y-13870879D01*
X16193991Y-13870879D02*
X16098753Y-13889927D01*
X16270182Y-13947070D02*
X16289230Y-13956594D01*
X16289230Y-13956594D02*
X16327325Y-13956594D01*
X16327325Y-13956594D02*
X16346372Y-13947070D01*
X16346372Y-13947070D02*
X16355896Y-13928022D01*
X16355896Y-13928022D02*
X16355896Y-13918498D01*
X16355896Y-13918498D02*
X16346372Y-13899451D01*
X16346372Y-13899451D02*
X16327325Y-13889927D01*
X16327325Y-13889927D02*
X16298753Y-13889927D01*
X16298753Y-13889927D02*
X16279706Y-13880403D01*
X16279706Y-13880403D02*
X16270182Y-13861356D01*
X16270182Y-13861356D02*
X16270182Y-13851832D01*
X16270182Y-13851832D02*
X16279706Y-13832784D01*
X16279706Y-13832784D02*
X16298753Y-13823260D01*
X16298753Y-13823260D02*
X16327325Y-13823260D01*
X16327325Y-13823260D02*
X16346372Y-13832784D01*
X16593992Y-13880403D02*
X16746373Y-13880403D01*
X16670182Y-13956594D02*
X16670182Y-13804213D01*
X16974944Y-13756594D02*
X17098754Y-13756594D01*
X17098754Y-13756594D02*
X17032087Y-13832784D01*
X17032087Y-13832784D02*
X17060658Y-13832784D01*
X17060658Y-13832784D02*
X17079706Y-13842308D01*
X17079706Y-13842308D02*
X17089230Y-13851832D01*
X17089230Y-13851832D02*
X17098754Y-13870879D01*
X17098754Y-13870879D02*
X17098754Y-13918498D01*
X17098754Y-13918498D02*
X17089230Y-13937546D01*
X17089230Y-13937546D02*
X17079706Y-13947070D01*
X17079706Y-13947070D02*
X17060658Y-13956594D01*
X17060658Y-13956594D02*
X17003515Y-13956594D01*
X17003515Y-13956594D02*
X16984468Y-13947070D01*
X16984468Y-13947070D02*
X16974944Y-13937546D01*
X17327325Y-13947070D02*
X17346373Y-13956594D01*
X17346373Y-13956594D02*
X17384468Y-13956594D01*
X17384468Y-13956594D02*
X17403516Y-13947070D01*
X17403516Y-13947070D02*
X17413039Y-13928022D01*
X17413039Y-13928022D02*
X17413039Y-13918498D01*
X17413039Y-13918498D02*
X17403516Y-13899451D01*
X17403516Y-13899451D02*
X17384468Y-13889927D01*
X17384468Y-13889927D02*
X17355896Y-13889927D01*
X17355896Y-13889927D02*
X17336849Y-13880403D01*
X17336849Y-13880403D02*
X17327325Y-13861356D01*
X17327325Y-13861356D02*
X17327325Y-13851832D01*
X17327325Y-13851832D02*
X17336849Y-13832784D01*
X17336849Y-13832784D02*
X17355896Y-13823260D01*
X17355896Y-13823260D02*
X17384468Y-13823260D01*
X17384468Y-13823260D02*
X17403516Y-13832784D01*
X17527325Y-13956594D02*
X17508277Y-13947070D01*
X17508277Y-13947070D02*
X17498754Y-13928022D01*
X17498754Y-13928022D02*
X17498754Y-13756594D01*
X17632087Y-13956594D02*
X17613039Y-13947070D01*
X17613039Y-13947070D02*
X17603516Y-13937546D01*
X17603516Y-13937546D02*
X17593992Y-13918498D01*
X17593992Y-13918498D02*
X17593992Y-13861356D01*
X17593992Y-13861356D02*
X17603516Y-13842308D01*
X17603516Y-13842308D02*
X17613039Y-13832784D01*
X17613039Y-13832784D02*
X17632087Y-13823260D01*
X17632087Y-13823260D02*
X17660658Y-13823260D01*
X17660658Y-13823260D02*
X17679706Y-13832784D01*
X17679706Y-13832784D02*
X17689230Y-13842308D01*
X17689230Y-13842308D02*
X17698754Y-13861356D01*
X17698754Y-13861356D02*
X17698754Y-13918498D01*
X17698754Y-13918498D02*
X17689230Y-13937546D01*
X17689230Y-13937546D02*
X17679706Y-13947070D01*
X17679706Y-13947070D02*
X17660658Y-13956594D01*
X17660658Y-13956594D02*
X17632087Y-13956594D01*
X17755897Y-13823260D02*
X17832087Y-13823260D01*
X17784468Y-13756594D02*
X17784468Y-13928022D01*
X17784468Y-13928022D02*
X17793992Y-13947070D01*
X17793992Y-13947070D02*
X17813039Y-13956594D01*
X17813039Y-13956594D02*
X17832087Y-13956594D01*
X17889230Y-13947070D02*
X17908277Y-13956594D01*
X17908277Y-13956594D02*
X17946373Y-13956594D01*
X17946373Y-13956594D02*
X17965420Y-13947070D01*
X17965420Y-13947070D02*
X17974944Y-13928022D01*
X17974944Y-13928022D02*
X17974944Y-13918498D01*
X17974944Y-13918498D02*
X17965420Y-13899451D01*
X17965420Y-13899451D02*
X17946373Y-13889927D01*
X17946373Y-13889927D02*
X17917801Y-13889927D01*
X17917801Y-13889927D02*
X17898754Y-13880403D01*
X17898754Y-13880403D02*
X17889230Y-13861356D01*
X17889230Y-13861356D02*
X17889230Y-13851832D01*
X17889230Y-13851832D02*
X17898754Y-13832784D01*
X17898754Y-13832784D02*
X17917801Y-13823260D01*
X17917801Y-13823260D02*
X17946373Y-13823260D01*
X17946373Y-13823260D02*
X17965420Y-13832784D01*
X18041611Y-14032784D02*
X18051135Y-14023260D01*
X18051135Y-14023260D02*
X18070182Y-13994689D01*
X18070182Y-13994689D02*
X18079706Y-13975641D01*
X18079706Y-13975641D02*
X18089230Y-13947070D01*
X18089230Y-13947070D02*
X18098754Y-13899451D01*
X18098754Y-13899451D02*
X18098754Y-13861356D01*
X18098754Y-13861356D02*
X18089230Y-13813737D01*
X18089230Y-13813737D02*
X18079706Y-13785165D01*
X18079706Y-13785165D02*
X18070182Y-13766118D01*
X18070182Y-13766118D02*
X18051135Y-13737546D01*
X18051135Y-13737546D02*
X18041611Y-13728022D01*
D16*
X11517500Y-14064110D02*
X11647500Y-14194110D01*
X11647500Y-14064110D02*
X11517500Y-14194110D01*
X11647500Y-14129110D02*
G75*
G03*
X11647500Y-14129110I-65000J0D01*
G01*
D11*
X12013039Y-14220594D02*
X11898753Y-14220594D01*
X11955896Y-14220594D02*
X11955896Y-14020594D01*
X11955896Y-14020594D02*
X11936848Y-14049165D01*
X11936848Y-14049165D02*
X11917801Y-14068213D01*
X11917801Y-14068213D02*
X11898753Y-14077737D01*
X12098753Y-14201546D02*
X12108277Y-14211070D01*
X12108277Y-14211070D02*
X12098753Y-14220594D01*
X12098753Y-14220594D02*
X12089229Y-14211070D01*
X12089229Y-14211070D02*
X12098753Y-14201546D01*
X12098753Y-14201546D02*
X12098753Y-14220594D01*
X12174943Y-14020594D02*
X12298753Y-14020594D01*
X12298753Y-14020594D02*
X12232086Y-14096784D01*
X12232086Y-14096784D02*
X12260658Y-14096784D01*
X12260658Y-14096784D02*
X12279705Y-14106308D01*
X12279705Y-14106308D02*
X12289229Y-14115832D01*
X12289229Y-14115832D02*
X12298753Y-14134879D01*
X12298753Y-14134879D02*
X12298753Y-14182498D01*
X12298753Y-14182498D02*
X12289229Y-14201546D01*
X12289229Y-14201546D02*
X12279705Y-14211070D01*
X12279705Y-14211070D02*
X12260658Y-14220594D01*
X12260658Y-14220594D02*
X12203515Y-14220594D01*
X12203515Y-14220594D02*
X12184467Y-14211070D01*
X12184467Y-14211070D02*
X12174943Y-14201546D01*
X12422562Y-14020594D02*
X12441610Y-14020594D01*
X12441610Y-14020594D02*
X12460658Y-14030118D01*
X12460658Y-14030118D02*
X12470182Y-14039641D01*
X12470182Y-14039641D02*
X12479705Y-14058689D01*
X12479705Y-14058689D02*
X12489229Y-14096784D01*
X12489229Y-14096784D02*
X12489229Y-14144403D01*
X12489229Y-14144403D02*
X12479705Y-14182498D01*
X12479705Y-14182498D02*
X12470182Y-14201546D01*
X12470182Y-14201546D02*
X12460658Y-14211070D01*
X12460658Y-14211070D02*
X12441610Y-14220594D01*
X12441610Y-14220594D02*
X12422562Y-14220594D01*
X12422562Y-14220594D02*
X12403515Y-14211070D01*
X12403515Y-14211070D02*
X12393991Y-14201546D01*
X12393991Y-14201546D02*
X12384467Y-14182498D01*
X12384467Y-14182498D02*
X12374943Y-14144403D01*
X12374943Y-14144403D02*
X12374943Y-14096784D01*
X12374943Y-14096784D02*
X12384467Y-14058689D01*
X12384467Y-14058689D02*
X12393991Y-14039641D01*
X12393991Y-14039641D02*
X12403515Y-14030118D01*
X12403515Y-14030118D02*
X12422562Y-14020594D01*
X12613039Y-14020594D02*
X12632086Y-14020594D01*
X12632086Y-14020594D02*
X12651134Y-14030118D01*
X12651134Y-14030118D02*
X12660658Y-14039641D01*
X12660658Y-14039641D02*
X12670182Y-14058689D01*
X12670182Y-14058689D02*
X12679705Y-14096784D01*
X12679705Y-14096784D02*
X12679705Y-14144403D01*
X12679705Y-14144403D02*
X12670182Y-14182498D01*
X12670182Y-14182498D02*
X12660658Y-14201546D01*
X12660658Y-14201546D02*
X12651134Y-14211070D01*
X12651134Y-14211070D02*
X12632086Y-14220594D01*
X12632086Y-14220594D02*
X12613039Y-14220594D01*
X12613039Y-14220594D02*
X12593991Y-14211070D01*
X12593991Y-14211070D02*
X12584467Y-14201546D01*
X12584467Y-14201546D02*
X12574943Y-14182498D01*
X12574943Y-14182498D02*
X12565420Y-14144403D01*
X12565420Y-14144403D02*
X12565420Y-14096784D01*
X12565420Y-14096784D02*
X12574943Y-14058689D01*
X12574943Y-14058689D02*
X12584467Y-14039641D01*
X12584467Y-14039641D02*
X12593991Y-14030118D01*
X12593991Y-14030118D02*
X12613039Y-14020594D01*
X12765420Y-14220594D02*
X12765420Y-14087260D01*
X12765420Y-14106308D02*
X12774943Y-14096784D01*
X12774943Y-14096784D02*
X12793991Y-14087260D01*
X12793991Y-14087260D02*
X12822563Y-14087260D01*
X12822563Y-14087260D02*
X12841610Y-14096784D01*
X12841610Y-14096784D02*
X12851134Y-14115832D01*
X12851134Y-14115832D02*
X12851134Y-14220594D01*
X12851134Y-14115832D02*
X12860658Y-14096784D01*
X12860658Y-14096784D02*
X12879705Y-14087260D01*
X12879705Y-14087260D02*
X12908277Y-14087260D01*
X12908277Y-14087260D02*
X12927324Y-14096784D01*
X12927324Y-14096784D02*
X12936848Y-14115832D01*
X12936848Y-14115832D02*
X12936848Y-14220594D01*
X13032086Y-14220594D02*
X13032086Y-14087260D01*
X13032086Y-14106308D02*
X13041610Y-14096784D01*
X13041610Y-14096784D02*
X13060658Y-14087260D01*
X13060658Y-14087260D02*
X13089229Y-14087260D01*
X13089229Y-14087260D02*
X13108277Y-14096784D01*
X13108277Y-14096784D02*
X13117801Y-14115832D01*
X13117801Y-14115832D02*
X13117801Y-14220594D01*
X13117801Y-14115832D02*
X13127324Y-14096784D01*
X13127324Y-14096784D02*
X13146372Y-14087260D01*
X13146372Y-14087260D02*
X13174943Y-14087260D01*
X13174943Y-14087260D02*
X13193991Y-14096784D01*
X13193991Y-14096784D02*
X13203515Y-14115832D01*
X13203515Y-14115832D02*
X13203515Y-14220594D01*
X13593991Y-14011070D02*
X13422563Y-14268213D01*
X13851134Y-14020594D02*
X13870182Y-14020594D01*
X13870182Y-14020594D02*
X13889229Y-14030118D01*
X13889229Y-14030118D02*
X13898753Y-14039641D01*
X13898753Y-14039641D02*
X13908277Y-14058689D01*
X13908277Y-14058689D02*
X13917801Y-14096784D01*
X13917801Y-14096784D02*
X13917801Y-14144403D01*
X13917801Y-14144403D02*
X13908277Y-14182498D01*
X13908277Y-14182498D02*
X13898753Y-14201546D01*
X13898753Y-14201546D02*
X13889229Y-14211070D01*
X13889229Y-14211070D02*
X13870182Y-14220594D01*
X13870182Y-14220594D02*
X13851134Y-14220594D01*
X13851134Y-14220594D02*
X13832086Y-14211070D01*
X13832086Y-14211070D02*
X13822563Y-14201546D01*
X13822563Y-14201546D02*
X13813039Y-14182498D01*
X13813039Y-14182498D02*
X13803515Y-14144403D01*
X13803515Y-14144403D02*
X13803515Y-14096784D01*
X13803515Y-14096784D02*
X13813039Y-14058689D01*
X13813039Y-14058689D02*
X13822563Y-14039641D01*
X13822563Y-14039641D02*
X13832086Y-14030118D01*
X13832086Y-14030118D02*
X13851134Y-14020594D01*
X14003515Y-14201546D02*
X14013039Y-14211070D01*
X14013039Y-14211070D02*
X14003515Y-14220594D01*
X14003515Y-14220594D02*
X13993991Y-14211070D01*
X13993991Y-14211070D02*
X14003515Y-14201546D01*
X14003515Y-14201546D02*
X14003515Y-14220594D01*
X14136848Y-14020594D02*
X14155896Y-14020594D01*
X14155896Y-14020594D02*
X14174944Y-14030118D01*
X14174944Y-14030118D02*
X14184467Y-14039641D01*
X14184467Y-14039641D02*
X14193991Y-14058689D01*
X14193991Y-14058689D02*
X14203515Y-14096784D01*
X14203515Y-14096784D02*
X14203515Y-14144403D01*
X14203515Y-14144403D02*
X14193991Y-14182498D01*
X14193991Y-14182498D02*
X14184467Y-14201546D01*
X14184467Y-14201546D02*
X14174944Y-14211070D01*
X14174944Y-14211070D02*
X14155896Y-14220594D01*
X14155896Y-14220594D02*
X14136848Y-14220594D01*
X14136848Y-14220594D02*
X14117801Y-14211070D01*
X14117801Y-14211070D02*
X14108277Y-14201546D01*
X14108277Y-14201546D02*
X14098753Y-14182498D01*
X14098753Y-14182498D02*
X14089229Y-14144403D01*
X14089229Y-14144403D02*
X14089229Y-14096784D01*
X14089229Y-14096784D02*
X14098753Y-14058689D01*
X14098753Y-14058689D02*
X14108277Y-14039641D01*
X14108277Y-14039641D02*
X14117801Y-14030118D01*
X14117801Y-14030118D02*
X14136848Y-14020594D01*
X14384467Y-14020594D02*
X14289229Y-14020594D01*
X14289229Y-14020594D02*
X14279706Y-14115832D01*
X14279706Y-14115832D02*
X14289229Y-14106308D01*
X14289229Y-14106308D02*
X14308277Y-14096784D01*
X14308277Y-14096784D02*
X14355896Y-14096784D01*
X14355896Y-14096784D02*
X14374944Y-14106308D01*
X14374944Y-14106308D02*
X14384467Y-14115832D01*
X14384467Y-14115832D02*
X14393991Y-14134879D01*
X14393991Y-14134879D02*
X14393991Y-14182498D01*
X14393991Y-14182498D02*
X14384467Y-14201546D01*
X14384467Y-14201546D02*
X14374944Y-14211070D01*
X14374944Y-14211070D02*
X14355896Y-14220594D01*
X14355896Y-14220594D02*
X14308277Y-14220594D01*
X14308277Y-14220594D02*
X14289229Y-14211070D01*
X14289229Y-14211070D02*
X14279706Y-14201546D01*
X14584467Y-14220594D02*
X14470182Y-14220594D01*
X14527325Y-14220594D02*
X14527325Y-14020594D01*
X14527325Y-14020594D02*
X14508277Y-14049165D01*
X14508277Y-14049165D02*
X14489229Y-14068213D01*
X14489229Y-14068213D02*
X14470182Y-14077737D01*
X14660658Y-14039641D02*
X14670182Y-14030118D01*
X14670182Y-14030118D02*
X14689229Y-14020594D01*
X14689229Y-14020594D02*
X14736848Y-14020594D01*
X14736848Y-14020594D02*
X14755896Y-14030118D01*
X14755896Y-14030118D02*
X14765420Y-14039641D01*
X14765420Y-14039641D02*
X14774944Y-14058689D01*
X14774944Y-14058689D02*
X14774944Y-14077737D01*
X14774944Y-14077737D02*
X14765420Y-14106308D01*
X14765420Y-14106308D02*
X14651134Y-14220594D01*
X14651134Y-14220594D02*
X14774944Y-14220594D01*
X14851134Y-14020594D02*
X14851134Y-14058689D01*
X14927325Y-14020594D02*
X14927325Y-14058689D01*
X15222563Y-14296784D02*
X15213039Y-14287260D01*
X15213039Y-14287260D02*
X15193991Y-14258689D01*
X15193991Y-14258689D02*
X15184468Y-14239641D01*
X15184468Y-14239641D02*
X15174944Y-14211070D01*
X15174944Y-14211070D02*
X15165420Y-14163451D01*
X15165420Y-14163451D02*
X15165420Y-14125356D01*
X15165420Y-14125356D02*
X15174944Y-14077737D01*
X15174944Y-14077737D02*
X15184468Y-14049165D01*
X15184468Y-14049165D02*
X15193991Y-14030118D01*
X15193991Y-14030118D02*
X15213039Y-14001546D01*
X15213039Y-14001546D02*
X15222563Y-13992022D01*
X15384468Y-14087260D02*
X15384468Y-14220594D01*
X15336848Y-14011070D02*
X15289229Y-14153927D01*
X15289229Y-14153927D02*
X15413039Y-14153927D01*
X15641610Y-14220594D02*
X15641610Y-14020594D01*
X15727325Y-14220594D02*
X15727325Y-14115832D01*
X15727325Y-14115832D02*
X15717801Y-14096784D01*
X15717801Y-14096784D02*
X15698753Y-14087260D01*
X15698753Y-14087260D02*
X15670182Y-14087260D01*
X15670182Y-14087260D02*
X15651134Y-14096784D01*
X15651134Y-14096784D02*
X15641610Y-14106308D01*
X15851134Y-14220594D02*
X15832087Y-14211070D01*
X15832087Y-14211070D02*
X15822563Y-14201546D01*
X15822563Y-14201546D02*
X15813039Y-14182498D01*
X15813039Y-14182498D02*
X15813039Y-14125356D01*
X15813039Y-14125356D02*
X15822563Y-14106308D01*
X15822563Y-14106308D02*
X15832087Y-14096784D01*
X15832087Y-14096784D02*
X15851134Y-14087260D01*
X15851134Y-14087260D02*
X15879706Y-14087260D01*
X15879706Y-14087260D02*
X15898753Y-14096784D01*
X15898753Y-14096784D02*
X15908277Y-14106308D01*
X15908277Y-14106308D02*
X15917801Y-14125356D01*
X15917801Y-14125356D02*
X15917801Y-14182498D01*
X15917801Y-14182498D02*
X15908277Y-14201546D01*
X15908277Y-14201546D02*
X15898753Y-14211070D01*
X15898753Y-14211070D02*
X15879706Y-14220594D01*
X15879706Y-14220594D02*
X15851134Y-14220594D01*
X16032087Y-14220594D02*
X16013039Y-14211070D01*
X16013039Y-14211070D02*
X16003515Y-14192022D01*
X16003515Y-14192022D02*
X16003515Y-14020594D01*
X16184468Y-14211070D02*
X16165420Y-14220594D01*
X16165420Y-14220594D02*
X16127325Y-14220594D01*
X16127325Y-14220594D02*
X16108277Y-14211070D01*
X16108277Y-14211070D02*
X16098753Y-14192022D01*
X16098753Y-14192022D02*
X16098753Y-14115832D01*
X16098753Y-14115832D02*
X16108277Y-14096784D01*
X16108277Y-14096784D02*
X16127325Y-14087260D01*
X16127325Y-14087260D02*
X16165420Y-14087260D01*
X16165420Y-14087260D02*
X16184468Y-14096784D01*
X16184468Y-14096784D02*
X16193991Y-14115832D01*
X16193991Y-14115832D02*
X16193991Y-14134879D01*
X16193991Y-14134879D02*
X16098753Y-14153927D01*
X16270182Y-14211070D02*
X16289230Y-14220594D01*
X16289230Y-14220594D02*
X16327325Y-14220594D01*
X16327325Y-14220594D02*
X16346372Y-14211070D01*
X16346372Y-14211070D02*
X16355896Y-14192022D01*
X16355896Y-14192022D02*
X16355896Y-14182498D01*
X16355896Y-14182498D02*
X16346372Y-14163451D01*
X16346372Y-14163451D02*
X16327325Y-14153927D01*
X16327325Y-14153927D02*
X16298753Y-14153927D01*
X16298753Y-14153927D02*
X16279706Y-14144403D01*
X16279706Y-14144403D02*
X16270182Y-14125356D01*
X16270182Y-14125356D02*
X16270182Y-14115832D01*
X16270182Y-14115832D02*
X16279706Y-14096784D01*
X16279706Y-14096784D02*
X16298753Y-14087260D01*
X16298753Y-14087260D02*
X16327325Y-14087260D01*
X16327325Y-14087260D02*
X16346372Y-14096784D01*
X16422563Y-14296784D02*
X16432087Y-14287260D01*
X16432087Y-14287260D02*
X16451134Y-14258689D01*
X16451134Y-14258689D02*
X16460658Y-14239641D01*
X16460658Y-14239641D02*
X16470182Y-14211070D01*
X16470182Y-14211070D02*
X16479706Y-14163451D01*
X16479706Y-14163451D02*
X16479706Y-14125356D01*
X16479706Y-14125356D02*
X16470182Y-14077737D01*
X16470182Y-14077737D02*
X16460658Y-14049165D01*
X16460658Y-14049165D02*
X16451134Y-14030118D01*
X16451134Y-14030118D02*
X16432087Y-14001546D01*
X16432087Y-14001546D02*
X16422563Y-13992022D01*
X11447500Y-14293110D02*
X11647500Y-14493110D01*
X11647500Y-14293110D02*
X11447500Y-14493110D01*
X11547500Y-14293110D02*
X11547500Y-14493110D01*
X11447500Y-14393110D02*
X11647500Y-14393110D01*
X11889229Y-14284594D02*
X12013039Y-14284594D01*
X12013039Y-14284594D02*
X11946372Y-14360784D01*
X11946372Y-14360784D02*
X11974943Y-14360784D01*
X11974943Y-14360784D02*
X11993991Y-14370308D01*
X11993991Y-14370308D02*
X12003515Y-14379832D01*
X12003515Y-14379832D02*
X12013039Y-14398879D01*
X12013039Y-14398879D02*
X12013039Y-14446498D01*
X12013039Y-14446498D02*
X12003515Y-14465546D01*
X12003515Y-14465546D02*
X11993991Y-14475070D01*
X11993991Y-14475070D02*
X11974943Y-14484594D01*
X11974943Y-14484594D02*
X11917801Y-14484594D01*
X11917801Y-14484594D02*
X11898753Y-14475070D01*
X11898753Y-14475070D02*
X11889229Y-14465546D01*
X12098753Y-14465546D02*
X12108277Y-14475070D01*
X12108277Y-14475070D02*
X12098753Y-14484594D01*
X12098753Y-14484594D02*
X12089229Y-14475070D01*
X12089229Y-14475070D02*
X12098753Y-14465546D01*
X12098753Y-14465546D02*
X12098753Y-14484594D01*
X12289229Y-14284594D02*
X12193991Y-14284594D01*
X12193991Y-14284594D02*
X12184467Y-14379832D01*
X12184467Y-14379832D02*
X12193991Y-14370308D01*
X12193991Y-14370308D02*
X12213039Y-14360784D01*
X12213039Y-14360784D02*
X12260658Y-14360784D01*
X12260658Y-14360784D02*
X12279705Y-14370308D01*
X12279705Y-14370308D02*
X12289229Y-14379832D01*
X12289229Y-14379832D02*
X12298753Y-14398879D01*
X12298753Y-14398879D02*
X12298753Y-14446498D01*
X12298753Y-14446498D02*
X12289229Y-14465546D01*
X12289229Y-14465546D02*
X12279705Y-14475070D01*
X12279705Y-14475070D02*
X12260658Y-14484594D01*
X12260658Y-14484594D02*
X12213039Y-14484594D01*
X12213039Y-14484594D02*
X12193991Y-14475070D01*
X12193991Y-14475070D02*
X12184467Y-14465546D01*
X12422562Y-14284594D02*
X12441610Y-14284594D01*
X12441610Y-14284594D02*
X12460658Y-14294118D01*
X12460658Y-14294118D02*
X12470182Y-14303641D01*
X12470182Y-14303641D02*
X12479705Y-14322689D01*
X12479705Y-14322689D02*
X12489229Y-14360784D01*
X12489229Y-14360784D02*
X12489229Y-14408403D01*
X12489229Y-14408403D02*
X12479705Y-14446498D01*
X12479705Y-14446498D02*
X12470182Y-14465546D01*
X12470182Y-14465546D02*
X12460658Y-14475070D01*
X12460658Y-14475070D02*
X12441610Y-14484594D01*
X12441610Y-14484594D02*
X12422562Y-14484594D01*
X12422562Y-14484594D02*
X12403515Y-14475070D01*
X12403515Y-14475070D02*
X12393991Y-14465546D01*
X12393991Y-14465546D02*
X12384467Y-14446498D01*
X12384467Y-14446498D02*
X12374943Y-14408403D01*
X12374943Y-14408403D02*
X12374943Y-14360784D01*
X12374943Y-14360784D02*
X12384467Y-14322689D01*
X12384467Y-14322689D02*
X12393991Y-14303641D01*
X12393991Y-14303641D02*
X12403515Y-14294118D01*
X12403515Y-14294118D02*
X12422562Y-14284594D01*
X12613039Y-14284594D02*
X12632086Y-14284594D01*
X12632086Y-14284594D02*
X12651134Y-14294118D01*
X12651134Y-14294118D02*
X12660658Y-14303641D01*
X12660658Y-14303641D02*
X12670182Y-14322689D01*
X12670182Y-14322689D02*
X12679705Y-14360784D01*
X12679705Y-14360784D02*
X12679705Y-14408403D01*
X12679705Y-14408403D02*
X12670182Y-14446498D01*
X12670182Y-14446498D02*
X12660658Y-14465546D01*
X12660658Y-14465546D02*
X12651134Y-14475070D01*
X12651134Y-14475070D02*
X12632086Y-14484594D01*
X12632086Y-14484594D02*
X12613039Y-14484594D01*
X12613039Y-14484594D02*
X12593991Y-14475070D01*
X12593991Y-14475070D02*
X12584467Y-14465546D01*
X12584467Y-14465546D02*
X12574943Y-14446498D01*
X12574943Y-14446498D02*
X12565420Y-14408403D01*
X12565420Y-14408403D02*
X12565420Y-14360784D01*
X12565420Y-14360784D02*
X12574943Y-14322689D01*
X12574943Y-14322689D02*
X12584467Y-14303641D01*
X12584467Y-14303641D02*
X12593991Y-14294118D01*
X12593991Y-14294118D02*
X12613039Y-14284594D01*
X12765420Y-14484594D02*
X12765420Y-14351260D01*
X12765420Y-14370308D02*
X12774943Y-14360784D01*
X12774943Y-14360784D02*
X12793991Y-14351260D01*
X12793991Y-14351260D02*
X12822563Y-14351260D01*
X12822563Y-14351260D02*
X12841610Y-14360784D01*
X12841610Y-14360784D02*
X12851134Y-14379832D01*
X12851134Y-14379832D02*
X12851134Y-14484594D01*
X12851134Y-14379832D02*
X12860658Y-14360784D01*
X12860658Y-14360784D02*
X12879705Y-14351260D01*
X12879705Y-14351260D02*
X12908277Y-14351260D01*
X12908277Y-14351260D02*
X12927324Y-14360784D01*
X12927324Y-14360784D02*
X12936848Y-14379832D01*
X12936848Y-14379832D02*
X12936848Y-14484594D01*
X13032086Y-14484594D02*
X13032086Y-14351260D01*
X13032086Y-14370308D02*
X13041610Y-14360784D01*
X13041610Y-14360784D02*
X13060658Y-14351260D01*
X13060658Y-14351260D02*
X13089229Y-14351260D01*
X13089229Y-14351260D02*
X13108277Y-14360784D01*
X13108277Y-14360784D02*
X13117801Y-14379832D01*
X13117801Y-14379832D02*
X13117801Y-14484594D01*
X13117801Y-14379832D02*
X13127324Y-14360784D01*
X13127324Y-14360784D02*
X13146372Y-14351260D01*
X13146372Y-14351260D02*
X13174943Y-14351260D01*
X13174943Y-14351260D02*
X13193991Y-14360784D01*
X13193991Y-14360784D02*
X13203515Y-14379832D01*
X13203515Y-14379832D02*
X13203515Y-14484594D01*
X13593991Y-14275070D02*
X13422563Y-14532213D01*
X13851134Y-14284594D02*
X13870182Y-14284594D01*
X13870182Y-14284594D02*
X13889229Y-14294118D01*
X13889229Y-14294118D02*
X13898753Y-14303641D01*
X13898753Y-14303641D02*
X13908277Y-14322689D01*
X13908277Y-14322689D02*
X13917801Y-14360784D01*
X13917801Y-14360784D02*
X13917801Y-14408403D01*
X13917801Y-14408403D02*
X13908277Y-14446498D01*
X13908277Y-14446498D02*
X13898753Y-14465546D01*
X13898753Y-14465546D02*
X13889229Y-14475070D01*
X13889229Y-14475070D02*
X13870182Y-14484594D01*
X13870182Y-14484594D02*
X13851134Y-14484594D01*
X13851134Y-14484594D02*
X13832086Y-14475070D01*
X13832086Y-14475070D02*
X13822563Y-14465546D01*
X13822563Y-14465546D02*
X13813039Y-14446498D01*
X13813039Y-14446498D02*
X13803515Y-14408403D01*
X13803515Y-14408403D02*
X13803515Y-14360784D01*
X13803515Y-14360784D02*
X13813039Y-14322689D01*
X13813039Y-14322689D02*
X13822563Y-14303641D01*
X13822563Y-14303641D02*
X13832086Y-14294118D01*
X13832086Y-14294118D02*
X13851134Y-14284594D01*
X14003515Y-14465546D02*
X14013039Y-14475070D01*
X14013039Y-14475070D02*
X14003515Y-14484594D01*
X14003515Y-14484594D02*
X13993991Y-14475070D01*
X13993991Y-14475070D02*
X14003515Y-14465546D01*
X14003515Y-14465546D02*
X14003515Y-14484594D01*
X14203515Y-14484594D02*
X14089229Y-14484594D01*
X14146372Y-14484594D02*
X14146372Y-14284594D01*
X14146372Y-14284594D02*
X14127325Y-14313165D01*
X14127325Y-14313165D02*
X14108277Y-14332213D01*
X14108277Y-14332213D02*
X14089229Y-14341737D01*
X14270182Y-14284594D02*
X14393991Y-14284594D01*
X14393991Y-14284594D02*
X14327325Y-14360784D01*
X14327325Y-14360784D02*
X14355896Y-14360784D01*
X14355896Y-14360784D02*
X14374944Y-14370308D01*
X14374944Y-14370308D02*
X14384467Y-14379832D01*
X14384467Y-14379832D02*
X14393991Y-14398879D01*
X14393991Y-14398879D02*
X14393991Y-14446498D01*
X14393991Y-14446498D02*
X14384467Y-14465546D01*
X14384467Y-14465546D02*
X14374944Y-14475070D01*
X14374944Y-14475070D02*
X14355896Y-14484594D01*
X14355896Y-14484594D02*
X14298753Y-14484594D01*
X14298753Y-14484594D02*
X14279706Y-14475070D01*
X14279706Y-14475070D02*
X14270182Y-14465546D01*
X14460658Y-14284594D02*
X14593991Y-14284594D01*
X14593991Y-14284594D02*
X14508277Y-14484594D01*
X14698753Y-14370308D02*
X14679706Y-14360784D01*
X14679706Y-14360784D02*
X14670182Y-14351260D01*
X14670182Y-14351260D02*
X14660658Y-14332213D01*
X14660658Y-14332213D02*
X14660658Y-14322689D01*
X14660658Y-14322689D02*
X14670182Y-14303641D01*
X14670182Y-14303641D02*
X14679706Y-14294118D01*
X14679706Y-14294118D02*
X14698753Y-14284594D01*
X14698753Y-14284594D02*
X14736848Y-14284594D01*
X14736848Y-14284594D02*
X14755896Y-14294118D01*
X14755896Y-14294118D02*
X14765420Y-14303641D01*
X14765420Y-14303641D02*
X14774944Y-14322689D01*
X14774944Y-14322689D02*
X14774944Y-14332213D01*
X14774944Y-14332213D02*
X14765420Y-14351260D01*
X14765420Y-14351260D02*
X14755896Y-14360784D01*
X14755896Y-14360784D02*
X14736848Y-14370308D01*
X14736848Y-14370308D02*
X14698753Y-14370308D01*
X14698753Y-14370308D02*
X14679706Y-14379832D01*
X14679706Y-14379832D02*
X14670182Y-14389356D01*
X14670182Y-14389356D02*
X14660658Y-14408403D01*
X14660658Y-14408403D02*
X14660658Y-14446498D01*
X14660658Y-14446498D02*
X14670182Y-14465546D01*
X14670182Y-14465546D02*
X14679706Y-14475070D01*
X14679706Y-14475070D02*
X14698753Y-14484594D01*
X14698753Y-14484594D02*
X14736848Y-14484594D01*
X14736848Y-14484594D02*
X14755896Y-14475070D01*
X14755896Y-14475070D02*
X14765420Y-14465546D01*
X14765420Y-14465546D02*
X14774944Y-14446498D01*
X14774944Y-14446498D02*
X14774944Y-14408403D01*
X14774944Y-14408403D02*
X14765420Y-14389356D01*
X14765420Y-14389356D02*
X14755896Y-14379832D01*
X14755896Y-14379832D02*
X14736848Y-14370308D01*
X14851134Y-14284594D02*
X14851134Y-14322689D01*
X14927325Y-14284594D02*
X14927325Y-14322689D01*
X15222563Y-14560784D02*
X15213039Y-14551260D01*
X15213039Y-14551260D02*
X15193991Y-14522689D01*
X15193991Y-14522689D02*
X15184468Y-14503641D01*
X15184468Y-14503641D02*
X15174944Y-14475070D01*
X15174944Y-14475070D02*
X15165420Y-14427451D01*
X15165420Y-14427451D02*
X15165420Y-14389356D01*
X15165420Y-14389356D02*
X15174944Y-14341737D01*
X15174944Y-14341737D02*
X15184468Y-14313165D01*
X15184468Y-14313165D02*
X15193991Y-14294118D01*
X15193991Y-14294118D02*
X15213039Y-14265546D01*
X15213039Y-14265546D02*
X15222563Y-14256022D01*
X15289229Y-14303641D02*
X15298753Y-14294118D01*
X15298753Y-14294118D02*
X15317801Y-14284594D01*
X15317801Y-14284594D02*
X15365420Y-14284594D01*
X15365420Y-14284594D02*
X15384468Y-14294118D01*
X15384468Y-14294118D02*
X15393991Y-14303641D01*
X15393991Y-14303641D02*
X15403515Y-14322689D01*
X15403515Y-14322689D02*
X15403515Y-14341737D01*
X15403515Y-14341737D02*
X15393991Y-14370308D01*
X15393991Y-14370308D02*
X15279706Y-14484594D01*
X15279706Y-14484594D02*
X15403515Y-14484594D01*
X15641610Y-14484594D02*
X15641610Y-14284594D01*
X15727325Y-14484594D02*
X15727325Y-14379832D01*
X15727325Y-14379832D02*
X15717801Y-14360784D01*
X15717801Y-14360784D02*
X15698753Y-14351260D01*
X15698753Y-14351260D02*
X15670182Y-14351260D01*
X15670182Y-14351260D02*
X15651134Y-14360784D01*
X15651134Y-14360784D02*
X15641610Y-14370308D01*
X15851134Y-14484594D02*
X15832087Y-14475070D01*
X15832087Y-14475070D02*
X15822563Y-14465546D01*
X15822563Y-14465546D02*
X15813039Y-14446498D01*
X15813039Y-14446498D02*
X15813039Y-14389356D01*
X15813039Y-14389356D02*
X15822563Y-14370308D01*
X15822563Y-14370308D02*
X15832087Y-14360784D01*
X15832087Y-14360784D02*
X15851134Y-14351260D01*
X15851134Y-14351260D02*
X15879706Y-14351260D01*
X15879706Y-14351260D02*
X15898753Y-14360784D01*
X15898753Y-14360784D02*
X15908277Y-14370308D01*
X15908277Y-14370308D02*
X15917801Y-14389356D01*
X15917801Y-14389356D02*
X15917801Y-14446498D01*
X15917801Y-14446498D02*
X15908277Y-14465546D01*
X15908277Y-14465546D02*
X15898753Y-14475070D01*
X15898753Y-14475070D02*
X15879706Y-14484594D01*
X15879706Y-14484594D02*
X15851134Y-14484594D01*
X16032087Y-14484594D02*
X16013039Y-14475070D01*
X16013039Y-14475070D02*
X16003515Y-14456022D01*
X16003515Y-14456022D02*
X16003515Y-14284594D01*
X16184468Y-14475070D02*
X16165420Y-14484594D01*
X16165420Y-14484594D02*
X16127325Y-14484594D01*
X16127325Y-14484594D02*
X16108277Y-14475070D01*
X16108277Y-14475070D02*
X16098753Y-14456022D01*
X16098753Y-14456022D02*
X16098753Y-14379832D01*
X16098753Y-14379832D02*
X16108277Y-14360784D01*
X16108277Y-14360784D02*
X16127325Y-14351260D01*
X16127325Y-14351260D02*
X16165420Y-14351260D01*
X16165420Y-14351260D02*
X16184468Y-14360784D01*
X16184468Y-14360784D02*
X16193991Y-14379832D01*
X16193991Y-14379832D02*
X16193991Y-14398879D01*
X16193991Y-14398879D02*
X16098753Y-14417927D01*
X16270182Y-14475070D02*
X16289230Y-14484594D01*
X16289230Y-14484594D02*
X16327325Y-14484594D01*
X16327325Y-14484594D02*
X16346372Y-14475070D01*
X16346372Y-14475070D02*
X16355896Y-14456022D01*
X16355896Y-14456022D02*
X16355896Y-14446498D01*
X16355896Y-14446498D02*
X16346372Y-14427451D01*
X16346372Y-14427451D02*
X16327325Y-14417927D01*
X16327325Y-14417927D02*
X16298753Y-14417927D01*
X16298753Y-14417927D02*
X16279706Y-14408403D01*
X16279706Y-14408403D02*
X16270182Y-14389356D01*
X16270182Y-14389356D02*
X16270182Y-14379832D01*
X16270182Y-14379832D02*
X16279706Y-14360784D01*
X16279706Y-14360784D02*
X16298753Y-14351260D01*
X16298753Y-14351260D02*
X16327325Y-14351260D01*
X16327325Y-14351260D02*
X16346372Y-14360784D01*
X16422563Y-14560784D02*
X16432087Y-14551260D01*
X16432087Y-14551260D02*
X16451134Y-14522689D01*
X16451134Y-14522689D02*
X16460658Y-14503641D01*
X16460658Y-14503641D02*
X16470182Y-14475070D01*
X16470182Y-14475070D02*
X16479706Y-14427451D01*
X16479706Y-14427451D02*
X16479706Y-14389356D01*
X16479706Y-14389356D02*
X16470182Y-14341737D01*
X16470182Y-14341737D02*
X16460658Y-14313165D01*
X16460658Y-14313165D02*
X16451134Y-14294118D01*
X16451134Y-14294118D02*
X16432087Y-14265546D01*
X16432087Y-14265546D02*
X16422563Y-14256022D01*
M02*
