G04 #@! TF.GenerationSoftware,KiCad,Pcbnew,7.0.5-0*
G04 #@! TF.CreationDate,2023-12-22T09:44:44-05:00*
G04 #@! TF.ProjectId,PierogiNixiePSU,50696572-6f67-4694-9e69-786965505355,rev?*
G04 #@! TF.SameCoordinates,Original*
G04 #@! TF.FileFunction,Copper,L1,Top*
G04 #@! TF.FilePolarity,Positive*
%FSLAX46Y46*%
G04 Gerber Fmt 4.6, Leading zero omitted, Abs format (unit mm)*
G04 Created by KiCad (PCBNEW 7.0.5-0) date 2023-12-22 09:44:44*
%MOMM*%
%LPD*%
G01*
G04 APERTURE LIST*
G04 Aperture macros list*
%AMRoundRect*
0 Rectangle with rounded corners*
0 $1 Rounding radius*
0 $2 $3 $4 $5 $6 $7 $8 $9 X,Y pos of 4 corners*
0 Add a 4 corners polygon primitive as box body*
4,1,4,$2,$3,$4,$5,$6,$7,$8,$9,$2,$3,0*
0 Add four circle primitives for the rounded corners*
1,1,$1+$1,$2,$3*
1,1,$1+$1,$4,$5*
1,1,$1+$1,$6,$7*
1,1,$1+$1,$8,$9*
0 Add four rect primitives between the rounded corners*
20,1,$1+$1,$2,$3,$4,$5,0*
20,1,$1+$1,$4,$5,$6,$7,0*
20,1,$1+$1,$6,$7,$8,$9,0*
20,1,$1+$1,$8,$9,$2,$3,0*%
G04 Aperture macros list end*
G04 #@! TA.AperFunction,SMDPad,CuDef*
%ADD10RoundRect,0.250000X0.262500X0.450000X-0.262500X0.450000X-0.262500X-0.450000X0.262500X-0.450000X0*%
G04 #@! TD*
G04 #@! TA.AperFunction,SMDPad,CuDef*
%ADD11RoundRect,0.250000X-0.250000X-0.475000X0.250000X-0.475000X0.250000X0.475000X-0.250000X0.475000X0*%
G04 #@! TD*
G04 #@! TA.AperFunction,ComponentPad*
%ADD12C,1.950000*%
G04 #@! TD*
G04 #@! TA.AperFunction,SMDPad,CuDef*
%ADD13RoundRect,0.250000X0.300000X-2.050000X0.300000X2.050000X-0.300000X2.050000X-0.300000X-2.050000X0*%
G04 #@! TD*
G04 #@! TA.AperFunction,SMDPad,CuDef*
%ADD14RoundRect,0.250002X5.149998X-4.449998X5.149998X4.449998X-5.149998X4.449998X-5.149998X-4.449998X0*%
G04 #@! TD*
G04 #@! TA.AperFunction,ComponentPad*
%ADD15C,0.800000*%
G04 #@! TD*
G04 #@! TA.AperFunction,ComponentPad*
%ADD16C,7.000000*%
G04 #@! TD*
G04 #@! TA.AperFunction,SMDPad,CuDef*
%ADD17RoundRect,0.250000X0.475000X-0.250000X0.475000X0.250000X-0.475000X0.250000X-0.475000X-0.250000X0*%
G04 #@! TD*
G04 #@! TA.AperFunction,SMDPad,CuDef*
%ADD18R,4.950000X3.175000*%
G04 #@! TD*
G04 #@! TA.AperFunction,SMDPad,CuDef*
%ADD19R,1.550000X0.700000*%
G04 #@! TD*
G04 #@! TA.AperFunction,SMDPad,CuDef*
%ADD20RoundRect,0.250000X-0.787500X-1.025000X0.787500X-1.025000X0.787500X1.025000X-0.787500X1.025000X0*%
G04 #@! TD*
G04 #@! TA.AperFunction,ComponentPad*
%ADD21R,1.600000X1.600000*%
G04 #@! TD*
G04 #@! TA.AperFunction,ComponentPad*
%ADD22C,1.600000*%
G04 #@! TD*
G04 #@! TA.AperFunction,SMDPad,CuDef*
%ADD23RoundRect,0.250000X0.450000X-0.262500X0.450000X0.262500X-0.450000X0.262500X-0.450000X-0.262500X0*%
G04 #@! TD*
G04 #@! TA.AperFunction,SMDPad,CuDef*
%ADD24RoundRect,0.250000X1.500000X0.900000X-1.500000X0.900000X-1.500000X-0.900000X1.500000X-0.900000X0*%
G04 #@! TD*
G04 #@! TA.AperFunction,ComponentPad*
%ADD25R,4.500000X2.000000*%
G04 #@! TD*
G04 #@! TA.AperFunction,ComponentPad*
%ADD26O,4.000000X2.000000*%
G04 #@! TD*
G04 #@! TA.AperFunction,ComponentPad*
%ADD27O,2.000000X4.000000*%
G04 #@! TD*
G04 #@! TA.AperFunction,SMDPad,CuDef*
%ADD28RoundRect,0.250000X-0.450000X0.262500X-0.450000X-0.262500X0.450000X-0.262500X0.450000X0.262500X0*%
G04 #@! TD*
G04 #@! TA.AperFunction,ViaPad*
%ADD29C,0.800000*%
G04 #@! TD*
G04 #@! TA.AperFunction,ViaPad*
%ADD30C,1.200000*%
G04 #@! TD*
G04 #@! TA.AperFunction,ViaPad*
%ADD31C,1.000000*%
G04 #@! TD*
G04 #@! TA.AperFunction,Conductor*
%ADD32C,1.200000*%
G04 #@! TD*
G04 #@! TA.AperFunction,Conductor*
%ADD33C,0.812800*%
G04 #@! TD*
G04 #@! TA.AperFunction,Conductor*
%ADD34C,0.508000*%
G04 #@! TD*
G04 #@! TA.AperFunction,Conductor*
%ADD35C,1.000000*%
G04 #@! TD*
G04 APERTURE END LIST*
D10*
X151612500Y-113600000D03*
X149787500Y-113600000D03*
D11*
X163750000Y-111400000D03*
X165650000Y-111400000D03*
D12*
X131260000Y-117100000D03*
X133800000Y-117100000D03*
D13*
X144720000Y-102875000D03*
D14*
X147260000Y-93725000D03*
D13*
X149800000Y-102875000D03*
D15*
X162631155Y-105943845D03*
X163400000Y-104087690D03*
X163400000Y-107800000D03*
X165256155Y-103318845D03*
D16*
X165256155Y-105943845D03*
D15*
X165256155Y-108568845D03*
X167112310Y-104087690D03*
X167112310Y-107800000D03*
X167881155Y-105943845D03*
D17*
X152500000Y-119550000D03*
X152500000Y-117650000D03*
D18*
X133800000Y-102707500D03*
X133800000Y-93692500D03*
D17*
X141800000Y-117050000D03*
X141800000Y-115150000D03*
D19*
X144275000Y-115695000D03*
X144275000Y-116965000D03*
X144275000Y-118235000D03*
X144275000Y-119505000D03*
X149725000Y-119505000D03*
X149725000Y-118235000D03*
X149725000Y-116965000D03*
X149725000Y-115695000D03*
D20*
X133787500Y-109300000D03*
X140012500Y-109300000D03*
D21*
X163100000Y-96900000D03*
D22*
X163100000Y-99400000D03*
D12*
X163730000Y-116900000D03*
X166270000Y-116900000D03*
D23*
X157800000Y-113212500D03*
X157800000Y-111387500D03*
D24*
X163100000Y-91100000D03*
X157700000Y-91100000D03*
D25*
X122800000Y-100100000D03*
D26*
X122800000Y-93900000D03*
D27*
X118100000Y-96900000D03*
D23*
X157800000Y-116812500D03*
X157800000Y-114987500D03*
D28*
X157800000Y-118687500D03*
X157800000Y-120512500D03*
D15*
X119575000Y-110400000D03*
X120343845Y-108543845D03*
X120343845Y-112256155D03*
X122200000Y-107775000D03*
D16*
X122200000Y-110400000D03*
D15*
X122200000Y-113025000D03*
X124056155Y-108543845D03*
X124056155Y-112256155D03*
X124825000Y-110400000D03*
D29*
X151100000Y-117000000D03*
D30*
X141800000Y-113800000D03*
D31*
X126000000Y-115900000D03*
D29*
X142900000Y-119500000D03*
D31*
X138200000Y-90100000D03*
X154800000Y-112700000D03*
D29*
X151100000Y-118200000D03*
D31*
X160700000Y-113400000D03*
X137700000Y-119300000D03*
X152700000Y-109800000D03*
X167600000Y-96000000D03*
X155500000Y-105500000D03*
X168600000Y-111600000D03*
X147000000Y-112600000D03*
X166900000Y-101100000D03*
X128900000Y-111800000D03*
D30*
X153000000Y-113600000D03*
D31*
X164700000Y-94000000D03*
X140300000Y-97500000D03*
D30*
X142000000Y-109300000D03*
D31*
X155400000Y-109100000D03*
X119500000Y-119500000D03*
X127000000Y-104100000D03*
X155000000Y-101700000D03*
D30*
X167000000Y-111400000D03*
D31*
X160400000Y-108400000D03*
X147300000Y-108200000D03*
X119000000Y-103900000D03*
X140500000Y-118700000D03*
D30*
X159300000Y-120500000D03*
D31*
X132200000Y-90100000D03*
X138100000Y-114700000D03*
X160100000Y-103200000D03*
X122100000Y-115800000D03*
X140900000Y-104600000D03*
X118500000Y-114400000D03*
X140500000Y-101100000D03*
X130900000Y-107600000D03*
D30*
X152500000Y-116300000D03*
D31*
X123500000Y-118100000D03*
X160200000Y-117500000D03*
X159000000Y-95200000D03*
X155400000Y-97200000D03*
X154700000Y-90600000D03*
X167900000Y-93100000D03*
X122000000Y-105400000D03*
X167700000Y-89900000D03*
X126100000Y-119600000D03*
D32*
X152500000Y-117650000D02*
X152500000Y-116300000D01*
X157800000Y-120512500D02*
X159287500Y-120512500D01*
X159287500Y-120512500D02*
X159300000Y-120500000D01*
D33*
X151100000Y-118200000D02*
X149760000Y-118200000D01*
D32*
X165650000Y-111400000D02*
X167000000Y-111400000D01*
X141800000Y-115150000D02*
X141800000Y-113800000D01*
D33*
X144270000Y-119500000D02*
X144275000Y-119505000D01*
D32*
X140000000Y-109300000D02*
X142000000Y-109300000D01*
D33*
X151100000Y-117000000D02*
X149760000Y-117000000D01*
X142900000Y-119500000D02*
X144270000Y-119500000D01*
D32*
X151612500Y-113600000D02*
X153000000Y-113600000D01*
D33*
X152500000Y-119550000D02*
X149770000Y-119550000D01*
X144275000Y-112725000D02*
X144720000Y-112280000D01*
X144275000Y-115695000D02*
X144275000Y-112725000D01*
X144720000Y-112280000D02*
X144720000Y-102875000D01*
X149725000Y-115695000D02*
X149725000Y-113662500D01*
X149787500Y-113600000D02*
X149787500Y-102887500D01*
D34*
X142465000Y-118235000D02*
X144275000Y-118235000D01*
X154500000Y-120000000D02*
X153600000Y-120900000D01*
X156112500Y-114987500D02*
X154500000Y-116600000D01*
X141800000Y-120000000D02*
X141800000Y-118900000D01*
X153600000Y-120900000D02*
X142700000Y-120900000D01*
X154500000Y-116600000D02*
X154500000Y-120000000D01*
D32*
X157800000Y-113212500D02*
X157800000Y-114987500D01*
D34*
X157800000Y-114987500D02*
X156112500Y-114987500D01*
X141800000Y-118900000D02*
X142465000Y-118235000D01*
X142700000Y-120900000D02*
X141800000Y-120000000D01*
D35*
X141800000Y-117050000D02*
X144190000Y-117050000D01*
D32*
X133800000Y-109300000D02*
X133800000Y-102707500D01*
X129200000Y-109300000D02*
X133787500Y-109300000D01*
X122800000Y-100100000D02*
X122800000Y-102900000D01*
X133800000Y-109300000D02*
X133800000Y-117100000D01*
D35*
X141800000Y-117050000D02*
X133850000Y-117050000D01*
D32*
X122800000Y-102900000D02*
X129200000Y-109300000D01*
X157800000Y-98600000D02*
X159500000Y-96900000D01*
X163100000Y-96900000D02*
X163100000Y-91100000D01*
D35*
X157800000Y-111387500D02*
X163737500Y-111387500D01*
X157700000Y-111287500D02*
X157700000Y-98700000D01*
D32*
X163100000Y-96900000D02*
X159500000Y-96900000D01*
X163750000Y-116880000D02*
X163730000Y-116900000D01*
D35*
X157700000Y-98700000D02*
X157800000Y-98600000D01*
X163750000Y-111400000D02*
X163750000Y-116880000D01*
D32*
X157700000Y-92900000D02*
X157700000Y-91100000D01*
X147260000Y-93725000D02*
X156875000Y-93725000D01*
X156875000Y-93725000D02*
X157700000Y-92900000D01*
X133800000Y-93692500D02*
X147227500Y-93692500D01*
X157800000Y-116812500D02*
X157800000Y-118687500D01*
M02*
