G04 #@! TF.GenerationSoftware,KiCad,Pcbnew,7.0.5-0*
G04 #@! TF.CreationDate,2023-12-22T09:44:44-05:00*
G04 #@! TF.ProjectId,PierogiNixiePSU,50696572-6f67-4694-9e69-786965505355,rev?*
G04 #@! TF.SameCoordinates,Original*
G04 #@! TF.FileFunction,Copper,L2,Inr*
G04 #@! TF.FilePolarity,Positive*
%FSLAX46Y46*%
G04 Gerber Fmt 4.6, Leading zero omitted, Abs format (unit mm)*
G04 Created by KiCad (PCBNEW 7.0.5-0) date 2023-12-22 09:44:44*
%MOMM*%
%LPD*%
G01*
G04 APERTURE LIST*
G04 #@! TA.AperFunction,ComponentPad*
%ADD10C,1.950000*%
G04 #@! TD*
G04 #@! TA.AperFunction,ComponentPad*
%ADD11C,0.800000*%
G04 #@! TD*
G04 #@! TA.AperFunction,ComponentPad*
%ADD12C,7.000000*%
G04 #@! TD*
G04 #@! TA.AperFunction,ComponentPad*
%ADD13R,1.600000X1.600000*%
G04 #@! TD*
G04 #@! TA.AperFunction,ComponentPad*
%ADD14C,1.600000*%
G04 #@! TD*
G04 #@! TA.AperFunction,ComponentPad*
%ADD15R,4.500000X2.000000*%
G04 #@! TD*
G04 #@! TA.AperFunction,ComponentPad*
%ADD16O,4.000000X2.000000*%
G04 #@! TD*
G04 #@! TA.AperFunction,ComponentPad*
%ADD17O,2.000000X4.000000*%
G04 #@! TD*
G04 #@! TA.AperFunction,ViaPad*
%ADD18C,0.800000*%
G04 #@! TD*
G04 #@! TA.AperFunction,ViaPad*
%ADD19C,1.200000*%
G04 #@! TD*
G04 #@! TA.AperFunction,ViaPad*
%ADD20C,1.000000*%
G04 #@! TD*
G04 APERTURE END LIST*
D10*
X131260000Y-117100000D03*
X133800000Y-117100000D03*
D11*
X162631155Y-105943845D03*
X163400000Y-104087690D03*
X163400000Y-107800000D03*
X165256155Y-103318845D03*
D12*
X165256155Y-105943845D03*
D11*
X165256155Y-108568845D03*
X167112310Y-104087690D03*
X167112310Y-107800000D03*
X167881155Y-105943845D03*
D13*
X163100000Y-96900000D03*
D14*
X163100000Y-99400000D03*
D10*
X163730000Y-116900000D03*
X166270000Y-116900000D03*
D15*
X122800000Y-100100000D03*
D16*
X122800000Y-93900000D03*
D17*
X118100000Y-96900000D03*
D11*
X119575000Y-110400000D03*
X120343845Y-108543845D03*
X120343845Y-112256155D03*
X122200000Y-107775000D03*
D12*
X122200000Y-110400000D03*
D11*
X122200000Y-113025000D03*
X124056155Y-108543845D03*
X124056155Y-112256155D03*
X124825000Y-110400000D03*
D18*
X151100000Y-117000000D03*
D19*
X141800000Y-113800000D03*
D20*
X126000000Y-115900000D03*
D18*
X142900000Y-119500000D03*
D20*
X138200000Y-90100000D03*
X154800000Y-112700000D03*
D18*
X151100000Y-118200000D03*
D20*
X160700000Y-113400000D03*
X137700000Y-119300000D03*
X152700000Y-109800000D03*
X167600000Y-96000000D03*
X155500000Y-105500000D03*
X168600000Y-111600000D03*
X147000000Y-112600000D03*
X166900000Y-101100000D03*
X128900000Y-111800000D03*
D19*
X153000000Y-113600000D03*
D20*
X164700000Y-94000000D03*
X140300000Y-97500000D03*
D19*
X142000000Y-109300000D03*
D20*
X155400000Y-109100000D03*
X119500000Y-119500000D03*
X127000000Y-104100000D03*
X155000000Y-101700000D03*
D19*
X167000000Y-111400000D03*
D20*
X160400000Y-108400000D03*
X147300000Y-108200000D03*
X119000000Y-103900000D03*
X140500000Y-118700000D03*
D19*
X159300000Y-120500000D03*
D20*
X132200000Y-90100000D03*
X138100000Y-114700000D03*
X160100000Y-103200000D03*
X122100000Y-115800000D03*
X140900000Y-104600000D03*
X118500000Y-114400000D03*
X140500000Y-101100000D03*
X130900000Y-107600000D03*
D19*
X152500000Y-116300000D03*
D20*
X123500000Y-118100000D03*
X160200000Y-117500000D03*
X159000000Y-95200000D03*
X155400000Y-97200000D03*
X154700000Y-90600000D03*
X167900000Y-93100000D03*
X122000000Y-105400000D03*
X167700000Y-89900000D03*
X126100000Y-119600000D03*
G04 #@! TA.AperFunction,Conductor*
G36*
X169455360Y-88366588D02*
G01*
X169522397Y-88386277D01*
X169568148Y-88439084D01*
X169579350Y-88490588D01*
X169579350Y-121516588D01*
X169559665Y-121583627D01*
X169506861Y-121629382D01*
X169455342Y-121640588D01*
X116649492Y-121637010D01*
X116582453Y-121617321D01*
X116536702Y-121564514D01*
X116525500Y-121513010D01*
X116525500Y-117100005D01*
X129779944Y-117100005D01*
X129800130Y-117343605D01*
X129860138Y-117580573D01*
X129958328Y-117804424D01*
X130054626Y-117951820D01*
X130657452Y-117348993D01*
X130667188Y-117378956D01*
X130755186Y-117517619D01*
X130874903Y-117630040D01*
X131009510Y-117704041D01*
X130407757Y-118305793D01*
X130407758Y-118305794D01*
X130450485Y-118339050D01*
X130450485Y-118339051D01*
X130665468Y-118455394D01*
X130665476Y-118455397D01*
X130896664Y-118534765D01*
X131137779Y-118575000D01*
X131382221Y-118575000D01*
X131623335Y-118534765D01*
X131854523Y-118455397D01*
X131854531Y-118455394D01*
X132069515Y-118339050D01*
X132069516Y-118339048D01*
X132112240Y-118305794D01*
X132112241Y-118305793D01*
X131507534Y-117701086D01*
X131575629Y-117674126D01*
X131708492Y-117577595D01*
X131813175Y-117451055D01*
X131861631Y-117348079D01*
X132465372Y-117951820D01*
X132542808Y-117833298D01*
X132595954Y-117787941D01*
X132665186Y-117778518D01*
X132728521Y-117808020D01*
X132748190Y-117829996D01*
X132786363Y-117884512D01*
X132815487Y-117926105D01*
X132973895Y-118084513D01*
X133157404Y-118213008D01*
X133248302Y-118255394D01*
X133360432Y-118307681D01*
X133360434Y-118307681D01*
X133360439Y-118307684D01*
X133576829Y-118365666D01*
X133736236Y-118379612D01*
X133799998Y-118385191D01*
X133800000Y-118385191D01*
X133800002Y-118385191D01*
X133855792Y-118380309D01*
X134023171Y-118365666D01*
X134239561Y-118307684D01*
X134442596Y-118213008D01*
X134626105Y-118084513D01*
X134784513Y-117926105D01*
X134913008Y-117742596D01*
X135007684Y-117539561D01*
X135065666Y-117323171D01*
X135085191Y-117100000D01*
X135085190Y-117099994D01*
X135071292Y-116941138D01*
X135067693Y-116900001D01*
X162444809Y-116900001D01*
X162464333Y-117123165D01*
X162464334Y-117123173D01*
X162522314Y-117339556D01*
X162522318Y-117339567D01*
X162616990Y-117542592D01*
X162616996Y-117542602D01*
X162709091Y-117674126D01*
X162745487Y-117726105D01*
X162903895Y-117884513D01*
X163087404Y-118013008D01*
X163209555Y-118069967D01*
X163290432Y-118107681D01*
X163290434Y-118107681D01*
X163290439Y-118107684D01*
X163506829Y-118165666D01*
X163666236Y-118179612D01*
X163729998Y-118185191D01*
X163730000Y-118185191D01*
X163730002Y-118185191D01*
X163785792Y-118180309D01*
X163953171Y-118165666D01*
X164169561Y-118107684D01*
X164372596Y-118013008D01*
X164556105Y-117884513D01*
X164714513Y-117726105D01*
X164781811Y-117629993D01*
X164836385Y-117586372D01*
X164905883Y-117579179D01*
X164968238Y-117610701D01*
X164987192Y-117633298D01*
X165064626Y-117751820D01*
X165667452Y-117148993D01*
X165677188Y-117178956D01*
X165765186Y-117317619D01*
X165884903Y-117430040D01*
X166019510Y-117504041D01*
X165417757Y-118105793D01*
X165417758Y-118105794D01*
X165460485Y-118139050D01*
X165460485Y-118139051D01*
X165675468Y-118255394D01*
X165675476Y-118255397D01*
X165906664Y-118334765D01*
X166147779Y-118375000D01*
X166392221Y-118375000D01*
X166633335Y-118334765D01*
X166864523Y-118255397D01*
X166864531Y-118255394D01*
X167079515Y-118139050D01*
X167079516Y-118139048D01*
X167122240Y-118105794D01*
X167122241Y-118105793D01*
X166517534Y-117501086D01*
X166585629Y-117474126D01*
X166718492Y-117377595D01*
X166823175Y-117251055D01*
X166871632Y-117148078D01*
X167475372Y-117751820D01*
X167571669Y-117604429D01*
X167669861Y-117380573D01*
X167729869Y-117143605D01*
X167750055Y-116900005D01*
X167750055Y-116899994D01*
X167729869Y-116656394D01*
X167669861Y-116419426D01*
X167571671Y-116195575D01*
X167475372Y-116048178D01*
X166872546Y-116651004D01*
X166862812Y-116621044D01*
X166774814Y-116482381D01*
X166655097Y-116369960D01*
X166520489Y-116295958D01*
X167122240Y-115694205D01*
X167122240Y-115694204D01*
X167079514Y-115660949D01*
X167079514Y-115660948D01*
X166864531Y-115544605D01*
X166864523Y-115544602D01*
X166633335Y-115465234D01*
X166392221Y-115425000D01*
X166147779Y-115425000D01*
X165906664Y-115465234D01*
X165675476Y-115544602D01*
X165675468Y-115544605D01*
X165460484Y-115660949D01*
X165460478Y-115660953D01*
X165417758Y-115694203D01*
X165417758Y-115694205D01*
X166022466Y-116298913D01*
X165954371Y-116325874D01*
X165821508Y-116422405D01*
X165716825Y-116548945D01*
X165668368Y-116651920D01*
X165064626Y-116048179D01*
X164987192Y-116166701D01*
X164934045Y-116212057D01*
X164864814Y-116221481D01*
X164801478Y-116191979D01*
X164781808Y-116170002D01*
X164714516Y-116073899D01*
X164714511Y-116073893D01*
X164556105Y-115915487D01*
X164372602Y-115786996D01*
X164372599Y-115786994D01*
X164372596Y-115786992D01*
X164372592Y-115786990D01*
X164169567Y-115692318D01*
X164169556Y-115692314D01*
X163953173Y-115634334D01*
X163953165Y-115634333D01*
X163730002Y-115614809D01*
X163729998Y-115614809D01*
X163506834Y-115634333D01*
X163506826Y-115634334D01*
X163290443Y-115692314D01*
X163290437Y-115692317D01*
X163087404Y-115786992D01*
X163087400Y-115786994D01*
X162903899Y-115915483D01*
X162903893Y-115915488D01*
X162745488Y-116073893D01*
X162745483Y-116073899D01*
X162616994Y-116257400D01*
X162616992Y-116257404D01*
X162522317Y-116460437D01*
X162522314Y-116460443D01*
X162464334Y-116676826D01*
X162464333Y-116676834D01*
X162444809Y-116899998D01*
X162444809Y-116900001D01*
X135067693Y-116900001D01*
X135065666Y-116876829D01*
X135007684Y-116660439D01*
X134913008Y-116457405D01*
X134913006Y-116457402D01*
X134913005Y-116457400D01*
X134784516Y-116273899D01*
X134784511Y-116273893D01*
X134626105Y-116115487D01*
X134442602Y-115986996D01*
X134442599Y-115986994D01*
X134442596Y-115986992D01*
X134442592Y-115986990D01*
X134239567Y-115892318D01*
X134239556Y-115892314D01*
X134023173Y-115834334D01*
X134023165Y-115834333D01*
X133800002Y-115814809D01*
X133799998Y-115814809D01*
X133576834Y-115834333D01*
X133576826Y-115834334D01*
X133360443Y-115892314D01*
X133360437Y-115892317D01*
X133157404Y-115986992D01*
X133157400Y-115986994D01*
X132973899Y-116115483D01*
X132973893Y-116115488D01*
X132815488Y-116273893D01*
X132815487Y-116273895D01*
X132748191Y-116370003D01*
X132693613Y-116413628D01*
X132624115Y-116420820D01*
X132561760Y-116389298D01*
X132542807Y-116366701D01*
X132465372Y-116248178D01*
X131862546Y-116851003D01*
X131852812Y-116821044D01*
X131764814Y-116682381D01*
X131645097Y-116569960D01*
X131510489Y-116495958D01*
X132112240Y-115894205D01*
X132112240Y-115894204D01*
X132069514Y-115860949D01*
X132069514Y-115860948D01*
X131854531Y-115744605D01*
X131854523Y-115744602D01*
X131623335Y-115665234D01*
X131382221Y-115625000D01*
X131137779Y-115625000D01*
X130896664Y-115665234D01*
X130665476Y-115744602D01*
X130665468Y-115744605D01*
X130450484Y-115860949D01*
X130450478Y-115860953D01*
X130407758Y-115894203D01*
X130407758Y-115894205D01*
X131012466Y-116498913D01*
X130944371Y-116525874D01*
X130811508Y-116622405D01*
X130706825Y-116748945D01*
X130658368Y-116851921D01*
X130054625Y-116248178D01*
X129958329Y-116395572D01*
X129860138Y-116619426D01*
X129800130Y-116856394D01*
X129779944Y-117099994D01*
X129779944Y-117100005D01*
X116525500Y-117100005D01*
X116525500Y-110400000D01*
X118389810Y-110400000D01*
X118409358Y-110785470D01*
X118467804Y-111166981D01*
X118564550Y-111540638D01*
X118698593Y-111902564D01*
X118698599Y-111902579D01*
X118868572Y-112249092D01*
X118868573Y-112249093D01*
X119072735Y-112576640D01*
X119308987Y-112881853D01*
X119574904Y-113161598D01*
X119574905Y-113161598D01*
X119867757Y-113413004D01*
X119867760Y-113413006D01*
X120184547Y-113633496D01*
X120522015Y-113820806D01*
X120876701Y-113973014D01*
X120876711Y-113973017D01*
X120876716Y-113973019D01*
X121244955Y-114088555D01*
X121244958Y-114088555D01*
X121244966Y-114088558D01*
X121623031Y-114166252D01*
X121930219Y-114197490D01*
X122007016Y-114205300D01*
X122007017Y-114205300D01*
X122392984Y-114205300D01*
X122456980Y-114198791D01*
X122776969Y-114166252D01*
X123155034Y-114088558D01*
X123523299Y-113973014D01*
X123877985Y-113820806D01*
X124215453Y-113633496D01*
X124532240Y-113413006D01*
X124825095Y-113161598D01*
X125091013Y-112881853D01*
X125327265Y-112576640D01*
X125531427Y-112249093D01*
X125701404Y-111902571D01*
X125835452Y-111540630D01*
X125932195Y-111166986D01*
X125990641Y-110785471D01*
X126010190Y-110400000D01*
X125990641Y-110014529D01*
X125932195Y-109633014D01*
X125835452Y-109259370D01*
X125805071Y-109177340D01*
X125701406Y-108897435D01*
X125701400Y-108897420D01*
X125531427Y-108550907D01*
X125453383Y-108425698D01*
X125327265Y-108223360D01*
X125091013Y-107918147D01*
X124825095Y-107638402D01*
X124601468Y-107446424D01*
X124532242Y-107386995D01*
X124215453Y-107166504D01*
X124215448Y-107166501D01*
X123877984Y-106979193D01*
X123523304Y-106826988D01*
X123523283Y-106826980D01*
X123155044Y-106711444D01*
X123155038Y-106711443D01*
X123155035Y-106711442D01*
X123155034Y-106711442D01*
X122776969Y-106633748D01*
X122776968Y-106633747D01*
X122776964Y-106633747D01*
X122392984Y-106594700D01*
X122392983Y-106594700D01*
X122007017Y-106594700D01*
X122007016Y-106594700D01*
X121623035Y-106633747D01*
X121244961Y-106711443D01*
X121244955Y-106711444D01*
X120876716Y-106826980D01*
X120876695Y-106826988D01*
X120522015Y-106979193D01*
X120184551Y-107166501D01*
X120184546Y-107166504D01*
X119867757Y-107386995D01*
X119574905Y-107638401D01*
X119308982Y-107918152D01*
X119072738Y-108223355D01*
X118868572Y-108550907D01*
X118698599Y-108897420D01*
X118698593Y-108897435D01*
X118564550Y-109259361D01*
X118467804Y-109633018D01*
X118409358Y-110014529D01*
X118389810Y-110400000D01*
X116525500Y-110400000D01*
X116525500Y-105943845D01*
X161445965Y-105943845D01*
X161465513Y-106329315D01*
X161506169Y-106594700D01*
X161523960Y-106710831D01*
X161524119Y-106711444D01*
X161620705Y-107084483D01*
X161754748Y-107446409D01*
X161754754Y-107446424D01*
X161924727Y-107792937D01*
X162002775Y-107918152D01*
X162128890Y-108120485D01*
X162365142Y-108425698D01*
X162631059Y-108705442D01*
X162631060Y-108705443D01*
X162923912Y-108956849D01*
X162923915Y-108956851D01*
X163240702Y-109177341D01*
X163578170Y-109364651D01*
X163932856Y-109516859D01*
X163932866Y-109516862D01*
X163932871Y-109516864D01*
X164301110Y-109632400D01*
X164301113Y-109632400D01*
X164301121Y-109632403D01*
X164679186Y-109710097D01*
X164986374Y-109741335D01*
X165063171Y-109749145D01*
X165063172Y-109749145D01*
X165449139Y-109749145D01*
X165513135Y-109742637D01*
X165833124Y-109710097D01*
X166211189Y-109632403D01*
X166579454Y-109516859D01*
X166934140Y-109364651D01*
X167271608Y-109177341D01*
X167588395Y-108956851D01*
X167881250Y-108705443D01*
X168147168Y-108425698D01*
X168383420Y-108120485D01*
X168587582Y-107792938D01*
X168757559Y-107446416D01*
X168891607Y-107084475D01*
X168988350Y-106710831D01*
X169046796Y-106329316D01*
X169066345Y-105943845D01*
X169046796Y-105558374D01*
X168988350Y-105176859D01*
X168891607Y-104803215D01*
X168757559Y-104441274D01*
X168587582Y-104094752D01*
X168383420Y-103767205D01*
X168147168Y-103461992D01*
X167881250Y-103182247D01*
X167881249Y-103182246D01*
X167588397Y-102930840D01*
X167271608Y-102710349D01*
X167271603Y-102710346D01*
X166934139Y-102523038D01*
X166579459Y-102370833D01*
X166579438Y-102370825D01*
X166211199Y-102255289D01*
X166211193Y-102255288D01*
X166211190Y-102255287D01*
X166211189Y-102255287D01*
X165833124Y-102177593D01*
X165833123Y-102177592D01*
X165833119Y-102177592D01*
X165449139Y-102138545D01*
X165449138Y-102138545D01*
X165063172Y-102138545D01*
X165063171Y-102138545D01*
X164679190Y-102177592D01*
X164301116Y-102255288D01*
X164301110Y-102255289D01*
X163932871Y-102370825D01*
X163932850Y-102370833D01*
X163578170Y-102523038D01*
X163240706Y-102710346D01*
X163240701Y-102710349D01*
X162923912Y-102930840D01*
X162631060Y-103182246D01*
X162365137Y-103461997D01*
X162128893Y-103767200D01*
X161924727Y-104094752D01*
X161754754Y-104441265D01*
X161754748Y-104441280D01*
X161620705Y-104803206D01*
X161523959Y-105176863D01*
X161465513Y-105558374D01*
X161445965Y-105943845D01*
X116525500Y-105943845D01*
X116525500Y-101145571D01*
X120244700Y-101145571D01*
X120244702Y-101145594D01*
X120247661Y-101171106D01*
X120247662Y-101171109D01*
X120293765Y-101275524D01*
X120293766Y-101275525D01*
X120374475Y-101356234D01*
X120478891Y-101402338D01*
X120504421Y-101405300D01*
X125095578Y-101405299D01*
X125121109Y-101402338D01*
X125225525Y-101356234D01*
X125306234Y-101275525D01*
X125352338Y-101171109D01*
X125355300Y-101145579D01*
X125355299Y-99400002D01*
X161795034Y-99400002D01*
X161814858Y-99626599D01*
X161814860Y-99626610D01*
X161873730Y-99846317D01*
X161873734Y-99846326D01*
X161969865Y-100052481D01*
X161969866Y-100052483D01*
X162020973Y-100125471D01*
X162020973Y-100125472D01*
X162702046Y-99444399D01*
X162714835Y-99525148D01*
X162772359Y-99638045D01*
X162861955Y-99727641D01*
X162974852Y-99785165D01*
X163055599Y-99797953D01*
X162374526Y-100479025D01*
X162374526Y-100479026D01*
X162447512Y-100530131D01*
X162447516Y-100530133D01*
X162653673Y-100626265D01*
X162653682Y-100626269D01*
X162873389Y-100685139D01*
X162873400Y-100685141D01*
X163099998Y-100704966D01*
X163100002Y-100704966D01*
X163326599Y-100685141D01*
X163326610Y-100685139D01*
X163546317Y-100626269D01*
X163546331Y-100626264D01*
X163752478Y-100530136D01*
X163825472Y-100479025D01*
X163144401Y-99797953D01*
X163225148Y-99785165D01*
X163338045Y-99727641D01*
X163427641Y-99638045D01*
X163485165Y-99525148D01*
X163497953Y-99444400D01*
X164179025Y-100125472D01*
X164230136Y-100052478D01*
X164326264Y-99846331D01*
X164326269Y-99846317D01*
X164385139Y-99626610D01*
X164385141Y-99626599D01*
X164404966Y-99400002D01*
X164404966Y-99399997D01*
X164385141Y-99173400D01*
X164385139Y-99173389D01*
X164326269Y-98953682D01*
X164326265Y-98953673D01*
X164230133Y-98747516D01*
X164230131Y-98747512D01*
X164179026Y-98674526D01*
X164179025Y-98674526D01*
X163497953Y-99355598D01*
X163485165Y-99274852D01*
X163427641Y-99161955D01*
X163338045Y-99072359D01*
X163225148Y-99014835D01*
X163144400Y-99002046D01*
X163825472Y-98320974D01*
X163825471Y-98320973D01*
X163752483Y-98269866D01*
X163752477Y-98269863D01*
X163692040Y-98241681D01*
X163639600Y-98195509D01*
X163620448Y-98128316D01*
X163640664Y-98061434D01*
X163693829Y-98016100D01*
X163744443Y-98005299D01*
X163945578Y-98005299D01*
X163971109Y-98002338D01*
X164075525Y-97956234D01*
X164156234Y-97875525D01*
X164202338Y-97771109D01*
X164205300Y-97745579D01*
X164205299Y-96054422D01*
X164202338Y-96028891D01*
X164156234Y-95924475D01*
X164075525Y-95843766D01*
X164073808Y-95843008D01*
X163971110Y-95797662D01*
X163945579Y-95794700D01*
X162254428Y-95794700D01*
X162254405Y-95794702D01*
X162228893Y-95797661D01*
X162228890Y-95797662D01*
X162124475Y-95843765D01*
X162043766Y-95924474D01*
X161997662Y-96028888D01*
X161997662Y-96028890D01*
X161994700Y-96054419D01*
X161994700Y-97745571D01*
X161994702Y-97745594D01*
X161997661Y-97771106D01*
X161997662Y-97771109D01*
X162043765Y-97875524D01*
X162043766Y-97875525D01*
X162124475Y-97956234D01*
X162228891Y-98002338D01*
X162254421Y-98005300D01*
X162455555Y-98005299D01*
X162522592Y-98024983D01*
X162568347Y-98077787D01*
X162578291Y-98146945D01*
X162549266Y-98210501D01*
X162507959Y-98241680D01*
X162447517Y-98269865D01*
X162447514Y-98269867D01*
X162374527Y-98320972D01*
X162374526Y-98320973D01*
X163055600Y-99002046D01*
X162974852Y-99014835D01*
X162861955Y-99072359D01*
X162772359Y-99161955D01*
X162714835Y-99274852D01*
X162702046Y-99355598D01*
X162020973Y-98674526D01*
X161969868Y-98747513D01*
X161873734Y-98953673D01*
X161873730Y-98953682D01*
X161814860Y-99173389D01*
X161814858Y-99173400D01*
X161795034Y-99399997D01*
X161795034Y-99400002D01*
X125355299Y-99400002D01*
X125355299Y-99054422D01*
X125352338Y-99028891D01*
X125306234Y-98924475D01*
X125225525Y-98843766D01*
X125225525Y-98843765D01*
X125121110Y-98797662D01*
X125095579Y-98794700D01*
X120504428Y-98794700D01*
X120504405Y-98794702D01*
X120478893Y-98797661D01*
X120478890Y-98797662D01*
X120374475Y-98843765D01*
X120293766Y-98924474D01*
X120247662Y-99028888D01*
X120247662Y-99028890D01*
X120244700Y-99054419D01*
X120244700Y-101145571D01*
X116525500Y-101145571D01*
X116525500Y-97956994D01*
X116794700Y-97956994D01*
X116809619Y-98127523D01*
X116809620Y-98127531D01*
X116868732Y-98348139D01*
X116868733Y-98348141D01*
X116868734Y-98348144D01*
X116965259Y-98555143D01*
X116965261Y-98555147D01*
X117048852Y-98674526D01*
X117096263Y-98742236D01*
X117257764Y-98903737D01*
X117287381Y-98924475D01*
X117444852Y-99034738D01*
X117444854Y-99034739D01*
X117444857Y-99034741D01*
X117651856Y-99131266D01*
X117872471Y-99190380D01*
X118034991Y-99204598D01*
X118099998Y-99210286D01*
X118100000Y-99210286D01*
X118100002Y-99210286D01*
X118156882Y-99205309D01*
X118327529Y-99190380D01*
X118548144Y-99131266D01*
X118755143Y-99034741D01*
X118942236Y-98903737D01*
X119103737Y-98742236D01*
X119234741Y-98555143D01*
X119331266Y-98348144D01*
X119390380Y-98127529D01*
X119405300Y-97956991D01*
X119405300Y-95843009D01*
X119390380Y-95672471D01*
X119331266Y-95451856D01*
X119234741Y-95244857D01*
X119234739Y-95244854D01*
X119234738Y-95244852D01*
X119124745Y-95087767D01*
X119103737Y-95057764D01*
X118942236Y-94896263D01*
X118904658Y-94869950D01*
X118755147Y-94765261D01*
X118755143Y-94765259D01*
X118665007Y-94723228D01*
X118548144Y-94668734D01*
X118548141Y-94668733D01*
X118548139Y-94668732D01*
X118327531Y-94609620D01*
X118327523Y-94609619D01*
X118100002Y-94589714D01*
X118099998Y-94589714D01*
X117872476Y-94609619D01*
X117872468Y-94609620D01*
X117651860Y-94668732D01*
X117651854Y-94668735D01*
X117444856Y-94765259D01*
X117444852Y-94765261D01*
X117257769Y-94896259D01*
X117257762Y-94896264D01*
X117096264Y-95057762D01*
X117096259Y-95057769D01*
X116965261Y-95244852D01*
X116965259Y-95244856D01*
X116868735Y-95451854D01*
X116868732Y-95451860D01*
X116809620Y-95672468D01*
X116809619Y-95672476D01*
X116794700Y-95843005D01*
X116794700Y-97956994D01*
X116525500Y-97956994D01*
X116525500Y-93649999D01*
X120320976Y-93649999D01*
X120320978Y-93650000D01*
X121366314Y-93650000D01*
X121340507Y-93690156D01*
X121300000Y-93828111D01*
X121300000Y-93971889D01*
X121340507Y-94109844D01*
X121366314Y-94150000D01*
X120320977Y-94150000D01*
X120340916Y-94269492D01*
X120421630Y-94504603D01*
X120421635Y-94504614D01*
X120539942Y-94723228D01*
X120539948Y-94723237D01*
X120692626Y-94919397D01*
X120692635Y-94919407D01*
X120875522Y-95087767D01*
X120875521Y-95087767D01*
X121083632Y-95223732D01*
X121311282Y-95323587D01*
X121552261Y-95384612D01*
X121552269Y-95384614D01*
X121737945Y-95399999D01*
X121737961Y-95400000D01*
X122550000Y-95400000D01*
X122550000Y-94400000D01*
X123050000Y-94400000D01*
X123050000Y-95400000D01*
X123862039Y-95400000D01*
X123862054Y-95399999D01*
X124047730Y-95384614D01*
X124047738Y-95384612D01*
X124288717Y-95323587D01*
X124516367Y-95223732D01*
X124724478Y-95087767D01*
X124907364Y-94919407D01*
X124907373Y-94919397D01*
X125060051Y-94723237D01*
X125060057Y-94723228D01*
X125178364Y-94504614D01*
X125178369Y-94504603D01*
X125259083Y-94269492D01*
X125279023Y-94150000D01*
X124233686Y-94150000D01*
X124259493Y-94109844D01*
X124300000Y-93971889D01*
X124300000Y-93828111D01*
X124259493Y-93690156D01*
X124233686Y-93650000D01*
X125279022Y-93650000D01*
X125279023Y-93649999D01*
X125259083Y-93530507D01*
X125178369Y-93295396D01*
X125178364Y-93295385D01*
X125060057Y-93076771D01*
X125060051Y-93076762D01*
X124907373Y-92880602D01*
X124907364Y-92880592D01*
X124724477Y-92712232D01*
X124724478Y-92712232D01*
X124516367Y-92576267D01*
X124288717Y-92476412D01*
X124047738Y-92415387D01*
X124047730Y-92415385D01*
X123862054Y-92400000D01*
X123050000Y-92400000D01*
X123050000Y-93400000D01*
X122550000Y-93400000D01*
X122550000Y-92400000D01*
X121737945Y-92400000D01*
X121552269Y-92415385D01*
X121552261Y-92415387D01*
X121311282Y-92476412D01*
X121083632Y-92576267D01*
X120875521Y-92712232D01*
X120692635Y-92880592D01*
X120692626Y-92880602D01*
X120539948Y-93076762D01*
X120539942Y-93076771D01*
X120421635Y-93295385D01*
X120421630Y-93295396D01*
X120340916Y-93530507D01*
X120320976Y-93649999D01*
X116525500Y-93649999D01*
X116525500Y-88487010D01*
X116545185Y-88419971D01*
X116597989Y-88374216D01*
X116649506Y-88363010D01*
X169455360Y-88366588D01*
G37*
G04 #@! TD.AperFunction*
M02*
