G04 #@! TF.GenerationSoftware,KiCad,Pcbnew,7.0.5-0*
G04 #@! TF.CreationDate,2023-12-22T09:44:44-05:00*
G04 #@! TF.ProjectId,PierogiNixiePSU,50696572-6f67-4694-9e69-786965505355,rev?*
G04 #@! TF.SameCoordinates,Original*
G04 #@! TF.FileFunction,Legend,Top*
G04 #@! TF.FilePolarity,Positive*
%FSLAX46Y46*%
G04 Gerber Fmt 4.6, Leading zero omitted, Abs format (unit mm)*
G04 Created by KiCad (PCBNEW 7.0.5-0) date 2023-12-22 09:44:44*
%MOMM*%
%LPD*%
G01*
G04 APERTURE LIST*
G04 Aperture macros list*
%AMRoundRect*
0 Rectangle with rounded corners*
0 $1 Rounding radius*
0 $2 $3 $4 $5 $6 $7 $8 $9 X,Y pos of 4 corners*
0 Add a 4 corners polygon primitive as box body*
4,1,4,$2,$3,$4,$5,$6,$7,$8,$9,$2,$3,0*
0 Add four circle primitives for the rounded corners*
1,1,$1+$1,$2,$3*
1,1,$1+$1,$4,$5*
1,1,$1+$1,$6,$7*
1,1,$1+$1,$8,$9*
0 Add four rect primitives between the rounded corners*
20,1,$1+$1,$2,$3,$4,$5,0*
20,1,$1+$1,$4,$5,$6,$7,0*
20,1,$1+$1,$6,$7,$8,$9,0*
20,1,$1+$1,$8,$9,$2,$3,0*%
G04 Aperture macros list end*
%ADD10C,0.150000*%
%ADD11C,0.100000*%
%ADD12C,0.254000*%
%ADD13C,0.120000*%
%ADD14C,0.200000*%
%ADD15RoundRect,0.250000X0.262500X0.450000X-0.262500X0.450000X-0.262500X-0.450000X0.262500X-0.450000X0*%
%ADD16RoundRect,0.250000X-0.250000X-0.475000X0.250000X-0.475000X0.250000X0.475000X-0.250000X0.475000X0*%
%ADD17C,1.950000*%
%ADD18RoundRect,0.250000X0.300000X-2.050000X0.300000X2.050000X-0.300000X2.050000X-0.300000X-2.050000X0*%
%ADD19RoundRect,0.250002X5.149998X-4.449998X5.149998X4.449998X-5.149998X4.449998X-5.149998X-4.449998X0*%
%ADD20C,0.800000*%
%ADD21C,7.000000*%
%ADD22RoundRect,0.250000X0.475000X-0.250000X0.475000X0.250000X-0.475000X0.250000X-0.475000X-0.250000X0*%
%ADD23R,4.950000X3.175000*%
%ADD24R,1.550000X0.700000*%
%ADD25RoundRect,0.250000X-0.787500X-1.025000X0.787500X-1.025000X0.787500X1.025000X-0.787500X1.025000X0*%
%ADD26R,1.600000X1.600000*%
%ADD27C,1.600000*%
%ADD28RoundRect,0.250000X0.450000X-0.262500X0.450000X0.262500X-0.450000X0.262500X-0.450000X-0.262500X0*%
%ADD29RoundRect,0.250000X1.500000X0.900000X-1.500000X0.900000X-1.500000X-0.900000X1.500000X-0.900000X0*%
%ADD30R,4.500000X2.000000*%
%ADD31O,4.000000X2.000000*%
%ADD32O,2.000000X4.000000*%
%ADD33RoundRect,0.250000X-0.450000X0.262500X-0.450000X-0.262500X0.450000X-0.262500X0.450000X0.262500X0*%
G04 APERTURE END LIST*
D10*
X120841541Y-119008628D02*
X121341541Y-120508628D01*
X121341541Y-120508628D02*
X121841541Y-119008628D01*
X123127255Y-120508628D02*
X122270112Y-120508628D01*
X122698683Y-120508628D02*
X122698683Y-119008628D01*
X122698683Y-119008628D02*
X122555826Y-119222914D01*
X122555826Y-119222914D02*
X122412969Y-119365771D01*
X122412969Y-119365771D02*
X122270112Y-119437200D01*
X123770111Y-120365771D02*
X123841540Y-120437200D01*
X123841540Y-120437200D02*
X123770111Y-120508628D01*
X123770111Y-120508628D02*
X123698683Y-120437200D01*
X123698683Y-120437200D02*
X123770111Y-120365771D01*
X123770111Y-120365771D02*
X123770111Y-120508628D01*
X125270112Y-120508628D02*
X124412969Y-120508628D01*
X124841540Y-120508628D02*
X124841540Y-119008628D01*
X124841540Y-119008628D02*
X124698683Y-119222914D01*
X124698683Y-119222914D02*
X124555826Y-119365771D01*
X124555826Y-119365771D02*
X124412969Y-119437200D01*
D11*
X133599122Y-121409133D02*
X133199122Y-121409133D01*
X133399122Y-121409133D02*
X133399122Y-120709133D01*
X133399122Y-120709133D02*
X133332455Y-120809133D01*
X133332455Y-120809133D02*
X133265789Y-120875800D01*
X133265789Y-120875800D02*
X133199122Y-120909133D01*
X133865789Y-120775800D02*
X133899122Y-120742466D01*
X133899122Y-120742466D02*
X133965789Y-120709133D01*
X133965789Y-120709133D02*
X134132456Y-120709133D01*
X134132456Y-120709133D02*
X134199122Y-120742466D01*
X134199122Y-120742466D02*
X134232456Y-120775800D01*
X134232456Y-120775800D02*
X134265789Y-120842466D01*
X134265789Y-120842466D02*
X134265789Y-120909133D01*
X134265789Y-120909133D02*
X134232456Y-121009133D01*
X134232456Y-121009133D02*
X133832456Y-121409133D01*
X133832456Y-121409133D02*
X134265789Y-121409133D01*
X134499123Y-120942466D02*
X134665789Y-121409133D01*
X134665789Y-121409133D02*
X134832456Y-120942466D01*
X130799122Y-120742466D02*
X130732455Y-120709133D01*
X130732455Y-120709133D02*
X130632455Y-120709133D01*
X130632455Y-120709133D02*
X130532455Y-120742466D01*
X130532455Y-120742466D02*
X130465789Y-120809133D01*
X130465789Y-120809133D02*
X130432455Y-120875800D01*
X130432455Y-120875800D02*
X130399122Y-121009133D01*
X130399122Y-121009133D02*
X130399122Y-121109133D01*
X130399122Y-121109133D02*
X130432455Y-121242466D01*
X130432455Y-121242466D02*
X130465789Y-121309133D01*
X130465789Y-121309133D02*
X130532455Y-121375800D01*
X130532455Y-121375800D02*
X130632455Y-121409133D01*
X130632455Y-121409133D02*
X130699122Y-121409133D01*
X130699122Y-121409133D02*
X130799122Y-121375800D01*
X130799122Y-121375800D02*
X130832455Y-121342466D01*
X130832455Y-121342466D02*
X130832455Y-121109133D01*
X130832455Y-121109133D02*
X130699122Y-121109133D01*
X131132455Y-121409133D02*
X131132455Y-120709133D01*
X131132455Y-120709133D02*
X131532455Y-121409133D01*
X131532455Y-121409133D02*
X131532455Y-120709133D01*
X131865788Y-121409133D02*
X131865788Y-120709133D01*
X131865788Y-120709133D02*
X132032455Y-120709133D01*
X132032455Y-120709133D02*
X132132455Y-120742466D01*
X132132455Y-120742466D02*
X132199122Y-120809133D01*
X132199122Y-120809133D02*
X132232455Y-120875800D01*
X132232455Y-120875800D02*
X132265788Y-121009133D01*
X132265788Y-121009133D02*
X132265788Y-121109133D01*
X132265788Y-121109133D02*
X132232455Y-121242466D01*
X132232455Y-121242466D02*
X132199122Y-121309133D01*
X132199122Y-121309133D02*
X132132455Y-121375800D01*
X132132455Y-121375800D02*
X132032455Y-121409133D01*
X132032455Y-121409133D02*
X131865788Y-121409133D01*
X162999122Y-121209133D02*
X162599122Y-121209133D01*
X162799122Y-121209133D02*
X162799122Y-120509133D01*
X162799122Y-120509133D02*
X162732455Y-120609133D01*
X162732455Y-120609133D02*
X162665789Y-120675800D01*
X162665789Y-120675800D02*
X162599122Y-120709133D01*
X163232456Y-120509133D02*
X163699122Y-120509133D01*
X163699122Y-120509133D02*
X163399122Y-121209133D01*
X164099123Y-120509133D02*
X164165789Y-120509133D01*
X164165789Y-120509133D02*
X164232456Y-120542466D01*
X164232456Y-120542466D02*
X164265789Y-120575800D01*
X164265789Y-120575800D02*
X164299123Y-120642466D01*
X164299123Y-120642466D02*
X164332456Y-120775800D01*
X164332456Y-120775800D02*
X164332456Y-120942466D01*
X164332456Y-120942466D02*
X164299123Y-121075800D01*
X164299123Y-121075800D02*
X164265789Y-121142466D01*
X164265789Y-121142466D02*
X164232456Y-121175800D01*
X164232456Y-121175800D02*
X164165789Y-121209133D01*
X164165789Y-121209133D02*
X164099123Y-121209133D01*
X164099123Y-121209133D02*
X164032456Y-121175800D01*
X164032456Y-121175800D02*
X163999123Y-121142466D01*
X163999123Y-121142466D02*
X163965789Y-121075800D01*
X163965789Y-121075800D02*
X163932456Y-120942466D01*
X163932456Y-120942466D02*
X163932456Y-120775800D01*
X163932456Y-120775800D02*
X163965789Y-120642466D01*
X163965789Y-120642466D02*
X163999123Y-120575800D01*
X163999123Y-120575800D02*
X164032456Y-120542466D01*
X164032456Y-120542466D02*
X164099123Y-120509133D01*
X164532456Y-120509133D02*
X164765790Y-121209133D01*
X164765790Y-121209133D02*
X164999123Y-120509133D01*
X165899122Y-120542466D02*
X165832455Y-120509133D01*
X165832455Y-120509133D02*
X165732455Y-120509133D01*
X165732455Y-120509133D02*
X165632455Y-120542466D01*
X165632455Y-120542466D02*
X165565789Y-120609133D01*
X165565789Y-120609133D02*
X165532455Y-120675800D01*
X165532455Y-120675800D02*
X165499122Y-120809133D01*
X165499122Y-120809133D02*
X165499122Y-120909133D01*
X165499122Y-120909133D02*
X165532455Y-121042466D01*
X165532455Y-121042466D02*
X165565789Y-121109133D01*
X165565789Y-121109133D02*
X165632455Y-121175800D01*
X165632455Y-121175800D02*
X165732455Y-121209133D01*
X165732455Y-121209133D02*
X165799122Y-121209133D01*
X165799122Y-121209133D02*
X165899122Y-121175800D01*
X165899122Y-121175800D02*
X165932455Y-121142466D01*
X165932455Y-121142466D02*
X165932455Y-120909133D01*
X165932455Y-120909133D02*
X165799122Y-120909133D01*
X166232455Y-121209133D02*
X166232455Y-120509133D01*
X166232455Y-120509133D02*
X166632455Y-121209133D01*
X166632455Y-121209133D02*
X166632455Y-120509133D01*
X166965788Y-121209133D02*
X166965788Y-120509133D01*
X166965788Y-120509133D02*
X167132455Y-120509133D01*
X167132455Y-120509133D02*
X167232455Y-120542466D01*
X167232455Y-120542466D02*
X167299122Y-120609133D01*
X167299122Y-120609133D02*
X167332455Y-120675800D01*
X167332455Y-120675800D02*
X167365788Y-120809133D01*
X167365788Y-120809133D02*
X167365788Y-120909133D01*
X167365788Y-120909133D02*
X167332455Y-121042466D01*
X167332455Y-121042466D02*
X167299122Y-121109133D01*
X167299122Y-121109133D02*
X167232455Y-121175800D01*
X167232455Y-121175800D02*
X167132455Y-121209133D01*
X167132455Y-121209133D02*
X166965788Y-121209133D01*
D10*
X149745833Y-112354819D02*
X149412500Y-111878628D01*
X149174405Y-112354819D02*
X149174405Y-111354819D01*
X149174405Y-111354819D02*
X149555357Y-111354819D01*
X149555357Y-111354819D02*
X149650595Y-111402438D01*
X149650595Y-111402438D02*
X149698214Y-111450057D01*
X149698214Y-111450057D02*
X149745833Y-111545295D01*
X149745833Y-111545295D02*
X149745833Y-111688152D01*
X149745833Y-111688152D02*
X149698214Y-111783390D01*
X149698214Y-111783390D02*
X149650595Y-111831009D01*
X149650595Y-111831009D02*
X149555357Y-111878628D01*
X149555357Y-111878628D02*
X149174405Y-111878628D01*
X150126786Y-111450057D02*
X150174405Y-111402438D01*
X150174405Y-111402438D02*
X150269643Y-111354819D01*
X150269643Y-111354819D02*
X150507738Y-111354819D01*
X150507738Y-111354819D02*
X150602976Y-111402438D01*
X150602976Y-111402438D02*
X150650595Y-111450057D01*
X150650595Y-111450057D02*
X150698214Y-111545295D01*
X150698214Y-111545295D02*
X150698214Y-111640533D01*
X150698214Y-111640533D02*
X150650595Y-111783390D01*
X150650595Y-111783390D02*
X150079167Y-112354819D01*
X150079167Y-112354819D02*
X150698214Y-112354819D01*
X162759580Y-111566666D02*
X162807200Y-111614285D01*
X162807200Y-111614285D02*
X162854819Y-111757142D01*
X162854819Y-111757142D02*
X162854819Y-111852380D01*
X162854819Y-111852380D02*
X162807200Y-111995237D01*
X162807200Y-111995237D02*
X162711961Y-112090475D01*
X162711961Y-112090475D02*
X162616723Y-112138094D01*
X162616723Y-112138094D02*
X162426247Y-112185713D01*
X162426247Y-112185713D02*
X162283390Y-112185713D01*
X162283390Y-112185713D02*
X162092914Y-112138094D01*
X162092914Y-112138094D02*
X161997676Y-112090475D01*
X161997676Y-112090475D02*
X161902438Y-111995237D01*
X161902438Y-111995237D02*
X161854819Y-111852380D01*
X161854819Y-111852380D02*
X161854819Y-111757142D01*
X161854819Y-111757142D02*
X161902438Y-111614285D01*
X161902438Y-111614285D02*
X161950057Y-111566666D01*
X161854819Y-110661904D02*
X161854819Y-111138094D01*
X161854819Y-111138094D02*
X162331009Y-111185713D01*
X162331009Y-111185713D02*
X162283390Y-111138094D01*
X162283390Y-111138094D02*
X162235771Y-111042856D01*
X162235771Y-111042856D02*
X162235771Y-110804761D01*
X162235771Y-110804761D02*
X162283390Y-110709523D01*
X162283390Y-110709523D02*
X162331009Y-110661904D01*
X162331009Y-110661904D02*
X162426247Y-110614285D01*
X162426247Y-110614285D02*
X162664342Y-110614285D01*
X162664342Y-110614285D02*
X162759580Y-110661904D01*
X162759580Y-110661904D02*
X162807200Y-110709523D01*
X162807200Y-110709523D02*
X162854819Y-110804761D01*
X162854819Y-110804761D02*
X162854819Y-111042856D01*
X162854819Y-111042856D02*
X162807200Y-111138094D01*
X162807200Y-111138094D02*
X162759580Y-111185713D01*
D12*
X132106667Y-116404318D02*
X132106667Y-117311461D01*
X132106667Y-117311461D02*
X132046190Y-117492889D01*
X132046190Y-117492889D02*
X131925238Y-117613842D01*
X131925238Y-117613842D02*
X131743809Y-117674318D01*
X131743809Y-117674318D02*
X131622857Y-117674318D01*
X133376667Y-117674318D02*
X132650952Y-117674318D01*
X133013809Y-117674318D02*
X133013809Y-116404318D01*
X133013809Y-116404318D02*
X132892857Y-116585746D01*
X132892857Y-116585746D02*
X132771905Y-116706699D01*
X132771905Y-116706699D02*
X132650952Y-116767175D01*
D10*
X147304761Y-101250057D02*
X147209523Y-101202438D01*
X147209523Y-101202438D02*
X147114285Y-101107200D01*
X147114285Y-101107200D02*
X146971428Y-100964342D01*
X146971428Y-100964342D02*
X146876190Y-100916723D01*
X146876190Y-100916723D02*
X146780952Y-100916723D01*
X146828571Y-101154819D02*
X146733333Y-101107200D01*
X146733333Y-101107200D02*
X146638095Y-101011961D01*
X146638095Y-101011961D02*
X146590476Y-100821485D01*
X146590476Y-100821485D02*
X146590476Y-100488152D01*
X146590476Y-100488152D02*
X146638095Y-100297676D01*
X146638095Y-100297676D02*
X146733333Y-100202438D01*
X146733333Y-100202438D02*
X146828571Y-100154819D01*
X146828571Y-100154819D02*
X147019047Y-100154819D01*
X147019047Y-100154819D02*
X147114285Y-100202438D01*
X147114285Y-100202438D02*
X147209523Y-100297676D01*
X147209523Y-100297676D02*
X147257142Y-100488152D01*
X147257142Y-100488152D02*
X147257142Y-100821485D01*
X147257142Y-100821485D02*
X147209523Y-101011961D01*
X147209523Y-101011961D02*
X147114285Y-101107200D01*
X147114285Y-101107200D02*
X147019047Y-101154819D01*
X147019047Y-101154819D02*
X146828571Y-101154819D01*
X148209523Y-101154819D02*
X147638095Y-101154819D01*
X147923809Y-101154819D02*
X147923809Y-100154819D01*
X147923809Y-100154819D02*
X147828571Y-100297676D01*
X147828571Y-100297676D02*
X147733333Y-100392914D01*
X147733333Y-100392914D02*
X147638095Y-100440533D01*
X152233333Y-116559580D02*
X152185714Y-116607200D01*
X152185714Y-116607200D02*
X152042857Y-116654819D01*
X152042857Y-116654819D02*
X151947619Y-116654819D01*
X151947619Y-116654819D02*
X151804762Y-116607200D01*
X151804762Y-116607200D02*
X151709524Y-116511961D01*
X151709524Y-116511961D02*
X151661905Y-116416723D01*
X151661905Y-116416723D02*
X151614286Y-116226247D01*
X151614286Y-116226247D02*
X151614286Y-116083390D01*
X151614286Y-116083390D02*
X151661905Y-115892914D01*
X151661905Y-115892914D02*
X151709524Y-115797676D01*
X151709524Y-115797676D02*
X151804762Y-115702438D01*
X151804762Y-115702438D02*
X151947619Y-115654819D01*
X151947619Y-115654819D02*
X152042857Y-115654819D01*
X152042857Y-115654819D02*
X152185714Y-115702438D01*
X152185714Y-115702438D02*
X152233333Y-115750057D01*
X152566667Y-115654819D02*
X153185714Y-115654819D01*
X153185714Y-115654819D02*
X152852381Y-116035771D01*
X152852381Y-116035771D02*
X152995238Y-116035771D01*
X152995238Y-116035771D02*
X153090476Y-116083390D01*
X153090476Y-116083390D02*
X153138095Y-116131009D01*
X153138095Y-116131009D02*
X153185714Y-116226247D01*
X153185714Y-116226247D02*
X153185714Y-116464342D01*
X153185714Y-116464342D02*
X153138095Y-116559580D01*
X153138095Y-116559580D02*
X153090476Y-116607200D01*
X153090476Y-116607200D02*
X152995238Y-116654819D01*
X152995238Y-116654819D02*
X152709524Y-116654819D01*
X152709524Y-116654819D02*
X152614286Y-116607200D01*
X152614286Y-116607200D02*
X152566667Y-116559580D01*
X134254819Y-98366666D02*
X134254819Y-98842856D01*
X134254819Y-98842856D02*
X133254819Y-98842856D01*
X134254819Y-97509523D02*
X134254819Y-98080951D01*
X134254819Y-97795237D02*
X133254819Y-97795237D01*
X133254819Y-97795237D02*
X133397676Y-97890475D01*
X133397676Y-97890475D02*
X133492914Y-97985713D01*
X133492914Y-97985713D02*
X133540533Y-98080951D01*
X140659580Y-116966666D02*
X140707200Y-117014285D01*
X140707200Y-117014285D02*
X140754819Y-117157142D01*
X140754819Y-117157142D02*
X140754819Y-117252380D01*
X140754819Y-117252380D02*
X140707200Y-117395237D01*
X140707200Y-117395237D02*
X140611961Y-117490475D01*
X140611961Y-117490475D02*
X140516723Y-117538094D01*
X140516723Y-117538094D02*
X140326247Y-117585713D01*
X140326247Y-117585713D02*
X140183390Y-117585713D01*
X140183390Y-117585713D02*
X139992914Y-117538094D01*
X139992914Y-117538094D02*
X139897676Y-117490475D01*
X139897676Y-117490475D02*
X139802438Y-117395237D01*
X139802438Y-117395237D02*
X139754819Y-117252380D01*
X139754819Y-117252380D02*
X139754819Y-117157142D01*
X139754819Y-117157142D02*
X139802438Y-117014285D01*
X139802438Y-117014285D02*
X139850057Y-116966666D01*
X139850057Y-116585713D02*
X139802438Y-116538094D01*
X139802438Y-116538094D02*
X139754819Y-116442856D01*
X139754819Y-116442856D02*
X139754819Y-116204761D01*
X139754819Y-116204761D02*
X139802438Y-116109523D01*
X139802438Y-116109523D02*
X139850057Y-116061904D01*
X139850057Y-116061904D02*
X139945295Y-116014285D01*
X139945295Y-116014285D02*
X140040533Y-116014285D01*
X140040533Y-116014285D02*
X140183390Y-116061904D01*
X140183390Y-116061904D02*
X140754819Y-116633332D01*
X140754819Y-116633332D02*
X140754819Y-116014285D01*
D12*
X146032380Y-116904318D02*
X146032380Y-117932413D01*
X146032380Y-117932413D02*
X146092857Y-118053365D01*
X146092857Y-118053365D02*
X146153333Y-118113842D01*
X146153333Y-118113842D02*
X146274285Y-118174318D01*
X146274285Y-118174318D02*
X146516190Y-118174318D01*
X146516190Y-118174318D02*
X146637142Y-118113842D01*
X146637142Y-118113842D02*
X146697619Y-118053365D01*
X146697619Y-118053365D02*
X146758095Y-117932413D01*
X146758095Y-117932413D02*
X146758095Y-116904318D01*
X148028095Y-118174318D02*
X147302380Y-118174318D01*
X147665237Y-118174318D02*
X147665237Y-116904318D01*
X147665237Y-116904318D02*
X147544285Y-117085746D01*
X147544285Y-117085746D02*
X147423333Y-117206699D01*
X147423333Y-117206699D02*
X147302380Y-117267175D01*
D10*
X136733333Y-106559580D02*
X136685714Y-106607200D01*
X136685714Y-106607200D02*
X136542857Y-106654819D01*
X136542857Y-106654819D02*
X136447619Y-106654819D01*
X136447619Y-106654819D02*
X136304762Y-106607200D01*
X136304762Y-106607200D02*
X136209524Y-106511961D01*
X136209524Y-106511961D02*
X136161905Y-106416723D01*
X136161905Y-106416723D02*
X136114286Y-106226247D01*
X136114286Y-106226247D02*
X136114286Y-106083390D01*
X136114286Y-106083390D02*
X136161905Y-105892914D01*
X136161905Y-105892914D02*
X136209524Y-105797676D01*
X136209524Y-105797676D02*
X136304762Y-105702438D01*
X136304762Y-105702438D02*
X136447619Y-105654819D01*
X136447619Y-105654819D02*
X136542857Y-105654819D01*
X136542857Y-105654819D02*
X136685714Y-105702438D01*
X136685714Y-105702438D02*
X136733333Y-105750057D01*
X137685714Y-106654819D02*
X137114286Y-106654819D01*
X137400000Y-106654819D02*
X137400000Y-105654819D01*
X137400000Y-105654819D02*
X137304762Y-105797676D01*
X137304762Y-105797676D02*
X137209524Y-105892914D01*
X137209524Y-105892914D02*
X137114286Y-105940533D01*
X167859580Y-98316666D02*
X167907200Y-98364285D01*
X167907200Y-98364285D02*
X167954819Y-98507142D01*
X167954819Y-98507142D02*
X167954819Y-98602380D01*
X167954819Y-98602380D02*
X167907200Y-98745237D01*
X167907200Y-98745237D02*
X167811961Y-98840475D01*
X167811961Y-98840475D02*
X167716723Y-98888094D01*
X167716723Y-98888094D02*
X167526247Y-98935713D01*
X167526247Y-98935713D02*
X167383390Y-98935713D01*
X167383390Y-98935713D02*
X167192914Y-98888094D01*
X167192914Y-98888094D02*
X167097676Y-98840475D01*
X167097676Y-98840475D02*
X167002438Y-98745237D01*
X167002438Y-98745237D02*
X166954819Y-98602380D01*
X166954819Y-98602380D02*
X166954819Y-98507142D01*
X166954819Y-98507142D02*
X167002438Y-98364285D01*
X167002438Y-98364285D02*
X167050057Y-98316666D01*
X167288152Y-97459523D02*
X167954819Y-97459523D01*
X166907200Y-97697618D02*
X167621485Y-97935713D01*
X167621485Y-97935713D02*
X167621485Y-97316666D01*
D12*
X164576667Y-116204318D02*
X164576667Y-117111461D01*
X164576667Y-117111461D02*
X164516190Y-117292889D01*
X164516190Y-117292889D02*
X164395238Y-117413842D01*
X164395238Y-117413842D02*
X164213809Y-117474318D01*
X164213809Y-117474318D02*
X164092857Y-117474318D01*
X165120952Y-116325270D02*
X165181428Y-116264794D01*
X165181428Y-116264794D02*
X165302381Y-116204318D01*
X165302381Y-116204318D02*
X165604762Y-116204318D01*
X165604762Y-116204318D02*
X165725714Y-116264794D01*
X165725714Y-116264794D02*
X165786190Y-116325270D01*
X165786190Y-116325270D02*
X165846667Y-116446222D01*
X165846667Y-116446222D02*
X165846667Y-116567175D01*
X165846667Y-116567175D02*
X165786190Y-116748603D01*
X165786190Y-116748603D02*
X165060476Y-117474318D01*
X165060476Y-117474318D02*
X165846667Y-117474318D01*
D10*
X156604819Y-113266666D02*
X156128628Y-113599999D01*
X156604819Y-113838094D02*
X155604819Y-113838094D01*
X155604819Y-113838094D02*
X155604819Y-113457142D01*
X155604819Y-113457142D02*
X155652438Y-113361904D01*
X155652438Y-113361904D02*
X155700057Y-113314285D01*
X155700057Y-113314285D02*
X155795295Y-113266666D01*
X155795295Y-113266666D02*
X155938152Y-113266666D01*
X155938152Y-113266666D02*
X156033390Y-113314285D01*
X156033390Y-113314285D02*
X156081009Y-113361904D01*
X156081009Y-113361904D02*
X156128628Y-113457142D01*
X156128628Y-113457142D02*
X156128628Y-113838094D01*
X156604819Y-112314285D02*
X156604819Y-112885713D01*
X156604819Y-112599999D02*
X155604819Y-112599999D01*
X155604819Y-112599999D02*
X155747676Y-112695237D01*
X155747676Y-112695237D02*
X155842914Y-112790475D01*
X155842914Y-112790475D02*
X155890533Y-112885713D01*
X159661905Y-94554819D02*
X159661905Y-93554819D01*
X159661905Y-93554819D02*
X159900000Y-93554819D01*
X159900000Y-93554819D02*
X160042857Y-93602438D01*
X160042857Y-93602438D02*
X160138095Y-93697676D01*
X160138095Y-93697676D02*
X160185714Y-93792914D01*
X160185714Y-93792914D02*
X160233333Y-93983390D01*
X160233333Y-93983390D02*
X160233333Y-94126247D01*
X160233333Y-94126247D02*
X160185714Y-94316723D01*
X160185714Y-94316723D02*
X160138095Y-94411961D01*
X160138095Y-94411961D02*
X160042857Y-94507200D01*
X160042857Y-94507200D02*
X159900000Y-94554819D01*
X159900000Y-94554819D02*
X159661905Y-94554819D01*
X161185714Y-94554819D02*
X160614286Y-94554819D01*
X160900000Y-94554819D02*
X160900000Y-93554819D01*
X160900000Y-93554819D02*
X160804762Y-93697676D01*
X160804762Y-93697676D02*
X160709524Y-93792914D01*
X160709524Y-93792914D02*
X160614286Y-93840533D01*
X123345180Y-96866666D02*
X122630895Y-96866666D01*
X122630895Y-96866666D02*
X122488038Y-96819047D01*
X122488038Y-96819047D02*
X122392800Y-96723809D01*
X122392800Y-96723809D02*
X122345180Y-96580952D01*
X122345180Y-96580952D02*
X122345180Y-96485714D01*
X123011847Y-97771428D02*
X122345180Y-97771428D01*
X123392800Y-97533333D02*
X122678514Y-97295238D01*
X122678514Y-97295238D02*
X122678514Y-97914285D01*
X156654819Y-116966666D02*
X156178628Y-117299999D01*
X156654819Y-117538094D02*
X155654819Y-117538094D01*
X155654819Y-117538094D02*
X155654819Y-117157142D01*
X155654819Y-117157142D02*
X155702438Y-117061904D01*
X155702438Y-117061904D02*
X155750057Y-117014285D01*
X155750057Y-117014285D02*
X155845295Y-116966666D01*
X155845295Y-116966666D02*
X155988152Y-116966666D01*
X155988152Y-116966666D02*
X156083390Y-117014285D01*
X156083390Y-117014285D02*
X156131009Y-117061904D01*
X156131009Y-117061904D02*
X156178628Y-117157142D01*
X156178628Y-117157142D02*
X156178628Y-117538094D01*
X155988152Y-116109523D02*
X156654819Y-116109523D01*
X155607200Y-116347618D02*
X156321485Y-116585713D01*
X156321485Y-116585713D02*
X156321485Y-115966666D01*
X156654819Y-120566666D02*
X156178628Y-120899999D01*
X156654819Y-121138094D02*
X155654819Y-121138094D01*
X155654819Y-121138094D02*
X155654819Y-120757142D01*
X155654819Y-120757142D02*
X155702438Y-120661904D01*
X155702438Y-120661904D02*
X155750057Y-120614285D01*
X155750057Y-120614285D02*
X155845295Y-120566666D01*
X155845295Y-120566666D02*
X155988152Y-120566666D01*
X155988152Y-120566666D02*
X156083390Y-120614285D01*
X156083390Y-120614285D02*
X156131009Y-120661904D01*
X156131009Y-120661904D02*
X156178628Y-120757142D01*
X156178628Y-120757142D02*
X156178628Y-121138094D01*
X155654819Y-120233332D02*
X155654819Y-119614285D01*
X155654819Y-119614285D02*
X156035771Y-119947618D01*
X156035771Y-119947618D02*
X156035771Y-119804761D01*
X156035771Y-119804761D02*
X156083390Y-119709523D01*
X156083390Y-119709523D02*
X156131009Y-119661904D01*
X156131009Y-119661904D02*
X156226247Y-119614285D01*
X156226247Y-119614285D02*
X156464342Y-119614285D01*
X156464342Y-119614285D02*
X156559580Y-119661904D01*
X156559580Y-119661904D02*
X156607200Y-119709523D01*
X156607200Y-119709523D02*
X156654819Y-119804761D01*
X156654819Y-119804761D02*
X156654819Y-120090475D01*
X156654819Y-120090475D02*
X156607200Y-120185713D01*
X156607200Y-120185713D02*
X156559580Y-120233332D01*
D13*
X150927064Y-114335000D02*
X150472936Y-114335000D01*
X150927064Y-112865000D02*
X150472936Y-112865000D01*
X164438748Y-110665000D02*
X164961252Y-110665000D01*
X164438748Y-112135000D02*
X164961252Y-112135000D01*
D11*
X129790000Y-113850000D02*
X135270000Y-113850000D01*
X129790000Y-120350000D02*
X129790000Y-113850000D01*
X135270000Y-113850000D02*
X135270000Y-120350000D01*
X135270000Y-120350000D02*
X129790000Y-120350000D01*
D13*
X142060000Y-100050000D02*
X143870000Y-100050000D01*
X143870000Y-100050000D02*
X143870000Y-105175000D01*
X150650000Y-100050000D02*
X150650000Y-101150000D01*
X152460000Y-100050000D02*
X150650000Y-100050000D01*
X142060000Y-98550000D02*
X142060000Y-100050000D01*
X152460000Y-98550000D02*
X152460000Y-100050000D01*
X151765000Y-118861252D02*
X151765000Y-118338748D01*
X153235000Y-118861252D02*
X153235000Y-118338748D01*
X128620000Y-103380000D02*
X128620000Y-93020000D01*
X131025000Y-103380000D02*
X128620000Y-103380000D01*
X136575000Y-103380000D02*
X138980000Y-103380000D01*
X138980000Y-103380000D02*
X138980000Y-93020000D01*
X128620000Y-93020000D02*
X131025000Y-93020000D01*
X138980000Y-93020000D02*
X136575000Y-93020000D01*
X141065000Y-116361252D02*
X141065000Y-115838748D01*
X142535000Y-116361252D02*
X142535000Y-115838748D01*
D14*
X143500000Y-114995000D02*
X145050000Y-114995000D01*
X145400000Y-115150000D02*
X148600000Y-115150000D01*
X145400000Y-120050000D02*
X145400000Y-115150000D01*
X148600000Y-115150000D02*
X148600000Y-120050000D01*
X148600000Y-120050000D02*
X145400000Y-120050000D01*
D13*
X132490000Y-107040000D02*
X132490000Y-111560000D01*
X132490000Y-111560000D02*
X140550000Y-111560000D01*
X140550000Y-107040000D02*
X132490000Y-107040000D01*
X164939000Y-94649759D02*
X164939000Y-95279759D01*
X165254000Y-94964759D02*
X164624000Y-94964759D01*
X166330000Y-98150000D02*
X159870000Y-98150000D01*
X166330000Y-98190000D02*
X159870000Y-98190000D01*
X166330000Y-98230000D02*
X159870000Y-98230000D01*
X166328000Y-98270000D02*
X159872000Y-98270000D01*
X166327000Y-98310000D02*
X159873000Y-98310000D01*
X166324000Y-98350000D02*
X159876000Y-98350000D01*
X166322000Y-98390000D02*
X164140000Y-98390000D01*
X162060000Y-98390000D02*
X159878000Y-98390000D01*
X166318000Y-98430000D02*
X164140000Y-98430000D01*
X162060000Y-98430000D02*
X159882000Y-98430000D01*
X166315000Y-98470000D02*
X164140000Y-98470000D01*
X162060000Y-98470000D02*
X159885000Y-98470000D01*
X166311000Y-98510000D02*
X164140000Y-98510000D01*
X162060000Y-98510000D02*
X159889000Y-98510000D01*
X166306000Y-98550000D02*
X164140000Y-98550000D01*
X162060000Y-98550000D02*
X159894000Y-98550000D01*
X166301000Y-98590000D02*
X164140000Y-98590000D01*
X162060000Y-98590000D02*
X159899000Y-98590000D01*
X166295000Y-98630000D02*
X164140000Y-98630000D01*
X162060000Y-98630000D02*
X159905000Y-98630000D01*
X166289000Y-98670000D02*
X164140000Y-98670000D01*
X162060000Y-98670000D02*
X159911000Y-98670000D01*
X166282000Y-98710000D02*
X164140000Y-98710000D01*
X162060000Y-98710000D02*
X159918000Y-98710000D01*
X166275000Y-98750000D02*
X164140000Y-98750000D01*
X162060000Y-98750000D02*
X159925000Y-98750000D01*
X166267000Y-98790000D02*
X164140000Y-98790000D01*
X162060000Y-98790000D02*
X159933000Y-98790000D01*
X166259000Y-98830000D02*
X164140000Y-98830000D01*
X162060000Y-98830000D02*
X159941000Y-98830000D01*
X166250000Y-98871000D02*
X164140000Y-98871000D01*
X162060000Y-98871000D02*
X159950000Y-98871000D01*
X166241000Y-98911000D02*
X164140000Y-98911000D01*
X162060000Y-98911000D02*
X159959000Y-98911000D01*
X166231000Y-98951000D02*
X164140000Y-98951000D01*
X162060000Y-98951000D02*
X159969000Y-98951000D01*
X166221000Y-98991000D02*
X164140000Y-98991000D01*
X162060000Y-98991000D02*
X159979000Y-98991000D01*
X166210000Y-99031000D02*
X164140000Y-99031000D01*
X162060000Y-99031000D02*
X159990000Y-99031000D01*
X166198000Y-99071000D02*
X164140000Y-99071000D01*
X162060000Y-99071000D02*
X160002000Y-99071000D01*
X166186000Y-99111000D02*
X164140000Y-99111000D01*
X162060000Y-99111000D02*
X160014000Y-99111000D01*
X166174000Y-99151000D02*
X164140000Y-99151000D01*
X162060000Y-99151000D02*
X160026000Y-99151000D01*
X166161000Y-99191000D02*
X164140000Y-99191000D01*
X162060000Y-99191000D02*
X160039000Y-99191000D01*
X166147000Y-99231000D02*
X164140000Y-99231000D01*
X162060000Y-99231000D02*
X160053000Y-99231000D01*
X166133000Y-99271000D02*
X164140000Y-99271000D01*
X162060000Y-99271000D02*
X160067000Y-99271000D01*
X166118000Y-99311000D02*
X164140000Y-99311000D01*
X162060000Y-99311000D02*
X160082000Y-99311000D01*
X166102000Y-99351000D02*
X164140000Y-99351000D01*
X162060000Y-99351000D02*
X160098000Y-99351000D01*
X166086000Y-99391000D02*
X164140000Y-99391000D01*
X162060000Y-99391000D02*
X160114000Y-99391000D01*
X166070000Y-99431000D02*
X164140000Y-99431000D01*
X162060000Y-99431000D02*
X160130000Y-99431000D01*
X166052000Y-99471000D02*
X164140000Y-99471000D01*
X162060000Y-99471000D02*
X160148000Y-99471000D01*
X166034000Y-99511000D02*
X164140000Y-99511000D01*
X162060000Y-99511000D02*
X160166000Y-99511000D01*
X166016000Y-99551000D02*
X164140000Y-99551000D01*
X162060000Y-99551000D02*
X160184000Y-99551000D01*
X165996000Y-99591000D02*
X164140000Y-99591000D01*
X162060000Y-99591000D02*
X160204000Y-99591000D01*
X165976000Y-99631000D02*
X164140000Y-99631000D01*
X162060000Y-99631000D02*
X160224000Y-99631000D01*
X165956000Y-99671000D02*
X164140000Y-99671000D01*
X162060000Y-99671000D02*
X160244000Y-99671000D01*
X165934000Y-99711000D02*
X164140000Y-99711000D01*
X162060000Y-99711000D02*
X160266000Y-99711000D01*
X165912000Y-99751000D02*
X164140000Y-99751000D01*
X162060000Y-99751000D02*
X160288000Y-99751000D01*
X165890000Y-99791000D02*
X164140000Y-99791000D01*
X162060000Y-99791000D02*
X160310000Y-99791000D01*
X165866000Y-99831000D02*
X164140000Y-99831000D01*
X162060000Y-99831000D02*
X160334000Y-99831000D01*
X165842000Y-99871000D02*
X164140000Y-99871000D01*
X162060000Y-99871000D02*
X160358000Y-99871000D01*
X165816000Y-99911000D02*
X164140000Y-99911000D01*
X162060000Y-99911000D02*
X160384000Y-99911000D01*
X165790000Y-99951000D02*
X164140000Y-99951000D01*
X162060000Y-99951000D02*
X160410000Y-99951000D01*
X165764000Y-99991000D02*
X164140000Y-99991000D01*
X162060000Y-99991000D02*
X160436000Y-99991000D01*
X165736000Y-100031000D02*
X164140000Y-100031000D01*
X162060000Y-100031000D02*
X160464000Y-100031000D01*
X165707000Y-100071000D02*
X164140000Y-100071000D01*
X162060000Y-100071000D02*
X160493000Y-100071000D01*
X165678000Y-100111000D02*
X164140000Y-100111000D01*
X162060000Y-100111000D02*
X160522000Y-100111000D01*
X165648000Y-100151000D02*
X164140000Y-100151000D01*
X162060000Y-100151000D02*
X160552000Y-100151000D01*
X165616000Y-100191000D02*
X164140000Y-100191000D01*
X162060000Y-100191000D02*
X160584000Y-100191000D01*
X165584000Y-100231000D02*
X164140000Y-100231000D01*
X162060000Y-100231000D02*
X160616000Y-100231000D01*
X165550000Y-100271000D02*
X164140000Y-100271000D01*
X162060000Y-100271000D02*
X160650000Y-100271000D01*
X165516000Y-100311000D02*
X164140000Y-100311000D01*
X162060000Y-100311000D02*
X160684000Y-100311000D01*
X165480000Y-100351000D02*
X164140000Y-100351000D01*
X162060000Y-100351000D02*
X160720000Y-100351000D01*
X165443000Y-100391000D02*
X164140000Y-100391000D01*
X162060000Y-100391000D02*
X160757000Y-100391000D01*
X165405000Y-100431000D02*
X164140000Y-100431000D01*
X162060000Y-100431000D02*
X160795000Y-100431000D01*
X165365000Y-100471000D02*
X160835000Y-100471000D01*
X165324000Y-100511000D02*
X160876000Y-100511000D01*
X165282000Y-100551000D02*
X160918000Y-100551000D01*
X165237000Y-100591000D02*
X160963000Y-100591000D01*
X165192000Y-100631000D02*
X161008000Y-100631000D01*
X165144000Y-100671000D02*
X161056000Y-100671000D01*
X165095000Y-100711000D02*
X161105000Y-100711000D01*
X165044000Y-100751000D02*
X161156000Y-100751000D01*
X164990000Y-100791000D02*
X161210000Y-100791000D01*
X164934000Y-100831000D02*
X161266000Y-100831000D01*
X164876000Y-100871000D02*
X161324000Y-100871000D01*
X164814000Y-100911000D02*
X161386000Y-100911000D01*
X164750000Y-100951000D02*
X161450000Y-100951000D01*
X164681000Y-100991000D02*
X161519000Y-100991000D01*
X164609000Y-101031000D02*
X161591000Y-101031000D01*
X164532000Y-101071000D02*
X161668000Y-101071000D01*
X164450000Y-101111000D02*
X161750000Y-101111000D01*
X164362000Y-101151000D02*
X161838000Y-101151000D01*
X164265000Y-101191000D02*
X161935000Y-101191000D01*
X164159000Y-101231000D02*
X162041000Y-101231000D01*
X164040000Y-101271000D02*
X162160000Y-101271000D01*
X163902000Y-101311000D02*
X162298000Y-101311000D01*
X163733000Y-101351000D02*
X162467000Y-101351000D01*
X163502000Y-101391000D02*
X162698000Y-101391000D01*
X166370000Y-98150000D02*
G75*
G03*
X166370000Y-98150000I-3270000J0D01*
G01*
D11*
X162260000Y-113650000D02*
X167740000Y-113650000D01*
X162260000Y-120150000D02*
X162260000Y-113650000D01*
X167740000Y-113650000D02*
X167740000Y-120150000D01*
X167740000Y-120150000D02*
X162260000Y-120150000D01*
D13*
X157065000Y-112527064D02*
X157065000Y-112072936D01*
X158535000Y-112527064D02*
X158535000Y-112072936D01*
X165110000Y-93250000D02*
X165110000Y-88950000D01*
X165110000Y-93250000D02*
X157700000Y-93250000D01*
X165110000Y-88950000D02*
X157700000Y-88950000D01*
X127420000Y-86080000D02*
X118180000Y-86080000D01*
X118180000Y-86080000D02*
X118180000Y-94200000D01*
X118180000Y-99600000D02*
X118180000Y-100820000D01*
X127420000Y-100820000D02*
X127420000Y-86080000D01*
X125750000Y-100820000D02*
X127420000Y-100820000D01*
X118180000Y-100820000D02*
X119850000Y-100820000D01*
X157065000Y-116127064D02*
X157065000Y-115672936D01*
X158535000Y-116127064D02*
X158535000Y-115672936D01*
X158535000Y-119372936D02*
X158535000Y-119827064D01*
X157065000Y-119372936D02*
X157065000Y-119827064D01*
%LPC*%
D15*
X151612500Y-113600000D03*
X149787500Y-113600000D03*
D16*
X163750000Y-111400000D03*
X165650000Y-111400000D03*
D17*
X131260000Y-117100000D03*
X133800000Y-117100000D03*
D18*
X144720000Y-102875000D03*
D19*
X147260000Y-93725000D03*
D18*
X149800000Y-102875000D03*
D20*
X162631155Y-105943845D03*
X163400000Y-104087690D03*
X163400000Y-107800000D03*
X165256155Y-103318845D03*
D21*
X165256155Y-105943845D03*
D20*
X165256155Y-108568845D03*
X167112310Y-104087690D03*
X167112310Y-107800000D03*
X167881155Y-105943845D03*
D22*
X152500000Y-119550000D03*
X152500000Y-117650000D03*
D23*
X133800000Y-102707500D03*
X133800000Y-93692500D03*
D22*
X141800000Y-117050000D03*
X141800000Y-115150000D03*
D24*
X144275000Y-115695000D03*
X144275000Y-116965000D03*
X144275000Y-118235000D03*
X144275000Y-119505000D03*
X149725000Y-119505000D03*
X149725000Y-118235000D03*
X149725000Y-116965000D03*
X149725000Y-115695000D03*
D25*
X133787500Y-109300000D03*
X140012500Y-109300000D03*
D26*
X163100000Y-96900000D03*
D27*
X163100000Y-99400000D03*
D17*
X163730000Y-116900000D03*
X166270000Y-116900000D03*
D28*
X157800000Y-113212500D03*
X157800000Y-111387500D03*
D29*
X163100000Y-91100000D03*
X157700000Y-91100000D03*
D30*
X122800000Y-100100000D03*
D31*
X122800000Y-93900000D03*
D32*
X118100000Y-96900000D03*
D28*
X157800000Y-116812500D03*
X157800000Y-114987500D03*
D33*
X157800000Y-118687500D03*
X157800000Y-120512500D03*
D20*
X119575000Y-110400000D03*
X120343845Y-108543845D03*
X120343845Y-112256155D03*
X122200000Y-107775000D03*
D21*
X122200000Y-110400000D03*
D20*
X122200000Y-113025000D03*
X124056155Y-108543845D03*
X124056155Y-112256155D03*
X124825000Y-110400000D03*
%LPD*%
M02*
