%TF.GenerationSoftware,KiCad,Pcbnew,7.0.5-0*%
%TF.CreationDate,2023-07-08T10:54:15-04:00*%
%TF.ProjectId,PierogiNixiePSU,50696572-6f67-4694-9e69-786965505355,rev?*%
%TF.SameCoordinates,Original*%
%TF.FileFunction,Soldermask,Top*%
%TF.FilePolarity,Negative*%
%FSLAX46Y46*%
G04 Gerber Fmt 4.6, Leading zero omitted, Abs format (unit mm)*
G04 Created by KiCad (PCBNEW 7.0.5-0) date 2023-07-08 10:54:15*
%MOMM*%
%LPD*%
G01*
G04 APERTURE LIST*
G04 Aperture macros list*
%AMRoundRect*
0 Rectangle with rounded corners*
0 $1 Rounding radius*
0 $2 $3 $4 $5 $6 $7 $8 $9 X,Y pos of 4 corners*
0 Add a 4 corners polygon primitive as box body*
4,1,4,$2,$3,$4,$5,$6,$7,$8,$9,$2,$3,0*
0 Add four circle primitives for the rounded corners*
1,1,$1+$1,$2,$3*
1,1,$1+$1,$4,$5*
1,1,$1+$1,$6,$7*
1,1,$1+$1,$8,$9*
0 Add four rect primitives between the rounded corners*
20,1,$1+$1,$2,$3,$4,$5,0*
20,1,$1+$1,$4,$5,$6,$7,0*
20,1,$1+$1,$6,$7,$8,$9,0*
20,1,$1+$1,$8,$9,$2,$3,0*%
G04 Aperture macros list end*
%ADD10RoundRect,0.101600X-0.901500X0.800000X-0.901500X-0.800000X0.901500X-0.800000X0.901500X0.800000X0*%
%ADD11RoundRect,0.101600X-0.750000X0.650000X-0.750000X-0.650000X0.750000X-0.650000X0.750000X0.650000X0*%
%ADD12C,1.950000*%
%ADD13RoundRect,0.101600X-1.160000X-1.905000X1.160000X-1.905000X1.160000X1.905000X-1.160000X1.905000X0*%
%ADD14RoundRect,0.101600X-5.500000X-4.825000X5.500000X-4.825000X5.500000X4.825000X-5.500000X4.825000X0*%
%ADD15C,0.800000*%
%ADD16C,7.000000*%
%ADD17RoundRect,0.101600X0.750000X-0.650000X0.750000X0.650000X-0.750000X0.650000X-0.750000X-0.650000X0*%
%ADD18R,4.900000X3.050000*%
%ADD19R,1.550000X0.700000*%
%ADD20R,2.300000X2.500000*%
%ADD21R,1.100000X1.100000*%
%ADD22C,1.100000*%
%ADD23RoundRect,0.101600X1.200000X1.200000X-1.200000X1.200000X-1.200000X-1.200000X1.200000X-1.200000X0*%
%ADD24O,5.000000X2.500000*%
%ADD25O,4.500000X2.250000*%
%ADD26O,2.250000X4.500000*%
%ADD27R,1.200000X1.200000*%
%ADD28R,1.600000X1.500000*%
G04 APERTURE END LIST*
D10*
%TO.C,R2*%
X154500000Y-106478000D03*
X154500000Y-109322000D03*
%TD*%
D11*
%TO.C,C5*%
X156900000Y-97350000D03*
X156900000Y-99250000D03*
%TD*%
D12*
%TO.C,J1*%
X130430000Y-117000000D03*
X132970000Y-117000000D03*
%TD*%
D13*
%TO.C,Q2*%
X144720000Y-105845000D03*
D14*
X147260000Y-94675000D03*
D13*
X149800000Y-105845000D03*
%TD*%
D15*
%TO.C,H1*%
X162600000Y-106500000D03*
X163368845Y-104643845D03*
X163368845Y-108356155D03*
X165225000Y-103875000D03*
D16*
X165225000Y-106500000D03*
D15*
X165225000Y-109125000D03*
X167081155Y-104643845D03*
X167081155Y-108356155D03*
X167850000Y-106500000D03*
%TD*%
D17*
%TO.C,C3*%
X148300000Y-119350000D03*
X148300000Y-117450000D03*
%TD*%
D18*
%TO.C,L1*%
X133400000Y-100000000D03*
X133400000Y-91000000D03*
%TD*%
D17*
%TO.C,C2*%
X129200000Y-109350000D03*
X129200000Y-107450000D03*
%TD*%
D19*
%TO.C,U1*%
X140175000Y-115795000D03*
X140175000Y-117065000D03*
X140175000Y-118335000D03*
X140175000Y-119605000D03*
X145625000Y-119605000D03*
X145625000Y-118335000D03*
X145625000Y-117065000D03*
X145625000Y-115795000D03*
%TD*%
D20*
%TO.C,C1*%
X133100000Y-109300000D03*
X139300000Y-109300000D03*
%TD*%
D21*
%TO.C,C4*%
X162800000Y-97450000D03*
D22*
X162800000Y-99950000D03*
%TD*%
D12*
%TO.C,J2*%
X163730000Y-116900000D03*
X166270000Y-116900000D03*
%TD*%
D17*
%TO.C,R1*%
X157900000Y-112050000D03*
X157900000Y-110150000D03*
%TD*%
D23*
%TO.C,D1*%
X158200000Y-91100000D03*
X162600000Y-91100000D03*
%TD*%
D11*
%TO.C,R4*%
X152100000Y-117650000D03*
X152100000Y-119550000D03*
%TD*%
%TO.C,R3*%
X152100000Y-113450000D03*
X152100000Y-115350000D03*
%TD*%
D24*
%TO.C,J3*%
X121500000Y-112300000D03*
D25*
X121500000Y-118300000D03*
D26*
X126200000Y-115300000D03*
%TD*%
D27*
%TO.C,VR1*%
X157800000Y-115400000D03*
D28*
X156800000Y-118650000D03*
D27*
X155800000Y-115400000D03*
%TD*%
D15*
%TO.C,H2*%
X119218845Y-101043845D03*
X119987690Y-99187690D03*
X119987690Y-102900000D03*
X121843845Y-98418845D03*
D16*
X121843845Y-101043845D03*
D15*
X121843845Y-103668845D03*
X123700000Y-99187690D03*
X123700000Y-102900000D03*
X124468845Y-101043845D03*
%TD*%
M02*
