%TF.GenerationSoftware,KiCad,Pcbnew,7.0.5-0*%
%TF.CreationDate,2023-07-07T11:18:12-04:00*%
%TF.ProjectId,PierogiNixiePSU,50696572-6f67-4694-9e69-786965505355,rev?*%
%TF.SameCoordinates,Original*%
%TF.FileFunction,Legend,Bot*%
%TF.FilePolarity,Positive*%
%FSLAX46Y46*%
G04 Gerber Fmt 4.6, Leading zero omitted, Abs format (unit mm)*
G04 Created by KiCad (PCBNEW 7.0.5-0) date 2023-07-07 11:18:12*
%MOMM*%
%LPD*%
G01*
G04 APERTURE LIST*
%ADD10C,0.300000*%
%ADD11C,0.125000*%
G04 APERTURE END LIST*
D10*
X154429597Y-107786026D02*
X154429597Y-103786026D01*
X154429597Y-103786026D02*
X153477216Y-103786026D01*
X153477216Y-103786026D02*
X152905787Y-103976502D01*
X152905787Y-103976502D02*
X152524835Y-104357454D01*
X152524835Y-104357454D02*
X152334358Y-104738407D01*
X152334358Y-104738407D02*
X152143882Y-105500311D01*
X152143882Y-105500311D02*
X152143882Y-106071740D01*
X152143882Y-106071740D02*
X152334358Y-106833645D01*
X152334358Y-106833645D02*
X152524835Y-107214597D01*
X152524835Y-107214597D02*
X152905787Y-107595550D01*
X152905787Y-107595550D02*
X153477216Y-107786026D01*
X153477216Y-107786026D02*
X154429597Y-107786026D01*
X150620073Y-106643169D02*
X148715311Y-106643169D01*
X151001025Y-107786026D02*
X149667692Y-103786026D01*
X149667692Y-103786026D02*
X148334358Y-107786026D01*
X147001026Y-107786026D02*
X147001026Y-103786026D01*
X147001026Y-103786026D02*
X144715311Y-107786026D01*
X144715311Y-107786026D02*
X144715311Y-103786026D01*
X140715311Y-103976502D02*
X141096264Y-103786026D01*
X141096264Y-103786026D02*
X141667692Y-103786026D01*
X141667692Y-103786026D02*
X142239121Y-103976502D01*
X142239121Y-103976502D02*
X142620073Y-104357454D01*
X142620073Y-104357454D02*
X142810550Y-104738407D01*
X142810550Y-104738407D02*
X143001026Y-105500311D01*
X143001026Y-105500311D02*
X143001026Y-106071740D01*
X143001026Y-106071740D02*
X142810550Y-106833645D01*
X142810550Y-106833645D02*
X142620073Y-107214597D01*
X142620073Y-107214597D02*
X142239121Y-107595550D01*
X142239121Y-107595550D02*
X141667692Y-107786026D01*
X141667692Y-107786026D02*
X141286740Y-107786026D01*
X141286740Y-107786026D02*
X140715311Y-107595550D01*
X140715311Y-107595550D02*
X140524835Y-107405073D01*
X140524835Y-107405073D02*
X140524835Y-106071740D01*
X140524835Y-106071740D02*
X141286740Y-106071740D01*
X138810550Y-105690788D02*
X137477216Y-105690788D01*
X136905788Y-107786026D02*
X138810550Y-107786026D01*
X138810550Y-107786026D02*
X138810550Y-103786026D01*
X138810550Y-103786026D02*
X136905788Y-103786026D01*
X132905787Y-107786026D02*
X134239121Y-105881264D01*
X135191502Y-107786026D02*
X135191502Y-103786026D01*
X135191502Y-103786026D02*
X133667692Y-103786026D01*
X133667692Y-103786026D02*
X133286740Y-103976502D01*
X133286740Y-103976502D02*
X133096263Y-104166978D01*
X133096263Y-104166978D02*
X132905787Y-104547930D01*
X132905787Y-104547930D02*
X132905787Y-105119359D01*
X132905787Y-105119359D02*
X133096263Y-105500311D01*
X133096263Y-105500311D02*
X133286740Y-105690788D01*
X133286740Y-105690788D02*
X133667692Y-105881264D01*
X133667692Y-105881264D02*
X135191502Y-105881264D01*
X131191502Y-107405073D02*
X131001025Y-107595550D01*
X131001025Y-107595550D02*
X131191502Y-107786026D01*
X131191502Y-107786026D02*
X131381978Y-107595550D01*
X131381978Y-107595550D02*
X131191502Y-107405073D01*
X131191502Y-107405073D02*
X131191502Y-107786026D01*
X131191502Y-106262216D02*
X131381978Y-103976502D01*
X131381978Y-103976502D02*
X131191502Y-103786026D01*
X131191502Y-103786026D02*
X131001025Y-103976502D01*
X131001025Y-103976502D02*
X131191502Y-106262216D01*
X131191502Y-106262216D02*
X131191502Y-103786026D01*
X147191501Y-114226026D02*
X149477216Y-114226026D01*
X148334359Y-114226026D02*
X148334359Y-110226026D01*
X148334359Y-110226026D02*
X148715311Y-110797454D01*
X148715311Y-110797454D02*
X149096263Y-111178407D01*
X149096263Y-111178407D02*
X149477216Y-111368883D01*
X145858168Y-110226026D02*
X143191501Y-110226026D01*
X143191501Y-110226026D02*
X144905787Y-114226026D01*
X140905787Y-110226026D02*
X140524834Y-110226026D01*
X140524834Y-110226026D02*
X140143882Y-110416502D01*
X140143882Y-110416502D02*
X139953406Y-110606978D01*
X139953406Y-110606978D02*
X139762930Y-110987930D01*
X139762930Y-110987930D02*
X139572453Y-111749835D01*
X139572453Y-111749835D02*
X139572453Y-112702216D01*
X139572453Y-112702216D02*
X139762930Y-113464121D01*
X139762930Y-113464121D02*
X139953406Y-113845073D01*
X139953406Y-113845073D02*
X140143882Y-114035550D01*
X140143882Y-114035550D02*
X140524834Y-114226026D01*
X140524834Y-114226026D02*
X140905787Y-114226026D01*
X140905787Y-114226026D02*
X141286739Y-114035550D01*
X141286739Y-114035550D02*
X141477215Y-113845073D01*
X141477215Y-113845073D02*
X141667692Y-113464121D01*
X141667692Y-113464121D02*
X141858168Y-112702216D01*
X141858168Y-112702216D02*
X141858168Y-111749835D01*
X141858168Y-111749835D02*
X141667692Y-110987930D01*
X141667692Y-110987930D02*
X141477215Y-110606978D01*
X141477215Y-110606978D02*
X141286739Y-110416502D01*
X141286739Y-110416502D02*
X140905787Y-110226026D01*
X138429596Y-110226026D02*
X137096263Y-114226026D01*
X137096263Y-114226026D02*
X135762929Y-110226026D01*
D11*
X136444140Y-120732309D02*
X136444140Y-121089452D01*
X136444140Y-121089452D02*
X136420331Y-121160880D01*
X136420331Y-121160880D02*
X136372712Y-121208500D01*
X136372712Y-121208500D02*
X136301283Y-121232309D01*
X136301283Y-121232309D02*
X136253664Y-121232309D01*
X136920330Y-121232309D02*
X136682235Y-121232309D01*
X136682235Y-121232309D02*
X136682235Y-120732309D01*
X137372711Y-121184690D02*
X137348902Y-121208500D01*
X137348902Y-121208500D02*
X137277473Y-121232309D01*
X137277473Y-121232309D02*
X137229854Y-121232309D01*
X137229854Y-121232309D02*
X137158426Y-121208500D01*
X137158426Y-121208500D02*
X137110807Y-121160880D01*
X137110807Y-121160880D02*
X137086997Y-121113261D01*
X137086997Y-121113261D02*
X137063188Y-121018023D01*
X137063188Y-121018023D02*
X137063188Y-120946595D01*
X137063188Y-120946595D02*
X137086997Y-120851357D01*
X137086997Y-120851357D02*
X137110807Y-120803738D01*
X137110807Y-120803738D02*
X137158426Y-120756119D01*
X137158426Y-120756119D02*
X137229854Y-120732309D01*
X137229854Y-120732309D02*
X137277473Y-120732309D01*
X137277473Y-120732309D02*
X137348902Y-120756119D01*
X137348902Y-120756119D02*
X137372711Y-120779928D01*
X137729854Y-120732309D02*
X137729854Y-121089452D01*
X137729854Y-121089452D02*
X137706045Y-121160880D01*
X137706045Y-121160880D02*
X137658426Y-121208500D01*
X137658426Y-121208500D02*
X137586997Y-121232309D01*
X137586997Y-121232309D02*
X137539378Y-121232309D01*
X138206044Y-121232309D02*
X137967949Y-121232309D01*
X137967949Y-121232309D02*
X137967949Y-120732309D01*
X138658425Y-121184690D02*
X138634616Y-121208500D01*
X138634616Y-121208500D02*
X138563187Y-121232309D01*
X138563187Y-121232309D02*
X138515568Y-121232309D01*
X138515568Y-121232309D02*
X138444140Y-121208500D01*
X138444140Y-121208500D02*
X138396521Y-121160880D01*
X138396521Y-121160880D02*
X138372711Y-121113261D01*
X138372711Y-121113261D02*
X138348902Y-121018023D01*
X138348902Y-121018023D02*
X138348902Y-120946595D01*
X138348902Y-120946595D02*
X138372711Y-120851357D01*
X138372711Y-120851357D02*
X138396521Y-120803738D01*
X138396521Y-120803738D02*
X138444140Y-120756119D01*
X138444140Y-120756119D02*
X138515568Y-120732309D01*
X138515568Y-120732309D02*
X138563187Y-120732309D01*
X138563187Y-120732309D02*
X138634616Y-120756119D01*
X138634616Y-120756119D02*
X138658425Y-120779928D01*
X139015568Y-120732309D02*
X139015568Y-121089452D01*
X139015568Y-121089452D02*
X138991759Y-121160880D01*
X138991759Y-121160880D02*
X138944140Y-121208500D01*
X138944140Y-121208500D02*
X138872711Y-121232309D01*
X138872711Y-121232309D02*
X138825092Y-121232309D01*
X139491758Y-121232309D02*
X139253663Y-121232309D01*
X139253663Y-121232309D02*
X139253663Y-120732309D01*
X139944139Y-121184690D02*
X139920330Y-121208500D01*
X139920330Y-121208500D02*
X139848901Y-121232309D01*
X139848901Y-121232309D02*
X139801282Y-121232309D01*
X139801282Y-121232309D02*
X139729854Y-121208500D01*
X139729854Y-121208500D02*
X139682235Y-121160880D01*
X139682235Y-121160880D02*
X139658425Y-121113261D01*
X139658425Y-121113261D02*
X139634616Y-121018023D01*
X139634616Y-121018023D02*
X139634616Y-120946595D01*
X139634616Y-120946595D02*
X139658425Y-120851357D01*
X139658425Y-120851357D02*
X139682235Y-120803738D01*
X139682235Y-120803738D02*
X139729854Y-120756119D01*
X139729854Y-120756119D02*
X139801282Y-120732309D01*
X139801282Y-120732309D02*
X139848901Y-120732309D01*
X139848901Y-120732309D02*
X139920330Y-120756119D01*
X139920330Y-120756119D02*
X139944139Y-120779928D01*
X140301282Y-120732309D02*
X140301282Y-121089452D01*
X140301282Y-121089452D02*
X140277473Y-121160880D01*
X140277473Y-121160880D02*
X140229854Y-121208500D01*
X140229854Y-121208500D02*
X140158425Y-121232309D01*
X140158425Y-121232309D02*
X140110806Y-121232309D01*
X140777472Y-121232309D02*
X140539377Y-121232309D01*
X140539377Y-121232309D02*
X140539377Y-120732309D01*
X141229853Y-121184690D02*
X141206044Y-121208500D01*
X141206044Y-121208500D02*
X141134615Y-121232309D01*
X141134615Y-121232309D02*
X141086996Y-121232309D01*
X141086996Y-121232309D02*
X141015568Y-121208500D01*
X141015568Y-121208500D02*
X140967949Y-121160880D01*
X140967949Y-121160880D02*
X140944139Y-121113261D01*
X140944139Y-121113261D02*
X140920330Y-121018023D01*
X140920330Y-121018023D02*
X140920330Y-120946595D01*
X140920330Y-120946595D02*
X140944139Y-120851357D01*
X140944139Y-120851357D02*
X140967949Y-120803738D01*
X140967949Y-120803738D02*
X141015568Y-120756119D01*
X141015568Y-120756119D02*
X141086996Y-120732309D01*
X141086996Y-120732309D02*
X141134615Y-120732309D01*
X141134615Y-120732309D02*
X141206044Y-120756119D01*
X141206044Y-120756119D02*
X141229853Y-120779928D01*
%TO.C,REF\u002A\u002A*%
G36*
X147721650Y-102727850D02*
G01*
X137739450Y-102727850D01*
X137739450Y-102702450D01*
X147721650Y-102702450D01*
X147721650Y-102727850D01*
G37*
G36*
X147721650Y-102702450D02*
G01*
X137739450Y-102702450D01*
X137739450Y-102677050D01*
X147721650Y-102677050D01*
X147721650Y-102702450D01*
G37*
G36*
X147721650Y-102677050D02*
G01*
X137739450Y-102677050D01*
X137739450Y-102651650D01*
X147721650Y-102651650D01*
X147721650Y-102677050D01*
G37*
G36*
X147721650Y-102651650D02*
G01*
X137739450Y-102651650D01*
X137739450Y-102626250D01*
X147721650Y-102626250D01*
X147721650Y-102651650D01*
G37*
G36*
X147721650Y-102626250D02*
G01*
X147188250Y-102626250D01*
X147188250Y-102600850D01*
X147721650Y-102600850D01*
X147721650Y-102626250D01*
G37*
G36*
X147721650Y-102600850D02*
G01*
X147213650Y-102600850D01*
X147213650Y-102575450D01*
X147721650Y-102575450D01*
X147721650Y-102600850D01*
G37*
G36*
X147721650Y-102575450D02*
G01*
X147213650Y-102575450D01*
X147213650Y-102550050D01*
X147721650Y-102550050D01*
X147721650Y-102575450D01*
G37*
G36*
X147721650Y-102550050D02*
G01*
X147188250Y-102550050D01*
X147188250Y-102524650D01*
X147721650Y-102524650D01*
X147721650Y-102550050D01*
G37*
G36*
X147721650Y-102524650D02*
G01*
X147188250Y-102524650D01*
X147188250Y-102499250D01*
X147721650Y-102499250D01*
X147721650Y-102524650D01*
G37*
G36*
X147721650Y-102499250D02*
G01*
X147162850Y-102499250D01*
X147162850Y-102473850D01*
X147721650Y-102473850D01*
X147721650Y-102499250D01*
G37*
G36*
X147696250Y-102804050D02*
G01*
X137764850Y-102804050D01*
X137764850Y-102778650D01*
X147696250Y-102778650D01*
X147696250Y-102804050D01*
G37*
G36*
X147696250Y-102778650D02*
G01*
X137764850Y-102778650D01*
X137764850Y-102753250D01*
X147696250Y-102753250D01*
X147696250Y-102778650D01*
G37*
G36*
X147696250Y-102753250D02*
G01*
X137764850Y-102753250D01*
X137764850Y-102727850D01*
X147696250Y-102727850D01*
X147696250Y-102753250D01*
G37*
G36*
X147696250Y-102473850D02*
G01*
X147137450Y-102473850D01*
X147137450Y-102448450D01*
X147696250Y-102448450D01*
X147696250Y-102473850D01*
G37*
G36*
X147696250Y-102448450D02*
G01*
X147137450Y-102448450D01*
X147137450Y-102423050D01*
X147696250Y-102423050D01*
X147696250Y-102448450D01*
G37*
G36*
X147696250Y-102423050D02*
G01*
X147112050Y-102423050D01*
X147112050Y-102397650D01*
X147696250Y-102397650D01*
X147696250Y-102423050D01*
G37*
G36*
X147696250Y-102397650D02*
G01*
X147112050Y-102397650D01*
X147112050Y-102372250D01*
X147696250Y-102372250D01*
X147696250Y-102397650D01*
G37*
G36*
X147670850Y-102854850D02*
G01*
X137790250Y-102854850D01*
X137790250Y-102829450D01*
X147670850Y-102829450D01*
X147670850Y-102854850D01*
G37*
G36*
X147670850Y-102829450D02*
G01*
X137790250Y-102829450D01*
X137790250Y-102804050D01*
X147670850Y-102804050D01*
X147670850Y-102829450D01*
G37*
G36*
X147670850Y-102372250D02*
G01*
X147086650Y-102372250D01*
X147086650Y-102346850D01*
X147670850Y-102346850D01*
X147670850Y-102372250D01*
G37*
G36*
X147670850Y-102346850D02*
G01*
X147086650Y-102346850D01*
X147086650Y-102321450D01*
X147670850Y-102321450D01*
X147670850Y-102346850D01*
G37*
G36*
X147645450Y-102905650D02*
G01*
X137815650Y-102905650D01*
X137815650Y-102880250D01*
X147645450Y-102880250D01*
X147645450Y-102905650D01*
G37*
G36*
X147645450Y-102880250D02*
G01*
X137815650Y-102880250D01*
X137815650Y-102854850D01*
X147645450Y-102854850D01*
X147645450Y-102880250D01*
G37*
G36*
X147645450Y-102321450D02*
G01*
X147061250Y-102321450D01*
X147061250Y-102296050D01*
X147645450Y-102296050D01*
X147645450Y-102321450D01*
G37*
G36*
X147645450Y-102296050D02*
G01*
X147035850Y-102296050D01*
X147035850Y-102270650D01*
X147645450Y-102270650D01*
X147645450Y-102296050D01*
G37*
G36*
X147620050Y-102931050D02*
G01*
X137841050Y-102931050D01*
X137841050Y-102905650D01*
X147620050Y-102905650D01*
X147620050Y-102931050D01*
G37*
G36*
X147620050Y-102270650D02*
G01*
X147035850Y-102270650D01*
X147035850Y-102245250D01*
X147620050Y-102245250D01*
X147620050Y-102270650D01*
G37*
G36*
X147620050Y-102245250D02*
G01*
X147010450Y-102245250D01*
X147010450Y-102219850D01*
X147620050Y-102219850D01*
X147620050Y-102245250D01*
G37*
G36*
X147594650Y-102956450D02*
G01*
X137866450Y-102956450D01*
X137866450Y-102931050D01*
X147594650Y-102931050D01*
X147594650Y-102956450D01*
G37*
G36*
X147594650Y-102219850D02*
G01*
X147010450Y-102219850D01*
X147010450Y-102194450D01*
X147594650Y-102194450D01*
X147594650Y-102219850D01*
G37*
G36*
X147569250Y-102981850D02*
G01*
X137891850Y-102981850D01*
X137891850Y-102956450D01*
X147569250Y-102956450D01*
X147569250Y-102981850D01*
G37*
G36*
X147569250Y-102194450D02*
G01*
X146985050Y-102194450D01*
X146985050Y-102169050D01*
X147569250Y-102169050D01*
X147569250Y-102194450D01*
G37*
G36*
X147569250Y-102169050D02*
G01*
X146985050Y-102169050D01*
X146985050Y-102143650D01*
X147569250Y-102143650D01*
X147569250Y-102169050D01*
G37*
G36*
X147543850Y-103007250D02*
G01*
X137917250Y-103007250D01*
X137917250Y-102981850D01*
X147543850Y-102981850D01*
X147543850Y-103007250D01*
G37*
G36*
X147543850Y-102143650D02*
G01*
X146959650Y-102143650D01*
X146959650Y-102118250D01*
X147543850Y-102118250D01*
X147543850Y-102143650D01*
G37*
G36*
X147543850Y-102118250D02*
G01*
X146934250Y-102118250D01*
X146934250Y-102092850D01*
X147543850Y-102092850D01*
X147543850Y-102118250D01*
G37*
G36*
X147518450Y-103032650D02*
G01*
X137942650Y-103032650D01*
X137942650Y-103007250D01*
X147518450Y-103007250D01*
X147518450Y-103032650D01*
G37*
G36*
X147518450Y-102092850D02*
G01*
X146934250Y-102092850D01*
X146934250Y-102067450D01*
X147518450Y-102067450D01*
X147518450Y-102092850D01*
G37*
G36*
X147518450Y-102067450D02*
G01*
X146908850Y-102067450D01*
X146908850Y-102042050D01*
X147518450Y-102042050D01*
X147518450Y-102067450D01*
G37*
G36*
X147493050Y-102042050D02*
G01*
X146908850Y-102042050D01*
X146908850Y-102016650D01*
X147493050Y-102016650D01*
X147493050Y-102042050D01*
G37*
G36*
X147467650Y-103058050D02*
G01*
X137993450Y-103058050D01*
X137993450Y-103032650D01*
X147467650Y-103032650D01*
X147467650Y-103058050D01*
G37*
G36*
X147467650Y-102016650D02*
G01*
X146883450Y-102016650D01*
X146883450Y-101991250D01*
X147467650Y-101991250D01*
X147467650Y-102016650D01*
G37*
G36*
X147467650Y-101991250D02*
G01*
X146883450Y-101991250D01*
X146883450Y-101965850D01*
X147467650Y-101965850D01*
X147467650Y-101991250D01*
G37*
G36*
X147442250Y-101965850D02*
G01*
X146858050Y-101965850D01*
X146858050Y-101940450D01*
X147442250Y-101940450D01*
X147442250Y-101965850D01*
G37*
G36*
X147442250Y-101940450D02*
G01*
X146832650Y-101940450D01*
X146832650Y-101915050D01*
X147442250Y-101915050D01*
X147442250Y-101940450D01*
G37*
G36*
X147416850Y-103083450D02*
G01*
X138044250Y-103083450D01*
X138044250Y-103058050D01*
X147416850Y-103058050D01*
X147416850Y-103083450D01*
G37*
G36*
X147416850Y-101915050D02*
G01*
X146832650Y-101915050D01*
X146832650Y-101889650D01*
X147416850Y-101889650D01*
X147416850Y-101915050D01*
G37*
G36*
X147416850Y-101889650D02*
G01*
X146807250Y-101889650D01*
X146807250Y-101864250D01*
X147416850Y-101864250D01*
X147416850Y-101889650D01*
G37*
G36*
X147391450Y-101864250D02*
G01*
X146807250Y-101864250D01*
X146807250Y-101838850D01*
X147391450Y-101838850D01*
X147391450Y-101864250D01*
G37*
G36*
X147366050Y-103108850D02*
G01*
X138095050Y-103108850D01*
X138095050Y-103083450D01*
X147366050Y-103083450D01*
X147366050Y-103108850D01*
G37*
G36*
X147366050Y-101838850D02*
G01*
X146781850Y-101838850D01*
X146781850Y-101813450D01*
X147366050Y-101813450D01*
X147366050Y-101838850D01*
G37*
G36*
X147366050Y-101813450D02*
G01*
X146781850Y-101813450D01*
X146781850Y-101788050D01*
X147366050Y-101788050D01*
X147366050Y-101813450D01*
G37*
G36*
X147340650Y-101788050D02*
G01*
X146756450Y-101788050D01*
X146756450Y-101762650D01*
X147340650Y-101762650D01*
X147340650Y-101788050D01*
G37*
G36*
X147340650Y-101762650D02*
G01*
X146731050Y-101762650D01*
X146731050Y-101737250D01*
X147340650Y-101737250D01*
X147340650Y-101762650D01*
G37*
G36*
X147315250Y-101737250D02*
G01*
X146731050Y-101737250D01*
X146731050Y-101711850D01*
X147315250Y-101711850D01*
X147315250Y-101737250D01*
G37*
G36*
X147289850Y-101711850D02*
G01*
X146705650Y-101711850D01*
X146705650Y-101686450D01*
X147289850Y-101686450D01*
X147289850Y-101711850D01*
G37*
G36*
X147289850Y-101686450D02*
G01*
X146705650Y-101686450D01*
X146705650Y-101661050D01*
X147289850Y-101661050D01*
X147289850Y-101686450D01*
G37*
G36*
X147264450Y-103134250D02*
G01*
X138196650Y-103134250D01*
X138196650Y-103108850D01*
X147264450Y-103108850D01*
X147264450Y-103134250D01*
G37*
G36*
X147264450Y-101661050D02*
G01*
X146680250Y-101661050D01*
X146680250Y-101635650D01*
X147264450Y-101635650D01*
X147264450Y-101661050D01*
G37*
G36*
X147264450Y-101635650D02*
G01*
X146680250Y-101635650D01*
X146680250Y-101610250D01*
X147264450Y-101610250D01*
X147264450Y-101635650D01*
G37*
G36*
X147239050Y-101610250D02*
G01*
X146654850Y-101610250D01*
X146654850Y-101584850D01*
X147239050Y-101584850D01*
X147239050Y-101610250D01*
G37*
G36*
X147239050Y-101584850D02*
G01*
X146629450Y-101584850D01*
X146629450Y-101559450D01*
X147239050Y-101559450D01*
X147239050Y-101584850D01*
G37*
G36*
X147213650Y-101559450D02*
G01*
X146629450Y-101559450D01*
X146629450Y-101534050D01*
X147213650Y-101534050D01*
X147213650Y-101559450D01*
G37*
G36*
X147188250Y-101534050D02*
G01*
X146604050Y-101534050D01*
X146604050Y-101508650D01*
X147188250Y-101508650D01*
X147188250Y-101534050D01*
G37*
G36*
X147188250Y-101508650D02*
G01*
X146604050Y-101508650D01*
X146604050Y-101483250D01*
X147188250Y-101483250D01*
X147188250Y-101508650D01*
G37*
G36*
X147162850Y-101483250D02*
G01*
X146578650Y-101483250D01*
X146578650Y-101457850D01*
X147162850Y-101457850D01*
X147162850Y-101483250D01*
G37*
G36*
X147162850Y-101457850D02*
G01*
X146578650Y-101457850D01*
X146578650Y-101432450D01*
X147162850Y-101432450D01*
X147162850Y-101457850D01*
G37*
G36*
X147137450Y-101432450D02*
G01*
X146553250Y-101432450D01*
X146553250Y-101407050D01*
X147137450Y-101407050D01*
X147137450Y-101432450D01*
G37*
G36*
X147137450Y-101407050D02*
G01*
X146527850Y-101407050D01*
X146527850Y-101381650D01*
X147137450Y-101381650D01*
X147137450Y-101407050D01*
G37*
G36*
X147112050Y-101381650D02*
G01*
X146527850Y-101381650D01*
X146527850Y-101356250D01*
X147112050Y-101356250D01*
X147112050Y-101381650D01*
G37*
G36*
X147086650Y-101356250D02*
G01*
X146502450Y-101356250D01*
X146502450Y-101330850D01*
X147086650Y-101330850D01*
X147086650Y-101356250D01*
G37*
G36*
X147086650Y-101330850D02*
G01*
X146502450Y-101330850D01*
X146502450Y-101305450D01*
X147086650Y-101305450D01*
X147086650Y-101330850D01*
G37*
G36*
X147061250Y-101305450D02*
G01*
X146477050Y-101305450D01*
X146477050Y-101280050D01*
X147061250Y-101280050D01*
X147061250Y-101305450D01*
G37*
G36*
X147061250Y-101280050D02*
G01*
X146451650Y-101280050D01*
X146451650Y-101254650D01*
X147061250Y-101254650D01*
X147061250Y-101280050D01*
G37*
G36*
X147035850Y-101254650D02*
G01*
X146451650Y-101254650D01*
X146451650Y-101229250D01*
X147035850Y-101229250D01*
X147035850Y-101254650D01*
G37*
G36*
X147035850Y-101229250D02*
G01*
X146426250Y-101229250D01*
X146426250Y-101203850D01*
X147035850Y-101203850D01*
X147035850Y-101229250D01*
G37*
G36*
X147010450Y-101203850D02*
G01*
X146426250Y-101203850D01*
X146426250Y-101178450D01*
X147010450Y-101178450D01*
X147010450Y-101203850D01*
G37*
G36*
X146985050Y-101178450D02*
G01*
X146400850Y-101178450D01*
X146400850Y-101153050D01*
X146985050Y-101153050D01*
X146985050Y-101178450D01*
G37*
G36*
X146985050Y-101153050D02*
G01*
X146400850Y-101153050D01*
X146400850Y-101127650D01*
X146985050Y-101127650D01*
X146985050Y-101153050D01*
G37*
G36*
X146959650Y-101127650D02*
G01*
X146375450Y-101127650D01*
X146375450Y-101102250D01*
X146959650Y-101102250D01*
X146959650Y-101127650D01*
G37*
G36*
X146959650Y-101102250D02*
G01*
X146350050Y-101102250D01*
X146350050Y-101076850D01*
X146959650Y-101076850D01*
X146959650Y-101102250D01*
G37*
G36*
X146934250Y-101076850D02*
G01*
X146350050Y-101076850D01*
X146350050Y-101051450D01*
X146934250Y-101051450D01*
X146934250Y-101076850D01*
G37*
G36*
X146934250Y-101051450D02*
G01*
X146324650Y-101051450D01*
X146324650Y-101026050D01*
X146934250Y-101026050D01*
X146934250Y-101051450D01*
G37*
G36*
X146908850Y-101026050D02*
G01*
X146324650Y-101026050D01*
X146324650Y-101000650D01*
X146908850Y-101000650D01*
X146908850Y-101026050D01*
G37*
G36*
X146883450Y-101000650D02*
G01*
X146299250Y-101000650D01*
X146299250Y-100975250D01*
X146883450Y-100975250D01*
X146883450Y-101000650D01*
G37*
G36*
X146883450Y-100975250D02*
G01*
X146299250Y-100975250D01*
X146299250Y-100949850D01*
X146883450Y-100949850D01*
X146883450Y-100975250D01*
G37*
G36*
X146858050Y-100949850D02*
G01*
X146273850Y-100949850D01*
X146273850Y-100924450D01*
X146858050Y-100924450D01*
X146858050Y-100949850D01*
G37*
G36*
X146858050Y-100924450D02*
G01*
X146248450Y-100924450D01*
X146248450Y-100899050D01*
X146858050Y-100899050D01*
X146858050Y-100924450D01*
G37*
G36*
X146832650Y-100899050D02*
G01*
X146248450Y-100899050D01*
X146248450Y-100873650D01*
X146832650Y-100873650D01*
X146832650Y-100899050D01*
G37*
G36*
X146832650Y-100873650D02*
G01*
X146223050Y-100873650D01*
X146223050Y-100848250D01*
X146832650Y-100848250D01*
X146832650Y-100873650D01*
G37*
G36*
X146807250Y-100848250D02*
G01*
X146223050Y-100848250D01*
X146223050Y-100822850D01*
X146807250Y-100822850D01*
X146807250Y-100848250D01*
G37*
G36*
X146781850Y-100822850D02*
G01*
X146197650Y-100822850D01*
X146197650Y-100797450D01*
X146781850Y-100797450D01*
X146781850Y-100822850D01*
G37*
G36*
X146781850Y-100797450D02*
G01*
X146197650Y-100797450D01*
X146197650Y-100772050D01*
X146781850Y-100772050D01*
X146781850Y-100797450D01*
G37*
G36*
X146756450Y-100772050D02*
G01*
X146172250Y-100772050D01*
X146172250Y-100746650D01*
X146756450Y-100746650D01*
X146756450Y-100772050D01*
G37*
G36*
X146756450Y-100746650D02*
G01*
X146146850Y-100746650D01*
X146146850Y-100721250D01*
X146756450Y-100721250D01*
X146756450Y-100746650D01*
G37*
G36*
X146731050Y-100721250D02*
G01*
X146146850Y-100721250D01*
X146146850Y-100695850D01*
X146731050Y-100695850D01*
X146731050Y-100721250D01*
G37*
G36*
X146731050Y-100695850D02*
G01*
X146121450Y-100695850D01*
X146121450Y-100670450D01*
X146731050Y-100670450D01*
X146731050Y-100695850D01*
G37*
G36*
X146705650Y-100670450D02*
G01*
X146121450Y-100670450D01*
X146121450Y-100645050D01*
X146705650Y-100645050D01*
X146705650Y-100670450D01*
G37*
G36*
X146680250Y-100645050D02*
G01*
X146096050Y-100645050D01*
X146096050Y-100619650D01*
X146680250Y-100619650D01*
X146680250Y-100645050D01*
G37*
G36*
X146680250Y-100619650D02*
G01*
X146096050Y-100619650D01*
X146096050Y-100594250D01*
X146680250Y-100594250D01*
X146680250Y-100619650D01*
G37*
G36*
X146654850Y-100594250D02*
G01*
X146070650Y-100594250D01*
X146070650Y-100568850D01*
X146654850Y-100568850D01*
X146654850Y-100594250D01*
G37*
G36*
X146654850Y-100568850D02*
G01*
X146045250Y-100568850D01*
X146045250Y-100543450D01*
X146654850Y-100543450D01*
X146654850Y-100568850D01*
G37*
G36*
X146629450Y-100543450D02*
G01*
X146045250Y-100543450D01*
X146045250Y-100518050D01*
X146629450Y-100518050D01*
X146629450Y-100543450D01*
G37*
G36*
X146604050Y-100518050D02*
G01*
X146019850Y-100518050D01*
X146019850Y-100492650D01*
X146604050Y-100492650D01*
X146604050Y-100518050D01*
G37*
G36*
X146604050Y-100492650D02*
G01*
X146019850Y-100492650D01*
X146019850Y-100467250D01*
X146604050Y-100467250D01*
X146604050Y-100492650D01*
G37*
G36*
X146578650Y-100467250D02*
G01*
X145994450Y-100467250D01*
X145994450Y-100441850D01*
X146578650Y-100441850D01*
X146578650Y-100467250D01*
G37*
G36*
X146578650Y-100441850D02*
G01*
X145994450Y-100441850D01*
X145994450Y-100416450D01*
X146578650Y-100416450D01*
X146578650Y-100441850D01*
G37*
G36*
X146553250Y-100416450D02*
G01*
X145969050Y-100416450D01*
X145969050Y-100391050D01*
X146553250Y-100391050D01*
X146553250Y-100416450D01*
G37*
G36*
X146553250Y-100391050D02*
G01*
X145943650Y-100391050D01*
X145943650Y-100365650D01*
X146553250Y-100365650D01*
X146553250Y-100391050D01*
G37*
G36*
X146527850Y-100365650D02*
G01*
X145943650Y-100365650D01*
X145943650Y-100340250D01*
X146527850Y-100340250D01*
X146527850Y-100365650D01*
G37*
G36*
X146502450Y-100340250D02*
G01*
X145918250Y-100340250D01*
X145918250Y-100314850D01*
X146502450Y-100314850D01*
X146502450Y-100340250D01*
G37*
G36*
X146502450Y-100314850D02*
G01*
X145918250Y-100314850D01*
X145918250Y-100289450D01*
X146502450Y-100289450D01*
X146502450Y-100314850D01*
G37*
G36*
X146477050Y-100289450D02*
G01*
X145892850Y-100289450D01*
X145892850Y-100264050D01*
X146477050Y-100264050D01*
X146477050Y-100289450D01*
G37*
G36*
X146477050Y-100264050D02*
G01*
X145892850Y-100264050D01*
X145892850Y-100238650D01*
X146477050Y-100238650D01*
X146477050Y-100264050D01*
G37*
G36*
X146451650Y-100238650D02*
G01*
X145867450Y-100238650D01*
X145867450Y-100213250D01*
X146451650Y-100213250D01*
X146451650Y-100238650D01*
G37*
G36*
X146451650Y-100213250D02*
G01*
X145842050Y-100213250D01*
X145842050Y-100187850D01*
X146451650Y-100187850D01*
X146451650Y-100213250D01*
G37*
G36*
X146426250Y-100187850D02*
G01*
X145842050Y-100187850D01*
X145842050Y-100162450D01*
X146426250Y-100162450D01*
X146426250Y-100187850D01*
G37*
G36*
X146400850Y-100162450D02*
G01*
X145816650Y-100162450D01*
X145816650Y-100137050D01*
X146400850Y-100137050D01*
X146400850Y-100162450D01*
G37*
G36*
X146400850Y-100137050D02*
G01*
X145816650Y-100137050D01*
X145816650Y-100111650D01*
X146400850Y-100111650D01*
X146400850Y-100137050D01*
G37*
G36*
X146375450Y-100111650D02*
G01*
X145791250Y-100111650D01*
X145791250Y-100086250D01*
X146375450Y-100086250D01*
X146375450Y-100111650D01*
G37*
G36*
X146375450Y-100086250D02*
G01*
X145765850Y-100086250D01*
X145765850Y-100060850D01*
X146375450Y-100060850D01*
X146375450Y-100086250D01*
G37*
G36*
X146350050Y-100060850D02*
G01*
X145765850Y-100060850D01*
X145765850Y-100035450D01*
X146350050Y-100035450D01*
X146350050Y-100060850D01*
G37*
G36*
X146350050Y-100035450D02*
G01*
X145740450Y-100035450D01*
X145740450Y-100010050D01*
X146350050Y-100010050D01*
X146350050Y-100035450D01*
G37*
G36*
X146324650Y-100010050D02*
G01*
X145740450Y-100010050D01*
X145740450Y-99984650D01*
X146324650Y-99984650D01*
X146324650Y-100010050D01*
G37*
G36*
X146299250Y-99984650D02*
G01*
X145715050Y-99984650D01*
X145715050Y-99959250D01*
X146299250Y-99959250D01*
X146299250Y-99984650D01*
G37*
G36*
X146299250Y-99959250D02*
G01*
X145715050Y-99959250D01*
X145715050Y-99933850D01*
X146299250Y-99933850D01*
X146299250Y-99959250D01*
G37*
G36*
X146273850Y-99933850D02*
G01*
X145689650Y-99933850D01*
X145689650Y-99908450D01*
X146273850Y-99908450D01*
X146273850Y-99933850D01*
G37*
G36*
X146273850Y-99908450D02*
G01*
X145664250Y-99908450D01*
X145664250Y-99883050D01*
X146273850Y-99883050D01*
X146273850Y-99908450D01*
G37*
G36*
X146248450Y-99883050D02*
G01*
X145664250Y-99883050D01*
X145664250Y-99857650D01*
X146248450Y-99857650D01*
X146248450Y-99883050D01*
G37*
G36*
X146248450Y-99857650D02*
G01*
X145638850Y-99857650D01*
X145638850Y-99832250D01*
X146248450Y-99832250D01*
X146248450Y-99857650D01*
G37*
G36*
X146223050Y-99832250D02*
G01*
X145638850Y-99832250D01*
X145638850Y-99806850D01*
X146223050Y-99806850D01*
X146223050Y-99832250D01*
G37*
G36*
X146197650Y-99806850D02*
G01*
X145613450Y-99806850D01*
X145613450Y-99781450D01*
X146197650Y-99781450D01*
X146197650Y-99806850D01*
G37*
G36*
X146197650Y-99781450D02*
G01*
X145613450Y-99781450D01*
X145613450Y-99756050D01*
X146197650Y-99756050D01*
X146197650Y-99781450D01*
G37*
G36*
X146172250Y-99756050D02*
G01*
X145588050Y-99756050D01*
X145588050Y-99730650D01*
X146172250Y-99730650D01*
X146172250Y-99756050D01*
G37*
G36*
X146172250Y-99730650D02*
G01*
X145562650Y-99730650D01*
X145562650Y-99705250D01*
X146172250Y-99705250D01*
X146172250Y-99730650D01*
G37*
G36*
X146146850Y-99705250D02*
G01*
X145562650Y-99705250D01*
X145562650Y-99679850D01*
X146146850Y-99679850D01*
X146146850Y-99705250D01*
G37*
G36*
X146146850Y-99679850D02*
G01*
X145537250Y-99679850D01*
X145537250Y-99654450D01*
X146146850Y-99654450D01*
X146146850Y-99679850D01*
G37*
G36*
X146121450Y-99654450D02*
G01*
X145537250Y-99654450D01*
X145537250Y-99629050D01*
X146121450Y-99629050D01*
X146121450Y-99654450D01*
G37*
G36*
X146096050Y-99629050D02*
G01*
X145511850Y-99629050D01*
X145511850Y-99603650D01*
X146096050Y-99603650D01*
X146096050Y-99629050D01*
G37*
G36*
X146096050Y-99603650D02*
G01*
X145511850Y-99603650D01*
X145511850Y-99578250D01*
X146096050Y-99578250D01*
X146096050Y-99603650D01*
G37*
G36*
X146070650Y-99578250D02*
G01*
X145486450Y-99578250D01*
X145486450Y-99552850D01*
X146070650Y-99552850D01*
X146070650Y-99578250D01*
G37*
G36*
X146070650Y-99552850D02*
G01*
X145461050Y-99552850D01*
X145461050Y-99527450D01*
X146070650Y-99527450D01*
X146070650Y-99552850D01*
G37*
G36*
X146045250Y-99527450D02*
G01*
X145461050Y-99527450D01*
X145461050Y-99502050D01*
X146045250Y-99502050D01*
X146045250Y-99527450D01*
G37*
G36*
X146045250Y-99502050D02*
G01*
X145435650Y-99502050D01*
X145435650Y-99476650D01*
X146045250Y-99476650D01*
X146045250Y-99502050D01*
G37*
G36*
X146019850Y-99476650D02*
G01*
X145435650Y-99476650D01*
X145435650Y-99451250D01*
X146019850Y-99451250D01*
X146019850Y-99476650D01*
G37*
G36*
X145994450Y-99451250D02*
G01*
X145410250Y-99451250D01*
X145410250Y-99425850D01*
X145994450Y-99425850D01*
X145994450Y-99451250D01*
G37*
G36*
X145994450Y-99425850D02*
G01*
X145410250Y-99425850D01*
X145410250Y-99400450D01*
X145994450Y-99400450D01*
X145994450Y-99425850D01*
G37*
G36*
X145969050Y-99400450D02*
G01*
X145384850Y-99400450D01*
X145384850Y-99375050D01*
X145969050Y-99375050D01*
X145969050Y-99400450D01*
G37*
G36*
X145969050Y-99375050D02*
G01*
X145359450Y-99375050D01*
X145359450Y-99349650D01*
X145969050Y-99349650D01*
X145969050Y-99375050D01*
G37*
G36*
X145943650Y-99349650D02*
G01*
X145359450Y-99349650D01*
X145359450Y-99324250D01*
X145943650Y-99324250D01*
X145943650Y-99349650D01*
G37*
G36*
X145918250Y-99324250D02*
G01*
X145334050Y-99324250D01*
X145334050Y-99298850D01*
X145918250Y-99298850D01*
X145918250Y-99324250D01*
G37*
G36*
X145918250Y-99298850D02*
G01*
X145334050Y-99298850D01*
X145334050Y-99273450D01*
X145918250Y-99273450D01*
X145918250Y-99298850D01*
G37*
G36*
X145892850Y-99273450D02*
G01*
X145308650Y-99273450D01*
X145308650Y-99248050D01*
X145892850Y-99248050D01*
X145892850Y-99273450D01*
G37*
G36*
X145892850Y-99248050D02*
G01*
X145308650Y-99248050D01*
X145308650Y-99222650D01*
X145892850Y-99222650D01*
X145892850Y-99248050D01*
G37*
G36*
X145867450Y-99222650D02*
G01*
X145283250Y-99222650D01*
X145283250Y-99197250D01*
X145867450Y-99197250D01*
X145867450Y-99222650D01*
G37*
G36*
X145867450Y-99197250D02*
G01*
X145257850Y-99197250D01*
X145257850Y-99171850D01*
X145867450Y-99171850D01*
X145867450Y-99197250D01*
G37*
G36*
X145842050Y-99171850D02*
G01*
X145257850Y-99171850D01*
X145257850Y-99146450D01*
X145842050Y-99146450D01*
X145842050Y-99171850D01*
G37*
G36*
X145816650Y-99146450D02*
G01*
X145232450Y-99146450D01*
X145232450Y-99121050D01*
X145816650Y-99121050D01*
X145816650Y-99146450D01*
G37*
G36*
X145816650Y-99121050D02*
G01*
X145232450Y-99121050D01*
X145232450Y-99095650D01*
X145816650Y-99095650D01*
X145816650Y-99121050D01*
G37*
G36*
X145791250Y-99095650D02*
G01*
X145207050Y-99095650D01*
X145207050Y-99070250D01*
X145791250Y-99070250D01*
X145791250Y-99095650D01*
G37*
G36*
X145791250Y-99070250D02*
G01*
X145207050Y-99070250D01*
X145207050Y-99044850D01*
X145791250Y-99044850D01*
X145791250Y-99070250D01*
G37*
G36*
X145765850Y-99044850D02*
G01*
X145181650Y-99044850D01*
X145181650Y-99019450D01*
X145765850Y-99019450D01*
X145765850Y-99044850D01*
G37*
G36*
X145765850Y-99019450D02*
G01*
X145156250Y-99019450D01*
X145156250Y-98994050D01*
X145765850Y-98994050D01*
X145765850Y-99019450D01*
G37*
G36*
X145740450Y-98994050D02*
G01*
X145156250Y-98994050D01*
X145156250Y-98968650D01*
X145740450Y-98968650D01*
X145740450Y-98994050D01*
G37*
G36*
X145715050Y-98968650D02*
G01*
X145130850Y-98968650D01*
X145130850Y-98943250D01*
X145715050Y-98943250D01*
X145715050Y-98968650D01*
G37*
G36*
X145715050Y-98943250D02*
G01*
X145130850Y-98943250D01*
X145130850Y-98917850D01*
X145715050Y-98917850D01*
X145715050Y-98943250D01*
G37*
G36*
X145689650Y-98917850D02*
G01*
X145105450Y-98917850D01*
X145105450Y-98892450D01*
X145689650Y-98892450D01*
X145689650Y-98917850D01*
G37*
G36*
X145689650Y-98892450D02*
G01*
X145080050Y-98892450D01*
X145080050Y-98867050D01*
X145689650Y-98867050D01*
X145689650Y-98892450D01*
G37*
G36*
X145664250Y-98867050D02*
G01*
X145080050Y-98867050D01*
X145080050Y-98841650D01*
X145664250Y-98841650D01*
X145664250Y-98867050D01*
G37*
G36*
X145664250Y-98841650D02*
G01*
X145054650Y-98841650D01*
X145054650Y-98816250D01*
X145664250Y-98816250D01*
X145664250Y-98841650D01*
G37*
G36*
X145638850Y-98816250D02*
G01*
X145054650Y-98816250D01*
X145054650Y-98790850D01*
X145638850Y-98790850D01*
X145638850Y-98816250D01*
G37*
G36*
X145613450Y-98790850D02*
G01*
X145029250Y-98790850D01*
X145029250Y-98765450D01*
X145613450Y-98765450D01*
X145613450Y-98790850D01*
G37*
G36*
X145613450Y-98765450D02*
G01*
X145029250Y-98765450D01*
X145029250Y-98740050D01*
X145613450Y-98740050D01*
X145613450Y-98765450D01*
G37*
G36*
X145588050Y-98740050D02*
G01*
X145003850Y-98740050D01*
X145003850Y-98714650D01*
X145588050Y-98714650D01*
X145588050Y-98740050D01*
G37*
G36*
X145588050Y-98714650D02*
G01*
X144978450Y-98714650D01*
X144978450Y-98689250D01*
X145588050Y-98689250D01*
X145588050Y-98714650D01*
G37*
G36*
X145562650Y-98689250D02*
G01*
X144978450Y-98689250D01*
X144978450Y-98663850D01*
X145562650Y-98663850D01*
X145562650Y-98689250D01*
G37*
G36*
X145562650Y-98663850D02*
G01*
X144953050Y-98663850D01*
X144953050Y-98638450D01*
X145562650Y-98638450D01*
X145562650Y-98663850D01*
G37*
G36*
X145537250Y-98638450D02*
G01*
X144953050Y-98638450D01*
X144953050Y-98613050D01*
X145537250Y-98613050D01*
X145537250Y-98638450D01*
G37*
G36*
X145511850Y-98613050D02*
G01*
X144927650Y-98613050D01*
X144927650Y-98587650D01*
X145511850Y-98587650D01*
X145511850Y-98613050D01*
G37*
G36*
X145511850Y-98587650D02*
G01*
X144927650Y-98587650D01*
X144927650Y-98562250D01*
X145511850Y-98562250D01*
X145511850Y-98587650D01*
G37*
G36*
X145486450Y-98562250D02*
G01*
X144902250Y-98562250D01*
X144902250Y-98536850D01*
X145486450Y-98536850D01*
X145486450Y-98562250D01*
G37*
G36*
X145486450Y-98536850D02*
G01*
X144876850Y-98536850D01*
X144876850Y-98511450D01*
X145486450Y-98511450D01*
X145486450Y-98536850D01*
G37*
G36*
X145461050Y-98511450D02*
G01*
X144876850Y-98511450D01*
X144876850Y-98486050D01*
X145461050Y-98486050D01*
X145461050Y-98511450D01*
G37*
G36*
X145461050Y-98486050D02*
G01*
X144851450Y-98486050D01*
X144851450Y-98460650D01*
X145461050Y-98460650D01*
X145461050Y-98486050D01*
G37*
G36*
X145435650Y-98460650D02*
G01*
X144851450Y-98460650D01*
X144851450Y-98435250D01*
X145435650Y-98435250D01*
X145435650Y-98460650D01*
G37*
G36*
X145410250Y-98435250D02*
G01*
X144826050Y-98435250D01*
X144826050Y-98409850D01*
X145410250Y-98409850D01*
X145410250Y-98435250D01*
G37*
G36*
X145410250Y-98409850D02*
G01*
X144826050Y-98409850D01*
X144826050Y-98384450D01*
X145410250Y-98384450D01*
X145410250Y-98409850D01*
G37*
G36*
X145384850Y-98384450D02*
G01*
X144800650Y-98384450D01*
X144800650Y-98359050D01*
X145384850Y-98359050D01*
X145384850Y-98384450D01*
G37*
G36*
X145384850Y-98359050D02*
G01*
X144775250Y-98359050D01*
X144775250Y-98333650D01*
X145384850Y-98333650D01*
X145384850Y-98359050D01*
G37*
G36*
X145359450Y-98333650D02*
G01*
X144775250Y-98333650D01*
X144775250Y-98308250D01*
X145359450Y-98308250D01*
X145359450Y-98333650D01*
G37*
G36*
X145334050Y-98308250D02*
G01*
X144749850Y-98308250D01*
X144749850Y-98282850D01*
X145334050Y-98282850D01*
X145334050Y-98308250D01*
G37*
G36*
X145334050Y-98282850D02*
G01*
X144749850Y-98282850D01*
X144749850Y-98257450D01*
X145334050Y-98257450D01*
X145334050Y-98282850D01*
G37*
G36*
X145308650Y-98257450D02*
G01*
X144724450Y-98257450D01*
X144724450Y-98232050D01*
X145308650Y-98232050D01*
X145308650Y-98257450D01*
G37*
G36*
X145308650Y-98232050D02*
G01*
X144724450Y-98232050D01*
X144724450Y-98206650D01*
X145308650Y-98206650D01*
X145308650Y-98232050D01*
G37*
G36*
X145283250Y-98206650D02*
G01*
X144699050Y-98206650D01*
X144699050Y-98181250D01*
X145283250Y-98181250D01*
X145283250Y-98206650D01*
G37*
G36*
X145283250Y-98181250D02*
G01*
X144673650Y-98181250D01*
X144673650Y-98155850D01*
X145283250Y-98155850D01*
X145283250Y-98181250D01*
G37*
G36*
X145257850Y-98155850D02*
G01*
X144673650Y-98155850D01*
X144673650Y-98130450D01*
X145257850Y-98130450D01*
X145257850Y-98155850D01*
G37*
G36*
X145232450Y-98130450D02*
G01*
X144648250Y-98130450D01*
X144648250Y-98105050D01*
X145232450Y-98105050D01*
X145232450Y-98130450D01*
G37*
G36*
X145232450Y-98105050D02*
G01*
X144648250Y-98105050D01*
X144648250Y-98079650D01*
X145232450Y-98079650D01*
X145232450Y-98105050D01*
G37*
G36*
X145207050Y-98079650D02*
G01*
X144622850Y-98079650D01*
X144622850Y-98054250D01*
X145207050Y-98054250D01*
X145207050Y-98079650D01*
G37*
G36*
X145207050Y-98054250D02*
G01*
X144622850Y-98054250D01*
X144622850Y-98028850D01*
X145207050Y-98028850D01*
X145207050Y-98054250D01*
G37*
G36*
X145181650Y-98028850D02*
G01*
X144597450Y-98028850D01*
X144597450Y-98003450D01*
X145181650Y-98003450D01*
X145181650Y-98028850D01*
G37*
G36*
X145181650Y-98003450D02*
G01*
X144572050Y-98003450D01*
X144572050Y-97978050D01*
X145181650Y-97978050D01*
X145181650Y-98003450D01*
G37*
G36*
X145156250Y-97978050D02*
G01*
X144572050Y-97978050D01*
X144572050Y-97952650D01*
X145156250Y-97952650D01*
X145156250Y-97978050D01*
G37*
G36*
X145130850Y-97952650D02*
G01*
X144546650Y-97952650D01*
X144546650Y-97927250D01*
X145130850Y-97927250D01*
X145130850Y-97952650D01*
G37*
G36*
X145130850Y-97927250D02*
G01*
X144546650Y-97927250D01*
X144546650Y-97901850D01*
X145130850Y-97901850D01*
X145130850Y-97927250D01*
G37*
G36*
X145105450Y-97901850D02*
G01*
X144521250Y-97901850D01*
X144521250Y-97876450D01*
X145105450Y-97876450D01*
X145105450Y-97901850D01*
G37*
G36*
X145105450Y-97876450D02*
G01*
X144495850Y-97876450D01*
X144495850Y-97851050D01*
X145105450Y-97851050D01*
X145105450Y-97876450D01*
G37*
G36*
X145080050Y-97851050D02*
G01*
X144495850Y-97851050D01*
X144495850Y-97825650D01*
X145080050Y-97825650D01*
X145080050Y-97851050D01*
G37*
G36*
X145080050Y-97825650D02*
G01*
X144470450Y-97825650D01*
X144470450Y-97800250D01*
X145080050Y-97800250D01*
X145080050Y-97825650D01*
G37*
G36*
X145054650Y-97800250D02*
G01*
X144470450Y-97800250D01*
X144470450Y-97774850D01*
X145054650Y-97774850D01*
X145054650Y-97800250D01*
G37*
G36*
X145029250Y-97774850D02*
G01*
X144445050Y-97774850D01*
X144445050Y-97749450D01*
X145029250Y-97749450D01*
X145029250Y-97774850D01*
G37*
G36*
X145029250Y-97749450D02*
G01*
X144445050Y-97749450D01*
X144445050Y-97724050D01*
X145029250Y-97724050D01*
X145029250Y-97749450D01*
G37*
G36*
X145003850Y-97724050D02*
G01*
X144419650Y-97724050D01*
X144419650Y-97698650D01*
X145003850Y-97698650D01*
X145003850Y-97724050D01*
G37*
G36*
X145003850Y-97698650D02*
G01*
X144394250Y-97698650D01*
X144394250Y-97673250D01*
X145003850Y-97673250D01*
X145003850Y-97698650D01*
G37*
G36*
X144978450Y-97673250D02*
G01*
X144394250Y-97673250D01*
X144394250Y-97647850D01*
X144978450Y-97647850D01*
X144978450Y-97673250D01*
G37*
G36*
X144978450Y-97647850D02*
G01*
X144368850Y-97647850D01*
X144368850Y-97622450D01*
X144978450Y-97622450D01*
X144978450Y-97647850D01*
G37*
G36*
X144953050Y-97622450D02*
G01*
X144368850Y-97622450D01*
X144368850Y-97597050D01*
X144953050Y-97597050D01*
X144953050Y-97622450D01*
G37*
G36*
X144927650Y-97597050D02*
G01*
X144343450Y-97597050D01*
X144343450Y-97571650D01*
X144927650Y-97571650D01*
X144927650Y-97597050D01*
G37*
G36*
X144927650Y-97571650D02*
G01*
X144343450Y-97571650D01*
X144343450Y-97546250D01*
X144927650Y-97546250D01*
X144927650Y-97571650D01*
G37*
G36*
X144902250Y-97546250D02*
G01*
X144318050Y-97546250D01*
X144318050Y-97520850D01*
X144902250Y-97520850D01*
X144902250Y-97546250D01*
G37*
G36*
X144902250Y-97520850D02*
G01*
X144292650Y-97520850D01*
X144292650Y-97495450D01*
X144902250Y-97495450D01*
X144902250Y-97520850D01*
G37*
G36*
X144876850Y-97495450D02*
G01*
X144292650Y-97495450D01*
X144292650Y-97470050D01*
X144876850Y-97470050D01*
X144876850Y-97495450D01*
G37*
G36*
X144876850Y-97470050D02*
G01*
X144267250Y-97470050D01*
X144267250Y-97444650D01*
X144876850Y-97444650D01*
X144876850Y-97470050D01*
G37*
G36*
X144851450Y-97444650D02*
G01*
X144267250Y-97444650D01*
X144267250Y-97419250D01*
X144851450Y-97419250D01*
X144851450Y-97444650D01*
G37*
G36*
X144826050Y-97419250D02*
G01*
X144241850Y-97419250D01*
X144241850Y-97393850D01*
X144826050Y-97393850D01*
X144826050Y-97419250D01*
G37*
G36*
X144826050Y-97393850D02*
G01*
X144241850Y-97393850D01*
X144241850Y-97368450D01*
X144826050Y-97368450D01*
X144826050Y-97393850D01*
G37*
G36*
X144800650Y-97368450D02*
G01*
X144216450Y-97368450D01*
X144216450Y-97343050D01*
X144800650Y-97343050D01*
X144800650Y-97368450D01*
G37*
G36*
X144800650Y-97343050D02*
G01*
X144191050Y-97343050D01*
X144191050Y-97317650D01*
X144800650Y-97317650D01*
X144800650Y-97343050D01*
G37*
G36*
X144775250Y-97317650D02*
G01*
X144191050Y-97317650D01*
X144191050Y-97292250D01*
X144775250Y-97292250D01*
X144775250Y-97317650D01*
G37*
G36*
X144775250Y-97292250D02*
G01*
X144165650Y-97292250D01*
X144165650Y-97266850D01*
X144775250Y-97266850D01*
X144775250Y-97292250D01*
G37*
G36*
X144749850Y-97266850D02*
G01*
X144165650Y-97266850D01*
X144165650Y-97241450D01*
X144749850Y-97241450D01*
X144749850Y-97266850D01*
G37*
G36*
X144724450Y-97241450D02*
G01*
X144140250Y-97241450D01*
X144140250Y-97216050D01*
X144724450Y-97216050D01*
X144724450Y-97241450D01*
G37*
G36*
X144724450Y-97216050D02*
G01*
X144140250Y-97216050D01*
X144140250Y-97190650D01*
X144724450Y-97190650D01*
X144724450Y-97216050D01*
G37*
G36*
X144699050Y-97190650D02*
G01*
X144114850Y-97190650D01*
X144114850Y-97165250D01*
X144699050Y-97165250D01*
X144699050Y-97190650D01*
G37*
G36*
X144699050Y-97165250D02*
G01*
X144089450Y-97165250D01*
X144089450Y-97139850D01*
X144699050Y-97139850D01*
X144699050Y-97165250D01*
G37*
G36*
X144673650Y-97139850D02*
G01*
X144089450Y-97139850D01*
X144089450Y-97114450D01*
X144673650Y-97114450D01*
X144673650Y-97139850D01*
G37*
G36*
X144648250Y-97114450D02*
G01*
X144064050Y-97114450D01*
X144064050Y-97089050D01*
X144648250Y-97089050D01*
X144648250Y-97114450D01*
G37*
G36*
X144648250Y-97089050D02*
G01*
X144064050Y-97089050D01*
X144064050Y-97063650D01*
X144648250Y-97063650D01*
X144648250Y-97089050D01*
G37*
G36*
X144622850Y-97063650D02*
G01*
X144038650Y-97063650D01*
X144038650Y-97038250D01*
X144622850Y-97038250D01*
X144622850Y-97063650D01*
G37*
G36*
X144622850Y-97038250D02*
G01*
X144038650Y-97038250D01*
X144038650Y-97012850D01*
X144622850Y-97012850D01*
X144622850Y-97038250D01*
G37*
G36*
X144597450Y-97012850D02*
G01*
X144013250Y-97012850D01*
X144013250Y-96987450D01*
X144597450Y-96987450D01*
X144597450Y-97012850D01*
G37*
G36*
X144597450Y-96987450D02*
G01*
X143987850Y-96987450D01*
X143987850Y-96962050D01*
X144597450Y-96962050D01*
X144597450Y-96987450D01*
G37*
G36*
X144572050Y-96962050D02*
G01*
X143987850Y-96962050D01*
X143987850Y-96936650D01*
X144572050Y-96936650D01*
X144572050Y-96962050D01*
G37*
G36*
X144546650Y-96936650D02*
G01*
X143962450Y-96936650D01*
X143962450Y-96911250D01*
X144546650Y-96911250D01*
X144546650Y-96936650D01*
G37*
G36*
X144546650Y-96911250D02*
G01*
X143962450Y-96911250D01*
X143962450Y-96885850D01*
X144546650Y-96885850D01*
X144546650Y-96911250D01*
G37*
G36*
X144521250Y-96885850D02*
G01*
X143937050Y-96885850D01*
X143937050Y-96860450D01*
X144521250Y-96860450D01*
X144521250Y-96885850D01*
G37*
G36*
X144521250Y-96860450D02*
G01*
X143937050Y-96860450D01*
X143937050Y-96835050D01*
X144521250Y-96835050D01*
X144521250Y-96860450D01*
G37*
G36*
X144495850Y-96835050D02*
G01*
X143911650Y-96835050D01*
X143911650Y-96809650D01*
X144495850Y-96809650D01*
X144495850Y-96835050D01*
G37*
G36*
X144495850Y-96809650D02*
G01*
X143886250Y-96809650D01*
X143886250Y-96784250D01*
X144495850Y-96784250D01*
X144495850Y-96809650D01*
G37*
G36*
X144470450Y-96784250D02*
G01*
X143886250Y-96784250D01*
X143886250Y-96758850D01*
X144470450Y-96758850D01*
X144470450Y-96784250D01*
G37*
G36*
X144445050Y-96758850D02*
G01*
X143860850Y-96758850D01*
X143860850Y-96733450D01*
X144445050Y-96733450D01*
X144445050Y-96758850D01*
G37*
G36*
X144445050Y-96733450D02*
G01*
X143860850Y-96733450D01*
X143860850Y-96708050D01*
X144445050Y-96708050D01*
X144445050Y-96733450D01*
G37*
G36*
X144419650Y-96708050D02*
G01*
X143835450Y-96708050D01*
X143835450Y-96682650D01*
X144419650Y-96682650D01*
X144419650Y-96708050D01*
G37*
G36*
X144419650Y-96682650D02*
G01*
X143810050Y-96682650D01*
X143810050Y-96657250D01*
X144419650Y-96657250D01*
X144419650Y-96682650D01*
G37*
G36*
X144394250Y-96657250D02*
G01*
X143810050Y-96657250D01*
X143810050Y-96631850D01*
X144394250Y-96631850D01*
X144394250Y-96657250D01*
G37*
G36*
X144394250Y-96631850D02*
G01*
X143784650Y-96631850D01*
X143784650Y-96606450D01*
X144394250Y-96606450D01*
X144394250Y-96631850D01*
G37*
G36*
X144368850Y-96606450D02*
G01*
X143784650Y-96606450D01*
X143784650Y-96581050D01*
X144368850Y-96581050D01*
X144368850Y-96606450D01*
G37*
G36*
X144343450Y-96581050D02*
G01*
X143759250Y-96581050D01*
X143759250Y-96555650D01*
X144343450Y-96555650D01*
X144343450Y-96581050D01*
G37*
G36*
X144343450Y-96555650D02*
G01*
X143759250Y-96555650D01*
X143759250Y-96530250D01*
X144343450Y-96530250D01*
X144343450Y-96555650D01*
G37*
G36*
X144318050Y-96530250D02*
G01*
X143733850Y-96530250D01*
X143733850Y-96504850D01*
X144318050Y-96504850D01*
X144318050Y-96530250D01*
G37*
G36*
X144318050Y-96504850D02*
G01*
X143708450Y-96504850D01*
X143708450Y-96479450D01*
X144318050Y-96479450D01*
X144318050Y-96504850D01*
G37*
G36*
X144292650Y-96479450D02*
G01*
X143708450Y-96479450D01*
X143708450Y-96454050D01*
X144292650Y-96454050D01*
X144292650Y-96479450D01*
G37*
G36*
X144292650Y-96454050D02*
G01*
X143683050Y-96454050D01*
X143683050Y-96428650D01*
X144292650Y-96428650D01*
X144292650Y-96454050D01*
G37*
G36*
X144267250Y-96428650D02*
G01*
X143683050Y-96428650D01*
X143683050Y-96403250D01*
X144267250Y-96403250D01*
X144267250Y-96428650D01*
G37*
G36*
X144241850Y-96403250D02*
G01*
X143657650Y-96403250D01*
X143657650Y-96377850D01*
X144241850Y-96377850D01*
X144241850Y-96403250D01*
G37*
G36*
X144241850Y-96377850D02*
G01*
X143657650Y-96377850D01*
X143657650Y-96352450D01*
X144241850Y-96352450D01*
X144241850Y-96377850D01*
G37*
G36*
X144216450Y-96352450D02*
G01*
X143632250Y-96352450D01*
X143632250Y-96327050D01*
X144216450Y-96327050D01*
X144216450Y-96352450D01*
G37*
G36*
X144216450Y-96327050D02*
G01*
X143606850Y-96327050D01*
X143606850Y-96301650D01*
X144216450Y-96301650D01*
X144216450Y-96327050D01*
G37*
G36*
X144191050Y-96301650D02*
G01*
X143606850Y-96301650D01*
X143606850Y-96276250D01*
X144191050Y-96276250D01*
X144191050Y-96301650D01*
G37*
G36*
X144191050Y-96276250D02*
G01*
X143581450Y-96276250D01*
X143581450Y-96250850D01*
X144191050Y-96250850D01*
X144191050Y-96276250D01*
G37*
G36*
X144165650Y-96250850D02*
G01*
X143581450Y-96250850D01*
X143581450Y-96225450D01*
X144165650Y-96225450D01*
X144165650Y-96250850D01*
G37*
G36*
X144140250Y-96225450D02*
G01*
X143556050Y-96225450D01*
X143556050Y-96200050D01*
X144140250Y-96200050D01*
X144140250Y-96225450D01*
G37*
G36*
X144140250Y-96200050D02*
G01*
X143556050Y-96200050D01*
X143556050Y-96174650D01*
X144140250Y-96174650D01*
X144140250Y-96200050D01*
G37*
G36*
X144114850Y-96174650D02*
G01*
X143530650Y-96174650D01*
X143530650Y-96149250D01*
X144114850Y-96149250D01*
X144114850Y-96174650D01*
G37*
G36*
X144114850Y-96149250D02*
G01*
X143505250Y-96149250D01*
X143505250Y-96123850D01*
X144114850Y-96123850D01*
X144114850Y-96149250D01*
G37*
G36*
X144089450Y-96123850D02*
G01*
X143505250Y-96123850D01*
X143505250Y-96098450D01*
X144089450Y-96098450D01*
X144089450Y-96123850D01*
G37*
G36*
X144089450Y-96098450D02*
G01*
X143479850Y-96098450D01*
X143479850Y-96073050D01*
X144089450Y-96073050D01*
X144089450Y-96098450D01*
G37*
G36*
X144064050Y-96073050D02*
G01*
X143479850Y-96073050D01*
X143479850Y-96047650D01*
X144064050Y-96047650D01*
X144064050Y-96073050D01*
G37*
G36*
X144038650Y-96047650D02*
G01*
X143454450Y-96047650D01*
X143454450Y-96022250D01*
X144038650Y-96022250D01*
X144038650Y-96047650D01*
G37*
G36*
X144038650Y-96022250D02*
G01*
X143454450Y-96022250D01*
X143454450Y-95996850D01*
X144038650Y-95996850D01*
X144038650Y-96022250D01*
G37*
G36*
X144013250Y-95996850D02*
G01*
X143429050Y-95996850D01*
X143429050Y-95971450D01*
X144013250Y-95971450D01*
X144013250Y-95996850D01*
G37*
G36*
X144013250Y-95971450D02*
G01*
X143403650Y-95971450D01*
X143403650Y-95946050D01*
X144013250Y-95946050D01*
X144013250Y-95971450D01*
G37*
G36*
X143987850Y-95946050D02*
G01*
X143403650Y-95946050D01*
X143403650Y-95920650D01*
X143987850Y-95920650D01*
X143987850Y-95946050D01*
G37*
G36*
X143962450Y-95920650D02*
G01*
X143378250Y-95920650D01*
X143378250Y-95895250D01*
X143962450Y-95895250D01*
X143962450Y-95920650D01*
G37*
G36*
X143962450Y-95895250D02*
G01*
X143378250Y-95895250D01*
X143378250Y-95869850D01*
X143962450Y-95869850D01*
X143962450Y-95895250D01*
G37*
G36*
X143937050Y-95869850D02*
G01*
X143352850Y-95869850D01*
X143352850Y-95844450D01*
X143937050Y-95844450D01*
X143937050Y-95869850D01*
G37*
G36*
X143937050Y-95844450D02*
G01*
X143352850Y-95844450D01*
X143352850Y-95819050D01*
X143937050Y-95819050D01*
X143937050Y-95844450D01*
G37*
G36*
X143911650Y-95819050D02*
G01*
X143327450Y-95819050D01*
X143327450Y-95793650D01*
X143911650Y-95793650D01*
X143911650Y-95819050D01*
G37*
G36*
X143911650Y-95793650D02*
G01*
X143302050Y-95793650D01*
X143302050Y-95768250D01*
X143911650Y-95768250D01*
X143911650Y-95793650D01*
G37*
G36*
X143886250Y-95768250D02*
G01*
X143302050Y-95768250D01*
X143302050Y-95742850D01*
X143886250Y-95742850D01*
X143886250Y-95768250D01*
G37*
G36*
X143860850Y-95742850D02*
G01*
X143276650Y-95742850D01*
X143276650Y-95717450D01*
X143860850Y-95717450D01*
X143860850Y-95742850D01*
G37*
G36*
X143860850Y-95717450D02*
G01*
X143276650Y-95717450D01*
X143276650Y-95692050D01*
X143860850Y-95692050D01*
X143860850Y-95717450D01*
G37*
G36*
X143835450Y-99476650D02*
G01*
X143784650Y-99476650D01*
X143784650Y-99451250D01*
X143835450Y-99451250D01*
X143835450Y-99476650D01*
G37*
G36*
X143835450Y-99451250D02*
G01*
X143708450Y-99451250D01*
X143708450Y-99425850D01*
X143835450Y-99425850D01*
X143835450Y-99451250D01*
G37*
G36*
X143835450Y-99425850D02*
G01*
X143657650Y-99425850D01*
X143657650Y-99400450D01*
X143835450Y-99400450D01*
X143835450Y-99425850D01*
G37*
G36*
X143835450Y-95692050D02*
G01*
X143251250Y-95692050D01*
X143251250Y-95666650D01*
X143835450Y-95666650D01*
X143835450Y-95692050D01*
G37*
G36*
X143835450Y-95666650D02*
G01*
X143251250Y-95666650D01*
X143251250Y-95641250D01*
X143835450Y-95641250D01*
X143835450Y-95666650D01*
G37*
G36*
X143810050Y-99400450D02*
G01*
X143581450Y-99400450D01*
X143581450Y-99375050D01*
X143810050Y-99375050D01*
X143810050Y-99400450D01*
G37*
G36*
X143810050Y-99375050D02*
G01*
X143505250Y-99375050D01*
X143505250Y-99349650D01*
X143810050Y-99349650D01*
X143810050Y-99375050D01*
G37*
G36*
X143810050Y-99349650D02*
G01*
X143429050Y-99349650D01*
X143429050Y-99324250D01*
X143810050Y-99324250D01*
X143810050Y-99349650D01*
G37*
G36*
X143810050Y-99324250D02*
G01*
X143352850Y-99324250D01*
X143352850Y-99298850D01*
X143810050Y-99298850D01*
X143810050Y-99324250D01*
G37*
G36*
X143810050Y-99298850D02*
G01*
X143276650Y-99298850D01*
X143276650Y-99273450D01*
X143810050Y-99273450D01*
X143810050Y-99298850D01*
G37*
G36*
X143810050Y-99273450D02*
G01*
X143225850Y-99273450D01*
X143225850Y-99248050D01*
X143810050Y-99248050D01*
X143810050Y-99273450D01*
G37*
G36*
X143810050Y-95641250D02*
G01*
X143225850Y-95641250D01*
X143225850Y-95615850D01*
X143810050Y-95615850D01*
X143810050Y-95641250D01*
G37*
G36*
X143810050Y-95615850D02*
G01*
X143200450Y-95615850D01*
X143200450Y-95590450D01*
X143810050Y-95590450D01*
X143810050Y-95615850D01*
G37*
G36*
X143784650Y-99248050D02*
G01*
X143149650Y-99248050D01*
X143149650Y-99222650D01*
X143784650Y-99222650D01*
X143784650Y-99248050D01*
G37*
G36*
X143784650Y-99222650D02*
G01*
X143073450Y-99222650D01*
X143073450Y-99197250D01*
X143784650Y-99197250D01*
X143784650Y-99222650D01*
G37*
G36*
X143784650Y-99197250D02*
G01*
X142997250Y-99197250D01*
X142997250Y-99171850D01*
X143784650Y-99171850D01*
X143784650Y-99197250D01*
G37*
G36*
X143784650Y-99171850D02*
G01*
X142921050Y-99171850D01*
X142921050Y-99146450D01*
X143784650Y-99146450D01*
X143784650Y-99171850D01*
G37*
G36*
X143784650Y-99146450D02*
G01*
X142844850Y-99146450D01*
X142844850Y-99121050D01*
X143784650Y-99121050D01*
X143784650Y-99146450D01*
G37*
G36*
X143784650Y-95590450D02*
G01*
X143200450Y-95590450D01*
X143200450Y-95565050D01*
X143784650Y-95565050D01*
X143784650Y-95590450D01*
G37*
G36*
X143759250Y-99121050D02*
G01*
X142768650Y-99121050D01*
X142768650Y-99095650D01*
X143759250Y-99095650D01*
X143759250Y-99121050D01*
G37*
G36*
X143759250Y-99095650D02*
G01*
X142717850Y-99095650D01*
X142717850Y-99070250D01*
X143759250Y-99070250D01*
X143759250Y-99095650D01*
G37*
G36*
X143759250Y-99070250D02*
G01*
X142641650Y-99070250D01*
X142641650Y-99044850D01*
X143759250Y-99044850D01*
X143759250Y-99070250D01*
G37*
G36*
X143759250Y-99044850D02*
G01*
X142565450Y-99044850D01*
X142565450Y-99019450D01*
X143759250Y-99019450D01*
X143759250Y-99044850D01*
G37*
G36*
X143759250Y-99019450D02*
G01*
X142489250Y-99019450D01*
X142489250Y-98994050D01*
X143759250Y-98994050D01*
X143759250Y-99019450D01*
G37*
G36*
X143759250Y-98994050D02*
G01*
X141930450Y-98994050D01*
X141930450Y-98968650D01*
X143759250Y-98968650D01*
X143759250Y-98994050D01*
G37*
G36*
X143759250Y-95565050D02*
G01*
X143175050Y-95565050D01*
X143175050Y-95539650D01*
X143759250Y-95539650D01*
X143759250Y-95565050D01*
G37*
G36*
X143759250Y-95539650D02*
G01*
X143175050Y-95539650D01*
X143175050Y-95514250D01*
X143759250Y-95514250D01*
X143759250Y-95539650D01*
G37*
G36*
X143733850Y-98968650D02*
G01*
X141930450Y-98968650D01*
X141930450Y-98943250D01*
X143733850Y-98943250D01*
X143733850Y-98968650D01*
G37*
G36*
X143733850Y-98943250D02*
G01*
X141930450Y-98943250D01*
X141930450Y-98917850D01*
X143733850Y-98917850D01*
X143733850Y-98943250D01*
G37*
G36*
X143733850Y-98917850D02*
G01*
X141905050Y-98917850D01*
X141905050Y-98892450D01*
X143733850Y-98892450D01*
X143733850Y-98917850D01*
G37*
G36*
X143733850Y-98892450D02*
G01*
X141905050Y-98892450D01*
X141905050Y-98867050D01*
X143733850Y-98867050D01*
X143733850Y-98892450D01*
G37*
G36*
X143733850Y-98867050D02*
G01*
X141879650Y-98867050D01*
X141879650Y-98841650D01*
X143733850Y-98841650D01*
X143733850Y-98867050D01*
G37*
G36*
X143733850Y-95514250D02*
G01*
X143149650Y-95514250D01*
X143149650Y-95488850D01*
X143733850Y-95488850D01*
X143733850Y-95514250D01*
G37*
G36*
X143733850Y-95488850D02*
G01*
X143124250Y-95488850D01*
X143124250Y-95463450D01*
X143733850Y-95463450D01*
X143733850Y-95488850D01*
G37*
G36*
X143708450Y-98841650D02*
G01*
X141879650Y-98841650D01*
X141879650Y-98816250D01*
X143708450Y-98816250D01*
X143708450Y-98841650D01*
G37*
G36*
X143708450Y-98816250D02*
G01*
X141854250Y-98816250D01*
X141854250Y-98790850D01*
X143708450Y-98790850D01*
X143708450Y-98816250D01*
G37*
G36*
X143708450Y-98790850D02*
G01*
X143251250Y-98790850D01*
X143251250Y-98765450D01*
X143708450Y-98765450D01*
X143708450Y-98790850D01*
G37*
G36*
X143708450Y-98765450D02*
G01*
X143225850Y-98765450D01*
X143225850Y-98740050D01*
X143708450Y-98740050D01*
X143708450Y-98765450D01*
G37*
G36*
X143708450Y-98740050D02*
G01*
X143225850Y-98740050D01*
X143225850Y-98714650D01*
X143708450Y-98714650D01*
X143708450Y-98740050D01*
G37*
G36*
X143708450Y-98714650D02*
G01*
X143200450Y-98714650D01*
X143200450Y-98689250D01*
X143708450Y-98689250D01*
X143708450Y-98714650D01*
G37*
G36*
X143708450Y-95463450D02*
G01*
X143124250Y-95463450D01*
X143124250Y-95438050D01*
X143708450Y-95438050D01*
X143708450Y-95463450D01*
G37*
G36*
X143708450Y-95438050D02*
G01*
X143098850Y-95438050D01*
X143098850Y-95412650D01*
X143708450Y-95412650D01*
X143708450Y-95438050D01*
G37*
G36*
X143683050Y-98689250D02*
G01*
X143200450Y-98689250D01*
X143200450Y-98663850D01*
X143683050Y-98663850D01*
X143683050Y-98689250D01*
G37*
G36*
X143683050Y-98663850D02*
G01*
X143200450Y-98663850D01*
X143200450Y-98638450D01*
X143683050Y-98638450D01*
X143683050Y-98663850D01*
G37*
G36*
X143683050Y-98638450D02*
G01*
X143175050Y-98638450D01*
X143175050Y-98613050D01*
X143683050Y-98613050D01*
X143683050Y-98638450D01*
G37*
G36*
X143683050Y-98613050D02*
G01*
X143175050Y-98613050D01*
X143175050Y-98587650D01*
X143683050Y-98587650D01*
X143683050Y-98613050D01*
G37*
G36*
X143683050Y-98587650D02*
G01*
X143175050Y-98587650D01*
X143175050Y-98562250D01*
X143683050Y-98562250D01*
X143683050Y-98587650D01*
G37*
G36*
X143683050Y-95412650D02*
G01*
X143098850Y-95412650D01*
X143098850Y-95387250D01*
X143683050Y-95387250D01*
X143683050Y-95412650D01*
G37*
G36*
X143657650Y-98562250D02*
G01*
X143149650Y-98562250D01*
X143149650Y-98536850D01*
X143657650Y-98536850D01*
X143657650Y-98562250D01*
G37*
G36*
X143657650Y-98536850D02*
G01*
X143149650Y-98536850D01*
X143149650Y-98511450D01*
X143657650Y-98511450D01*
X143657650Y-98536850D01*
G37*
G36*
X143657650Y-98511450D02*
G01*
X143124250Y-98511450D01*
X143124250Y-98486050D01*
X143657650Y-98486050D01*
X143657650Y-98511450D01*
G37*
G36*
X143657650Y-98486050D02*
G01*
X143124250Y-98486050D01*
X143124250Y-98460650D01*
X143657650Y-98460650D01*
X143657650Y-98486050D01*
G37*
G36*
X143657650Y-98460650D02*
G01*
X143124250Y-98460650D01*
X143124250Y-98435250D01*
X143657650Y-98435250D01*
X143657650Y-98460650D01*
G37*
G36*
X143657650Y-98435250D02*
G01*
X143098850Y-98435250D01*
X143098850Y-98409850D01*
X143657650Y-98409850D01*
X143657650Y-98435250D01*
G37*
G36*
X143657650Y-95387250D02*
G01*
X143073450Y-95387250D01*
X143073450Y-95361850D01*
X143657650Y-95361850D01*
X143657650Y-95387250D01*
G37*
G36*
X143657650Y-95361850D02*
G01*
X143073450Y-95361850D01*
X143073450Y-95336450D01*
X143657650Y-95336450D01*
X143657650Y-95361850D01*
G37*
G36*
X143632250Y-100797450D02*
G01*
X143530650Y-100797450D01*
X143530650Y-100772050D01*
X143632250Y-100772050D01*
X143632250Y-100797450D01*
G37*
G36*
X143632250Y-100772050D02*
G01*
X143581450Y-100772050D01*
X143581450Y-100746650D01*
X143632250Y-100746650D01*
X143632250Y-100772050D01*
G37*
G36*
X143632250Y-100746650D02*
G01*
X143606850Y-100746650D01*
X143606850Y-100721250D01*
X143632250Y-100721250D01*
X143632250Y-100746650D01*
G37*
G36*
X143632250Y-98409850D02*
G01*
X143098850Y-98409850D01*
X143098850Y-98384450D01*
X143632250Y-98384450D01*
X143632250Y-98409850D01*
G37*
G36*
X143632250Y-98384450D02*
G01*
X143073450Y-98384450D01*
X143073450Y-98359050D01*
X143632250Y-98359050D01*
X143632250Y-98384450D01*
G37*
G36*
X143632250Y-98359050D02*
G01*
X143073450Y-98359050D01*
X143073450Y-98333650D01*
X143632250Y-98333650D01*
X143632250Y-98359050D01*
G37*
G36*
X143632250Y-98333650D02*
G01*
X143073450Y-98333650D01*
X143073450Y-98308250D01*
X143632250Y-98308250D01*
X143632250Y-98333650D01*
G37*
G36*
X143632250Y-98308250D02*
G01*
X143048050Y-98308250D01*
X143048050Y-98282850D01*
X143632250Y-98282850D01*
X143632250Y-98308250D01*
G37*
G36*
X143632250Y-95336450D02*
G01*
X143048050Y-95336450D01*
X143048050Y-95311050D01*
X143632250Y-95311050D01*
X143632250Y-95336450D01*
G37*
G36*
X143632250Y-95311050D02*
G01*
X143022650Y-95311050D01*
X143022650Y-95285650D01*
X143632250Y-95285650D01*
X143632250Y-95311050D01*
G37*
G36*
X143606850Y-100924450D02*
G01*
X143378250Y-100924450D01*
X143378250Y-100899050D01*
X143606850Y-100899050D01*
X143606850Y-100924450D01*
G37*
G36*
X143606850Y-100899050D02*
G01*
X143403650Y-100899050D01*
X143403650Y-100873650D01*
X143606850Y-100873650D01*
X143606850Y-100899050D01*
G37*
G36*
X143606850Y-100873650D02*
G01*
X143429050Y-100873650D01*
X143429050Y-100848250D01*
X143606850Y-100848250D01*
X143606850Y-100873650D01*
G37*
G36*
X143606850Y-100848250D02*
G01*
X143479850Y-100848250D01*
X143479850Y-100822850D01*
X143606850Y-100822850D01*
X143606850Y-100848250D01*
G37*
G36*
X143606850Y-100822850D02*
G01*
X143505250Y-100822850D01*
X143505250Y-100797450D01*
X143606850Y-100797450D01*
X143606850Y-100822850D01*
G37*
G36*
X143606850Y-98282850D02*
G01*
X143048050Y-98282850D01*
X143048050Y-98257450D01*
X143606850Y-98257450D01*
X143606850Y-98282850D01*
G37*
G36*
X143606850Y-98257450D02*
G01*
X143048050Y-98257450D01*
X143048050Y-98232050D01*
X143606850Y-98232050D01*
X143606850Y-98257450D01*
G37*
G36*
X143606850Y-98232050D02*
G01*
X143022650Y-98232050D01*
X143022650Y-98206650D01*
X143606850Y-98206650D01*
X143606850Y-98232050D01*
G37*
G36*
X143606850Y-98206650D02*
G01*
X143022650Y-98206650D01*
X143022650Y-98181250D01*
X143606850Y-98181250D01*
X143606850Y-98206650D01*
G37*
G36*
X143606850Y-98181250D02*
G01*
X142997250Y-98181250D01*
X142997250Y-98155850D01*
X143606850Y-98155850D01*
X143606850Y-98181250D01*
G37*
G36*
X143606850Y-98155850D02*
G01*
X142997250Y-98155850D01*
X142997250Y-98130450D01*
X143606850Y-98130450D01*
X143606850Y-98155850D01*
G37*
G36*
X143606850Y-95285650D02*
G01*
X143022650Y-95285650D01*
X143022650Y-95260250D01*
X143606850Y-95260250D01*
X143606850Y-95285650D01*
G37*
G36*
X143606850Y-95260250D02*
G01*
X142997250Y-95260250D01*
X142997250Y-95234850D01*
X143606850Y-95234850D01*
X143606850Y-95260250D01*
G37*
G36*
X143581450Y-101051450D02*
G01*
X142844850Y-101051450D01*
X142844850Y-101026050D01*
X143581450Y-101026050D01*
X143581450Y-101051450D01*
G37*
G36*
X143581450Y-101026050D02*
G01*
X143225850Y-101026050D01*
X143225850Y-101000650D01*
X143581450Y-101000650D01*
X143581450Y-101026050D01*
G37*
G36*
X143581450Y-101000650D02*
G01*
X143276650Y-101000650D01*
X143276650Y-100975250D01*
X143581450Y-100975250D01*
X143581450Y-101000650D01*
G37*
G36*
X143581450Y-100975250D02*
G01*
X143302050Y-100975250D01*
X143302050Y-100949850D01*
X143581450Y-100949850D01*
X143581450Y-100975250D01*
G37*
G36*
X143581450Y-100949850D02*
G01*
X143327450Y-100949850D01*
X143327450Y-100924450D01*
X143581450Y-100924450D01*
X143581450Y-100949850D01*
G37*
G36*
X143581450Y-98130450D02*
G01*
X142997250Y-98130450D01*
X142997250Y-98105050D01*
X143581450Y-98105050D01*
X143581450Y-98130450D01*
G37*
G36*
X143581450Y-98105050D02*
G01*
X142971850Y-98105050D01*
X142971850Y-98079650D01*
X143581450Y-98079650D01*
X143581450Y-98105050D01*
G37*
G36*
X143581450Y-98079650D02*
G01*
X142971850Y-98079650D01*
X142971850Y-98054250D01*
X143581450Y-98054250D01*
X143581450Y-98079650D01*
G37*
G36*
X143581450Y-98054250D02*
G01*
X142971850Y-98054250D01*
X142971850Y-98028850D01*
X143581450Y-98028850D01*
X143581450Y-98054250D01*
G37*
G36*
X143581450Y-98028850D02*
G01*
X142946450Y-98028850D01*
X142946450Y-98003450D01*
X143581450Y-98003450D01*
X143581450Y-98028850D01*
G37*
G36*
X143581450Y-95234850D02*
G01*
X142997250Y-95234850D01*
X142997250Y-95209450D01*
X143581450Y-95209450D01*
X143581450Y-95234850D01*
G37*
G36*
X143556050Y-101178450D02*
G01*
X142387650Y-101178450D01*
X142387650Y-101153050D01*
X143556050Y-101153050D01*
X143556050Y-101178450D01*
G37*
G36*
X143556050Y-101153050D02*
G01*
X142362250Y-101153050D01*
X142362250Y-101127650D01*
X143556050Y-101127650D01*
X143556050Y-101153050D01*
G37*
G36*
X143556050Y-101127650D02*
G01*
X142362250Y-101127650D01*
X142362250Y-101102250D01*
X143556050Y-101102250D01*
X143556050Y-101127650D01*
G37*
G36*
X143556050Y-101102250D02*
G01*
X142844850Y-101102250D01*
X142844850Y-101076850D01*
X143556050Y-101076850D01*
X143556050Y-101102250D01*
G37*
G36*
X143556050Y-101076850D02*
G01*
X142844850Y-101076850D01*
X142844850Y-101051450D01*
X143556050Y-101051450D01*
X143556050Y-101076850D01*
G37*
G36*
X143556050Y-98003450D02*
G01*
X142946450Y-98003450D01*
X142946450Y-97978050D01*
X143556050Y-97978050D01*
X143556050Y-98003450D01*
G37*
G36*
X143556050Y-97978050D02*
G01*
X142921050Y-97978050D01*
X142921050Y-97952650D01*
X143556050Y-97952650D01*
X143556050Y-97978050D01*
G37*
G36*
X143556050Y-97952650D02*
G01*
X142921050Y-97952650D01*
X142921050Y-97927250D01*
X143556050Y-97927250D01*
X143556050Y-97952650D01*
G37*
G36*
X143556050Y-97927250D02*
G01*
X142921050Y-97927250D01*
X142921050Y-97901850D01*
X143556050Y-97901850D01*
X143556050Y-97927250D01*
G37*
G36*
X143556050Y-97901850D02*
G01*
X142895650Y-97901850D01*
X142895650Y-97876450D01*
X143556050Y-97876450D01*
X143556050Y-97901850D01*
G37*
G36*
X143556050Y-97876450D02*
G01*
X142895650Y-97876450D01*
X142895650Y-97851050D01*
X143556050Y-97851050D01*
X143556050Y-97876450D01*
G37*
G36*
X143556050Y-95209450D02*
G01*
X142971850Y-95209450D01*
X142971850Y-95184050D01*
X143556050Y-95184050D01*
X143556050Y-95209450D01*
G37*
G36*
X143556050Y-95184050D02*
G01*
X142971850Y-95184050D01*
X142971850Y-95158650D01*
X143556050Y-95158650D01*
X143556050Y-95184050D01*
G37*
G36*
X143530650Y-101305450D02*
G01*
X142489250Y-101305450D01*
X142489250Y-101280050D01*
X143530650Y-101280050D01*
X143530650Y-101305450D01*
G37*
G36*
X143530650Y-101280050D02*
G01*
X142463850Y-101280050D01*
X142463850Y-101254650D01*
X143530650Y-101254650D01*
X143530650Y-101280050D01*
G37*
G36*
X143530650Y-101254650D02*
G01*
X142438450Y-101254650D01*
X142438450Y-101229250D01*
X143530650Y-101229250D01*
X143530650Y-101254650D01*
G37*
G36*
X143530650Y-101229250D02*
G01*
X142438450Y-101229250D01*
X142438450Y-101203850D01*
X143530650Y-101203850D01*
X143530650Y-101229250D01*
G37*
G36*
X143530650Y-101203850D02*
G01*
X142413050Y-101203850D01*
X142413050Y-101178450D01*
X143530650Y-101178450D01*
X143530650Y-101203850D01*
G37*
G36*
X143530650Y-97851050D02*
G01*
X142870250Y-97851050D01*
X142870250Y-97825650D01*
X143530650Y-97825650D01*
X143530650Y-97851050D01*
G37*
G36*
X143530650Y-97825650D02*
G01*
X142870250Y-97825650D01*
X142870250Y-97800250D01*
X143530650Y-97800250D01*
X143530650Y-97825650D01*
G37*
G36*
X143530650Y-97800250D02*
G01*
X142870250Y-97800250D01*
X142870250Y-97774850D01*
X143530650Y-97774850D01*
X143530650Y-97800250D01*
G37*
G36*
X143530650Y-97774850D02*
G01*
X142844850Y-97774850D01*
X142844850Y-97749450D01*
X143530650Y-97749450D01*
X143530650Y-97774850D01*
G37*
G36*
X143530650Y-97749450D02*
G01*
X142844850Y-97749450D01*
X142844850Y-97724050D01*
X143530650Y-97724050D01*
X143530650Y-97749450D01*
G37*
G36*
X143530650Y-97724050D02*
G01*
X142844850Y-97724050D01*
X142844850Y-97698650D01*
X143530650Y-97698650D01*
X143530650Y-97724050D01*
G37*
G36*
X143530650Y-95158650D02*
G01*
X142946450Y-95158650D01*
X142946450Y-95133250D01*
X143530650Y-95133250D01*
X143530650Y-95158650D01*
G37*
G36*
X143530650Y-95133250D02*
G01*
X142921050Y-95133250D01*
X142921050Y-95107850D01*
X143530650Y-95107850D01*
X143530650Y-95133250D01*
G37*
G36*
X143505250Y-101432450D02*
G01*
X142590850Y-101432450D01*
X142590850Y-101407050D01*
X143505250Y-101407050D01*
X143505250Y-101432450D01*
G37*
G36*
X143505250Y-101407050D02*
G01*
X142565450Y-101407050D01*
X142565450Y-101381650D01*
X143505250Y-101381650D01*
X143505250Y-101407050D01*
G37*
G36*
X143505250Y-101381650D02*
G01*
X142540050Y-101381650D01*
X142540050Y-101356250D01*
X143505250Y-101356250D01*
X143505250Y-101381650D01*
G37*
G36*
X143505250Y-101356250D02*
G01*
X142540050Y-101356250D01*
X142540050Y-101330850D01*
X143505250Y-101330850D01*
X143505250Y-101356250D01*
G37*
G36*
X143505250Y-101330850D02*
G01*
X142514650Y-101330850D01*
X142514650Y-101305450D01*
X143505250Y-101305450D01*
X143505250Y-101330850D01*
G37*
G36*
X143505250Y-97698650D02*
G01*
X142819450Y-97698650D01*
X142819450Y-97673250D01*
X143505250Y-97673250D01*
X143505250Y-97698650D01*
G37*
G36*
X143505250Y-97673250D02*
G01*
X142819450Y-97673250D01*
X142819450Y-97647850D01*
X143505250Y-97647850D01*
X143505250Y-97673250D01*
G37*
G36*
X143505250Y-97647850D02*
G01*
X142794050Y-97647850D01*
X142794050Y-97622450D01*
X143505250Y-97622450D01*
X143505250Y-97647850D01*
G37*
G36*
X143505250Y-97622450D02*
G01*
X142794050Y-97622450D01*
X142794050Y-97597050D01*
X143505250Y-97597050D01*
X143505250Y-97622450D01*
G37*
G36*
X143505250Y-97597050D02*
G01*
X142794050Y-97597050D01*
X142794050Y-97571650D01*
X143505250Y-97571650D01*
X143505250Y-97597050D01*
G37*
G36*
X143505250Y-95107850D02*
G01*
X142921050Y-95107850D01*
X142921050Y-95082450D01*
X143505250Y-95082450D01*
X143505250Y-95107850D01*
G37*
G36*
X143505250Y-95082450D02*
G01*
X142895650Y-95082450D01*
X142895650Y-95057050D01*
X143505250Y-95057050D01*
X143505250Y-95082450D01*
G37*
G36*
X143479850Y-101559450D02*
G01*
X142692450Y-101559450D01*
X142692450Y-101534050D01*
X143479850Y-101534050D01*
X143479850Y-101559450D01*
G37*
G36*
X143479850Y-101534050D02*
G01*
X142667050Y-101534050D01*
X142667050Y-101508650D01*
X143479850Y-101508650D01*
X143479850Y-101534050D01*
G37*
G36*
X143479850Y-101508650D02*
G01*
X142641650Y-101508650D01*
X142641650Y-101483250D01*
X143479850Y-101483250D01*
X143479850Y-101508650D01*
G37*
G36*
X143479850Y-101483250D02*
G01*
X142641650Y-101483250D01*
X142641650Y-101457850D01*
X143479850Y-101457850D01*
X143479850Y-101483250D01*
G37*
G36*
X143479850Y-101457850D02*
G01*
X142616250Y-101457850D01*
X142616250Y-101432450D01*
X143479850Y-101432450D01*
X143479850Y-101457850D01*
G37*
G36*
X143479850Y-97571650D02*
G01*
X142768650Y-97571650D01*
X142768650Y-97546250D01*
X143479850Y-97546250D01*
X143479850Y-97571650D01*
G37*
G36*
X143479850Y-97546250D02*
G01*
X142768650Y-97546250D01*
X142768650Y-97520850D01*
X143479850Y-97520850D01*
X143479850Y-97546250D01*
G37*
G36*
X143479850Y-97520850D02*
G01*
X142768650Y-97520850D01*
X142768650Y-97495450D01*
X143479850Y-97495450D01*
X143479850Y-97520850D01*
G37*
G36*
X143479850Y-97495450D02*
G01*
X142743250Y-97495450D01*
X142743250Y-97470050D01*
X143479850Y-97470050D01*
X143479850Y-97495450D01*
G37*
G36*
X143479850Y-97470050D02*
G01*
X142743250Y-97470050D01*
X142743250Y-97444650D01*
X143479850Y-97444650D01*
X143479850Y-97470050D01*
G37*
G36*
X143479850Y-97444650D02*
G01*
X142717850Y-97444650D01*
X142717850Y-97419250D01*
X143479850Y-97419250D01*
X143479850Y-97444650D01*
G37*
G36*
X143479850Y-95057050D02*
G01*
X142895650Y-95057050D01*
X142895650Y-95031650D01*
X143479850Y-95031650D01*
X143479850Y-95057050D01*
G37*
G36*
X143454450Y-101686450D02*
G01*
X142794050Y-101686450D01*
X142794050Y-101661050D01*
X143454450Y-101661050D01*
X143454450Y-101686450D01*
G37*
G36*
X143454450Y-101661050D02*
G01*
X142768650Y-101661050D01*
X142768650Y-101635650D01*
X143454450Y-101635650D01*
X143454450Y-101661050D01*
G37*
G36*
X143454450Y-101635650D02*
G01*
X142743250Y-101635650D01*
X142743250Y-101610250D01*
X143454450Y-101610250D01*
X143454450Y-101635650D01*
G37*
G36*
X143454450Y-101610250D02*
G01*
X142743250Y-101610250D01*
X142743250Y-101584850D01*
X143454450Y-101584850D01*
X143454450Y-101610250D01*
G37*
G36*
X143454450Y-101584850D02*
G01*
X142717850Y-101584850D01*
X142717850Y-101559450D01*
X143454450Y-101559450D01*
X143454450Y-101584850D01*
G37*
G36*
X143454450Y-97419250D02*
G01*
X142717850Y-97419250D01*
X142717850Y-97393850D01*
X143454450Y-97393850D01*
X143454450Y-97419250D01*
G37*
G36*
X143454450Y-97393850D02*
G01*
X142717850Y-97393850D01*
X142717850Y-97368450D01*
X143454450Y-97368450D01*
X143454450Y-97393850D01*
G37*
G36*
X143454450Y-97368450D02*
G01*
X142692450Y-97368450D01*
X142692450Y-97343050D01*
X143454450Y-97343050D01*
X143454450Y-97368450D01*
G37*
G36*
X143454450Y-97343050D02*
G01*
X142692450Y-97343050D01*
X142692450Y-97317650D01*
X143454450Y-97317650D01*
X143454450Y-97343050D01*
G37*
G36*
X143454450Y-97317650D02*
G01*
X142667050Y-97317650D01*
X142667050Y-97292250D01*
X143454450Y-97292250D01*
X143454450Y-97317650D01*
G37*
G36*
X143454450Y-95031650D02*
G01*
X142870250Y-95031650D01*
X142870250Y-95006250D01*
X143454450Y-95006250D01*
X143454450Y-95031650D01*
G37*
G36*
X143454450Y-95006250D02*
G01*
X142870250Y-95006250D01*
X142870250Y-94980850D01*
X143454450Y-94980850D01*
X143454450Y-95006250D01*
G37*
G36*
X143429050Y-101813450D02*
G01*
X142895650Y-101813450D01*
X142895650Y-101788050D01*
X143429050Y-101788050D01*
X143429050Y-101813450D01*
G37*
G36*
X143429050Y-101788050D02*
G01*
X142870250Y-101788050D01*
X142870250Y-101762650D01*
X143429050Y-101762650D01*
X143429050Y-101788050D01*
G37*
G36*
X143429050Y-101762650D02*
G01*
X142844850Y-101762650D01*
X142844850Y-101737250D01*
X143429050Y-101737250D01*
X143429050Y-101762650D01*
G37*
G36*
X143429050Y-101737250D02*
G01*
X142844850Y-101737250D01*
X142844850Y-101711850D01*
X143429050Y-101711850D01*
X143429050Y-101737250D01*
G37*
G36*
X143429050Y-101711850D02*
G01*
X142819450Y-101711850D01*
X142819450Y-101686450D01*
X143429050Y-101686450D01*
X143429050Y-101711850D01*
G37*
G36*
X143429050Y-97292250D02*
G01*
X142667050Y-97292250D01*
X142667050Y-97266850D01*
X143429050Y-97266850D01*
X143429050Y-97292250D01*
G37*
G36*
X143429050Y-97266850D02*
G01*
X142667050Y-97266850D01*
X142667050Y-97241450D01*
X143429050Y-97241450D01*
X143429050Y-97266850D01*
G37*
G36*
X143429050Y-97241450D02*
G01*
X142641650Y-97241450D01*
X142641650Y-97216050D01*
X143429050Y-97216050D01*
X143429050Y-97241450D01*
G37*
G36*
X143429050Y-97216050D02*
G01*
X142641650Y-97216050D01*
X142641650Y-97190650D01*
X143429050Y-97190650D01*
X143429050Y-97216050D01*
G37*
G36*
X143429050Y-97190650D02*
G01*
X142641650Y-97190650D01*
X142641650Y-97165250D01*
X143429050Y-97165250D01*
X143429050Y-97190650D01*
G37*
G36*
X143429050Y-97165250D02*
G01*
X142616250Y-97165250D01*
X142616250Y-97139850D01*
X143429050Y-97139850D01*
X143429050Y-97165250D01*
G37*
G36*
X143429050Y-94980850D02*
G01*
X142844850Y-94980850D01*
X142844850Y-94955450D01*
X143429050Y-94955450D01*
X143429050Y-94980850D01*
G37*
G36*
X143429050Y-94955450D02*
G01*
X142819450Y-94955450D01*
X142819450Y-94930050D01*
X143429050Y-94930050D01*
X143429050Y-94955450D01*
G37*
G36*
X143403650Y-101940450D02*
G01*
X142997250Y-101940450D01*
X142997250Y-101915050D01*
X143403650Y-101915050D01*
X143403650Y-101940450D01*
G37*
G36*
X143403650Y-101915050D02*
G01*
X142971850Y-101915050D01*
X142971850Y-101889650D01*
X143403650Y-101889650D01*
X143403650Y-101915050D01*
G37*
G36*
X143403650Y-101889650D02*
G01*
X142946450Y-101889650D01*
X142946450Y-101864250D01*
X143403650Y-101864250D01*
X143403650Y-101889650D01*
G37*
G36*
X143403650Y-101864250D02*
G01*
X142946450Y-101864250D01*
X142946450Y-101838850D01*
X143403650Y-101838850D01*
X143403650Y-101864250D01*
G37*
G36*
X143403650Y-101838850D02*
G01*
X142921050Y-101838850D01*
X142921050Y-101813450D01*
X143403650Y-101813450D01*
X143403650Y-101838850D01*
G37*
G36*
X143403650Y-97139850D02*
G01*
X142616250Y-97139850D01*
X142616250Y-97114450D01*
X143403650Y-97114450D01*
X143403650Y-97139850D01*
G37*
G36*
X143403650Y-97114450D02*
G01*
X142590850Y-97114450D01*
X142590850Y-97089050D01*
X143403650Y-97089050D01*
X143403650Y-97114450D01*
G37*
G36*
X143403650Y-97089050D02*
G01*
X142590850Y-97089050D01*
X142590850Y-97063650D01*
X143403650Y-97063650D01*
X143403650Y-97089050D01*
G37*
G36*
X143403650Y-97063650D02*
G01*
X142590850Y-97063650D01*
X142590850Y-97038250D01*
X143403650Y-97038250D01*
X143403650Y-97063650D01*
G37*
G36*
X143403650Y-97038250D02*
G01*
X142565450Y-97038250D01*
X142565450Y-97012850D01*
X143403650Y-97012850D01*
X143403650Y-97038250D01*
G37*
G36*
X143403650Y-94930050D02*
G01*
X142819450Y-94930050D01*
X142819450Y-94904650D01*
X143403650Y-94904650D01*
X143403650Y-94930050D01*
G37*
G36*
X143403650Y-94904650D02*
G01*
X142794050Y-94904650D01*
X142794050Y-94879250D01*
X143403650Y-94879250D01*
X143403650Y-94904650D01*
G37*
G36*
X143378250Y-102067450D02*
G01*
X143098850Y-102067450D01*
X143098850Y-102042050D01*
X143378250Y-102042050D01*
X143378250Y-102067450D01*
G37*
G36*
X143378250Y-102042050D02*
G01*
X143073450Y-102042050D01*
X143073450Y-102016650D01*
X143378250Y-102016650D01*
X143378250Y-102042050D01*
G37*
G36*
X143378250Y-102016650D02*
G01*
X143048050Y-102016650D01*
X143048050Y-101991250D01*
X143378250Y-101991250D01*
X143378250Y-102016650D01*
G37*
G36*
X143378250Y-101991250D02*
G01*
X143048050Y-101991250D01*
X143048050Y-101965850D01*
X143378250Y-101965850D01*
X143378250Y-101991250D01*
G37*
G36*
X143378250Y-101965850D02*
G01*
X143022650Y-101965850D01*
X143022650Y-101940450D01*
X143378250Y-101940450D01*
X143378250Y-101965850D01*
G37*
G36*
X143378250Y-97012850D02*
G01*
X142565450Y-97012850D01*
X142565450Y-96987450D01*
X143378250Y-96987450D01*
X143378250Y-97012850D01*
G37*
G36*
X143378250Y-96987450D02*
G01*
X142565450Y-96987450D01*
X142565450Y-96962050D01*
X143378250Y-96962050D01*
X143378250Y-96987450D01*
G37*
G36*
X143378250Y-96962050D02*
G01*
X142540050Y-96962050D01*
X142540050Y-96936650D01*
X143378250Y-96936650D01*
X143378250Y-96962050D01*
G37*
G36*
X143378250Y-96936650D02*
G01*
X142540050Y-96936650D01*
X142540050Y-96911250D01*
X143378250Y-96911250D01*
X143378250Y-96936650D01*
G37*
G36*
X143378250Y-96911250D02*
G01*
X142514650Y-96911250D01*
X142514650Y-96885850D01*
X143378250Y-96885850D01*
X143378250Y-96911250D01*
G37*
G36*
X143378250Y-96885850D02*
G01*
X142514650Y-96885850D01*
X142514650Y-96860450D01*
X143378250Y-96860450D01*
X143378250Y-96885850D01*
G37*
G36*
X143378250Y-94879250D02*
G01*
X142794050Y-94879250D01*
X142794050Y-94853850D01*
X143378250Y-94853850D01*
X143378250Y-94879250D01*
G37*
G36*
X143352850Y-102194450D02*
G01*
X143200450Y-102194450D01*
X143200450Y-102169050D01*
X143352850Y-102169050D01*
X143352850Y-102194450D01*
G37*
G36*
X143352850Y-102169050D02*
G01*
X143175050Y-102169050D01*
X143175050Y-102143650D01*
X143352850Y-102143650D01*
X143352850Y-102169050D01*
G37*
G36*
X143352850Y-102143650D02*
G01*
X143149650Y-102143650D01*
X143149650Y-102118250D01*
X143352850Y-102118250D01*
X143352850Y-102143650D01*
G37*
G36*
X143352850Y-102118250D02*
G01*
X143149650Y-102118250D01*
X143149650Y-102092850D01*
X143352850Y-102092850D01*
X143352850Y-102118250D01*
G37*
G36*
X143352850Y-102092850D02*
G01*
X143124250Y-102092850D01*
X143124250Y-102067450D01*
X143352850Y-102067450D01*
X143352850Y-102092850D01*
G37*
G36*
X143352850Y-96860450D02*
G01*
X142514650Y-96860450D01*
X142514650Y-96835050D01*
X143352850Y-96835050D01*
X143352850Y-96860450D01*
G37*
G36*
X143352850Y-96835050D02*
G01*
X142489250Y-96835050D01*
X142489250Y-96809650D01*
X143352850Y-96809650D01*
X143352850Y-96835050D01*
G37*
G36*
X143352850Y-96809650D02*
G01*
X142489250Y-96809650D01*
X142489250Y-96784250D01*
X143352850Y-96784250D01*
X143352850Y-96809650D01*
G37*
G36*
X143352850Y-96784250D02*
G01*
X142463850Y-96784250D01*
X142463850Y-96758850D01*
X143352850Y-96758850D01*
X143352850Y-96784250D01*
G37*
G36*
X143352850Y-96758850D02*
G01*
X142463850Y-96758850D01*
X142463850Y-96733450D01*
X143352850Y-96733450D01*
X143352850Y-96758850D01*
G37*
G36*
X143352850Y-94853850D02*
G01*
X142768650Y-94853850D01*
X142768650Y-94828450D01*
X143352850Y-94828450D01*
X143352850Y-94853850D01*
G37*
G36*
X143352850Y-94828450D02*
G01*
X142768650Y-94828450D01*
X142768650Y-94803050D01*
X143352850Y-94803050D01*
X143352850Y-94828450D01*
G37*
G36*
X143327450Y-102296050D02*
G01*
X143276650Y-102296050D01*
X143276650Y-102270650D01*
X143327450Y-102270650D01*
X143327450Y-102296050D01*
G37*
G36*
X143327450Y-102270650D02*
G01*
X143251250Y-102270650D01*
X143251250Y-102245250D01*
X143327450Y-102245250D01*
X143327450Y-102270650D01*
G37*
G36*
X143327450Y-102245250D02*
G01*
X143251250Y-102245250D01*
X143251250Y-102219850D01*
X143327450Y-102219850D01*
X143327450Y-102245250D01*
G37*
G36*
X143327450Y-102219850D02*
G01*
X143225850Y-102219850D01*
X143225850Y-102194450D01*
X143327450Y-102194450D01*
X143327450Y-102219850D01*
G37*
G36*
X143327450Y-96733450D02*
G01*
X142463850Y-96733450D01*
X142463850Y-96708050D01*
X143327450Y-96708050D01*
X143327450Y-96733450D01*
G37*
G36*
X143327450Y-96708050D02*
G01*
X142438450Y-96708050D01*
X142438450Y-96682650D01*
X143327450Y-96682650D01*
X143327450Y-96708050D01*
G37*
G36*
X143327450Y-96682650D02*
G01*
X142438450Y-96682650D01*
X142438450Y-96657250D01*
X143327450Y-96657250D01*
X143327450Y-96682650D01*
G37*
G36*
X143327450Y-96657250D02*
G01*
X142438450Y-96657250D01*
X142438450Y-96631850D01*
X143327450Y-96631850D01*
X143327450Y-96657250D01*
G37*
G36*
X143327450Y-96631850D02*
G01*
X142413050Y-96631850D01*
X142413050Y-96606450D01*
X143327450Y-96606450D01*
X143327450Y-96631850D01*
G37*
G36*
X143327450Y-96606450D02*
G01*
X142413050Y-96606450D01*
X142413050Y-96581050D01*
X143327450Y-96581050D01*
X143327450Y-96606450D01*
G37*
G36*
X143327450Y-94803050D02*
G01*
X142743250Y-94803050D01*
X142743250Y-94777650D01*
X143327450Y-94777650D01*
X143327450Y-94803050D01*
G37*
G36*
X143327450Y-94777650D02*
G01*
X142717850Y-94777650D01*
X142717850Y-94752250D01*
X143327450Y-94752250D01*
X143327450Y-94777650D01*
G37*
G36*
X143302050Y-96581050D02*
G01*
X142387650Y-96581050D01*
X142387650Y-96555650D01*
X143302050Y-96555650D01*
X143302050Y-96581050D01*
G37*
G36*
X143302050Y-96555650D02*
G01*
X142387650Y-96555650D01*
X142387650Y-96530250D01*
X143302050Y-96530250D01*
X143302050Y-96555650D01*
G37*
G36*
X143302050Y-96530250D02*
G01*
X142387650Y-96530250D01*
X142387650Y-96504850D01*
X143302050Y-96504850D01*
X143302050Y-96530250D01*
G37*
G36*
X143302050Y-96504850D02*
G01*
X142362250Y-96504850D01*
X142362250Y-96479450D01*
X143302050Y-96479450D01*
X143302050Y-96504850D01*
G37*
G36*
X143302050Y-96479450D02*
G01*
X142362250Y-96479450D01*
X142362250Y-96454050D01*
X143302050Y-96454050D01*
X143302050Y-96479450D01*
G37*
G36*
X143302050Y-94752250D02*
G01*
X142692450Y-94752250D01*
X142692450Y-94726850D01*
X143302050Y-94726850D01*
X143302050Y-94752250D01*
G37*
G36*
X143276650Y-96454050D02*
G01*
X142362250Y-96454050D01*
X142362250Y-96428650D01*
X143276650Y-96428650D01*
X143276650Y-96454050D01*
G37*
G36*
X143276650Y-96428650D02*
G01*
X142336850Y-96428650D01*
X142336850Y-96403250D01*
X143276650Y-96403250D01*
X143276650Y-96428650D01*
G37*
G36*
X143276650Y-96403250D02*
G01*
X142336850Y-96403250D01*
X142336850Y-96377850D01*
X143276650Y-96377850D01*
X143276650Y-96403250D01*
G37*
G36*
X143276650Y-96377850D02*
G01*
X142311450Y-96377850D01*
X142311450Y-96352450D01*
X143276650Y-96352450D01*
X143276650Y-96377850D01*
G37*
G36*
X143276650Y-94726850D02*
G01*
X142082850Y-94726850D01*
X142082850Y-94701450D01*
X143276650Y-94701450D01*
X143276650Y-94726850D01*
G37*
G36*
X143276650Y-94701450D02*
G01*
X142108250Y-94701450D01*
X142108250Y-94676050D01*
X143276650Y-94676050D01*
X143276650Y-94701450D01*
G37*
G36*
X143251250Y-94676050D02*
G01*
X142108250Y-94676050D01*
X142108250Y-94650650D01*
X143251250Y-94650650D01*
X143251250Y-94676050D01*
G37*
G36*
X143251250Y-94650650D02*
G01*
X142133650Y-94650650D01*
X142133650Y-94625250D01*
X143251250Y-94625250D01*
X143251250Y-94650650D01*
G37*
G36*
X143225850Y-94625250D02*
G01*
X142159050Y-94625250D01*
X142159050Y-94599850D01*
X143225850Y-94599850D01*
X143225850Y-94625250D01*
G37*
G36*
X143225850Y-94599850D02*
G01*
X142159050Y-94599850D01*
X142159050Y-94574450D01*
X143225850Y-94574450D01*
X143225850Y-94599850D01*
G37*
G36*
X143200450Y-101026050D02*
G01*
X142819450Y-101026050D01*
X142819450Y-101000650D01*
X143200450Y-101000650D01*
X143200450Y-101026050D01*
G37*
G36*
X143200450Y-101000650D02*
G01*
X142819450Y-101000650D01*
X142819450Y-100975250D01*
X143200450Y-100975250D01*
X143200450Y-101000650D01*
G37*
G36*
X143200450Y-100975250D02*
G01*
X142794050Y-100975250D01*
X142794050Y-100949850D01*
X143200450Y-100949850D01*
X143200450Y-100975250D01*
G37*
G36*
X143200450Y-98790850D02*
G01*
X141854250Y-98790850D01*
X141854250Y-98765450D01*
X143200450Y-98765450D01*
X143200450Y-98790850D01*
G37*
G36*
X143200450Y-94574450D02*
G01*
X142184450Y-94574450D01*
X142184450Y-94549050D01*
X143200450Y-94549050D01*
X143200450Y-94574450D01*
G37*
G36*
X143175050Y-100949850D02*
G01*
X142794050Y-100949850D01*
X142794050Y-100924450D01*
X143175050Y-100924450D01*
X143175050Y-100949850D01*
G37*
G36*
X143175050Y-100924450D02*
G01*
X142768650Y-100924450D01*
X142768650Y-100899050D01*
X143175050Y-100899050D01*
X143175050Y-100924450D01*
G37*
G36*
X143175050Y-94549050D02*
G01*
X142184450Y-94549050D01*
X142184450Y-94523650D01*
X143175050Y-94523650D01*
X143175050Y-94549050D01*
G37*
G36*
X143175050Y-94523650D02*
G01*
X142209850Y-94523650D01*
X142209850Y-94498250D01*
X143175050Y-94498250D01*
X143175050Y-94523650D01*
G37*
G36*
X143149650Y-100899050D02*
G01*
X142768650Y-100899050D01*
X142768650Y-100873650D01*
X143149650Y-100873650D01*
X143149650Y-100899050D01*
G37*
G36*
X143149650Y-100873650D02*
G01*
X142768650Y-100873650D01*
X142768650Y-100848250D01*
X143149650Y-100848250D01*
X143149650Y-100873650D01*
G37*
G36*
X143149650Y-100848250D02*
G01*
X142743250Y-100848250D01*
X142743250Y-100822850D01*
X143149650Y-100822850D01*
X143149650Y-100848250D01*
G37*
G36*
X143149650Y-94498250D02*
G01*
X142235250Y-94498250D01*
X142235250Y-94472850D01*
X143149650Y-94472850D01*
X143149650Y-94498250D01*
G37*
G36*
X143124250Y-100822850D02*
G01*
X142743250Y-100822850D01*
X142743250Y-100797450D01*
X143124250Y-100797450D01*
X143124250Y-100822850D01*
G37*
G36*
X143124250Y-100797450D02*
G01*
X142717850Y-100797450D01*
X142717850Y-100772050D01*
X143124250Y-100772050D01*
X143124250Y-100797450D01*
G37*
G36*
X143124250Y-100772050D02*
G01*
X142717850Y-100772050D01*
X142717850Y-100746650D01*
X143124250Y-100746650D01*
X143124250Y-100772050D01*
G37*
G36*
X143124250Y-98765450D02*
G01*
X141854250Y-98765450D01*
X141854250Y-98740050D01*
X143124250Y-98740050D01*
X143124250Y-98765450D01*
G37*
G36*
X143124250Y-94472850D02*
G01*
X142235250Y-94472850D01*
X142235250Y-94447450D01*
X143124250Y-94447450D01*
X143124250Y-94472850D01*
G37*
G36*
X143124250Y-94447450D02*
G01*
X142260650Y-94447450D01*
X142260650Y-94422050D01*
X143124250Y-94422050D01*
X143124250Y-94447450D01*
G37*
G36*
X143098850Y-100746650D02*
G01*
X142692450Y-100746650D01*
X142692450Y-100721250D01*
X143098850Y-100721250D01*
X143098850Y-100746650D01*
G37*
G36*
X143098850Y-100721250D02*
G01*
X142692450Y-100721250D01*
X142692450Y-100695850D01*
X143098850Y-100695850D01*
X143098850Y-100721250D01*
G37*
G36*
X143098850Y-94422050D02*
G01*
X142286050Y-94422050D01*
X142286050Y-94396650D01*
X143098850Y-94396650D01*
X143098850Y-94422050D01*
G37*
G36*
X143073450Y-100695850D02*
G01*
X142667050Y-100695850D01*
X142667050Y-100670450D01*
X143073450Y-100670450D01*
X143073450Y-100695850D01*
G37*
G36*
X143073450Y-100670450D02*
G01*
X142667050Y-100670450D01*
X142667050Y-100645050D01*
X143073450Y-100645050D01*
X143073450Y-100670450D01*
G37*
G36*
X143073450Y-100645050D02*
G01*
X142667050Y-100645050D01*
X142667050Y-100619650D01*
X143073450Y-100619650D01*
X143073450Y-100645050D01*
G37*
G36*
X143073450Y-94396650D02*
G01*
X142311450Y-94396650D01*
X142311450Y-94371250D01*
X143073450Y-94371250D01*
X143073450Y-94396650D01*
G37*
G36*
X143048050Y-100619650D02*
G01*
X142641650Y-100619650D01*
X142641650Y-100594250D01*
X143048050Y-100594250D01*
X143048050Y-100619650D01*
G37*
G36*
X143048050Y-100594250D02*
G01*
X142641650Y-100594250D01*
X142641650Y-100568850D01*
X143048050Y-100568850D01*
X143048050Y-100594250D01*
G37*
G36*
X143048050Y-100568850D02*
G01*
X142616250Y-100568850D01*
X142616250Y-100543450D01*
X143048050Y-100543450D01*
X143048050Y-100568850D01*
G37*
G36*
X143048050Y-98740050D02*
G01*
X141828850Y-98740050D01*
X141828850Y-98714650D01*
X143048050Y-98714650D01*
X143048050Y-98740050D01*
G37*
G36*
X143048050Y-94371250D02*
G01*
X142336850Y-94371250D01*
X142336850Y-94345850D01*
X143048050Y-94345850D01*
X143048050Y-94371250D01*
G37*
G36*
X143022650Y-100543450D02*
G01*
X142616250Y-100543450D01*
X142616250Y-100518050D01*
X143022650Y-100518050D01*
X143022650Y-100543450D01*
G37*
G36*
X143022650Y-100518050D02*
G01*
X142590850Y-100518050D01*
X142590850Y-100492650D01*
X143022650Y-100492650D01*
X143022650Y-100518050D01*
G37*
G36*
X143022650Y-94345850D02*
G01*
X142362250Y-94345850D01*
X142362250Y-94320450D01*
X143022650Y-94320450D01*
X143022650Y-94345850D01*
G37*
G36*
X142997250Y-100492650D02*
G01*
X142590850Y-100492650D01*
X142590850Y-100467250D01*
X142997250Y-100467250D01*
X142997250Y-100492650D01*
G37*
G36*
X142997250Y-100467250D02*
G01*
X142590850Y-100467250D01*
X142590850Y-100441850D01*
X142997250Y-100441850D01*
X142997250Y-100467250D01*
G37*
G36*
X142997250Y-100441850D02*
G01*
X142565450Y-100441850D01*
X142565450Y-100416450D01*
X142997250Y-100416450D01*
X142997250Y-100441850D01*
G37*
G36*
X142971850Y-100416450D02*
G01*
X142565450Y-100416450D01*
X142565450Y-100391050D01*
X142971850Y-100391050D01*
X142971850Y-100416450D01*
G37*
G36*
X142971850Y-100391050D02*
G01*
X142540050Y-100391050D01*
X142540050Y-100365650D01*
X142971850Y-100365650D01*
X142971850Y-100391050D01*
G37*
G36*
X142971850Y-100365650D02*
G01*
X142540050Y-100365650D01*
X142540050Y-100340250D01*
X142971850Y-100340250D01*
X142971850Y-100365650D01*
G37*
G36*
X142971850Y-98714650D02*
G01*
X141828850Y-98714650D01*
X141828850Y-98689250D01*
X142971850Y-98689250D01*
X142971850Y-98714650D01*
G37*
G36*
X142971850Y-94320450D02*
G01*
X142387650Y-94320450D01*
X142387650Y-94295050D01*
X142971850Y-94295050D01*
X142971850Y-94320450D01*
G37*
G36*
X142946450Y-100340250D02*
G01*
X142514650Y-100340250D01*
X142514650Y-100314850D01*
X142946450Y-100314850D01*
X142946450Y-100340250D01*
G37*
G36*
X142946450Y-100314850D02*
G01*
X142514650Y-100314850D01*
X142514650Y-100289450D01*
X142946450Y-100289450D01*
X142946450Y-100314850D01*
G37*
G36*
X142946450Y-94295050D02*
G01*
X142438450Y-94295050D01*
X142438450Y-94269650D01*
X142946450Y-94269650D01*
X142946450Y-94295050D01*
G37*
G36*
X142921050Y-100289450D02*
G01*
X142514650Y-100289450D01*
X142514650Y-100264050D01*
X142921050Y-100264050D01*
X142921050Y-100289450D01*
G37*
G36*
X142921050Y-100264050D02*
G01*
X142489250Y-100264050D01*
X142489250Y-100238650D01*
X142921050Y-100238650D01*
X142921050Y-100264050D01*
G37*
G36*
X142921050Y-100238650D02*
G01*
X142489250Y-100238650D01*
X142489250Y-100213250D01*
X142921050Y-100213250D01*
X142921050Y-100238650D01*
G37*
G36*
X142921050Y-98689250D02*
G01*
X141803450Y-98689250D01*
X141803450Y-98663850D01*
X142921050Y-98663850D01*
X142921050Y-98689250D01*
G37*
G36*
X142895650Y-100213250D02*
G01*
X142463850Y-100213250D01*
X142463850Y-100187850D01*
X142895650Y-100187850D01*
X142895650Y-100213250D01*
G37*
G36*
X142895650Y-100187850D02*
G01*
X142463850Y-100187850D01*
X142463850Y-100162450D01*
X142895650Y-100162450D01*
X142895650Y-100187850D01*
G37*
G36*
X142895650Y-100162450D02*
G01*
X142438450Y-100162450D01*
X142438450Y-100137050D01*
X142895650Y-100137050D01*
X142895650Y-100162450D01*
G37*
G36*
X142895650Y-94269650D02*
G01*
X142489250Y-94269650D01*
X142489250Y-94244250D01*
X142895650Y-94244250D01*
X142895650Y-94269650D01*
G37*
G36*
X142870250Y-100137050D02*
G01*
X142438450Y-100137050D01*
X142438450Y-100111650D01*
X142870250Y-100111650D01*
X142870250Y-100137050D01*
G37*
G36*
X142870250Y-100111650D02*
G01*
X142413050Y-100111650D01*
X142413050Y-100086250D01*
X142870250Y-100086250D01*
X142870250Y-100111650D01*
G37*
G36*
X142844850Y-100086250D02*
G01*
X142413050Y-100086250D01*
X142413050Y-100060850D01*
X142844850Y-100060850D01*
X142844850Y-100086250D01*
G37*
G36*
X142844850Y-100060850D02*
G01*
X142413050Y-100060850D01*
X142413050Y-100035450D01*
X142844850Y-100035450D01*
X142844850Y-100060850D01*
G37*
G36*
X142844850Y-100035450D02*
G01*
X142387650Y-100035450D01*
X142387650Y-100010050D01*
X142844850Y-100010050D01*
X142844850Y-100035450D01*
G37*
G36*
X142844850Y-98663850D02*
G01*
X141803450Y-98663850D01*
X141803450Y-98638450D01*
X142844850Y-98638450D01*
X142844850Y-98663850D01*
G37*
G36*
X142819450Y-100010050D02*
G01*
X142387650Y-100010050D01*
X142387650Y-99984650D01*
X142819450Y-99984650D01*
X142819450Y-100010050D01*
G37*
G36*
X142819450Y-99984650D02*
G01*
X142362250Y-99984650D01*
X142362250Y-99959250D01*
X142819450Y-99959250D01*
X142819450Y-99984650D01*
G37*
G36*
X142819450Y-99959250D02*
G01*
X142362250Y-99959250D01*
X142362250Y-99933850D01*
X142819450Y-99933850D01*
X142819450Y-99959250D01*
G37*
G36*
X142819450Y-94244250D02*
G01*
X142565450Y-94244250D01*
X142565450Y-94218850D01*
X142819450Y-94218850D01*
X142819450Y-94244250D01*
G37*
G36*
X142794050Y-99933850D02*
G01*
X142336850Y-99933850D01*
X142336850Y-99908450D01*
X142794050Y-99908450D01*
X142794050Y-99933850D01*
G37*
G36*
X142794050Y-99908450D02*
G01*
X142336850Y-99908450D01*
X142336850Y-99883050D01*
X142794050Y-99883050D01*
X142794050Y-99908450D01*
G37*
G36*
X142768650Y-99883050D02*
G01*
X142336850Y-99883050D01*
X142336850Y-99857650D01*
X142768650Y-99857650D01*
X142768650Y-99883050D01*
G37*
G36*
X142768650Y-99857650D02*
G01*
X142311450Y-99857650D01*
X142311450Y-99832250D01*
X142768650Y-99832250D01*
X142768650Y-99857650D01*
G37*
G36*
X142768650Y-99832250D02*
G01*
X142311450Y-99832250D01*
X142311450Y-99806850D01*
X142768650Y-99806850D01*
X142768650Y-99832250D01*
G37*
G36*
X142768650Y-98638450D02*
G01*
X141778050Y-98638450D01*
X141778050Y-98613050D01*
X142768650Y-98613050D01*
X142768650Y-98638450D01*
G37*
G36*
X142743250Y-99806850D02*
G01*
X142286050Y-99806850D01*
X142286050Y-99781450D01*
X142743250Y-99781450D01*
X142743250Y-99806850D01*
G37*
G36*
X142743250Y-99781450D02*
G01*
X142286050Y-99781450D01*
X142286050Y-99756050D01*
X142743250Y-99756050D01*
X142743250Y-99781450D01*
G37*
G36*
X142743250Y-99756050D02*
G01*
X142260650Y-99756050D01*
X142260650Y-99730650D01*
X142743250Y-99730650D01*
X142743250Y-99756050D01*
G37*
G36*
X142717850Y-99730650D02*
G01*
X142260650Y-99730650D01*
X142260650Y-99705250D01*
X142717850Y-99705250D01*
X142717850Y-99730650D01*
G37*
G36*
X142717850Y-99705250D02*
G01*
X142260650Y-99705250D01*
X142260650Y-99679850D01*
X142717850Y-99679850D01*
X142717850Y-99705250D01*
G37*
G36*
X142692450Y-99679850D02*
G01*
X142235250Y-99679850D01*
X142235250Y-99654450D01*
X142692450Y-99654450D01*
X142692450Y-99679850D01*
G37*
G36*
X142692450Y-99654450D02*
G01*
X142235250Y-99654450D01*
X142235250Y-99629050D01*
X142692450Y-99629050D01*
X142692450Y-99654450D01*
G37*
G36*
X142692450Y-99629050D02*
G01*
X142209850Y-99629050D01*
X142209850Y-99603650D01*
X142692450Y-99603650D01*
X142692450Y-99629050D01*
G37*
G36*
X142692450Y-98613050D02*
G01*
X141778050Y-98613050D01*
X141778050Y-98587650D01*
X142692450Y-98587650D01*
X142692450Y-98613050D01*
G37*
G36*
X142667050Y-99603650D02*
G01*
X142209850Y-99603650D01*
X142209850Y-99578250D01*
X142667050Y-99578250D01*
X142667050Y-99603650D01*
G37*
G36*
X142667050Y-99578250D02*
G01*
X142184450Y-99578250D01*
X142184450Y-99552850D01*
X142667050Y-99552850D01*
X142667050Y-99578250D01*
G37*
G36*
X142667050Y-99552850D02*
G01*
X142184450Y-99552850D01*
X142184450Y-99527450D01*
X142667050Y-99527450D01*
X142667050Y-99552850D01*
G37*
G36*
X142667050Y-94752250D02*
G01*
X142082850Y-94752250D01*
X142082850Y-94726850D01*
X142667050Y-94726850D01*
X142667050Y-94752250D01*
G37*
G36*
X142641650Y-99527450D02*
G01*
X142184450Y-99527450D01*
X142184450Y-99502050D01*
X142641650Y-99502050D01*
X142641650Y-99527450D01*
G37*
G36*
X142641650Y-99502050D02*
G01*
X142159050Y-99502050D01*
X142159050Y-99476650D01*
X142641650Y-99476650D01*
X142641650Y-99502050D01*
G37*
G36*
X142641650Y-98587650D02*
G01*
X141752650Y-98587650D01*
X141752650Y-98562250D01*
X142641650Y-98562250D01*
X142641650Y-98587650D01*
G37*
G36*
X142641650Y-94803050D02*
G01*
X142057450Y-94803050D01*
X142057450Y-94777650D01*
X142641650Y-94777650D01*
X142641650Y-94803050D01*
G37*
G36*
X142641650Y-94777650D02*
G01*
X142057450Y-94777650D01*
X142057450Y-94752250D01*
X142641650Y-94752250D01*
X142641650Y-94777650D01*
G37*
G36*
X142616250Y-99476650D02*
G01*
X142159050Y-99476650D01*
X142159050Y-99451250D01*
X142616250Y-99451250D01*
X142616250Y-99476650D01*
G37*
G36*
X142616250Y-99451250D02*
G01*
X142133650Y-99451250D01*
X142133650Y-99425850D01*
X142616250Y-99425850D01*
X142616250Y-99451250D01*
G37*
G36*
X142616250Y-99425850D02*
G01*
X142133650Y-99425850D01*
X142133650Y-99400450D01*
X142616250Y-99400450D01*
X142616250Y-99425850D01*
G37*
G36*
X142616250Y-94853850D02*
G01*
X142032050Y-94853850D01*
X142032050Y-94828450D01*
X142616250Y-94828450D01*
X142616250Y-94853850D01*
G37*
G36*
X142616250Y-94828450D02*
G01*
X142032050Y-94828450D01*
X142032050Y-94803050D01*
X142616250Y-94803050D01*
X142616250Y-94828450D01*
G37*
G36*
X142590850Y-99400450D02*
G01*
X142108250Y-99400450D01*
X142108250Y-99375050D01*
X142590850Y-99375050D01*
X142590850Y-99400450D01*
G37*
G36*
X142590850Y-99375050D02*
G01*
X142108250Y-99375050D01*
X142108250Y-99349650D01*
X142590850Y-99349650D01*
X142590850Y-99375050D01*
G37*
G36*
X142590850Y-99349650D02*
G01*
X142082850Y-99349650D01*
X142082850Y-99324250D01*
X142590850Y-99324250D01*
X142590850Y-99349650D01*
G37*
G36*
X142590850Y-94904650D02*
G01*
X141981250Y-94904650D01*
X141981250Y-94879250D01*
X142590850Y-94879250D01*
X142590850Y-94904650D01*
G37*
G36*
X142590850Y-94879250D02*
G01*
X142006650Y-94879250D01*
X142006650Y-94853850D01*
X142590850Y-94853850D01*
X142590850Y-94879250D01*
G37*
G36*
X142565450Y-99324250D02*
G01*
X142082850Y-99324250D01*
X142082850Y-99298850D01*
X142565450Y-99298850D01*
X142565450Y-99324250D01*
G37*
G36*
X142565450Y-99298850D02*
G01*
X142082850Y-99298850D01*
X142082850Y-99273450D01*
X142565450Y-99273450D01*
X142565450Y-99298850D01*
G37*
G36*
X142565450Y-98562250D02*
G01*
X141752650Y-98562250D01*
X141752650Y-98536850D01*
X142565450Y-98536850D01*
X142565450Y-98562250D01*
G37*
G36*
X142565450Y-94930050D02*
G01*
X141981250Y-94930050D01*
X141981250Y-94904650D01*
X142565450Y-94904650D01*
X142565450Y-94930050D01*
G37*
G36*
X142540050Y-99273450D02*
G01*
X142057450Y-99273450D01*
X142057450Y-99248050D01*
X142540050Y-99248050D01*
X142540050Y-99273450D01*
G37*
G36*
X142540050Y-99248050D02*
G01*
X142057450Y-99248050D01*
X142057450Y-99222650D01*
X142540050Y-99222650D01*
X142540050Y-99248050D01*
G37*
G36*
X142540050Y-99222650D02*
G01*
X142032050Y-99222650D01*
X142032050Y-99197250D01*
X142540050Y-99197250D01*
X142540050Y-99222650D01*
G37*
G36*
X142540050Y-94980850D02*
G01*
X141955850Y-94980850D01*
X141955850Y-94955450D01*
X142540050Y-94955450D01*
X142540050Y-94980850D01*
G37*
G36*
X142540050Y-94955450D02*
G01*
X141955850Y-94955450D01*
X141955850Y-94930050D01*
X142540050Y-94930050D01*
X142540050Y-94955450D01*
G37*
G36*
X142514650Y-99197250D02*
G01*
X142032050Y-99197250D01*
X142032050Y-99171850D01*
X142514650Y-99171850D01*
X142514650Y-99197250D01*
G37*
G36*
X142514650Y-99171850D02*
G01*
X142006650Y-99171850D01*
X142006650Y-99146450D01*
X142514650Y-99146450D01*
X142514650Y-99171850D01*
G37*
G36*
X142514650Y-99146450D02*
G01*
X142006650Y-99146450D01*
X142006650Y-99121050D01*
X142514650Y-99121050D01*
X142514650Y-99146450D01*
G37*
G36*
X142514650Y-95031650D02*
G01*
X141930450Y-95031650D01*
X141930450Y-95006250D01*
X142514650Y-95006250D01*
X142514650Y-95031650D01*
G37*
G36*
X142514650Y-95006250D02*
G01*
X141930450Y-95006250D01*
X141930450Y-94980850D01*
X142514650Y-94980850D01*
X142514650Y-95006250D01*
G37*
G36*
X142489250Y-99121050D02*
G01*
X142006650Y-99121050D01*
X142006650Y-99095650D01*
X142489250Y-99095650D01*
X142489250Y-99121050D01*
G37*
G36*
X142489250Y-99095650D02*
G01*
X141981250Y-99095650D01*
X141981250Y-99070250D01*
X142489250Y-99070250D01*
X142489250Y-99095650D01*
G37*
G36*
X142489250Y-98536850D02*
G01*
X141752650Y-98536850D01*
X141752650Y-98511450D01*
X142489250Y-98511450D01*
X142489250Y-98536850D01*
G37*
G36*
X142489250Y-95082450D02*
G01*
X141879650Y-95082450D01*
X141879650Y-95057050D01*
X142489250Y-95057050D01*
X142489250Y-95082450D01*
G37*
G36*
X142489250Y-95057050D02*
G01*
X141905050Y-95057050D01*
X141905050Y-95031650D01*
X142489250Y-95031650D01*
X142489250Y-95057050D01*
G37*
G36*
X142463850Y-99070250D02*
G01*
X141981250Y-99070250D01*
X141981250Y-99044850D01*
X142463850Y-99044850D01*
X142463850Y-99070250D01*
G37*
G36*
X142463850Y-99044850D02*
G01*
X141955850Y-99044850D01*
X141955850Y-99019450D01*
X142463850Y-99019450D01*
X142463850Y-99044850D01*
G37*
G36*
X142463850Y-99019450D02*
G01*
X141955850Y-99019450D01*
X141955850Y-98994050D01*
X142463850Y-98994050D01*
X142463850Y-99019450D01*
G37*
G36*
X142463850Y-95107850D02*
G01*
X141879650Y-95107850D01*
X141879650Y-95082450D01*
X142463850Y-95082450D01*
X142463850Y-95107850D01*
G37*
G36*
X142438450Y-95158650D02*
G01*
X141854250Y-95158650D01*
X141854250Y-95133250D01*
X142438450Y-95133250D01*
X142438450Y-95158650D01*
G37*
G36*
X142438450Y-95133250D02*
G01*
X141854250Y-95133250D01*
X141854250Y-95107850D01*
X142438450Y-95107850D01*
X142438450Y-95133250D01*
G37*
G36*
X142413050Y-98511450D02*
G01*
X141727250Y-98511450D01*
X141727250Y-98486050D01*
X142413050Y-98486050D01*
X142413050Y-98511450D01*
G37*
G36*
X142413050Y-95209450D02*
G01*
X141828850Y-95209450D01*
X141828850Y-95184050D01*
X142413050Y-95184050D01*
X142413050Y-95209450D01*
G37*
G36*
X142413050Y-95184050D02*
G01*
X141828850Y-95184050D01*
X141828850Y-95158650D01*
X142413050Y-95158650D01*
X142413050Y-95184050D01*
G37*
G36*
X142387650Y-95260250D02*
G01*
X141778050Y-95260250D01*
X141778050Y-95234850D01*
X142387650Y-95234850D01*
X142387650Y-95260250D01*
G37*
G36*
X142387650Y-95234850D02*
G01*
X141803450Y-95234850D01*
X141803450Y-95209450D01*
X142387650Y-95209450D01*
X142387650Y-95234850D01*
G37*
G36*
X142362250Y-95285650D02*
G01*
X141778050Y-95285650D01*
X141778050Y-95260250D01*
X142362250Y-95260250D01*
X142362250Y-95285650D01*
G37*
G36*
X142336850Y-98486050D02*
G01*
X141727250Y-98486050D01*
X141727250Y-98460650D01*
X142336850Y-98460650D01*
X142336850Y-98486050D01*
G37*
G36*
X142336850Y-95336450D02*
G01*
X141752650Y-95336450D01*
X141752650Y-95311050D01*
X142336850Y-95311050D01*
X142336850Y-95336450D01*
G37*
G36*
X142336850Y-95311050D02*
G01*
X141752650Y-95311050D01*
X141752650Y-95285650D01*
X142336850Y-95285650D01*
X142336850Y-95311050D01*
G37*
G36*
X142311450Y-95387250D02*
G01*
X141727250Y-95387250D01*
X141727250Y-95361850D01*
X142311450Y-95361850D01*
X142311450Y-95387250D01*
G37*
G36*
X142311450Y-95361850D02*
G01*
X141727250Y-95361850D01*
X141727250Y-95336450D01*
X142311450Y-95336450D01*
X142311450Y-95361850D01*
G37*
G36*
X142286050Y-98460650D02*
G01*
X141701850Y-98460650D01*
X141701850Y-98435250D01*
X142286050Y-98435250D01*
X142286050Y-98460650D01*
G37*
G36*
X142286050Y-95438050D02*
G01*
X141701850Y-95438050D01*
X141701850Y-95412650D01*
X142286050Y-95412650D01*
X142286050Y-95438050D01*
G37*
G36*
X142286050Y-95412650D02*
G01*
X141701850Y-95412650D01*
X141701850Y-95387250D01*
X142286050Y-95387250D01*
X142286050Y-95412650D01*
G37*
G36*
X142260650Y-95488850D02*
G01*
X141651050Y-95488850D01*
X141651050Y-95463450D01*
X142260650Y-95463450D01*
X142260650Y-95488850D01*
G37*
G36*
X142260650Y-95463450D02*
G01*
X141676450Y-95463450D01*
X141676450Y-95438050D01*
X142260650Y-95438050D01*
X142260650Y-95463450D01*
G37*
G36*
X142235250Y-95514250D02*
G01*
X141651050Y-95514250D01*
X141651050Y-95488850D01*
X142235250Y-95488850D01*
X142235250Y-95514250D01*
G37*
G36*
X142209850Y-98435250D02*
G01*
X141701850Y-98435250D01*
X141701850Y-98409850D01*
X142209850Y-98409850D01*
X142209850Y-98435250D01*
G37*
G36*
X142209850Y-95565050D02*
G01*
X141625650Y-95565050D01*
X141625650Y-95539650D01*
X142209850Y-95539650D01*
X142209850Y-95565050D01*
G37*
G36*
X142209850Y-95539650D02*
G01*
X141625650Y-95539650D01*
X141625650Y-95514250D01*
X142209850Y-95514250D01*
X142209850Y-95539650D01*
G37*
G36*
X142184450Y-95615850D02*
G01*
X141600250Y-95615850D01*
X141600250Y-95590450D01*
X142184450Y-95590450D01*
X142184450Y-95615850D01*
G37*
G36*
X142184450Y-95590450D02*
G01*
X141600250Y-95590450D01*
X141600250Y-95565050D01*
X142184450Y-95565050D01*
X142184450Y-95590450D01*
G37*
G36*
X142159050Y-95666650D02*
G01*
X141549450Y-95666650D01*
X141549450Y-95641250D01*
X142159050Y-95641250D01*
X142159050Y-95666650D01*
G37*
G36*
X142159050Y-95641250D02*
G01*
X141574850Y-95641250D01*
X141574850Y-95615850D01*
X142159050Y-95615850D01*
X142159050Y-95641250D01*
G37*
G36*
X142133650Y-98409850D02*
G01*
X141676450Y-98409850D01*
X141676450Y-98384450D01*
X142133650Y-98384450D01*
X142133650Y-98409850D01*
G37*
G36*
X142133650Y-95692050D02*
G01*
X141549450Y-95692050D01*
X141549450Y-95666650D01*
X142133650Y-95666650D01*
X142133650Y-95692050D01*
G37*
G36*
X142108250Y-95742850D02*
G01*
X141524050Y-95742850D01*
X141524050Y-95717450D01*
X142108250Y-95717450D01*
X142108250Y-95742850D01*
G37*
G36*
X142108250Y-95717450D02*
G01*
X141524050Y-95717450D01*
X141524050Y-95692050D01*
X142108250Y-95692050D01*
X142108250Y-95717450D01*
G37*
G36*
X142082850Y-95793650D02*
G01*
X141498650Y-95793650D01*
X141498650Y-95768250D01*
X142082850Y-95768250D01*
X142082850Y-95793650D01*
G37*
G36*
X142082850Y-95768250D02*
G01*
X141498650Y-95768250D01*
X141498650Y-95742850D01*
X142082850Y-95742850D01*
X142082850Y-95768250D01*
G37*
G36*
X142057450Y-98384450D02*
G01*
X141676450Y-98384450D01*
X141676450Y-98359050D01*
X142057450Y-98359050D01*
X142057450Y-98384450D01*
G37*
G36*
X142057450Y-95844450D02*
G01*
X141473250Y-95844450D01*
X141473250Y-95819050D01*
X142057450Y-95819050D01*
X142057450Y-95844450D01*
G37*
G36*
X142057450Y-95819050D02*
G01*
X141473250Y-95819050D01*
X141473250Y-95793650D01*
X142057450Y-95793650D01*
X142057450Y-95819050D01*
G37*
G36*
X142032050Y-95895250D02*
G01*
X141422450Y-95895250D01*
X141422450Y-95869850D01*
X142032050Y-95869850D01*
X142032050Y-95895250D01*
G37*
G36*
X142032050Y-95869850D02*
G01*
X141447850Y-95869850D01*
X141447850Y-95844450D01*
X142032050Y-95844450D01*
X142032050Y-95869850D01*
G37*
G36*
X142006650Y-98359050D02*
G01*
X141676450Y-98359050D01*
X141676450Y-98333650D01*
X142006650Y-98333650D01*
X142006650Y-98359050D01*
G37*
G36*
X142006650Y-95920650D02*
G01*
X141422450Y-95920650D01*
X141422450Y-95895250D01*
X142006650Y-95895250D01*
X142006650Y-95920650D01*
G37*
G36*
X141981250Y-95971450D02*
G01*
X141397050Y-95971450D01*
X141397050Y-95946050D01*
X141981250Y-95946050D01*
X141981250Y-95971450D01*
G37*
G36*
X141981250Y-95946050D02*
G01*
X141397050Y-95946050D01*
X141397050Y-95920650D01*
X141981250Y-95920650D01*
X141981250Y-95946050D01*
G37*
G36*
X141955850Y-96022250D02*
G01*
X141371650Y-96022250D01*
X141371650Y-95996850D01*
X141955850Y-95996850D01*
X141955850Y-96022250D01*
G37*
G36*
X141955850Y-95996850D02*
G01*
X141371650Y-95996850D01*
X141371650Y-95971450D01*
X141955850Y-95971450D01*
X141955850Y-95996850D01*
G37*
G36*
X141930450Y-98333650D02*
G01*
X141651050Y-98333650D01*
X141651050Y-98308250D01*
X141930450Y-98308250D01*
X141930450Y-98333650D01*
G37*
G36*
X141930450Y-96073050D02*
G01*
X141320850Y-96073050D01*
X141320850Y-96047650D01*
X141930450Y-96047650D01*
X141930450Y-96073050D01*
G37*
G36*
X141930450Y-96047650D02*
G01*
X141346250Y-96047650D01*
X141346250Y-96022250D01*
X141930450Y-96022250D01*
X141930450Y-96047650D01*
G37*
G36*
X141905050Y-96098450D02*
G01*
X141320850Y-96098450D01*
X141320850Y-96073050D01*
X141905050Y-96073050D01*
X141905050Y-96098450D01*
G37*
G36*
X141879650Y-96149250D02*
G01*
X141295450Y-96149250D01*
X141295450Y-96123850D01*
X141879650Y-96123850D01*
X141879650Y-96149250D01*
G37*
G36*
X141879650Y-96123850D02*
G01*
X141295450Y-96123850D01*
X141295450Y-96098450D01*
X141879650Y-96098450D01*
X141879650Y-96123850D01*
G37*
G36*
X141854250Y-98308250D02*
G01*
X141651050Y-98308250D01*
X141651050Y-98282850D01*
X141854250Y-98282850D01*
X141854250Y-98308250D01*
G37*
G36*
X141854250Y-96200050D02*
G01*
X141270050Y-96200050D01*
X141270050Y-96174650D01*
X141854250Y-96174650D01*
X141854250Y-96200050D01*
G37*
G36*
X141854250Y-96174650D02*
G01*
X141270050Y-96174650D01*
X141270050Y-96149250D01*
X141854250Y-96149250D01*
X141854250Y-96174650D01*
G37*
G36*
X141828850Y-96250850D02*
G01*
X141219250Y-96250850D01*
X141219250Y-96225450D01*
X141828850Y-96225450D01*
X141828850Y-96250850D01*
G37*
G36*
X141828850Y-96225450D02*
G01*
X141244650Y-96225450D01*
X141244650Y-96200050D01*
X141828850Y-96200050D01*
X141828850Y-96225450D01*
G37*
G36*
X141803450Y-96276250D02*
G01*
X141219250Y-96276250D01*
X141219250Y-96250850D01*
X141803450Y-96250850D01*
X141803450Y-96276250D01*
G37*
G36*
X141778050Y-98282850D02*
G01*
X141625650Y-98282850D01*
X141625650Y-98257450D01*
X141778050Y-98257450D01*
X141778050Y-98282850D01*
G37*
G36*
X141778050Y-96327050D02*
G01*
X141193850Y-96327050D01*
X141193850Y-96301650D01*
X141778050Y-96301650D01*
X141778050Y-96327050D01*
G37*
G36*
X141778050Y-96301650D02*
G01*
X141193850Y-96301650D01*
X141193850Y-96276250D01*
X141778050Y-96276250D01*
X141778050Y-96301650D01*
G37*
G36*
X141752650Y-96377850D02*
G01*
X141168450Y-96377850D01*
X141168450Y-96352450D01*
X141752650Y-96352450D01*
X141752650Y-96377850D01*
G37*
G36*
X141752650Y-96352450D02*
G01*
X141168450Y-96352450D01*
X141168450Y-96327050D01*
X141752650Y-96327050D01*
X141752650Y-96352450D01*
G37*
G36*
X141727250Y-98257450D02*
G01*
X141625650Y-98257450D01*
X141625650Y-98232050D01*
X141727250Y-98232050D01*
X141727250Y-98257450D01*
G37*
G36*
X141727250Y-96428650D02*
G01*
X141143050Y-96428650D01*
X141143050Y-96403250D01*
X141727250Y-96403250D01*
X141727250Y-96428650D01*
G37*
G36*
X141727250Y-96403250D02*
G01*
X141143050Y-96403250D01*
X141143050Y-96377850D01*
X141727250Y-96377850D01*
X141727250Y-96403250D01*
G37*
G36*
X141701850Y-96479450D02*
G01*
X141092250Y-96479450D01*
X141092250Y-96454050D01*
X141701850Y-96454050D01*
X141701850Y-96479450D01*
G37*
G36*
X141701850Y-96454050D02*
G01*
X141117650Y-96454050D01*
X141117650Y-96428650D01*
X141701850Y-96428650D01*
X141701850Y-96454050D01*
G37*
G36*
X141676450Y-96504850D02*
G01*
X141092250Y-96504850D01*
X141092250Y-96479450D01*
X141676450Y-96479450D01*
X141676450Y-96504850D01*
G37*
G36*
X141651050Y-98232050D02*
G01*
X141625650Y-98232050D01*
X141625650Y-98206650D01*
X141651050Y-98206650D01*
X141651050Y-98232050D01*
G37*
G36*
X141651050Y-96555650D02*
G01*
X141066850Y-96555650D01*
X141066850Y-96530250D01*
X141651050Y-96530250D01*
X141651050Y-96555650D01*
G37*
G36*
X141651050Y-96530250D02*
G01*
X141066850Y-96530250D01*
X141066850Y-96504850D01*
X141651050Y-96504850D01*
X141651050Y-96530250D01*
G37*
G36*
X141625650Y-96606450D02*
G01*
X141041450Y-96606450D01*
X141041450Y-96581050D01*
X141625650Y-96581050D01*
X141625650Y-96606450D01*
G37*
G36*
X141625650Y-96581050D02*
G01*
X141041450Y-96581050D01*
X141041450Y-96555650D01*
X141625650Y-96555650D01*
X141625650Y-96581050D01*
G37*
G36*
X141600250Y-96657250D02*
G01*
X140990650Y-96657250D01*
X140990650Y-96631850D01*
X141600250Y-96631850D01*
X141600250Y-96657250D01*
G37*
G36*
X141600250Y-96631850D02*
G01*
X141016050Y-96631850D01*
X141016050Y-96606450D01*
X141600250Y-96606450D01*
X141600250Y-96631850D01*
G37*
G36*
X141574850Y-96682650D02*
G01*
X140990650Y-96682650D01*
X140990650Y-96657250D01*
X141574850Y-96657250D01*
X141574850Y-96682650D01*
G37*
G36*
X141549450Y-96733450D02*
G01*
X140965250Y-96733450D01*
X140965250Y-96708050D01*
X141549450Y-96708050D01*
X141549450Y-96733450D01*
G37*
G36*
X141549450Y-96708050D02*
G01*
X140965250Y-96708050D01*
X140965250Y-96682650D01*
X141549450Y-96682650D01*
X141549450Y-96708050D01*
G37*
G36*
X141524050Y-96784250D02*
G01*
X140939850Y-96784250D01*
X140939850Y-96758850D01*
X141524050Y-96758850D01*
X141524050Y-96784250D01*
G37*
G36*
X141524050Y-96758850D02*
G01*
X140939850Y-96758850D01*
X140939850Y-96733450D01*
X141524050Y-96733450D01*
X141524050Y-96758850D01*
G37*
G36*
X141498650Y-96835050D02*
G01*
X140889050Y-96835050D01*
X140889050Y-96809650D01*
X141498650Y-96809650D01*
X141498650Y-96835050D01*
G37*
G36*
X141498650Y-96809650D02*
G01*
X140914450Y-96809650D01*
X140914450Y-96784250D01*
X141498650Y-96784250D01*
X141498650Y-96809650D01*
G37*
G36*
X141473250Y-96885850D02*
G01*
X140863650Y-96885850D01*
X140863650Y-96860450D01*
X141473250Y-96860450D01*
X141473250Y-96885850D01*
G37*
G36*
X141473250Y-96860450D02*
G01*
X140889050Y-96860450D01*
X140889050Y-96835050D01*
X141473250Y-96835050D01*
X141473250Y-96860450D01*
G37*
G36*
X141447850Y-96911250D02*
G01*
X140863650Y-96911250D01*
X140863650Y-96885850D01*
X141447850Y-96885850D01*
X141447850Y-96911250D01*
G37*
G36*
X141422450Y-96962050D02*
G01*
X140838250Y-96962050D01*
X140838250Y-96936650D01*
X141422450Y-96936650D01*
X141422450Y-96962050D01*
G37*
G36*
X141422450Y-96936650D02*
G01*
X140838250Y-96936650D01*
X140838250Y-96911250D01*
X141422450Y-96911250D01*
X141422450Y-96936650D01*
G37*
G36*
X141397050Y-97012850D02*
G01*
X140812850Y-97012850D01*
X140812850Y-96987450D01*
X141397050Y-96987450D01*
X141397050Y-97012850D01*
G37*
G36*
X141397050Y-96987450D02*
G01*
X140812850Y-96987450D01*
X140812850Y-96962050D01*
X141397050Y-96962050D01*
X141397050Y-96987450D01*
G37*
G36*
X141371650Y-97063650D02*
G01*
X140762050Y-97063650D01*
X140762050Y-97038250D01*
X141371650Y-97038250D01*
X141371650Y-97063650D01*
G37*
G36*
X141371650Y-97038250D02*
G01*
X140787450Y-97038250D01*
X140787450Y-97012850D01*
X141371650Y-97012850D01*
X141371650Y-97038250D01*
G37*
G36*
X141346250Y-97089050D02*
G01*
X140762050Y-97089050D01*
X140762050Y-97063650D01*
X141346250Y-97063650D01*
X141346250Y-97089050D01*
G37*
G36*
X141320850Y-97139850D02*
G01*
X140736650Y-97139850D01*
X140736650Y-97114450D01*
X141320850Y-97114450D01*
X141320850Y-97139850D01*
G37*
G36*
X141320850Y-97114450D02*
G01*
X140736650Y-97114450D01*
X140736650Y-97089050D01*
X141320850Y-97089050D01*
X141320850Y-97114450D01*
G37*
G36*
X141295450Y-97190650D02*
G01*
X140711250Y-97190650D01*
X140711250Y-97165250D01*
X141295450Y-97165250D01*
X141295450Y-97190650D01*
G37*
G36*
X141295450Y-97165250D02*
G01*
X140711250Y-97165250D01*
X140711250Y-97139850D01*
X141295450Y-97139850D01*
X141295450Y-97165250D01*
G37*
G36*
X141270050Y-97241450D02*
G01*
X140660450Y-97241450D01*
X140660450Y-97216050D01*
X141270050Y-97216050D01*
X141270050Y-97241450D01*
G37*
G36*
X141270050Y-97216050D02*
G01*
X140685850Y-97216050D01*
X140685850Y-97190650D01*
X141270050Y-97190650D01*
X141270050Y-97216050D01*
G37*
G36*
X141244650Y-97266850D02*
G01*
X140660450Y-97266850D01*
X140660450Y-97241450D01*
X141244650Y-97241450D01*
X141244650Y-97266850D01*
G37*
G36*
X141219250Y-97317650D02*
G01*
X140635050Y-97317650D01*
X140635050Y-97292250D01*
X141219250Y-97292250D01*
X141219250Y-97317650D01*
G37*
G36*
X141219250Y-97292250D02*
G01*
X140635050Y-97292250D01*
X140635050Y-97266850D01*
X141219250Y-97266850D01*
X141219250Y-97292250D01*
G37*
G36*
X141193850Y-97368450D02*
G01*
X140609650Y-97368450D01*
X140609650Y-97343050D01*
X141193850Y-97343050D01*
X141193850Y-97368450D01*
G37*
G36*
X141193850Y-97343050D02*
G01*
X140609650Y-97343050D01*
X140609650Y-97317650D01*
X141193850Y-97317650D01*
X141193850Y-97343050D01*
G37*
G36*
X141168450Y-97419250D02*
G01*
X140584250Y-97419250D01*
X140584250Y-97393850D01*
X141168450Y-97393850D01*
X141168450Y-97419250D01*
G37*
G36*
X141168450Y-97393850D02*
G01*
X140584250Y-97393850D01*
X140584250Y-97368450D01*
X141168450Y-97368450D01*
X141168450Y-97393850D01*
G37*
G36*
X141143050Y-97470050D02*
G01*
X140533450Y-97470050D01*
X140533450Y-97444650D01*
X141143050Y-97444650D01*
X141143050Y-97470050D01*
G37*
G36*
X141143050Y-97444650D02*
G01*
X140558850Y-97444650D01*
X140558850Y-97419250D01*
X141143050Y-97419250D01*
X141143050Y-97444650D01*
G37*
G36*
X141117650Y-97495450D02*
G01*
X140533450Y-97495450D01*
X140533450Y-97470050D01*
X141117650Y-97470050D01*
X141117650Y-97495450D01*
G37*
G36*
X141092250Y-97546250D02*
G01*
X140508050Y-97546250D01*
X140508050Y-97520850D01*
X141092250Y-97520850D01*
X141092250Y-97546250D01*
G37*
G36*
X141092250Y-97520850D02*
G01*
X140508050Y-97520850D01*
X140508050Y-97495450D01*
X141092250Y-97495450D01*
X141092250Y-97520850D01*
G37*
G36*
X141066850Y-97597050D02*
G01*
X140482650Y-97597050D01*
X140482650Y-97571650D01*
X141066850Y-97571650D01*
X141066850Y-97597050D01*
G37*
G36*
X141066850Y-97571650D02*
G01*
X140482650Y-97571650D01*
X140482650Y-97546250D01*
X141066850Y-97546250D01*
X141066850Y-97571650D01*
G37*
G36*
X141041450Y-97647850D02*
G01*
X140431850Y-97647850D01*
X140431850Y-97622450D01*
X141041450Y-97622450D01*
X141041450Y-97647850D01*
G37*
G36*
X141041450Y-97622450D02*
G01*
X140457250Y-97622450D01*
X140457250Y-97597050D01*
X141041450Y-97597050D01*
X141041450Y-97622450D01*
G37*
G36*
X141016050Y-97673250D02*
G01*
X140431850Y-97673250D01*
X140431850Y-97647850D01*
X141016050Y-97647850D01*
X141016050Y-97673250D01*
G37*
G36*
X140990650Y-97724050D02*
G01*
X140406450Y-97724050D01*
X140406450Y-97698650D01*
X140990650Y-97698650D01*
X140990650Y-97724050D01*
G37*
G36*
X140990650Y-97698650D02*
G01*
X140406450Y-97698650D01*
X140406450Y-97673250D01*
X140990650Y-97673250D01*
X140990650Y-97698650D01*
G37*
G36*
X140965250Y-97774850D02*
G01*
X140381050Y-97774850D01*
X140381050Y-97749450D01*
X140965250Y-97749450D01*
X140965250Y-97774850D01*
G37*
G36*
X140965250Y-97749450D02*
G01*
X140381050Y-97749450D01*
X140381050Y-97724050D01*
X140965250Y-97724050D01*
X140965250Y-97749450D01*
G37*
G36*
X140939850Y-97825650D02*
G01*
X140330250Y-97825650D01*
X140330250Y-97800250D01*
X140939850Y-97800250D01*
X140939850Y-97825650D01*
G37*
G36*
X140939850Y-97800250D02*
G01*
X140355650Y-97800250D01*
X140355650Y-97774850D01*
X140939850Y-97774850D01*
X140939850Y-97800250D01*
G37*
G36*
X140914450Y-97851050D02*
G01*
X140330250Y-97851050D01*
X140330250Y-97825650D01*
X140914450Y-97825650D01*
X140914450Y-97851050D01*
G37*
G36*
X140889050Y-97901850D02*
G01*
X140304850Y-97901850D01*
X140304850Y-97876450D01*
X140889050Y-97876450D01*
X140889050Y-97901850D01*
G37*
G36*
X140889050Y-97876450D02*
G01*
X140304850Y-97876450D01*
X140304850Y-97851050D01*
X140889050Y-97851050D01*
X140889050Y-97876450D01*
G37*
G36*
X140863650Y-97952650D02*
G01*
X140279450Y-97952650D01*
X140279450Y-97927250D01*
X140863650Y-97927250D01*
X140863650Y-97952650D01*
G37*
G36*
X140863650Y-97927250D02*
G01*
X140279450Y-97927250D01*
X140279450Y-97901850D01*
X140863650Y-97901850D01*
X140863650Y-97927250D01*
G37*
G36*
X140838250Y-98003450D02*
G01*
X140254050Y-98003450D01*
X140254050Y-97978050D01*
X140838250Y-97978050D01*
X140838250Y-98003450D01*
G37*
G36*
X140838250Y-97978050D02*
G01*
X140254050Y-97978050D01*
X140254050Y-97952650D01*
X140838250Y-97952650D01*
X140838250Y-97978050D01*
G37*
G36*
X140812850Y-98054250D02*
G01*
X140203250Y-98054250D01*
X140203250Y-98028850D01*
X140812850Y-98028850D01*
X140812850Y-98054250D01*
G37*
G36*
X140812850Y-98028850D02*
G01*
X140228650Y-98028850D01*
X140228650Y-98003450D01*
X140812850Y-98003450D01*
X140812850Y-98028850D01*
G37*
G36*
X140787450Y-98079650D02*
G01*
X140203250Y-98079650D01*
X140203250Y-98054250D01*
X140787450Y-98054250D01*
X140787450Y-98079650D01*
G37*
G36*
X140762050Y-98130450D02*
G01*
X140177850Y-98130450D01*
X140177850Y-98105050D01*
X140762050Y-98105050D01*
X140762050Y-98130450D01*
G37*
G36*
X140762050Y-98105050D02*
G01*
X140177850Y-98105050D01*
X140177850Y-98079650D01*
X140762050Y-98079650D01*
X140762050Y-98105050D01*
G37*
G36*
X140736650Y-98181250D02*
G01*
X140152450Y-98181250D01*
X140152450Y-98155850D01*
X140736650Y-98155850D01*
X140736650Y-98181250D01*
G37*
G36*
X140736650Y-98155850D02*
G01*
X140152450Y-98155850D01*
X140152450Y-98130450D01*
X140736650Y-98130450D01*
X140736650Y-98155850D01*
G37*
G36*
X140711250Y-98232050D02*
G01*
X140101650Y-98232050D01*
X140101650Y-98206650D01*
X140711250Y-98206650D01*
X140711250Y-98232050D01*
G37*
G36*
X140711250Y-98206650D02*
G01*
X140127050Y-98206650D01*
X140127050Y-98181250D01*
X140711250Y-98181250D01*
X140711250Y-98206650D01*
G37*
G36*
X140685850Y-98257450D02*
G01*
X140101650Y-98257450D01*
X140101650Y-98232050D01*
X140685850Y-98232050D01*
X140685850Y-98257450D01*
G37*
G36*
X140660450Y-98308250D02*
G01*
X140076250Y-98308250D01*
X140076250Y-98282850D01*
X140660450Y-98282850D01*
X140660450Y-98308250D01*
G37*
G36*
X140660450Y-98282850D02*
G01*
X140076250Y-98282850D01*
X140076250Y-98257450D01*
X140660450Y-98257450D01*
X140660450Y-98282850D01*
G37*
G36*
X140635050Y-98359050D02*
G01*
X140050850Y-98359050D01*
X140050850Y-98333650D01*
X140635050Y-98333650D01*
X140635050Y-98359050D01*
G37*
G36*
X140635050Y-98333650D02*
G01*
X140050850Y-98333650D01*
X140050850Y-98308250D01*
X140635050Y-98308250D01*
X140635050Y-98333650D01*
G37*
G36*
X140609650Y-98409850D02*
G01*
X140025450Y-98409850D01*
X140025450Y-98384450D01*
X140609650Y-98384450D01*
X140609650Y-98409850D01*
G37*
G36*
X140609650Y-98384450D02*
G01*
X140025450Y-98384450D01*
X140025450Y-98359050D01*
X140609650Y-98359050D01*
X140609650Y-98384450D01*
G37*
G36*
X140584250Y-98460650D02*
G01*
X139974650Y-98460650D01*
X139974650Y-98435250D01*
X140584250Y-98435250D01*
X140584250Y-98460650D01*
G37*
G36*
X140584250Y-98435250D02*
G01*
X140000050Y-98435250D01*
X140000050Y-98409850D01*
X140584250Y-98409850D01*
X140584250Y-98435250D01*
G37*
G36*
X140558850Y-98486050D02*
G01*
X139974650Y-98486050D01*
X139974650Y-98460650D01*
X140558850Y-98460650D01*
X140558850Y-98486050D01*
G37*
G36*
X140533450Y-98536850D02*
G01*
X139949250Y-98536850D01*
X139949250Y-98511450D01*
X140533450Y-98511450D01*
X140533450Y-98536850D01*
G37*
G36*
X140533450Y-98511450D02*
G01*
X139949250Y-98511450D01*
X139949250Y-98486050D01*
X140533450Y-98486050D01*
X140533450Y-98511450D01*
G37*
G36*
X140508050Y-98587650D02*
G01*
X139923850Y-98587650D01*
X139923850Y-98562250D01*
X140508050Y-98562250D01*
X140508050Y-98587650D01*
G37*
G36*
X140508050Y-98562250D02*
G01*
X139923850Y-98562250D01*
X139923850Y-98536850D01*
X140508050Y-98536850D01*
X140508050Y-98562250D01*
G37*
G36*
X140482650Y-98638450D02*
G01*
X139873050Y-98638450D01*
X139873050Y-98613050D01*
X140482650Y-98613050D01*
X140482650Y-98638450D01*
G37*
G36*
X140482650Y-98613050D02*
G01*
X139898450Y-98613050D01*
X139898450Y-98587650D01*
X140482650Y-98587650D01*
X140482650Y-98613050D01*
G37*
G36*
X140457250Y-98663850D02*
G01*
X139873050Y-98663850D01*
X139873050Y-98638450D01*
X140457250Y-98638450D01*
X140457250Y-98663850D01*
G37*
G36*
X140431850Y-98714650D02*
G01*
X139847650Y-98714650D01*
X139847650Y-98689250D01*
X140431850Y-98689250D01*
X140431850Y-98714650D01*
G37*
G36*
X140431850Y-98689250D02*
G01*
X139847650Y-98689250D01*
X139847650Y-98663850D01*
X140431850Y-98663850D01*
X140431850Y-98689250D01*
G37*
G36*
X140406450Y-98765450D02*
G01*
X139822250Y-98765450D01*
X139822250Y-98740050D01*
X140406450Y-98740050D01*
X140406450Y-98765450D01*
G37*
G36*
X140406450Y-98740050D02*
G01*
X139822250Y-98740050D01*
X139822250Y-98714650D01*
X140406450Y-98714650D01*
X140406450Y-98740050D01*
G37*
G36*
X140381050Y-98816250D02*
G01*
X139771450Y-98816250D01*
X139771450Y-98790850D01*
X140381050Y-98790850D01*
X140381050Y-98816250D01*
G37*
G36*
X140381050Y-98790850D02*
G01*
X139796850Y-98790850D01*
X139796850Y-98765450D01*
X140381050Y-98765450D01*
X140381050Y-98790850D01*
G37*
G36*
X140355650Y-98841650D02*
G01*
X139771450Y-98841650D01*
X139771450Y-98816250D01*
X140355650Y-98816250D01*
X140355650Y-98841650D01*
G37*
G36*
X140330250Y-98892450D02*
G01*
X139746050Y-98892450D01*
X139746050Y-98867050D01*
X140330250Y-98867050D01*
X140330250Y-98892450D01*
G37*
G36*
X140330250Y-98867050D02*
G01*
X139746050Y-98867050D01*
X139746050Y-98841650D01*
X140330250Y-98841650D01*
X140330250Y-98867050D01*
G37*
G36*
X140304850Y-98943250D02*
G01*
X139720650Y-98943250D01*
X139720650Y-98917850D01*
X140304850Y-98917850D01*
X140304850Y-98943250D01*
G37*
G36*
X140304850Y-98917850D02*
G01*
X139720650Y-98917850D01*
X139720650Y-98892450D01*
X140304850Y-98892450D01*
X140304850Y-98917850D01*
G37*
G36*
X140279450Y-98994050D02*
G01*
X139695250Y-98994050D01*
X139695250Y-98968650D01*
X140279450Y-98968650D01*
X140279450Y-98994050D01*
G37*
G36*
X140279450Y-98968650D02*
G01*
X139695250Y-98968650D01*
X139695250Y-98943250D01*
X140279450Y-98943250D01*
X140279450Y-98968650D01*
G37*
G36*
X140254050Y-99044850D02*
G01*
X139644450Y-99044850D01*
X139644450Y-99019450D01*
X140254050Y-99019450D01*
X140254050Y-99044850D01*
G37*
G36*
X140254050Y-99019450D02*
G01*
X139669850Y-99019450D01*
X139669850Y-98994050D01*
X140254050Y-98994050D01*
X140254050Y-99019450D01*
G37*
G36*
X140228650Y-99070250D02*
G01*
X139644450Y-99070250D01*
X139644450Y-99044850D01*
X140228650Y-99044850D01*
X140228650Y-99070250D01*
G37*
G36*
X140203250Y-99121050D02*
G01*
X139619050Y-99121050D01*
X139619050Y-99095650D01*
X140203250Y-99095650D01*
X140203250Y-99121050D01*
G37*
G36*
X140203250Y-99095650D02*
G01*
X139619050Y-99095650D01*
X139619050Y-99070250D01*
X140203250Y-99070250D01*
X140203250Y-99095650D01*
G37*
G36*
X140177850Y-99171850D02*
G01*
X139593650Y-99171850D01*
X139593650Y-99146450D01*
X140177850Y-99146450D01*
X140177850Y-99171850D01*
G37*
G36*
X140177850Y-99146450D02*
G01*
X139593650Y-99146450D01*
X139593650Y-99121050D01*
X140177850Y-99121050D01*
X140177850Y-99146450D01*
G37*
G36*
X140152450Y-99222650D02*
G01*
X139542850Y-99222650D01*
X139542850Y-99197250D01*
X140152450Y-99197250D01*
X140152450Y-99222650D01*
G37*
G36*
X140152450Y-99197250D02*
G01*
X139568250Y-99197250D01*
X139568250Y-99171850D01*
X140152450Y-99171850D01*
X140152450Y-99197250D01*
G37*
G36*
X140127050Y-99248050D02*
G01*
X139542850Y-99248050D01*
X139542850Y-99222650D01*
X140127050Y-99222650D01*
X140127050Y-99248050D01*
G37*
G36*
X140101650Y-99298850D02*
G01*
X139517450Y-99298850D01*
X139517450Y-99273450D01*
X140101650Y-99273450D01*
X140101650Y-99298850D01*
G37*
G36*
X140101650Y-99273450D02*
G01*
X139517450Y-99273450D01*
X139517450Y-99248050D01*
X140101650Y-99248050D01*
X140101650Y-99273450D01*
G37*
G36*
X140076250Y-99349650D02*
G01*
X139492050Y-99349650D01*
X139492050Y-99324250D01*
X140076250Y-99324250D01*
X140076250Y-99349650D01*
G37*
G36*
X140076250Y-99324250D02*
G01*
X139492050Y-99324250D01*
X139492050Y-99298850D01*
X140076250Y-99298850D01*
X140076250Y-99324250D01*
G37*
G36*
X140050850Y-99400450D02*
G01*
X139466650Y-99400450D01*
X139466650Y-99375050D01*
X140050850Y-99375050D01*
X140050850Y-99400450D01*
G37*
G36*
X140050850Y-99375050D02*
G01*
X139466650Y-99375050D01*
X139466650Y-99349650D01*
X140050850Y-99349650D01*
X140050850Y-99375050D01*
G37*
G36*
X140025450Y-99451250D02*
G01*
X139415850Y-99451250D01*
X139415850Y-99425850D01*
X140025450Y-99425850D01*
X140025450Y-99451250D01*
G37*
G36*
X140025450Y-99425850D02*
G01*
X139441250Y-99425850D01*
X139441250Y-99400450D01*
X140025450Y-99400450D01*
X140025450Y-99425850D01*
G37*
G36*
X140000050Y-99476650D02*
G01*
X139415850Y-99476650D01*
X139415850Y-99451250D01*
X140000050Y-99451250D01*
X140000050Y-99476650D01*
G37*
G36*
X139974650Y-99527450D02*
G01*
X139390450Y-99527450D01*
X139390450Y-99502050D01*
X139974650Y-99502050D01*
X139974650Y-99527450D01*
G37*
G36*
X139974650Y-99502050D02*
G01*
X139390450Y-99502050D01*
X139390450Y-99476650D01*
X139974650Y-99476650D01*
X139974650Y-99502050D01*
G37*
G36*
X139949250Y-99578250D02*
G01*
X139365050Y-99578250D01*
X139365050Y-99552850D01*
X139949250Y-99552850D01*
X139949250Y-99578250D01*
G37*
G36*
X139949250Y-99552850D02*
G01*
X139365050Y-99552850D01*
X139365050Y-99527450D01*
X139949250Y-99527450D01*
X139949250Y-99552850D01*
G37*
G36*
X139923850Y-99629050D02*
G01*
X139314250Y-99629050D01*
X139314250Y-99603650D01*
X139923850Y-99603650D01*
X139923850Y-99629050D01*
G37*
G36*
X139923850Y-99603650D02*
G01*
X139339650Y-99603650D01*
X139339650Y-99578250D01*
X139923850Y-99578250D01*
X139923850Y-99603650D01*
G37*
G36*
X139898450Y-99654450D02*
G01*
X139314250Y-99654450D01*
X139314250Y-99629050D01*
X139898450Y-99629050D01*
X139898450Y-99654450D01*
G37*
G36*
X139873050Y-99705250D02*
G01*
X139288850Y-99705250D01*
X139288850Y-99679850D01*
X139873050Y-99679850D01*
X139873050Y-99705250D01*
G37*
G36*
X139873050Y-99679850D02*
G01*
X139288850Y-99679850D01*
X139288850Y-99654450D01*
X139873050Y-99654450D01*
X139873050Y-99679850D01*
G37*
G36*
X139847650Y-99756050D02*
G01*
X139263450Y-99756050D01*
X139263450Y-99730650D01*
X139847650Y-99730650D01*
X139847650Y-99756050D01*
G37*
G36*
X139847650Y-99730650D02*
G01*
X139263450Y-99730650D01*
X139263450Y-99705250D01*
X139847650Y-99705250D01*
X139847650Y-99730650D01*
G37*
G36*
X139822250Y-99806850D02*
G01*
X139212650Y-99806850D01*
X139212650Y-99781450D01*
X139822250Y-99781450D01*
X139822250Y-99806850D01*
G37*
G36*
X139822250Y-99781450D02*
G01*
X139238050Y-99781450D01*
X139238050Y-99756050D01*
X139822250Y-99756050D01*
X139822250Y-99781450D01*
G37*
G36*
X139796850Y-99832250D02*
G01*
X139212650Y-99832250D01*
X139212650Y-99806850D01*
X139796850Y-99806850D01*
X139796850Y-99832250D01*
G37*
G36*
X139771450Y-99883050D02*
G01*
X139187250Y-99883050D01*
X139187250Y-99857650D01*
X139771450Y-99857650D01*
X139771450Y-99883050D01*
G37*
G36*
X139771450Y-99857650D02*
G01*
X139187250Y-99857650D01*
X139187250Y-99832250D01*
X139771450Y-99832250D01*
X139771450Y-99857650D01*
G37*
G36*
X139746050Y-99933850D02*
G01*
X139161850Y-99933850D01*
X139161850Y-99908450D01*
X139746050Y-99908450D01*
X139746050Y-99933850D01*
G37*
G36*
X139746050Y-99908450D02*
G01*
X139161850Y-99908450D01*
X139161850Y-99883050D01*
X139746050Y-99883050D01*
X139746050Y-99908450D01*
G37*
G36*
X139720650Y-99984650D02*
G01*
X139136450Y-99984650D01*
X139136450Y-99959250D01*
X139720650Y-99959250D01*
X139720650Y-99984650D01*
G37*
G36*
X139720650Y-99959250D02*
G01*
X139136450Y-99959250D01*
X139136450Y-99933850D01*
X139720650Y-99933850D01*
X139720650Y-99959250D01*
G37*
G36*
X139695250Y-100035450D02*
G01*
X139085650Y-100035450D01*
X139085650Y-100010050D01*
X139695250Y-100010050D01*
X139695250Y-100035450D01*
G37*
G36*
X139695250Y-100010050D02*
G01*
X139111050Y-100010050D01*
X139111050Y-99984650D01*
X139695250Y-99984650D01*
X139695250Y-100010050D01*
G37*
G36*
X139669850Y-100060850D02*
G01*
X139085650Y-100060850D01*
X139085650Y-100035450D01*
X139669850Y-100035450D01*
X139669850Y-100060850D01*
G37*
G36*
X139644450Y-100111650D02*
G01*
X139060250Y-100111650D01*
X139060250Y-100086250D01*
X139644450Y-100086250D01*
X139644450Y-100111650D01*
G37*
G36*
X139644450Y-100086250D02*
G01*
X139060250Y-100086250D01*
X139060250Y-100060850D01*
X139644450Y-100060850D01*
X139644450Y-100086250D01*
G37*
G36*
X139619050Y-100162450D02*
G01*
X139034850Y-100162450D01*
X139034850Y-100137050D01*
X139619050Y-100137050D01*
X139619050Y-100162450D01*
G37*
G36*
X139619050Y-100137050D02*
G01*
X139034850Y-100137050D01*
X139034850Y-100111650D01*
X139619050Y-100111650D01*
X139619050Y-100137050D01*
G37*
G36*
X139593650Y-100213250D02*
G01*
X138984050Y-100213250D01*
X138984050Y-100187850D01*
X139593650Y-100187850D01*
X139593650Y-100213250D01*
G37*
G36*
X139593650Y-100187850D02*
G01*
X139009450Y-100187850D01*
X139009450Y-100162450D01*
X139593650Y-100162450D01*
X139593650Y-100187850D01*
G37*
G36*
X139568250Y-100238650D02*
G01*
X138984050Y-100238650D01*
X138984050Y-100213250D01*
X139568250Y-100213250D01*
X139568250Y-100238650D01*
G37*
G36*
X139542850Y-100289450D02*
G01*
X138958650Y-100289450D01*
X138958650Y-100264050D01*
X139542850Y-100264050D01*
X139542850Y-100289450D01*
G37*
G36*
X139542850Y-100264050D02*
G01*
X138958650Y-100264050D01*
X138958650Y-100238650D01*
X139542850Y-100238650D01*
X139542850Y-100264050D01*
G37*
G36*
X139517450Y-100340250D02*
G01*
X138933250Y-100340250D01*
X138933250Y-100314850D01*
X139517450Y-100314850D01*
X139517450Y-100340250D01*
G37*
G36*
X139517450Y-100314850D02*
G01*
X138933250Y-100314850D01*
X138933250Y-100289450D01*
X139517450Y-100289450D01*
X139517450Y-100314850D01*
G37*
G36*
X139492050Y-100391050D02*
G01*
X138907850Y-100391050D01*
X138907850Y-100365650D01*
X139492050Y-100365650D01*
X139492050Y-100391050D01*
G37*
G36*
X139492050Y-100365650D02*
G01*
X138907850Y-100365650D01*
X138907850Y-100340250D01*
X139492050Y-100340250D01*
X139492050Y-100365650D01*
G37*
G36*
X139466650Y-100441850D02*
G01*
X138857050Y-100441850D01*
X138857050Y-100416450D01*
X139466650Y-100416450D01*
X139466650Y-100441850D01*
G37*
G36*
X139466650Y-100416450D02*
G01*
X138882450Y-100416450D01*
X138882450Y-100391050D01*
X139466650Y-100391050D01*
X139466650Y-100416450D01*
G37*
G36*
X139441250Y-100467250D02*
G01*
X138857050Y-100467250D01*
X138857050Y-100441850D01*
X139441250Y-100441850D01*
X139441250Y-100467250D01*
G37*
G36*
X139415850Y-100518050D02*
G01*
X138831650Y-100518050D01*
X138831650Y-100492650D01*
X139415850Y-100492650D01*
X139415850Y-100518050D01*
G37*
G36*
X139415850Y-100492650D02*
G01*
X138831650Y-100492650D01*
X138831650Y-100467250D01*
X139415850Y-100467250D01*
X139415850Y-100492650D01*
G37*
G36*
X139390450Y-100568850D02*
G01*
X138806250Y-100568850D01*
X138806250Y-100543450D01*
X139390450Y-100543450D01*
X139390450Y-100568850D01*
G37*
G36*
X139390450Y-100543450D02*
G01*
X138806250Y-100543450D01*
X138806250Y-100518050D01*
X139390450Y-100518050D01*
X139390450Y-100543450D01*
G37*
G36*
X139365050Y-100619650D02*
G01*
X138755450Y-100619650D01*
X138755450Y-100594250D01*
X139365050Y-100594250D01*
X139365050Y-100619650D01*
G37*
G36*
X139365050Y-100594250D02*
G01*
X138780850Y-100594250D01*
X138780850Y-100568850D01*
X139365050Y-100568850D01*
X139365050Y-100594250D01*
G37*
G36*
X139339650Y-100645050D02*
G01*
X138755450Y-100645050D01*
X138755450Y-100619650D01*
X139339650Y-100619650D01*
X139339650Y-100645050D01*
G37*
G36*
X139314250Y-100695850D02*
G01*
X138730050Y-100695850D01*
X138730050Y-100670450D01*
X139314250Y-100670450D01*
X139314250Y-100695850D01*
G37*
G36*
X139314250Y-100670450D02*
G01*
X138730050Y-100670450D01*
X138730050Y-100645050D01*
X139314250Y-100645050D01*
X139314250Y-100670450D01*
G37*
G36*
X139288850Y-100746650D02*
G01*
X138704650Y-100746650D01*
X138704650Y-100721250D01*
X139288850Y-100721250D01*
X139288850Y-100746650D01*
G37*
G36*
X139288850Y-100721250D02*
G01*
X138704650Y-100721250D01*
X138704650Y-100695850D01*
X139288850Y-100695850D01*
X139288850Y-100721250D01*
G37*
G36*
X139263450Y-100797450D02*
G01*
X138653850Y-100797450D01*
X138653850Y-100772050D01*
X139263450Y-100772050D01*
X139263450Y-100797450D01*
G37*
G36*
X139263450Y-100772050D02*
G01*
X138679250Y-100772050D01*
X138679250Y-100746650D01*
X139263450Y-100746650D01*
X139263450Y-100772050D01*
G37*
G36*
X139238050Y-100822850D02*
G01*
X138653850Y-100822850D01*
X138653850Y-100797450D01*
X139238050Y-100797450D01*
X139238050Y-100822850D01*
G37*
G36*
X139212650Y-100873650D02*
G01*
X138628450Y-100873650D01*
X138628450Y-100848250D01*
X139212650Y-100848250D01*
X139212650Y-100873650D01*
G37*
G36*
X139212650Y-100848250D02*
G01*
X138628450Y-100848250D01*
X138628450Y-100822850D01*
X139212650Y-100822850D01*
X139212650Y-100848250D01*
G37*
G36*
X139187250Y-100924450D02*
G01*
X138603050Y-100924450D01*
X138603050Y-100899050D01*
X139187250Y-100899050D01*
X139187250Y-100924450D01*
G37*
G36*
X139187250Y-100899050D02*
G01*
X138603050Y-100899050D01*
X138603050Y-100873650D01*
X139187250Y-100873650D01*
X139187250Y-100899050D01*
G37*
G36*
X139161850Y-100975250D02*
G01*
X138577650Y-100975250D01*
X138577650Y-100949850D01*
X139161850Y-100949850D01*
X139161850Y-100975250D01*
G37*
G36*
X139161850Y-100949850D02*
G01*
X138577650Y-100949850D01*
X138577650Y-100924450D01*
X139161850Y-100924450D01*
X139161850Y-100949850D01*
G37*
G36*
X139136450Y-101026050D02*
G01*
X138526850Y-101026050D01*
X138526850Y-101000650D01*
X139136450Y-101000650D01*
X139136450Y-101026050D01*
G37*
G36*
X139136450Y-101000650D02*
G01*
X138552250Y-101000650D01*
X138552250Y-100975250D01*
X139136450Y-100975250D01*
X139136450Y-101000650D01*
G37*
G36*
X139111050Y-101051450D02*
G01*
X138526850Y-101051450D01*
X138526850Y-101026050D01*
X139111050Y-101026050D01*
X139111050Y-101051450D01*
G37*
G36*
X139085650Y-101102250D02*
G01*
X138501450Y-101102250D01*
X138501450Y-101076850D01*
X139085650Y-101076850D01*
X139085650Y-101102250D01*
G37*
G36*
X139085650Y-101076850D02*
G01*
X138501450Y-101076850D01*
X138501450Y-101051450D01*
X139085650Y-101051450D01*
X139085650Y-101076850D01*
G37*
G36*
X139060250Y-101153050D02*
G01*
X138476050Y-101153050D01*
X138476050Y-101127650D01*
X139060250Y-101127650D01*
X139060250Y-101153050D01*
G37*
G36*
X139060250Y-101127650D02*
G01*
X138476050Y-101127650D01*
X138476050Y-101102250D01*
X139060250Y-101102250D01*
X139060250Y-101127650D01*
G37*
G36*
X139034850Y-101203850D02*
G01*
X138425250Y-101203850D01*
X138425250Y-101178450D01*
X139034850Y-101178450D01*
X139034850Y-101203850D01*
G37*
G36*
X139034850Y-101178450D02*
G01*
X138450650Y-101178450D01*
X138450650Y-101153050D01*
X139034850Y-101153050D01*
X139034850Y-101178450D01*
G37*
G36*
X139009450Y-101229250D02*
G01*
X138425250Y-101229250D01*
X138425250Y-101203850D01*
X139009450Y-101203850D01*
X139009450Y-101229250D01*
G37*
G36*
X138984050Y-101280050D02*
G01*
X138399850Y-101280050D01*
X138399850Y-101254650D01*
X138984050Y-101254650D01*
X138984050Y-101280050D01*
G37*
G36*
X138984050Y-101254650D02*
G01*
X138399850Y-101254650D01*
X138399850Y-101229250D01*
X138984050Y-101229250D01*
X138984050Y-101254650D01*
G37*
G36*
X138958650Y-101330850D02*
G01*
X138374450Y-101330850D01*
X138374450Y-101305450D01*
X138958650Y-101305450D01*
X138958650Y-101330850D01*
G37*
G36*
X138958650Y-101305450D02*
G01*
X138374450Y-101305450D01*
X138374450Y-101280050D01*
X138958650Y-101280050D01*
X138958650Y-101305450D01*
G37*
G36*
X138933250Y-101381650D02*
G01*
X138323650Y-101381650D01*
X138323650Y-101356250D01*
X138933250Y-101356250D01*
X138933250Y-101381650D01*
G37*
G36*
X138933250Y-101356250D02*
G01*
X138349050Y-101356250D01*
X138349050Y-101330850D01*
X138933250Y-101330850D01*
X138933250Y-101356250D01*
G37*
G36*
X138907850Y-101432450D02*
G01*
X138298250Y-101432450D01*
X138298250Y-101407050D01*
X138907850Y-101407050D01*
X138907850Y-101432450D01*
G37*
G36*
X138907850Y-101407050D02*
G01*
X138323650Y-101407050D01*
X138323650Y-101381650D01*
X138907850Y-101381650D01*
X138907850Y-101407050D01*
G37*
G36*
X138882450Y-101457850D02*
G01*
X138298250Y-101457850D01*
X138298250Y-101432450D01*
X138882450Y-101432450D01*
X138882450Y-101457850D01*
G37*
G36*
X138857050Y-101508650D02*
G01*
X138272850Y-101508650D01*
X138272850Y-101483250D01*
X138857050Y-101483250D01*
X138857050Y-101508650D01*
G37*
G36*
X138857050Y-101483250D02*
G01*
X138272850Y-101483250D01*
X138272850Y-101457850D01*
X138857050Y-101457850D01*
X138857050Y-101483250D01*
G37*
G36*
X138831650Y-101559450D02*
G01*
X138247450Y-101559450D01*
X138247450Y-101534050D01*
X138831650Y-101534050D01*
X138831650Y-101559450D01*
G37*
G36*
X138831650Y-101534050D02*
G01*
X138247450Y-101534050D01*
X138247450Y-101508650D01*
X138831650Y-101508650D01*
X138831650Y-101534050D01*
G37*
G36*
X138806250Y-101610250D02*
G01*
X138196650Y-101610250D01*
X138196650Y-101584850D01*
X138806250Y-101584850D01*
X138806250Y-101610250D01*
G37*
G36*
X138806250Y-101584850D02*
G01*
X138222050Y-101584850D01*
X138222050Y-101559450D01*
X138806250Y-101559450D01*
X138806250Y-101584850D01*
G37*
G36*
X138780850Y-101635650D02*
G01*
X138196650Y-101635650D01*
X138196650Y-101610250D01*
X138780850Y-101610250D01*
X138780850Y-101635650D01*
G37*
G36*
X138755450Y-101686450D02*
G01*
X138171250Y-101686450D01*
X138171250Y-101661050D01*
X138755450Y-101661050D01*
X138755450Y-101686450D01*
G37*
G36*
X138755450Y-101661050D02*
G01*
X138171250Y-101661050D01*
X138171250Y-101635650D01*
X138755450Y-101635650D01*
X138755450Y-101661050D01*
G37*
G36*
X138730050Y-101737250D02*
G01*
X138145850Y-101737250D01*
X138145850Y-101711850D01*
X138730050Y-101711850D01*
X138730050Y-101737250D01*
G37*
G36*
X138730050Y-101711850D02*
G01*
X138145850Y-101711850D01*
X138145850Y-101686450D01*
X138730050Y-101686450D01*
X138730050Y-101711850D01*
G37*
G36*
X138704650Y-101788050D02*
G01*
X138095050Y-101788050D01*
X138095050Y-101762650D01*
X138704650Y-101762650D01*
X138704650Y-101788050D01*
G37*
G36*
X138704650Y-101762650D02*
G01*
X138120450Y-101762650D01*
X138120450Y-101737250D01*
X138704650Y-101737250D01*
X138704650Y-101762650D01*
G37*
G36*
X138679250Y-101813450D02*
G01*
X138095050Y-101813450D01*
X138095050Y-101788050D01*
X138679250Y-101788050D01*
X138679250Y-101813450D01*
G37*
G36*
X138653850Y-101864250D02*
G01*
X138069650Y-101864250D01*
X138069650Y-101838850D01*
X138653850Y-101838850D01*
X138653850Y-101864250D01*
G37*
G36*
X138653850Y-101838850D02*
G01*
X138069650Y-101838850D01*
X138069650Y-101813450D01*
X138653850Y-101813450D01*
X138653850Y-101838850D01*
G37*
G36*
X138628450Y-101915050D02*
G01*
X138044250Y-101915050D01*
X138044250Y-101889650D01*
X138628450Y-101889650D01*
X138628450Y-101915050D01*
G37*
G36*
X138628450Y-101889650D02*
G01*
X138044250Y-101889650D01*
X138044250Y-101864250D01*
X138628450Y-101864250D01*
X138628450Y-101889650D01*
G37*
G36*
X138603050Y-101965850D02*
G01*
X138018850Y-101965850D01*
X138018850Y-101940450D01*
X138603050Y-101940450D01*
X138603050Y-101965850D01*
G37*
G36*
X138603050Y-101940450D02*
G01*
X138018850Y-101940450D01*
X138018850Y-101915050D01*
X138603050Y-101915050D01*
X138603050Y-101940450D01*
G37*
G36*
X138577650Y-102016650D02*
G01*
X137968050Y-102016650D01*
X137968050Y-101991250D01*
X138577650Y-101991250D01*
X138577650Y-102016650D01*
G37*
G36*
X138577650Y-101991250D02*
G01*
X137993450Y-101991250D01*
X137993450Y-101965850D01*
X138577650Y-101965850D01*
X138577650Y-101991250D01*
G37*
G36*
X138552250Y-102042050D02*
G01*
X137968050Y-102042050D01*
X137968050Y-102016650D01*
X138552250Y-102016650D01*
X138552250Y-102042050D01*
G37*
G36*
X138526850Y-102092850D02*
G01*
X137942650Y-102092850D01*
X137942650Y-102067450D01*
X138526850Y-102067450D01*
X138526850Y-102092850D01*
G37*
G36*
X138526850Y-102067450D02*
G01*
X137942650Y-102067450D01*
X137942650Y-102042050D01*
X138526850Y-102042050D01*
X138526850Y-102067450D01*
G37*
G36*
X138501450Y-102143650D02*
G01*
X137917250Y-102143650D01*
X137917250Y-102118250D01*
X138501450Y-102118250D01*
X138501450Y-102143650D01*
G37*
G36*
X138501450Y-102118250D02*
G01*
X137917250Y-102118250D01*
X137917250Y-102092850D01*
X138501450Y-102092850D01*
X138501450Y-102118250D01*
G37*
G36*
X138476050Y-102194450D02*
G01*
X137866450Y-102194450D01*
X137866450Y-102169050D01*
X138476050Y-102169050D01*
X138476050Y-102194450D01*
G37*
G36*
X138476050Y-102169050D02*
G01*
X137891850Y-102169050D01*
X137891850Y-102143650D01*
X138476050Y-102143650D01*
X138476050Y-102169050D01*
G37*
G36*
X138450650Y-102219850D02*
G01*
X137866450Y-102219850D01*
X137866450Y-102194450D01*
X138450650Y-102194450D01*
X138450650Y-102219850D01*
G37*
G36*
X138425250Y-102270650D02*
G01*
X137841050Y-102270650D01*
X137841050Y-102245250D01*
X138425250Y-102245250D01*
X138425250Y-102270650D01*
G37*
G36*
X138425250Y-102245250D02*
G01*
X137841050Y-102245250D01*
X137841050Y-102219850D01*
X138425250Y-102219850D01*
X138425250Y-102245250D01*
G37*
G36*
X138399850Y-102321450D02*
G01*
X137815650Y-102321450D01*
X137815650Y-102296050D01*
X138399850Y-102296050D01*
X138399850Y-102321450D01*
G37*
G36*
X138399850Y-102296050D02*
G01*
X137815650Y-102296050D01*
X137815650Y-102270650D01*
X138399850Y-102270650D01*
X138399850Y-102296050D01*
G37*
G36*
X138374450Y-102372250D02*
G01*
X137790250Y-102372250D01*
X137790250Y-102346850D01*
X138374450Y-102346850D01*
X138374450Y-102372250D01*
G37*
G36*
X138374450Y-102346850D02*
G01*
X137790250Y-102346850D01*
X137790250Y-102321450D01*
X138374450Y-102321450D01*
X138374450Y-102346850D01*
G37*
G36*
X138349050Y-102397650D02*
G01*
X137764850Y-102397650D01*
X137764850Y-102372250D01*
X138349050Y-102372250D01*
X138349050Y-102397650D01*
G37*
G36*
X138323650Y-102448450D02*
G01*
X137764850Y-102448450D01*
X137764850Y-102423050D01*
X138323650Y-102423050D01*
X138323650Y-102448450D01*
G37*
G36*
X138323650Y-102423050D02*
G01*
X137764850Y-102423050D01*
X137764850Y-102397650D01*
X138323650Y-102397650D01*
X138323650Y-102423050D01*
G37*
G36*
X138298250Y-102499250D02*
G01*
X137739450Y-102499250D01*
X137739450Y-102473850D01*
X138298250Y-102473850D01*
X138298250Y-102499250D01*
G37*
G36*
X138298250Y-102473850D02*
G01*
X137764850Y-102473850D01*
X137764850Y-102448450D01*
X138298250Y-102448450D01*
X138298250Y-102473850D01*
G37*
G36*
X138272850Y-102626250D02*
G01*
X137739450Y-102626250D01*
X137739450Y-102600850D01*
X138272850Y-102600850D01*
X138272850Y-102626250D01*
G37*
G36*
X138272850Y-102550050D02*
G01*
X137739450Y-102550050D01*
X137739450Y-102524650D01*
X138272850Y-102524650D01*
X138272850Y-102550050D01*
G37*
G36*
X138272850Y-102524650D02*
G01*
X137739450Y-102524650D01*
X137739450Y-102499250D01*
X138272850Y-102499250D01*
X138272850Y-102524650D01*
G37*
G36*
X138247450Y-102600850D02*
G01*
X137739450Y-102600850D01*
X137739450Y-102575450D01*
X138247450Y-102575450D01*
X138247450Y-102600850D01*
G37*
G36*
X138247450Y-102575450D02*
G01*
X137739450Y-102575450D01*
X137739450Y-102550050D01*
X138247450Y-102550050D01*
X138247450Y-102575450D01*
G37*
%TD*%
M02*
