%TF.GenerationSoftware,KiCad,Pcbnew,7.0.5-0*%
%TF.CreationDate,2023-07-08T10:54:15-04:00*%
%TF.ProjectId,PierogiNixiePSU,50696572-6f67-4694-9e69-786965505355,rev?*%
%TF.SameCoordinates,Original*%
%TF.FileFunction,Copper,L3,Inr*%
%TF.FilePolarity,Positive*%
%FSLAX46Y46*%
G04 Gerber Fmt 4.6, Leading zero omitted, Abs format (unit mm)*
G04 Created by KiCad (PCBNEW 7.0.5-0) date 2023-07-08 10:54:15*
%MOMM*%
%LPD*%
G01*
G04 APERTURE LIST*
%TA.AperFunction,ComponentPad*%
%ADD10C,1.950000*%
%TD*%
%TA.AperFunction,ComponentPad*%
%ADD11C,0.800000*%
%TD*%
%TA.AperFunction,ComponentPad*%
%ADD12C,7.000000*%
%TD*%
%TA.AperFunction,ComponentPad*%
%ADD13R,1.100000X1.100000*%
%TD*%
%TA.AperFunction,ComponentPad*%
%ADD14C,1.100000*%
%TD*%
%TA.AperFunction,ComponentPad*%
%ADD15O,5.000000X2.500000*%
%TD*%
%TA.AperFunction,ComponentPad*%
%ADD16O,4.500000X2.250000*%
%TD*%
%TA.AperFunction,ComponentPad*%
%ADD17O,2.250000X4.500000*%
%TD*%
%TA.AperFunction,ViaPad*%
%ADD18C,1.000000*%
%TD*%
G04 APERTURE END LIST*
D10*
%TO.N,GND*%
%TO.C,J1*%
X130430000Y-117000000D03*
%TO.N,Net-(C1-+)*%
X132970000Y-117000000D03*
%TD*%
D11*
%TO.N,N/C*%
%TO.C,H1*%
X162600000Y-106500000D03*
X163368845Y-104643845D03*
X163368845Y-108356155D03*
X165225000Y-103875000D03*
D12*
X165225000Y-106500000D03*
D11*
X165225000Y-109125000D03*
X167081155Y-104643845D03*
X167081155Y-108356155D03*
X167850000Y-106500000D03*
%TD*%
D13*
%TO.N,Net-(C4-+)*%
%TO.C,C4*%
X162800000Y-97450000D03*
D14*
%TO.N,GND*%
X162800000Y-99950000D03*
%TD*%
D10*
%TO.N,Net-(C4-+)*%
%TO.C,J2*%
X163730000Y-116900000D03*
%TO.N,GND*%
X166270000Y-116900000D03*
%TD*%
D15*
%TO.N,Net-(C1-+)*%
%TO.C,J3*%
X121500000Y-112300000D03*
D16*
%TO.N,GND*%
X121500000Y-118300000D03*
D17*
X126200000Y-115300000D03*
%TD*%
D11*
%TO.N,N/C*%
%TO.C,H2*%
X119218845Y-101043845D03*
X119987690Y-99187690D03*
X119987690Y-102900000D03*
X121843845Y-98418845D03*
D12*
X121843845Y-101043845D03*
D11*
X121843845Y-103668845D03*
X123700000Y-99187690D03*
X123700000Y-102900000D03*
X124468845Y-101043845D03*
%TD*%
D18*
%TO.N,GND*%
X126900000Y-101100000D03*
X142700000Y-117600000D03*
X125900000Y-107300000D03*
X160700000Y-113400000D03*
X152000000Y-111400000D03*
X122000000Y-94500000D03*
X137400000Y-114100000D03*
X167600000Y-96000000D03*
X166500000Y-111600000D03*
X166900000Y-101100000D03*
X128900000Y-111800000D03*
X154700000Y-111900000D03*
X142000000Y-108500000D03*
X164700000Y-94000000D03*
X156900000Y-106500000D03*
X118800000Y-94700000D03*
X118600000Y-107900000D03*
X139900000Y-95300000D03*
X121900000Y-90500000D03*
X141000000Y-102500000D03*
X157700000Y-103400000D03*
X122700000Y-107700000D03*
X154300000Y-103000000D03*
X143800000Y-113500000D03*
X156900000Y-101200000D03*
X154500000Y-99200000D03*
X126200000Y-94600000D03*
X125900000Y-90800000D03*
X148700000Y-111200000D03*
X139300000Y-105600000D03*
X147300000Y-106200000D03*
X148300000Y-113700000D03*
X142300000Y-116300000D03*
X136800000Y-103600000D03*
X154700000Y-90600000D03*
X129200000Y-103800000D03*
X138000000Y-119700000D03*
X167700000Y-89900000D03*
X118700000Y-91400000D03*
%TD*%
%TA.AperFunction,Conductor*%
%TO.N,GND*%
G36*
X169455360Y-88366588D02*
G01*
X169522397Y-88386277D01*
X169568148Y-88439084D01*
X169579350Y-88490588D01*
X169579350Y-121516588D01*
X169559665Y-121583627D01*
X169506861Y-121629382D01*
X169455342Y-121640588D01*
X116649492Y-121637010D01*
X116582453Y-121617321D01*
X116536702Y-121564514D01*
X116525500Y-121513010D01*
X116525500Y-118550000D01*
X118764651Y-118550000D01*
X118765043Y-118554995D01*
X118765044Y-118554997D01*
X118824752Y-118803702D01*
X118922634Y-119040012D01*
X118922636Y-119040015D01*
X119056278Y-119258100D01*
X119056279Y-119258102D01*
X119222398Y-119452601D01*
X119416897Y-119618720D01*
X119416899Y-119618721D01*
X119634984Y-119752363D01*
X119634987Y-119752365D01*
X119871297Y-119850247D01*
X120120011Y-119909957D01*
X120120010Y-119909957D01*
X120311144Y-119924999D01*
X120311158Y-119925000D01*
X121250000Y-119925000D01*
X121250000Y-118800000D01*
X121750000Y-118800000D01*
X121749999Y-119925000D01*
X122688842Y-119925000D01*
X122688855Y-119924999D01*
X122879988Y-119909957D01*
X123128702Y-119850247D01*
X123365012Y-119752365D01*
X123365015Y-119752363D01*
X123583100Y-119618721D01*
X123583102Y-119618720D01*
X123777601Y-119452601D01*
X123943720Y-119258102D01*
X123943721Y-119258100D01*
X124077363Y-119040015D01*
X124077365Y-119040012D01*
X124175247Y-118803702D01*
X124234955Y-118554997D01*
X124234956Y-118554995D01*
X124235349Y-118550000D01*
X122933686Y-118550000D01*
X122959493Y-118509844D01*
X123000000Y-118371889D01*
X123000000Y-118228111D01*
X122959493Y-118090156D01*
X122933686Y-118050000D01*
X124235349Y-118050000D01*
X124234956Y-118045004D01*
X124234955Y-118045002D01*
X124175247Y-117796297D01*
X124077365Y-117559987D01*
X124077363Y-117559984D01*
X123943721Y-117341899D01*
X123943720Y-117341897D01*
X123777601Y-117147398D01*
X123583102Y-116981279D01*
X123583100Y-116981278D01*
X123365015Y-116847636D01*
X123365012Y-116847634D01*
X123128702Y-116749752D01*
X122879988Y-116690042D01*
X122879989Y-116690042D01*
X122688855Y-116675000D01*
X121750000Y-116675000D01*
X121749999Y-117800000D01*
X121250000Y-117800000D01*
X121250000Y-116675000D01*
X120311144Y-116675000D01*
X120120011Y-116690042D01*
X119871297Y-116749752D01*
X119634987Y-116847634D01*
X119634984Y-116847636D01*
X119416899Y-116981278D01*
X119416897Y-116981279D01*
X119222398Y-117147398D01*
X119056279Y-117341897D01*
X119056278Y-117341899D01*
X118922636Y-117559984D01*
X118922634Y-117559987D01*
X118824752Y-117796297D01*
X118765044Y-118045002D01*
X118765043Y-118045004D01*
X118764651Y-118050000D01*
X120066314Y-118050000D01*
X120040507Y-118090156D01*
X120000000Y-118228111D01*
X120000000Y-118371889D01*
X120040507Y-118509844D01*
X120066314Y-118550000D01*
X118764651Y-118550000D01*
X116525500Y-118550000D01*
X116525500Y-116488855D01*
X124575000Y-116488855D01*
X124590042Y-116679988D01*
X124649752Y-116928702D01*
X124747634Y-117165012D01*
X124747636Y-117165015D01*
X124881278Y-117383100D01*
X124881279Y-117383102D01*
X125047398Y-117577601D01*
X125241897Y-117743720D01*
X125241899Y-117743721D01*
X125459984Y-117877363D01*
X125459987Y-117877365D01*
X125696297Y-117975247D01*
X125945010Y-118034957D01*
X125950000Y-118035348D01*
X125949999Y-116733686D01*
X125990156Y-116759493D01*
X126128111Y-116800000D01*
X126271889Y-116800000D01*
X126409844Y-116759493D01*
X126449999Y-116733686D01*
X126449999Y-118035348D01*
X126454989Y-118034957D01*
X126703702Y-117975247D01*
X126940012Y-117877365D01*
X126940015Y-117877363D01*
X127158100Y-117743721D01*
X127158102Y-117743720D01*
X127352601Y-117577601D01*
X127518720Y-117383102D01*
X127518721Y-117383100D01*
X127652363Y-117165015D01*
X127652365Y-117165012D01*
X127720713Y-117000005D01*
X128949944Y-117000005D01*
X128970130Y-117243605D01*
X129030138Y-117480573D01*
X129128328Y-117704424D01*
X129224626Y-117851820D01*
X129827452Y-117248993D01*
X129837188Y-117278956D01*
X129925186Y-117417619D01*
X130044903Y-117530040D01*
X130179510Y-117604041D01*
X129577757Y-118205793D01*
X129577758Y-118205794D01*
X129620485Y-118239050D01*
X129620485Y-118239051D01*
X129835468Y-118355394D01*
X129835476Y-118355397D01*
X130066664Y-118434765D01*
X130307779Y-118475000D01*
X130552221Y-118475000D01*
X130793335Y-118434765D01*
X131024523Y-118355397D01*
X131024531Y-118355394D01*
X131239515Y-118239050D01*
X131239516Y-118239048D01*
X131282240Y-118205794D01*
X131282241Y-118205793D01*
X130677534Y-117601086D01*
X130745629Y-117574126D01*
X130878492Y-117477595D01*
X130983175Y-117351055D01*
X131031631Y-117248079D01*
X131635372Y-117851820D01*
X131712808Y-117733298D01*
X131765954Y-117687941D01*
X131835186Y-117678518D01*
X131898521Y-117708020D01*
X131918190Y-117729996D01*
X131933472Y-117751820D01*
X131985487Y-117826105D01*
X132143895Y-117984513D01*
X132327404Y-118113008D01*
X132383252Y-118139050D01*
X132530432Y-118207681D01*
X132530434Y-118207681D01*
X132530439Y-118207684D01*
X132746829Y-118265666D01*
X132906236Y-118279612D01*
X132969998Y-118285191D01*
X132970000Y-118285191D01*
X132970002Y-118285191D01*
X133025792Y-118280309D01*
X133193171Y-118265666D01*
X133409561Y-118207684D01*
X133612596Y-118113008D01*
X133796105Y-117984513D01*
X133954513Y-117826105D01*
X134083008Y-117642596D01*
X134177684Y-117439561D01*
X134235666Y-117223171D01*
X134255191Y-117000000D01*
X134255190Y-116999994D01*
X134248953Y-116928702D01*
X134246442Y-116900001D01*
X162444809Y-116900001D01*
X162464333Y-117123165D01*
X162464334Y-117123173D01*
X162522314Y-117339556D01*
X162522318Y-117339567D01*
X162616990Y-117542592D01*
X162616996Y-117542602D01*
X162681402Y-117634583D01*
X162745487Y-117726105D01*
X162903895Y-117884513D01*
X163087404Y-118013008D01*
X163209555Y-118069967D01*
X163290432Y-118107681D01*
X163290434Y-118107681D01*
X163290439Y-118107684D01*
X163506829Y-118165666D01*
X163666236Y-118179612D01*
X163729998Y-118185191D01*
X163730000Y-118185191D01*
X163730002Y-118185191D01*
X163785792Y-118180309D01*
X163953171Y-118165666D01*
X164169561Y-118107684D01*
X164372596Y-118013008D01*
X164556105Y-117884513D01*
X164714513Y-117726105D01*
X164781811Y-117629993D01*
X164836385Y-117586372D01*
X164905883Y-117579179D01*
X164968238Y-117610701D01*
X164987192Y-117633298D01*
X165064626Y-117751820D01*
X165667452Y-117148993D01*
X165677188Y-117178956D01*
X165765186Y-117317619D01*
X165884903Y-117430040D01*
X166019510Y-117504041D01*
X165417757Y-118105793D01*
X165417758Y-118105794D01*
X165460485Y-118139050D01*
X165460485Y-118139051D01*
X165675468Y-118255394D01*
X165675476Y-118255397D01*
X165906664Y-118334765D01*
X166147779Y-118375000D01*
X166392221Y-118375000D01*
X166633335Y-118334765D01*
X166864523Y-118255397D01*
X166864531Y-118255394D01*
X167079515Y-118139050D01*
X167079516Y-118139048D01*
X167122240Y-118105794D01*
X167122241Y-118105793D01*
X166517534Y-117501086D01*
X166585629Y-117474126D01*
X166718492Y-117377595D01*
X166823175Y-117251055D01*
X166871632Y-117148078D01*
X167475372Y-117751820D01*
X167571669Y-117604429D01*
X167669861Y-117380573D01*
X167729869Y-117143605D01*
X167750055Y-116900005D01*
X167750055Y-116899994D01*
X167729869Y-116656394D01*
X167669861Y-116419426D01*
X167571671Y-116195575D01*
X167475372Y-116048178D01*
X166872546Y-116651004D01*
X166862812Y-116621044D01*
X166774814Y-116482381D01*
X166655097Y-116369960D01*
X166520489Y-116295958D01*
X167122240Y-115694205D01*
X167122240Y-115694204D01*
X167079514Y-115660949D01*
X167079514Y-115660948D01*
X166864531Y-115544605D01*
X166864523Y-115544602D01*
X166633335Y-115465234D01*
X166392221Y-115425000D01*
X166147779Y-115425000D01*
X165906664Y-115465234D01*
X165675476Y-115544602D01*
X165675468Y-115544605D01*
X165460484Y-115660949D01*
X165460478Y-115660953D01*
X165417758Y-115694203D01*
X165417758Y-115694205D01*
X166022466Y-116298913D01*
X165954371Y-116325874D01*
X165821508Y-116422405D01*
X165716825Y-116548945D01*
X165668368Y-116651920D01*
X165064626Y-116048179D01*
X164987192Y-116166701D01*
X164934045Y-116212057D01*
X164864814Y-116221481D01*
X164801478Y-116191979D01*
X164781808Y-116170002D01*
X164714516Y-116073899D01*
X164714511Y-116073893D01*
X164556105Y-115915487D01*
X164372602Y-115786996D01*
X164372599Y-115786994D01*
X164372596Y-115786992D01*
X164316755Y-115760953D01*
X164169567Y-115692318D01*
X164169556Y-115692314D01*
X163953173Y-115634334D01*
X163953165Y-115634333D01*
X163730002Y-115614809D01*
X163729998Y-115614809D01*
X163506834Y-115634333D01*
X163506826Y-115634334D01*
X163290443Y-115692314D01*
X163290437Y-115692317D01*
X163087404Y-115786992D01*
X163087400Y-115786994D01*
X162903899Y-115915483D01*
X162903893Y-115915488D01*
X162745488Y-116073893D01*
X162745483Y-116073899D01*
X162616994Y-116257400D01*
X162616992Y-116257404D01*
X162522317Y-116460437D01*
X162522314Y-116460443D01*
X162464334Y-116676826D01*
X162464333Y-116676834D01*
X162444809Y-116899998D01*
X162444809Y-116900001D01*
X134246442Y-116900001D01*
X134235666Y-116776829D01*
X134177684Y-116560439D01*
X134083008Y-116357405D01*
X134083006Y-116357402D01*
X134083005Y-116357400D01*
X133954516Y-116173899D01*
X133954511Y-116173893D01*
X133796105Y-116015487D01*
X133612602Y-115886996D01*
X133612599Y-115886994D01*
X133612596Y-115886992D01*
X133612592Y-115886990D01*
X133409567Y-115792318D01*
X133409556Y-115792314D01*
X133193173Y-115734334D01*
X133193165Y-115734333D01*
X132970002Y-115714809D01*
X132969998Y-115714809D01*
X132746834Y-115734333D01*
X132746826Y-115734334D01*
X132530443Y-115792314D01*
X132530437Y-115792317D01*
X132327404Y-115886992D01*
X132327400Y-115886994D01*
X132143899Y-116015483D01*
X132143893Y-116015488D01*
X131985488Y-116173893D01*
X131985487Y-116173895D01*
X131918191Y-116270003D01*
X131863613Y-116313628D01*
X131794115Y-116320820D01*
X131731760Y-116289298D01*
X131712807Y-116266701D01*
X131635372Y-116148178D01*
X131032546Y-116751004D01*
X131022812Y-116721044D01*
X130934814Y-116582381D01*
X130815097Y-116469960D01*
X130680489Y-116395958D01*
X131282240Y-115794205D01*
X131282240Y-115794204D01*
X131239514Y-115760949D01*
X131239514Y-115760948D01*
X131024531Y-115644605D01*
X131024523Y-115644602D01*
X130793335Y-115565234D01*
X130552221Y-115525000D01*
X130307779Y-115525000D01*
X130066664Y-115565234D01*
X129835476Y-115644602D01*
X129835468Y-115644605D01*
X129620484Y-115760949D01*
X129620478Y-115760953D01*
X129577758Y-115794203D01*
X129577758Y-115794205D01*
X130182466Y-116398913D01*
X130114371Y-116425874D01*
X129981508Y-116522405D01*
X129876825Y-116648945D01*
X129828368Y-116751921D01*
X129224625Y-116148178D01*
X129128329Y-116295572D01*
X129030138Y-116519426D01*
X128970130Y-116756394D01*
X128949944Y-116999994D01*
X128949944Y-117000005D01*
X127720713Y-117000005D01*
X127750247Y-116928702D01*
X127809957Y-116679988D01*
X127824999Y-116488855D01*
X127825000Y-116488842D01*
X127825000Y-115550000D01*
X126700000Y-115550000D01*
X126700000Y-115050000D01*
X127825000Y-115050000D01*
X127825000Y-114111157D01*
X127824999Y-114111144D01*
X127809957Y-113920011D01*
X127750247Y-113671297D01*
X127652365Y-113434987D01*
X127652363Y-113434984D01*
X127518721Y-113216899D01*
X127518720Y-113216897D01*
X127352601Y-113022398D01*
X127158102Y-112856279D01*
X127158100Y-112856278D01*
X126940015Y-112722636D01*
X126940012Y-112722634D01*
X126703702Y-112624752D01*
X126454997Y-112565044D01*
X126454995Y-112565043D01*
X126450000Y-112564650D01*
X126449999Y-113866313D01*
X126409844Y-113840507D01*
X126271889Y-113800000D01*
X126128111Y-113800000D01*
X125990156Y-113840507D01*
X125949999Y-113866313D01*
X125949999Y-112564650D01*
X125945004Y-112565043D01*
X125945002Y-112565044D01*
X125696297Y-112624752D01*
X125459987Y-112722634D01*
X125459984Y-112722636D01*
X125241899Y-112856278D01*
X125241897Y-112856279D01*
X125047398Y-113022398D01*
X124881279Y-113216897D01*
X124881278Y-113216899D01*
X124747636Y-113434984D01*
X124747634Y-113434987D01*
X124649752Y-113671297D01*
X124590042Y-113920011D01*
X124575000Y-114111144D01*
X124575000Y-115050000D01*
X125700000Y-115050000D01*
X125700000Y-115550000D01*
X124575000Y-115550000D01*
X124575000Y-116488855D01*
X116525500Y-116488855D01*
X116525500Y-112362822D01*
X118690904Y-112362822D01*
X118706114Y-112488081D01*
X118721174Y-112612112D01*
X118791038Y-112853311D01*
X118898689Y-113080180D01*
X118971997Y-113186386D01*
X119041338Y-113286843D01*
X119041341Y-113286847D01*
X119215287Y-113467944D01*
X119416035Y-113618797D01*
X119416037Y-113618798D01*
X119416041Y-113618801D01*
X119516064Y-113671297D01*
X119638388Y-113735498D01*
X119638390Y-113735498D01*
X119638391Y-113735499D01*
X119757486Y-113775259D01*
X119876580Y-113815019D01*
X119936257Y-113824717D01*
X120124441Y-113855299D01*
X120124442Y-113855300D01*
X120124443Y-113855300D01*
X122812670Y-113855300D01*
X122812680Y-113855300D01*
X123000299Y-113840154D01*
X123244116Y-113780058D01*
X123475135Y-113681630D01*
X123687374Y-113547419D01*
X123875335Y-113380899D01*
X124034151Y-113186386D01*
X124159708Y-112968915D01*
X124248754Y-112734119D01*
X124298983Y-112488081D01*
X124309095Y-112237171D01*
X124278826Y-111987888D01*
X124208962Y-111746689D01*
X124101311Y-111519820D01*
X123958663Y-111313158D01*
X123958660Y-111313155D01*
X123958658Y-111313152D01*
X123784712Y-111132055D01*
X123583964Y-110981202D01*
X123583960Y-110981199D01*
X123583959Y-110981199D01*
X123556309Y-110966687D01*
X123361611Y-110864501D01*
X123361607Y-110864500D01*
X123123419Y-110784980D01*
X122875559Y-110744700D01*
X122875557Y-110744700D01*
X120187320Y-110744700D01*
X120187310Y-110744700D01*
X119999701Y-110759845D01*
X119755881Y-110819942D01*
X119524870Y-110918367D01*
X119524869Y-110918367D01*
X119312623Y-111052582D01*
X119124666Y-111219098D01*
X118965848Y-111413613D01*
X118965845Y-111413618D01*
X118840292Y-111631083D01*
X118751245Y-111865883D01*
X118701017Y-112111912D01*
X118701016Y-112111922D01*
X118690904Y-112362822D01*
X116525500Y-112362822D01*
X116525500Y-106500000D01*
X161414810Y-106500000D01*
X161434358Y-106885470D01*
X161492804Y-107266981D01*
X161589550Y-107640638D01*
X161723593Y-108002564D01*
X161723599Y-108002579D01*
X161893572Y-108349092D01*
X161893573Y-108349093D01*
X162097735Y-108676640D01*
X162333987Y-108981853D01*
X162599905Y-109261598D01*
X162892757Y-109513004D01*
X162892760Y-109513006D01*
X163209547Y-109733496D01*
X163547015Y-109920806D01*
X163901701Y-110073014D01*
X163901711Y-110073017D01*
X163901716Y-110073019D01*
X164269955Y-110188555D01*
X164269958Y-110188555D01*
X164269966Y-110188558D01*
X164648031Y-110266252D01*
X164955219Y-110297490D01*
X165032016Y-110305300D01*
X165032017Y-110305300D01*
X165417984Y-110305300D01*
X165481980Y-110298791D01*
X165801969Y-110266252D01*
X166180034Y-110188558D01*
X166548299Y-110073014D01*
X166902985Y-109920806D01*
X167240453Y-109733496D01*
X167557240Y-109513006D01*
X167850095Y-109261598D01*
X168116013Y-108981853D01*
X168352265Y-108676640D01*
X168556427Y-108349093D01*
X168726404Y-108002571D01*
X168860452Y-107640630D01*
X168957195Y-107266986D01*
X169015641Y-106885471D01*
X169035190Y-106500000D01*
X169015641Y-106114529D01*
X168957195Y-105733014D01*
X168860452Y-105359370D01*
X168726404Y-104997429D01*
X168653667Y-104849145D01*
X168556427Y-104650907D01*
X168535203Y-104616856D01*
X168352265Y-104323360D01*
X168116013Y-104018147D01*
X167850095Y-103738402D01*
X167602318Y-103525692D01*
X167557242Y-103486995D01*
X167240453Y-103266504D01*
X167240448Y-103266501D01*
X166902984Y-103079193D01*
X166548304Y-102926988D01*
X166548283Y-102926980D01*
X166180044Y-102811444D01*
X166180038Y-102811443D01*
X166180035Y-102811442D01*
X166180034Y-102811442D01*
X165801969Y-102733748D01*
X165801968Y-102733747D01*
X165801964Y-102733747D01*
X165417984Y-102694700D01*
X165417983Y-102694700D01*
X165032017Y-102694700D01*
X165032016Y-102694700D01*
X164648035Y-102733747D01*
X164269961Y-102811443D01*
X164269955Y-102811444D01*
X163901716Y-102926980D01*
X163901695Y-102926988D01*
X163547015Y-103079193D01*
X163209551Y-103266501D01*
X163209546Y-103266504D01*
X162892757Y-103486995D01*
X162599905Y-103738401D01*
X162333982Y-104018152D01*
X162097738Y-104323355D01*
X161893572Y-104650907D01*
X161723599Y-104997420D01*
X161723593Y-104997435D01*
X161589550Y-105359361D01*
X161492804Y-105733018D01*
X161434358Y-106114529D01*
X161414810Y-106500000D01*
X116525500Y-106500000D01*
X116525500Y-101043845D01*
X118033655Y-101043845D01*
X118053203Y-101429315D01*
X118111649Y-101810826D01*
X118208395Y-102184483D01*
X118342438Y-102546409D01*
X118342444Y-102546424D01*
X118512417Y-102892937D01*
X118599469Y-103032598D01*
X118716580Y-103220485D01*
X118716582Y-103220488D01*
X118716583Y-103220489D01*
X118922873Y-103486995D01*
X118952832Y-103525698D01*
X119155022Y-103738401D01*
X119218750Y-103805443D01*
X119511602Y-104056849D01*
X119511605Y-104056851D01*
X119828392Y-104277341D01*
X120165860Y-104464651D01*
X120520546Y-104616859D01*
X120520556Y-104616862D01*
X120520561Y-104616864D01*
X120888800Y-104732400D01*
X120888803Y-104732400D01*
X120888811Y-104732403D01*
X121266876Y-104810097D01*
X121574064Y-104841335D01*
X121650861Y-104849145D01*
X121650862Y-104849145D01*
X122036829Y-104849145D01*
X122100825Y-104842636D01*
X122420814Y-104810097D01*
X122798879Y-104732403D01*
X123167144Y-104616859D01*
X123521830Y-104464651D01*
X123859298Y-104277341D01*
X124176085Y-104056851D01*
X124468940Y-103805443D01*
X124734858Y-103525698D01*
X124971110Y-103220485D01*
X125175272Y-102892938D01*
X125345249Y-102546416D01*
X125479297Y-102184475D01*
X125576040Y-101810831D01*
X125634486Y-101429316D01*
X125654035Y-101043845D01*
X125644155Y-100849023D01*
X162254528Y-100849023D01*
X162396233Y-100924766D01*
X162594165Y-100984808D01*
X162800000Y-101005080D01*
X163005834Y-100984808D01*
X163203764Y-100924766D01*
X163345470Y-100849022D01*
X162800001Y-100303553D01*
X162800000Y-100303553D01*
X162254528Y-100849023D01*
X125644155Y-100849023D01*
X125634486Y-100658374D01*
X125576040Y-100276859D01*
X125491410Y-99949999D01*
X161744919Y-99949999D01*
X161765191Y-100155834D01*
X161825233Y-100353766D01*
X161900975Y-100495469D01*
X161900976Y-100495469D01*
X162417145Y-99979302D01*
X162446372Y-99979302D01*
X162475047Y-100092538D01*
X162538936Y-100190327D01*
X162631115Y-100262072D01*
X162741595Y-100300000D01*
X162829005Y-100300000D01*
X162915216Y-100285614D01*
X163017947Y-100230019D01*
X163097060Y-100144079D01*
X163143982Y-100037108D01*
X163151200Y-99950000D01*
X163153553Y-99950000D01*
X163699022Y-100495469D01*
X163774766Y-100353764D01*
X163834808Y-100155834D01*
X163855080Y-99949999D01*
X163834808Y-99744165D01*
X163774766Y-99546233D01*
X163699023Y-99404528D01*
X163153553Y-99949999D01*
X163153553Y-99950000D01*
X163151200Y-99950000D01*
X163153628Y-99920698D01*
X163124953Y-99807462D01*
X163061064Y-99709673D01*
X162968885Y-99637928D01*
X162858405Y-99600000D01*
X162770995Y-99600000D01*
X162684784Y-99614386D01*
X162582053Y-99669981D01*
X162502940Y-99755921D01*
X162456018Y-99862892D01*
X162446372Y-99979302D01*
X162417145Y-99979302D01*
X162446447Y-99950000D01*
X162446447Y-99949999D01*
X161900976Y-99404529D01*
X161900975Y-99404529D01*
X161825234Y-99546234D01*
X161765191Y-99744166D01*
X161744919Y-99949999D01*
X125491410Y-99949999D01*
X125479297Y-99903215D01*
X125420391Y-99744165D01*
X125347086Y-99546234D01*
X125345249Y-99541274D01*
X125278172Y-99404529D01*
X125175272Y-99194752D01*
X125175271Y-99194752D01*
X125085655Y-99050976D01*
X162254529Y-99050976D01*
X162800000Y-99596447D01*
X162800001Y-99596447D01*
X163345469Y-99050976D01*
X163345469Y-99050975D01*
X163203766Y-98975233D01*
X163005834Y-98915191D01*
X162800000Y-98894919D01*
X162594166Y-98915191D01*
X162396234Y-98975234D01*
X162254529Y-99050975D01*
X162254529Y-99050976D01*
X125085655Y-99050976D01*
X124971110Y-98867205D01*
X124734858Y-98561992D01*
X124468940Y-98282247D01*
X124438639Y-98256234D01*
X124193247Y-98045571D01*
X161944700Y-98045571D01*
X161944702Y-98045594D01*
X161947661Y-98071106D01*
X161947662Y-98071109D01*
X161993765Y-98175524D01*
X161993766Y-98175525D01*
X162074475Y-98256234D01*
X162178891Y-98302338D01*
X162204421Y-98305300D01*
X163395578Y-98305299D01*
X163421109Y-98302338D01*
X163525525Y-98256234D01*
X163606234Y-98175525D01*
X163652338Y-98071109D01*
X163655300Y-98045579D01*
X163655299Y-96854422D01*
X163652338Y-96828891D01*
X163606234Y-96724475D01*
X163525525Y-96643766D01*
X163525523Y-96643765D01*
X163421110Y-96597662D01*
X163395579Y-96594700D01*
X162204428Y-96594700D01*
X162204405Y-96594702D01*
X162178893Y-96597661D01*
X162178890Y-96597662D01*
X162074475Y-96643765D01*
X161993766Y-96724474D01*
X161947662Y-96828888D01*
X161947662Y-96828890D01*
X161944700Y-96854419D01*
X161944700Y-98045571D01*
X124193247Y-98045571D01*
X124176087Y-98030840D01*
X123859298Y-97810349D01*
X123859293Y-97810346D01*
X123521829Y-97623038D01*
X123167149Y-97470833D01*
X123167128Y-97470825D01*
X122798889Y-97355289D01*
X122798883Y-97355288D01*
X122798880Y-97355287D01*
X122798879Y-97355287D01*
X122420814Y-97277593D01*
X122420813Y-97277592D01*
X122420809Y-97277592D01*
X122036829Y-97238545D01*
X122036828Y-97238545D01*
X121650862Y-97238545D01*
X121650861Y-97238545D01*
X121266880Y-97277592D01*
X120888806Y-97355288D01*
X120888800Y-97355289D01*
X120520561Y-97470825D01*
X120520540Y-97470833D01*
X120165860Y-97623038D01*
X119828396Y-97810346D01*
X119828391Y-97810349D01*
X119511602Y-98030840D01*
X119218750Y-98282246D01*
X118952827Y-98561997D01*
X118716583Y-98867200D01*
X118512417Y-99194752D01*
X118342444Y-99541265D01*
X118342438Y-99541280D01*
X118208395Y-99903206D01*
X118111649Y-100276863D01*
X118053203Y-100658374D01*
X118033655Y-101043845D01*
X116525500Y-101043845D01*
X116525500Y-88487010D01*
X116545185Y-88419971D01*
X116597989Y-88374216D01*
X116649506Y-88363010D01*
X169455360Y-88366588D01*
G37*
%TD.AperFunction*%
%TD*%
M02*
