M48
; DRILL file {KiCad 7.0.5-0} date 2023 July 07, Friday 11:18:15
; FORMAT={-:-/ absolute / inch / decimal}
; #@! TF.CreationDate,2023-07-07T11:18:15-04:00
; #@! TF.GenerationSoftware,Kicad,Pcbnew,7.0.5-0
; #@! TF.FileFunction,Plated,1,4,PTH
FMAT,2
INCH
; #@! TA.AperFunction,Plated,PTH,ComponentDrill
T1C0.0197
; #@! TA.AperFunction,Plated,PTH,ViaDrill
T2C0.0236
; #@! TA.AperFunction,Plated,PTH,ComponentDrill
T3C0.0276
; #@! TA.AperFunction,Plated,PTH,ComponentDrill
T4C0.0394
; #@! TA.AperFunction,Plated,PTH,ComponentDrill
T5C0.0512
; #@! TA.AperFunction,Plated,PTH,ComponentDrill
T6C0.1378
%
G90
G05
T1
X4.6937Y-3.9781
X4.7239Y-3.905
X4.7239Y-4.0512
X4.797Y-3.8748
X4.797Y-4.0815
X4.8701Y-3.905
X4.8701Y-4.0512
X4.9003Y-3.9781
X6.4016Y-4.1929
X6.4318Y-4.1198
X6.4318Y-4.266
X6.5049Y-4.0896
X6.5049Y-4.2963
X6.578Y-4.1198
X6.578Y-4.266
X6.6083Y-4.1929
T2
X4.6693Y-4.248
X4.6732Y-3.5984
X4.6772Y-3.7283
X4.7992Y-3.563
X4.8031Y-3.7205
X4.8307Y-4.2402
X4.9567Y-3.5748
X4.9567Y-4.2244
X4.9685Y-3.7244
X4.9961Y-3.9803
X5.0748Y-4.4016
X5.0906Y-4.0827
X5.3858Y-4.0787
X5.4094Y-4.4921
X5.4331Y-4.7126
X5.4843Y-4.1575
X5.5079Y-3.752
X5.5512Y-4.0354
X5.5906Y-4.2717
X5.6024Y-4.5787
X5.6181Y-4.6299
X5.6614Y-4.4685
X5.7992Y-4.1811
X5.8386Y-4.4764
X5.8543Y-4.378
X5.9843Y-4.3858
X6.0748Y-4.0551
X6.0827Y-3.9055
X6.0906Y-3.5669
X6.0906Y-4.4055
X6.1772Y-3.9843
X6.1772Y-4.1929
X6.2087Y-4.0709
X6.3268Y-4.4646
X6.4843Y-3.7008
X6.5551Y-4.3937
X6.5709Y-3.9803
X6.5984Y-3.7795
X6.6024Y-3.5394
T3
X6.4094Y-3.8366
X6.4094Y-3.935
T5
X5.135Y-4.6063
X5.235Y-4.6063
X6.4461Y-4.6024
X6.5461Y-4.6024
T6
X4.797Y-3.9781
X6.5049Y-4.1929
T4
G00X4.8327Y-4.4213
M15
G01X4.7343Y-4.4213
M16
G05
G00X4.8228Y-4.6575
M15
G01X4.7441Y-4.6575
M16
G05
G00X4.9685Y-4.5
M15
G01X4.9685Y-4.5787
M16
G05
T0
M30
