M48
; DRILL file {KiCad 8.0.5} date 2025-01-03T23:13:28-0500
; FORMAT={-:-/ absolute / metric / decimal}
; #@! TF.CreationDate,2025-01-03T23:13:28-05:00
; #@! TF.GenerationSoftware,Kicad,Pcbnew,8.0.5
; #@! TF.FileFunction,Plated,1,4,PTH
FMAT,2
METRIC
; #@! TA.AperFunction,Plated,PTH,ViaDrill
T1C0.300
; #@! TA.AperFunction,Plated,PTH,ViaDrill
T2C0.400
; #@! TA.AperFunction,Plated,PTH,ComponentDrill
T3C0.800
; #@! TA.AperFunction,Plated,PTH,ComponentDrill
T4C1.000
; #@! TA.AperFunction,Plated,PTH,ComponentDrill
T5C1.200
%
G90
G05
T1
X24.6Y-25.4
X25.5Y-57.2
X27.0Y-57.2
X28.1Y-57.2
X28.6Y-25.7
X29.5Y-51.2
X29.7Y-57.1
X30.6Y-57.1
X31.5Y-51.1
X31.7Y-57.1
X32.551Y-25.434
X32.6Y-42.4
X32.9Y-53.5
X32.9Y-55.0
X32.9Y-56.5
X32.9Y-57.4
X33.411Y-51.199
X33.6Y-23.3
X34.1Y-42.4
X34.1Y-54.2
X34.2Y-56.8
X34.3Y-55.5
X34.7Y-52.4
X34.9Y-57.4
X35.4Y-51.4
X36.0Y-56.6
X36.6Y-57.4
X36.7Y-51.6
X37.259Y-23.249
X37.6Y-56.6
X38.3Y-57.4
X38.6Y-51.6
X39.0Y-56.6
X40.207Y-28.619
X40.3Y-32.2
X40.4Y-25.4
X40.681Y-35.733
X41.3Y-50.1
X42.324Y-22.894
X43.5Y-34.0
X43.5Y-35.8
X43.5Y-37.3
X44.1Y-38.4
X44.5Y-50.3
X45.174Y-37.297
X45.3Y-35.9
X45.5Y-38.5
X46.514Y-37.29
X46.745Y-23.198
X47.0Y-35.8
X47.1Y-47.9
X47.4Y-50.1
X47.523Y-38.095
X47.9Y-28.2
X47.993Y-44.687
X48.1Y-26.5
X48.1Y-34.9
X48.2Y-33.5
X48.2Y-37.2
X48.4Y-24.6
X48.5Y-35.9
X48.637Y-51.699
X48.8Y-53.0
X48.8Y-54.0
X48.9Y-27.3
X49.9Y-54.0
X50.0Y-53.0
X50.024Y-45.241
X50.5Y-48.7
X50.9Y-53.9
X51.093Y-35.066
X52.0Y-49.8
X52.0Y-51.0
X52.262Y-41.655
X52.9Y-43.8
X53.5Y-56.5
X54.108Y-44.433
X55.0Y-57.3
X55.4Y-37.3
X55.5Y-35.2
X57.6Y-57.5
X59.5Y-49.7
X59.5Y-57.2
X60.0Y-37.8
X60.07Y-35.388
X60.3Y-47.8
X60.3Y-48.8
X60.5Y-42.0
X60.5Y-44.1
X60.5Y-44.9
X60.5Y-45.7
X60.5Y-46.6
X60.6Y-50.0
X61.2Y-41.2
X61.3Y-39.4
X61.4Y-52.0
X61.4Y-53.2
X61.4Y-54.5
X61.4Y-55.9
X61.4Y-57.1
X61.5Y-44.1
X61.5Y-44.9
X61.5Y-45.7
X61.5Y-46.6
X61.6Y-34.0
X61.6Y-35.9
X61.7Y-50.2
X61.8Y-38.2
X62.0Y-42.0
X62.1Y-39.5
X62.1Y-40.7
X62.9Y-57.2
X63.3Y-40.0
X63.3Y-41.0
X63.4Y-45.1
X63.4Y-46.4
X63.5Y-51.5
X63.7Y-50.3
X64.3Y-41.0
X64.4Y-40.0
X64.4Y-45.8
X64.4Y-57.2
X64.6Y-51.5
X64.7Y-50.4
X64.8Y-46.9
X66.5Y-57.2
X68.2Y-57.3
T2
X22.1Y-34.7
X22.1Y-37.2
X22.1Y-39.7
X22.1Y-42.2
X22.1Y-44.7
X22.1Y-47.2
X22.1Y-49.6
X22.1Y-52.1
X22.1Y-54.6
X22.1Y-57.1
X23.5Y-43.4
X23.7Y-29.7
X23.7Y-48.5
X23.9Y-33.4
X23.9Y-35.9
X23.9Y-38.4
X23.9Y-40.9
X23.9Y-45.9
X23.9Y-50.8
X23.9Y-53.3
X23.9Y-55.8
X25.1Y-44.1
X25.3Y-27.1
X25.3Y-34.7
X25.3Y-37.2
X25.3Y-39.7
X25.3Y-42.2
X25.3Y-47.5
X25.5Y-51.0
X26.5Y-33.4
X27.0Y-35.4
X27.1Y-37.2
X27.1Y-39.7
X27.3Y-50.9
X27.4Y-42.1
X28.6Y-35.9
X28.6Y-38.4
X28.6Y-40.9
X28.7Y-27.2
X28.8Y-33.6
X30.4Y-34.7
X30.4Y-37.2
X30.4Y-39.7
X30.6Y-49.5
X30.7Y-43.1
X30.8Y-27.3
X30.8Y-44.9
X30.9Y-46.5
X31.0Y-30.1
X31.9Y-33.4
X31.9Y-35.9
X31.9Y-38.4
X31.9Y-40.9
X32.0Y-48.1
X32.3Y-28.8
X33.3Y-49.5
X33.7Y-34.7
X33.7Y-37.2
X33.7Y-39.7
X34.7Y-48.1
X35.2Y-33.5
X35.9Y-44.2
X35.9Y-47.0
X35.9Y-49.5
X37.0Y-34.8
X37.3Y-45.6
X37.3Y-48.1
X38.6Y-44.2
X38.6Y-47.0
X38.6Y-49.5
X40.0Y-45.6
X40.0Y-48.1
X40.0Y-49.5
X41.2Y-44.2
X41.2Y-47.0
X42.6Y-45.6
X51.6Y-48.65
X55.9Y-47.1
X62.4Y-22.9
X62.4Y-25.7
X63.8Y-24.3
X65.1Y-22.9
X65.1Y-25.7
X66.4Y-46.8
X66.5Y-24.3
X66.5Y-49.1
X66.6Y-51.6
X66.9Y-33.4
X66.9Y-35.8
X67.1Y-25.8
X67.1Y-28.1
X67.1Y-30.5
X67.1Y-38.4
X67.1Y-40.8
X67.6Y-45.4
X67.7Y-22.9
X67.7Y-47.7
X67.8Y-50.2
X68.3Y-32.0
X68.3Y-34.4
X68.4Y-44.2
X68.5Y-24.4
X68.5Y-26.7
X68.5Y-29.1
X68.5Y-37.0
X68.5Y-39.4
X68.5Y-41.9
X68.5Y-46.5
X68.6Y-49.0
X69.5Y-30.6
X69.5Y-33.0
X69.6Y-42.8
X69.6Y-50.4
X69.6Y-52.4
X69.6Y-54.2
X69.6Y-56.5
X69.7Y-23.0
X69.7Y-25.3
X69.7Y-27.7
X69.7Y-35.6
X69.7Y-38.0
X69.7Y-40.5
X69.7Y-45.1
X69.8Y-47.6
T3
X49.035Y-42.005
X49.035Y-47.085
X51.575Y-44.545
X63.71Y-43.025
X66.21Y-43.025
T5
X27.19Y-54.34
X30.69Y-54.34
X63.71Y-54.34
X67.21Y-54.34
T4
G00X22.575Y-25.425
M15
G01X22.575Y-27.425
M16
G05
G00X28.275Y-23.425
M15
G01X26.275Y-23.425
M16
G05
G00X28.525Y-29.625
M15
G01X26.025Y-29.625
M16
G05
M30
