%TF.GenerationSoftware,KiCad,Pcbnew,8.0.5*%
%TF.CreationDate,2025-01-03T23:13:27-05:00*%
%TF.ProjectId,PierogiNixiePSU,50696572-6f67-4694-9e69-786965505355,rev?*%
%TF.SameCoordinates,Original*%
%TF.FileFunction,Drillmap*%
%TF.FilePolarity,Positive*%
%FSLAX45Y45*%
G04 Gerber Fmt 4.5, Leading zero omitted, Abs format (unit mm)*
G04 Created by KiCad (PCBNEW 8.0.5) date 2025-01-03 23:13:27*
%MOMM*%
%LPD*%
G01*
G04 APERTURE LIST*
%ADD10C,0.050000*%
%ADD11C,0.200000*%
%ADD12C,0.100000*%
%ADD13C,0.120000*%
G04 APERTURE END LIST*
D10*
X2080000Y-2140000D02*
X7050000Y-2140000D01*
X7050000Y-5800000D01*
X2080000Y-5800000D01*
X2080000Y-2140000D01*
D11*
D12*
X2445000Y-2525000D02*
X2475000Y-2555000D01*
X2475000Y-2525000D02*
X2445000Y-2555000D01*
X2535000Y-5705000D02*
X2565000Y-5735000D01*
X2565000Y-5705000D02*
X2535000Y-5735000D01*
X2685000Y-5705000D02*
X2715000Y-5735000D01*
X2715000Y-5705000D02*
X2685000Y-5735000D01*
X2795000Y-5705000D02*
X2825000Y-5735000D01*
X2825000Y-5705000D02*
X2795000Y-5735000D01*
X2845000Y-2555000D02*
X2875000Y-2585000D01*
X2875000Y-2555000D02*
X2845000Y-2585000D01*
X2935000Y-5105000D02*
X2965000Y-5135000D01*
X2965000Y-5105000D02*
X2935000Y-5135000D01*
X2955000Y-5695000D02*
X2985000Y-5725000D01*
X2985000Y-5695000D02*
X2955000Y-5725000D01*
X3045000Y-5695000D02*
X3075000Y-5725000D01*
X3075000Y-5695000D02*
X3045000Y-5725000D01*
X3135000Y-5095000D02*
X3165000Y-5125000D01*
X3165000Y-5095000D02*
X3135000Y-5125000D01*
X3155000Y-5695000D02*
X3185000Y-5725000D01*
X3185000Y-5695000D02*
X3155000Y-5725000D01*
X3240050Y-2528423D02*
X3270050Y-2558423D01*
X3270050Y-2528423D02*
X3240050Y-2558423D01*
X3245000Y-4225000D02*
X3275000Y-4255000D01*
X3275000Y-4225000D02*
X3245000Y-4255000D01*
X3275000Y-5335000D02*
X3305000Y-5365000D01*
X3305000Y-5335000D02*
X3275000Y-5365000D01*
X3275000Y-5485000D02*
X3305000Y-5515000D01*
X3305000Y-5485000D02*
X3275000Y-5515000D01*
X3275000Y-5635000D02*
X3305000Y-5665000D01*
X3305000Y-5635000D02*
X3275000Y-5665000D01*
X3275000Y-5725000D02*
X3305000Y-5755000D01*
X3305000Y-5725000D02*
X3275000Y-5755000D01*
X3326057Y-5104856D02*
X3356057Y-5134856D01*
X3356057Y-5104856D02*
X3326057Y-5134856D01*
X3345000Y-2315000D02*
X3375000Y-2345000D01*
X3375000Y-2315000D02*
X3345000Y-2345000D01*
X3395000Y-4225000D02*
X3425000Y-4255000D01*
X3425000Y-4225000D02*
X3395000Y-4255000D01*
X3395000Y-5405000D02*
X3425000Y-5435000D01*
X3425000Y-5405000D02*
X3395000Y-5435000D01*
X3405000Y-5665000D02*
X3435000Y-5695000D01*
X3435000Y-5665000D02*
X3405000Y-5695000D01*
X3415000Y-5535000D02*
X3445000Y-5565000D01*
X3445000Y-5535000D02*
X3415000Y-5565000D01*
X3455000Y-5225000D02*
X3485000Y-5255000D01*
X3485000Y-5225000D02*
X3455000Y-5255000D01*
X3475000Y-5725000D02*
X3505000Y-5755000D01*
X3505000Y-5725000D02*
X3475000Y-5755000D01*
X3525000Y-5125000D02*
X3555000Y-5155000D01*
X3555000Y-5125000D02*
X3525000Y-5155000D01*
X3585000Y-5645000D02*
X3615000Y-5675000D01*
X3615000Y-5645000D02*
X3585000Y-5675000D01*
X3645000Y-5725000D02*
X3675000Y-5755000D01*
X3675000Y-5725000D02*
X3645000Y-5755000D01*
X3655000Y-5145000D02*
X3685000Y-5175000D01*
X3685000Y-5145000D02*
X3655000Y-5175000D01*
X3710929Y-2309922D02*
X3740929Y-2339922D01*
X3740929Y-2309922D02*
X3710929Y-2339922D01*
X3745000Y-5645000D02*
X3775000Y-5675000D01*
X3775000Y-5645000D02*
X3745000Y-5675000D01*
X3815000Y-5725000D02*
X3845000Y-5755000D01*
X3845000Y-5725000D02*
X3815000Y-5755000D01*
X3845000Y-5145000D02*
X3875000Y-5175000D01*
X3875000Y-5145000D02*
X3845000Y-5175000D01*
X3885000Y-5645000D02*
X3915000Y-5675000D01*
X3915000Y-5645000D02*
X3885000Y-5675000D01*
X4005651Y-2846859D02*
X4035651Y-2876859D01*
X4035651Y-2846859D02*
X4005651Y-2876859D01*
X4015000Y-3205000D02*
X4045000Y-3235000D01*
X4045000Y-3205000D02*
X4015000Y-3235000D01*
X4025000Y-2525000D02*
X4055000Y-2555000D01*
X4055000Y-2525000D02*
X4025000Y-2555000D01*
X4053078Y-3558258D02*
X4083078Y-3588258D01*
X4083078Y-3558258D02*
X4053078Y-3588258D01*
X4115000Y-4995000D02*
X4145000Y-5025000D01*
X4145000Y-4995000D02*
X4115000Y-5025000D01*
X4217377Y-2274352D02*
X4247377Y-2304352D01*
X4247377Y-2274352D02*
X4217377Y-2304352D01*
X4335000Y-3385000D02*
X4365000Y-3415000D01*
X4365000Y-3385000D02*
X4335000Y-3415000D01*
X4335000Y-3565000D02*
X4365000Y-3595000D01*
X4365000Y-3565000D02*
X4335000Y-3595000D01*
X4335000Y-3715000D02*
X4365000Y-3745000D01*
X4365000Y-3715000D02*
X4335000Y-3745000D01*
X4395000Y-3825000D02*
X4425000Y-3855000D01*
X4425000Y-3825000D02*
X4395000Y-3855000D01*
X4435000Y-5015000D02*
X4465000Y-5045000D01*
X4465000Y-5015000D02*
X4435000Y-5045000D01*
X4502384Y-3714739D02*
X4532384Y-3744739D01*
X4532384Y-3714739D02*
X4502384Y-3744739D01*
X4515000Y-3575000D02*
X4545000Y-3605000D01*
X4545000Y-3575000D02*
X4515000Y-3605000D01*
X4535000Y-3835000D02*
X4565000Y-3865000D01*
X4565000Y-3835000D02*
X4535000Y-3865000D01*
X4636383Y-3713986D02*
X4666383Y-3743986D01*
X4666383Y-3713986D02*
X4636383Y-3743986D01*
X4659461Y-2304840D02*
X4689461Y-2334840D01*
X4689461Y-2304840D02*
X4659461Y-2334840D01*
X4685000Y-3565000D02*
X4715000Y-3595000D01*
X4715000Y-3565000D02*
X4685000Y-3595000D01*
X4695000Y-4775000D02*
X4725000Y-4805000D01*
X4725000Y-4775000D02*
X4695000Y-4805000D01*
X4725000Y-4995000D02*
X4755000Y-5025000D01*
X4755000Y-4995000D02*
X4725000Y-5025000D01*
X4737258Y-3794536D02*
X4767258Y-3824536D01*
X4767258Y-3794536D02*
X4737258Y-3824536D01*
X4775000Y-2805000D02*
X4805000Y-2835000D01*
X4805000Y-2805000D02*
X4775000Y-2835000D01*
X4784315Y-4453698D02*
X4814315Y-4483698D01*
X4814315Y-4453698D02*
X4784315Y-4483698D01*
X4795000Y-2635000D02*
X4825000Y-2665000D01*
X4825000Y-2635000D02*
X4795000Y-2665000D01*
X4795000Y-3475000D02*
X4825000Y-3505000D01*
X4825000Y-3475000D02*
X4795000Y-3505000D01*
X4805000Y-3335000D02*
X4835000Y-3365000D01*
X4835000Y-3335000D02*
X4805000Y-3365000D01*
X4805000Y-3705000D02*
X4835000Y-3735000D01*
X4835000Y-3705000D02*
X4805000Y-3735000D01*
X4825000Y-2445000D02*
X4855000Y-2475000D01*
X4855000Y-2445000D02*
X4825000Y-2475000D01*
X4835000Y-3575000D02*
X4865000Y-3605000D01*
X4865000Y-3575000D02*
X4835000Y-3605000D01*
X4848680Y-5154935D02*
X4878680Y-5184935D01*
X4878680Y-5154935D02*
X4848680Y-5184935D01*
X4865000Y-5285000D02*
X4895000Y-5315000D01*
X4895000Y-5285000D02*
X4865000Y-5315000D01*
X4865000Y-5385000D02*
X4895000Y-5415000D01*
X4895000Y-5385000D02*
X4865000Y-5415000D01*
X4875000Y-2715000D02*
X4905000Y-2745000D01*
X4905000Y-2715000D02*
X4875000Y-2745000D01*
X4975000Y-5385000D02*
X5005000Y-5415000D01*
X5005000Y-5385000D02*
X4975000Y-5415000D01*
X4985000Y-5285000D02*
X5015000Y-5315000D01*
X5015000Y-5285000D02*
X4985000Y-5315000D01*
X4987440Y-4509116D02*
X5017440Y-4539116D01*
X5017440Y-4509116D02*
X4987440Y-4539116D01*
X5035000Y-4855000D02*
X5065000Y-4885000D01*
X5065000Y-4855000D02*
X5035000Y-4885000D01*
X5075000Y-5375000D02*
X5105000Y-5405000D01*
X5105000Y-5375000D02*
X5075000Y-5405000D01*
X5094282Y-3491615D02*
X5124282Y-3521615D01*
X5124282Y-3491615D02*
X5094282Y-3521615D01*
X5185000Y-4965000D02*
X5215000Y-4995000D01*
X5215000Y-4965000D02*
X5185000Y-4995000D01*
X5185000Y-5085000D02*
X5215000Y-5115000D01*
X5215000Y-5085000D02*
X5185000Y-5115000D01*
X5211155Y-4150507D02*
X5241155Y-4180507D01*
X5241155Y-4150507D02*
X5211155Y-4180507D01*
X5275000Y-4365000D02*
X5305000Y-4395000D01*
X5305000Y-4365000D02*
X5275000Y-4395000D01*
X5335000Y-5635000D02*
X5365000Y-5665000D01*
X5365000Y-5635000D02*
X5335000Y-5665000D01*
X5395780Y-4428291D02*
X5425780Y-4458291D01*
X5425780Y-4428291D02*
X5395780Y-4458291D01*
X5485000Y-5715000D02*
X5515000Y-5745000D01*
X5515000Y-5715000D02*
X5485000Y-5745000D01*
X5525000Y-3715000D02*
X5555000Y-3745000D01*
X5555000Y-3715000D02*
X5525000Y-3745000D01*
X5535000Y-3505000D02*
X5565000Y-3535000D01*
X5565000Y-3505000D02*
X5535000Y-3535000D01*
X5745000Y-5735000D02*
X5775000Y-5765000D01*
X5775000Y-5735000D02*
X5745000Y-5765000D01*
X5935000Y-4955000D02*
X5965000Y-4985000D01*
X5965000Y-4955000D02*
X5935000Y-4985000D01*
X5935000Y-5705000D02*
X5965000Y-5735000D01*
X5965000Y-5705000D02*
X5935000Y-5735000D01*
X5985000Y-3765000D02*
X6015000Y-3795000D01*
X6015000Y-3765000D02*
X5985000Y-3795000D01*
X5992000Y-3523798D02*
X6022000Y-3553798D01*
X6022000Y-3523798D02*
X5992000Y-3553798D01*
X6015000Y-4765000D02*
X6045000Y-4795000D01*
X6045000Y-4765000D02*
X6015000Y-4795000D01*
X6015000Y-4865000D02*
X6045000Y-4895000D01*
X6045000Y-4865000D02*
X6015000Y-4895000D01*
X6035000Y-4185000D02*
X6065000Y-4215000D01*
X6065000Y-4185000D02*
X6035000Y-4215000D01*
X6035000Y-4395000D02*
X6065000Y-4425000D01*
X6065000Y-4395000D02*
X6035000Y-4425000D01*
X6035000Y-4475000D02*
X6065000Y-4505000D01*
X6065000Y-4475000D02*
X6035000Y-4505000D01*
X6035000Y-4555000D02*
X6065000Y-4585000D01*
X6065000Y-4555000D02*
X6035000Y-4585000D01*
X6035000Y-4645000D02*
X6065000Y-4675000D01*
X6065000Y-4645000D02*
X6035000Y-4675000D01*
X6045000Y-4985000D02*
X6075000Y-5015000D01*
X6075000Y-4985000D02*
X6045000Y-5015000D01*
X6105000Y-4105000D02*
X6135000Y-4135000D01*
X6135000Y-4105000D02*
X6105000Y-4135000D01*
X6115000Y-3925000D02*
X6145000Y-3955000D01*
X6145000Y-3925000D02*
X6115000Y-3955000D01*
X6125000Y-5185000D02*
X6155000Y-5215000D01*
X6155000Y-5185000D02*
X6125000Y-5215000D01*
X6125000Y-5305000D02*
X6155000Y-5335000D01*
X6155000Y-5305000D02*
X6125000Y-5335000D01*
X6125000Y-5435000D02*
X6155000Y-5465000D01*
X6155000Y-5435000D02*
X6125000Y-5465000D01*
X6125000Y-5575000D02*
X6155000Y-5605000D01*
X6155000Y-5575000D02*
X6125000Y-5605000D01*
X6125000Y-5695000D02*
X6155000Y-5725000D01*
X6155000Y-5695000D02*
X6125000Y-5725000D01*
X6135000Y-4395000D02*
X6165000Y-4425000D01*
X6165000Y-4395000D02*
X6135000Y-4425000D01*
X6135000Y-4475000D02*
X6165000Y-4505000D01*
X6165000Y-4475000D02*
X6135000Y-4505000D01*
X6135000Y-4555000D02*
X6165000Y-4585000D01*
X6165000Y-4555000D02*
X6135000Y-4585000D01*
X6135000Y-4645000D02*
X6165000Y-4675000D01*
X6165000Y-4645000D02*
X6135000Y-4675000D01*
X6145000Y-3385000D02*
X6175000Y-3415000D01*
X6175000Y-3385000D02*
X6145000Y-3415000D01*
X6145000Y-3575000D02*
X6175000Y-3605000D01*
X6175000Y-3575000D02*
X6145000Y-3605000D01*
X6155000Y-5005000D02*
X6185000Y-5035000D01*
X6185000Y-5005000D02*
X6155000Y-5035000D01*
X6165000Y-3805000D02*
X6195000Y-3835000D01*
X6195000Y-3805000D02*
X6165000Y-3835000D01*
X6185000Y-4185000D02*
X6215000Y-4215000D01*
X6215000Y-4185000D02*
X6185000Y-4215000D01*
X6195000Y-3935000D02*
X6225000Y-3965000D01*
X6225000Y-3935000D02*
X6195000Y-3965000D01*
X6195000Y-4055000D02*
X6225000Y-4085000D01*
X6225000Y-4055000D02*
X6195000Y-4085000D01*
X6275000Y-5705000D02*
X6305000Y-5735000D01*
X6305000Y-5705000D02*
X6275000Y-5735000D01*
X6315000Y-3985000D02*
X6345000Y-4015000D01*
X6345000Y-3985000D02*
X6315000Y-4015000D01*
X6315000Y-4085000D02*
X6345000Y-4115000D01*
X6345000Y-4085000D02*
X6315000Y-4115000D01*
X6325000Y-4495000D02*
X6355000Y-4525000D01*
X6355000Y-4495000D02*
X6325000Y-4525000D01*
X6325000Y-4625000D02*
X6355000Y-4655000D01*
X6355000Y-4625000D02*
X6325000Y-4655000D01*
X6335000Y-5135000D02*
X6365000Y-5165000D01*
X6365000Y-5135000D02*
X6335000Y-5165000D01*
X6355000Y-5015000D02*
X6385000Y-5045000D01*
X6385000Y-5015000D02*
X6355000Y-5045000D01*
X6415000Y-4085000D02*
X6445000Y-4115000D01*
X6445000Y-4085000D02*
X6415000Y-4115000D01*
X6425000Y-3985000D02*
X6455000Y-4015000D01*
X6455000Y-3985000D02*
X6425000Y-4015000D01*
X6425000Y-4565000D02*
X6455000Y-4595000D01*
X6455000Y-4565000D02*
X6425000Y-4595000D01*
X6425000Y-5705000D02*
X6455000Y-5735000D01*
X6455000Y-5705000D02*
X6425000Y-5735000D01*
X6445000Y-5135000D02*
X6475000Y-5165000D01*
X6475000Y-5135000D02*
X6445000Y-5165000D01*
X6455000Y-5025000D02*
X6485000Y-5055000D01*
X6485000Y-5025000D02*
X6455000Y-5055000D01*
X6465000Y-4675000D02*
X6495000Y-4705000D01*
X6495000Y-4675000D02*
X6465000Y-4705000D01*
X6635000Y-5705000D02*
X6665000Y-5735000D01*
X6665000Y-5705000D02*
X6635000Y-5735000D01*
X6805000Y-5715000D02*
X6835000Y-5745000D01*
X6835000Y-5715000D02*
X6805000Y-5745000D01*
X2230000Y-3470000D02*
G75*
G02*
X2190000Y-3470000I-20000J0D01*
G01*
X2190000Y-3470000D02*
G75*
G02*
X2230000Y-3470000I20000J0D01*
G01*
X2230000Y-3720000D02*
G75*
G02*
X2190000Y-3720000I-20000J0D01*
G01*
X2190000Y-3720000D02*
G75*
G02*
X2230000Y-3720000I20000J0D01*
G01*
X2230000Y-3970000D02*
G75*
G02*
X2190000Y-3970000I-20000J0D01*
G01*
X2190000Y-3970000D02*
G75*
G02*
X2230000Y-3970000I20000J0D01*
G01*
X2230000Y-4220000D02*
G75*
G02*
X2190000Y-4220000I-20000J0D01*
G01*
X2190000Y-4220000D02*
G75*
G02*
X2230000Y-4220000I20000J0D01*
G01*
X2230000Y-4470000D02*
G75*
G02*
X2190000Y-4470000I-20000J0D01*
G01*
X2190000Y-4470000D02*
G75*
G02*
X2230000Y-4470000I20000J0D01*
G01*
X2230000Y-4720000D02*
G75*
G02*
X2190000Y-4720000I-20000J0D01*
G01*
X2190000Y-4720000D02*
G75*
G02*
X2230000Y-4720000I20000J0D01*
G01*
X2230000Y-4960000D02*
G75*
G02*
X2190000Y-4960000I-20000J0D01*
G01*
X2190000Y-4960000D02*
G75*
G02*
X2230000Y-4960000I20000J0D01*
G01*
X2230000Y-5210000D02*
G75*
G02*
X2190000Y-5210000I-20000J0D01*
G01*
X2190000Y-5210000D02*
G75*
G02*
X2230000Y-5210000I20000J0D01*
G01*
X2230000Y-5460000D02*
G75*
G02*
X2190000Y-5460000I-20000J0D01*
G01*
X2190000Y-5460000D02*
G75*
G02*
X2230000Y-5460000I20000J0D01*
G01*
X2230000Y-5710000D02*
G75*
G02*
X2190000Y-5710000I-20000J0D01*
G01*
X2190000Y-5710000D02*
G75*
G02*
X2230000Y-5710000I20000J0D01*
G01*
X2370000Y-4340000D02*
G75*
G02*
X2330000Y-4340000I-20000J0D01*
G01*
X2330000Y-4340000D02*
G75*
G02*
X2370000Y-4340000I20000J0D01*
G01*
X2390000Y-2970000D02*
G75*
G02*
X2350000Y-2970000I-20000J0D01*
G01*
X2350000Y-2970000D02*
G75*
G02*
X2390000Y-2970000I20000J0D01*
G01*
X2390000Y-4850000D02*
G75*
G02*
X2350000Y-4850000I-20000J0D01*
G01*
X2350000Y-4850000D02*
G75*
G02*
X2390000Y-4850000I20000J0D01*
G01*
X2410000Y-3340000D02*
G75*
G02*
X2370000Y-3340000I-20000J0D01*
G01*
X2370000Y-3340000D02*
G75*
G02*
X2410000Y-3340000I20000J0D01*
G01*
X2410000Y-3590000D02*
G75*
G02*
X2370000Y-3590000I-20000J0D01*
G01*
X2370000Y-3590000D02*
G75*
G02*
X2410000Y-3590000I20000J0D01*
G01*
X2410000Y-3840000D02*
G75*
G02*
X2370000Y-3840000I-20000J0D01*
G01*
X2370000Y-3840000D02*
G75*
G02*
X2410000Y-3840000I20000J0D01*
G01*
X2410000Y-4090000D02*
G75*
G02*
X2370000Y-4090000I-20000J0D01*
G01*
X2370000Y-4090000D02*
G75*
G02*
X2410000Y-4090000I20000J0D01*
G01*
X2410000Y-4590000D02*
G75*
G02*
X2370000Y-4590000I-20000J0D01*
G01*
X2370000Y-4590000D02*
G75*
G02*
X2410000Y-4590000I20000J0D01*
G01*
X2410000Y-5080000D02*
G75*
G02*
X2370000Y-5080000I-20000J0D01*
G01*
X2370000Y-5080000D02*
G75*
G02*
X2410000Y-5080000I20000J0D01*
G01*
X2410000Y-5330000D02*
G75*
G02*
X2370000Y-5330000I-20000J0D01*
G01*
X2370000Y-5330000D02*
G75*
G02*
X2410000Y-5330000I20000J0D01*
G01*
X2410000Y-5580000D02*
G75*
G02*
X2370000Y-5580000I-20000J0D01*
G01*
X2370000Y-5580000D02*
G75*
G02*
X2410000Y-5580000I20000J0D01*
G01*
X2530000Y-4410000D02*
G75*
G02*
X2490000Y-4410000I-20000J0D01*
G01*
X2490000Y-4410000D02*
G75*
G02*
X2530000Y-4410000I20000J0D01*
G01*
X2550000Y-2710000D02*
G75*
G02*
X2510000Y-2710000I-20000J0D01*
G01*
X2510000Y-2710000D02*
G75*
G02*
X2550000Y-2710000I20000J0D01*
G01*
X2550000Y-3470000D02*
G75*
G02*
X2510000Y-3470000I-20000J0D01*
G01*
X2510000Y-3470000D02*
G75*
G02*
X2550000Y-3470000I20000J0D01*
G01*
X2550000Y-3720000D02*
G75*
G02*
X2510000Y-3720000I-20000J0D01*
G01*
X2510000Y-3720000D02*
G75*
G02*
X2550000Y-3720000I20000J0D01*
G01*
X2550000Y-3970000D02*
G75*
G02*
X2510000Y-3970000I-20000J0D01*
G01*
X2510000Y-3970000D02*
G75*
G02*
X2550000Y-3970000I20000J0D01*
G01*
X2550000Y-4220000D02*
G75*
G02*
X2510000Y-4220000I-20000J0D01*
G01*
X2510000Y-4220000D02*
G75*
G02*
X2550000Y-4220000I20000J0D01*
G01*
X2550000Y-4750000D02*
G75*
G02*
X2510000Y-4750000I-20000J0D01*
G01*
X2510000Y-4750000D02*
G75*
G02*
X2550000Y-4750000I20000J0D01*
G01*
X2570000Y-5100000D02*
G75*
G02*
X2530000Y-5100000I-20000J0D01*
G01*
X2530000Y-5100000D02*
G75*
G02*
X2570000Y-5100000I20000J0D01*
G01*
X2670000Y-3340000D02*
G75*
G02*
X2630000Y-3340000I-20000J0D01*
G01*
X2630000Y-3340000D02*
G75*
G02*
X2670000Y-3340000I20000J0D01*
G01*
X2720000Y-3540000D02*
G75*
G02*
X2680000Y-3540000I-20000J0D01*
G01*
X2680000Y-3540000D02*
G75*
G02*
X2720000Y-3540000I20000J0D01*
G01*
X2730000Y-3720000D02*
G75*
G02*
X2690000Y-3720000I-20000J0D01*
G01*
X2690000Y-3720000D02*
G75*
G02*
X2730000Y-3720000I20000J0D01*
G01*
X2730000Y-3970000D02*
G75*
G02*
X2690000Y-3970000I-20000J0D01*
G01*
X2690000Y-3970000D02*
G75*
G02*
X2730000Y-3970000I20000J0D01*
G01*
X2750000Y-5090000D02*
G75*
G02*
X2710000Y-5090000I-20000J0D01*
G01*
X2710000Y-5090000D02*
G75*
G02*
X2750000Y-5090000I20000J0D01*
G01*
X2760000Y-4210000D02*
G75*
G02*
X2720000Y-4210000I-20000J0D01*
G01*
X2720000Y-4210000D02*
G75*
G02*
X2760000Y-4210000I20000J0D01*
G01*
X2880000Y-3590000D02*
G75*
G02*
X2840000Y-3590000I-20000J0D01*
G01*
X2840000Y-3590000D02*
G75*
G02*
X2880000Y-3590000I20000J0D01*
G01*
X2880000Y-3840000D02*
G75*
G02*
X2840000Y-3840000I-20000J0D01*
G01*
X2840000Y-3840000D02*
G75*
G02*
X2880000Y-3840000I20000J0D01*
G01*
X2880000Y-4090000D02*
G75*
G02*
X2840000Y-4090000I-20000J0D01*
G01*
X2840000Y-4090000D02*
G75*
G02*
X2880000Y-4090000I20000J0D01*
G01*
X2890000Y-2720000D02*
G75*
G02*
X2850000Y-2720000I-20000J0D01*
G01*
X2850000Y-2720000D02*
G75*
G02*
X2890000Y-2720000I20000J0D01*
G01*
X2900000Y-3360000D02*
G75*
G02*
X2860000Y-3360000I-20000J0D01*
G01*
X2860000Y-3360000D02*
G75*
G02*
X2900000Y-3360000I20000J0D01*
G01*
X3060000Y-3470000D02*
G75*
G02*
X3020000Y-3470000I-20000J0D01*
G01*
X3020000Y-3470000D02*
G75*
G02*
X3060000Y-3470000I20000J0D01*
G01*
X3060000Y-3720000D02*
G75*
G02*
X3020000Y-3720000I-20000J0D01*
G01*
X3020000Y-3720000D02*
G75*
G02*
X3060000Y-3720000I20000J0D01*
G01*
X3060000Y-3970000D02*
G75*
G02*
X3020000Y-3970000I-20000J0D01*
G01*
X3020000Y-3970000D02*
G75*
G02*
X3060000Y-3970000I20000J0D01*
G01*
X3080000Y-4950000D02*
G75*
G02*
X3040000Y-4950000I-20000J0D01*
G01*
X3040000Y-4950000D02*
G75*
G02*
X3080000Y-4950000I20000J0D01*
G01*
X3090000Y-4310000D02*
G75*
G02*
X3050000Y-4310000I-20000J0D01*
G01*
X3050000Y-4310000D02*
G75*
G02*
X3090000Y-4310000I20000J0D01*
G01*
X3100000Y-2730000D02*
G75*
G02*
X3060000Y-2730000I-20000J0D01*
G01*
X3060000Y-2730000D02*
G75*
G02*
X3100000Y-2730000I20000J0D01*
G01*
X3100000Y-4490000D02*
G75*
G02*
X3060000Y-4490000I-20000J0D01*
G01*
X3060000Y-4490000D02*
G75*
G02*
X3100000Y-4490000I20000J0D01*
G01*
X3110000Y-4650000D02*
G75*
G02*
X3070000Y-4650000I-20000J0D01*
G01*
X3070000Y-4650000D02*
G75*
G02*
X3110000Y-4650000I20000J0D01*
G01*
X3120000Y-3010000D02*
G75*
G02*
X3080000Y-3010000I-20000J0D01*
G01*
X3080000Y-3010000D02*
G75*
G02*
X3120000Y-3010000I20000J0D01*
G01*
X3210000Y-3340000D02*
G75*
G02*
X3170000Y-3340000I-20000J0D01*
G01*
X3170000Y-3340000D02*
G75*
G02*
X3210000Y-3340000I20000J0D01*
G01*
X3210000Y-3590000D02*
G75*
G02*
X3170000Y-3590000I-20000J0D01*
G01*
X3170000Y-3590000D02*
G75*
G02*
X3210000Y-3590000I20000J0D01*
G01*
X3210000Y-3840000D02*
G75*
G02*
X3170000Y-3840000I-20000J0D01*
G01*
X3170000Y-3840000D02*
G75*
G02*
X3210000Y-3840000I20000J0D01*
G01*
X3210000Y-4090000D02*
G75*
G02*
X3170000Y-4090000I-20000J0D01*
G01*
X3170000Y-4090000D02*
G75*
G02*
X3210000Y-4090000I20000J0D01*
G01*
X3220000Y-4810000D02*
G75*
G02*
X3180000Y-4810000I-20000J0D01*
G01*
X3180000Y-4810000D02*
G75*
G02*
X3220000Y-4810000I20000J0D01*
G01*
X3250000Y-2880000D02*
G75*
G02*
X3210000Y-2880000I-20000J0D01*
G01*
X3210000Y-2880000D02*
G75*
G02*
X3250000Y-2880000I20000J0D01*
G01*
X3350000Y-4950000D02*
G75*
G02*
X3310000Y-4950000I-20000J0D01*
G01*
X3310000Y-4950000D02*
G75*
G02*
X3350000Y-4950000I20000J0D01*
G01*
X3390000Y-3470000D02*
G75*
G02*
X3350000Y-3470000I-20000J0D01*
G01*
X3350000Y-3470000D02*
G75*
G02*
X3390000Y-3470000I20000J0D01*
G01*
X3390000Y-3720000D02*
G75*
G02*
X3350000Y-3720000I-20000J0D01*
G01*
X3350000Y-3720000D02*
G75*
G02*
X3390000Y-3720000I20000J0D01*
G01*
X3390000Y-3970000D02*
G75*
G02*
X3350000Y-3970000I-20000J0D01*
G01*
X3350000Y-3970000D02*
G75*
G02*
X3390000Y-3970000I20000J0D01*
G01*
X3490000Y-4810000D02*
G75*
G02*
X3450000Y-4810000I-20000J0D01*
G01*
X3450000Y-4810000D02*
G75*
G02*
X3490000Y-4810000I20000J0D01*
G01*
X3540000Y-3350000D02*
G75*
G02*
X3500000Y-3350000I-20000J0D01*
G01*
X3500000Y-3350000D02*
G75*
G02*
X3540000Y-3350000I20000J0D01*
G01*
X3610000Y-4420000D02*
G75*
G02*
X3570000Y-4420000I-20000J0D01*
G01*
X3570000Y-4420000D02*
G75*
G02*
X3610000Y-4420000I20000J0D01*
G01*
X3610000Y-4700000D02*
G75*
G02*
X3570000Y-4700000I-20000J0D01*
G01*
X3570000Y-4700000D02*
G75*
G02*
X3610000Y-4700000I20000J0D01*
G01*
X3610000Y-4950000D02*
G75*
G02*
X3570000Y-4950000I-20000J0D01*
G01*
X3570000Y-4950000D02*
G75*
G02*
X3610000Y-4950000I20000J0D01*
G01*
X3720000Y-3480000D02*
G75*
G02*
X3680000Y-3480000I-20000J0D01*
G01*
X3680000Y-3480000D02*
G75*
G02*
X3720000Y-3480000I20000J0D01*
G01*
X3750000Y-4560000D02*
G75*
G02*
X3710000Y-4560000I-20000J0D01*
G01*
X3710000Y-4560000D02*
G75*
G02*
X3750000Y-4560000I20000J0D01*
G01*
X3750000Y-4810000D02*
G75*
G02*
X3710000Y-4810000I-20000J0D01*
G01*
X3710000Y-4810000D02*
G75*
G02*
X3750000Y-4810000I20000J0D01*
G01*
X3880000Y-4420000D02*
G75*
G02*
X3840000Y-4420000I-20000J0D01*
G01*
X3840000Y-4420000D02*
G75*
G02*
X3880000Y-4420000I20000J0D01*
G01*
X3880000Y-4700000D02*
G75*
G02*
X3840000Y-4700000I-20000J0D01*
G01*
X3840000Y-4700000D02*
G75*
G02*
X3880000Y-4700000I20000J0D01*
G01*
X3880000Y-4950000D02*
G75*
G02*
X3840000Y-4950000I-20000J0D01*
G01*
X3840000Y-4950000D02*
G75*
G02*
X3880000Y-4950000I20000J0D01*
G01*
X4020000Y-4560000D02*
G75*
G02*
X3980000Y-4560000I-20000J0D01*
G01*
X3980000Y-4560000D02*
G75*
G02*
X4020000Y-4560000I20000J0D01*
G01*
X4020000Y-4810000D02*
G75*
G02*
X3980000Y-4810000I-20000J0D01*
G01*
X3980000Y-4810000D02*
G75*
G02*
X4020000Y-4810000I20000J0D01*
G01*
X4020000Y-4950000D02*
G75*
G02*
X3980000Y-4950000I-20000J0D01*
G01*
X3980000Y-4950000D02*
G75*
G02*
X4020000Y-4950000I20000J0D01*
G01*
X4140000Y-4420000D02*
G75*
G02*
X4100000Y-4420000I-20000J0D01*
G01*
X4100000Y-4420000D02*
G75*
G02*
X4140000Y-4420000I20000J0D01*
G01*
X4140000Y-4700000D02*
G75*
G02*
X4100000Y-4700000I-20000J0D01*
G01*
X4100000Y-4700000D02*
G75*
G02*
X4140000Y-4700000I20000J0D01*
G01*
X4280000Y-4560000D02*
G75*
G02*
X4240000Y-4560000I-20000J0D01*
G01*
X4240000Y-4560000D02*
G75*
G02*
X4280000Y-4560000I20000J0D01*
G01*
X5180000Y-4865000D02*
G75*
G02*
X5140000Y-4865000I-20000J0D01*
G01*
X5140000Y-4865000D02*
G75*
G02*
X5180000Y-4865000I20000J0D01*
G01*
X5610000Y-4710000D02*
G75*
G02*
X5570000Y-4710000I-20000J0D01*
G01*
X5570000Y-4710000D02*
G75*
G02*
X5610000Y-4710000I20000J0D01*
G01*
X6260000Y-2290000D02*
G75*
G02*
X6220000Y-2290000I-20000J0D01*
G01*
X6220000Y-2290000D02*
G75*
G02*
X6260000Y-2290000I20000J0D01*
G01*
X6260000Y-2570000D02*
G75*
G02*
X6220000Y-2570000I-20000J0D01*
G01*
X6220000Y-2570000D02*
G75*
G02*
X6260000Y-2570000I20000J0D01*
G01*
X6400000Y-2430000D02*
G75*
G02*
X6360000Y-2430000I-20000J0D01*
G01*
X6360000Y-2430000D02*
G75*
G02*
X6400000Y-2430000I20000J0D01*
G01*
X6530000Y-2290000D02*
G75*
G02*
X6490000Y-2290000I-20000J0D01*
G01*
X6490000Y-2290000D02*
G75*
G02*
X6530000Y-2290000I20000J0D01*
G01*
X6530000Y-2570000D02*
G75*
G02*
X6490000Y-2570000I-20000J0D01*
G01*
X6490000Y-2570000D02*
G75*
G02*
X6530000Y-2570000I20000J0D01*
G01*
X6660000Y-4680000D02*
G75*
G02*
X6620000Y-4680000I-20000J0D01*
G01*
X6620000Y-4680000D02*
G75*
G02*
X6660000Y-4680000I20000J0D01*
G01*
X6670000Y-2430000D02*
G75*
G02*
X6630000Y-2430000I-20000J0D01*
G01*
X6630000Y-2430000D02*
G75*
G02*
X6670000Y-2430000I20000J0D01*
G01*
X6670000Y-4910000D02*
G75*
G02*
X6630000Y-4910000I-20000J0D01*
G01*
X6630000Y-4910000D02*
G75*
G02*
X6670000Y-4910000I20000J0D01*
G01*
X6680000Y-5160000D02*
G75*
G02*
X6640000Y-5160000I-20000J0D01*
G01*
X6640000Y-5160000D02*
G75*
G02*
X6680000Y-5160000I20000J0D01*
G01*
X6710000Y-3340000D02*
G75*
G02*
X6670000Y-3340000I-20000J0D01*
G01*
X6670000Y-3340000D02*
G75*
G02*
X6710000Y-3340000I20000J0D01*
G01*
X6710000Y-3580000D02*
G75*
G02*
X6670000Y-3580000I-20000J0D01*
G01*
X6670000Y-3580000D02*
G75*
G02*
X6710000Y-3580000I20000J0D01*
G01*
X6730000Y-2580000D02*
G75*
G02*
X6690000Y-2580000I-20000J0D01*
G01*
X6690000Y-2580000D02*
G75*
G02*
X6730000Y-2580000I20000J0D01*
G01*
X6730000Y-2810000D02*
G75*
G02*
X6690000Y-2810000I-20000J0D01*
G01*
X6690000Y-2810000D02*
G75*
G02*
X6730000Y-2810000I20000J0D01*
G01*
X6730000Y-3050000D02*
G75*
G02*
X6690000Y-3050000I-20000J0D01*
G01*
X6690000Y-3050000D02*
G75*
G02*
X6730000Y-3050000I20000J0D01*
G01*
X6730000Y-3840000D02*
G75*
G02*
X6690000Y-3840000I-20000J0D01*
G01*
X6690000Y-3840000D02*
G75*
G02*
X6730000Y-3840000I20000J0D01*
G01*
X6730000Y-4080000D02*
G75*
G02*
X6690000Y-4080000I-20000J0D01*
G01*
X6690000Y-4080000D02*
G75*
G02*
X6730000Y-4080000I20000J0D01*
G01*
X6780000Y-4540000D02*
G75*
G02*
X6740000Y-4540000I-20000J0D01*
G01*
X6740000Y-4540000D02*
G75*
G02*
X6780000Y-4540000I20000J0D01*
G01*
X6790000Y-2290000D02*
G75*
G02*
X6750000Y-2290000I-20000J0D01*
G01*
X6750000Y-2290000D02*
G75*
G02*
X6790000Y-2290000I20000J0D01*
G01*
X6790000Y-4770000D02*
G75*
G02*
X6750000Y-4770000I-20000J0D01*
G01*
X6750000Y-4770000D02*
G75*
G02*
X6790000Y-4770000I20000J0D01*
G01*
X6800000Y-5020000D02*
G75*
G02*
X6760000Y-5020000I-20000J0D01*
G01*
X6760000Y-5020000D02*
G75*
G02*
X6800000Y-5020000I20000J0D01*
G01*
X6850000Y-3200000D02*
G75*
G02*
X6810000Y-3200000I-20000J0D01*
G01*
X6810000Y-3200000D02*
G75*
G02*
X6850000Y-3200000I20000J0D01*
G01*
X6850000Y-3440000D02*
G75*
G02*
X6810000Y-3440000I-20000J0D01*
G01*
X6810000Y-3440000D02*
G75*
G02*
X6850000Y-3440000I20000J0D01*
G01*
X6860000Y-4420000D02*
G75*
G02*
X6820000Y-4420000I-20000J0D01*
G01*
X6820000Y-4420000D02*
G75*
G02*
X6860000Y-4420000I20000J0D01*
G01*
X6870000Y-2440000D02*
G75*
G02*
X6830000Y-2440000I-20000J0D01*
G01*
X6830000Y-2440000D02*
G75*
G02*
X6870000Y-2440000I20000J0D01*
G01*
X6870000Y-2670000D02*
G75*
G02*
X6830000Y-2670000I-20000J0D01*
G01*
X6830000Y-2670000D02*
G75*
G02*
X6870000Y-2670000I20000J0D01*
G01*
X6870000Y-2910000D02*
G75*
G02*
X6830000Y-2910000I-20000J0D01*
G01*
X6830000Y-2910000D02*
G75*
G02*
X6870000Y-2910000I20000J0D01*
G01*
X6870000Y-3700000D02*
G75*
G02*
X6830000Y-3700000I-20000J0D01*
G01*
X6830000Y-3700000D02*
G75*
G02*
X6870000Y-3700000I20000J0D01*
G01*
X6870000Y-3940000D02*
G75*
G02*
X6830000Y-3940000I-20000J0D01*
G01*
X6830000Y-3940000D02*
G75*
G02*
X6870000Y-3940000I20000J0D01*
G01*
X6870000Y-4190000D02*
G75*
G02*
X6830000Y-4190000I-20000J0D01*
G01*
X6830000Y-4190000D02*
G75*
G02*
X6870000Y-4190000I20000J0D01*
G01*
X6870000Y-4650000D02*
G75*
G02*
X6830000Y-4650000I-20000J0D01*
G01*
X6830000Y-4650000D02*
G75*
G02*
X6870000Y-4650000I20000J0D01*
G01*
X6880000Y-4900000D02*
G75*
G02*
X6840000Y-4900000I-20000J0D01*
G01*
X6840000Y-4900000D02*
G75*
G02*
X6880000Y-4900000I20000J0D01*
G01*
X6970000Y-3060000D02*
G75*
G02*
X6930000Y-3060000I-20000J0D01*
G01*
X6930000Y-3060000D02*
G75*
G02*
X6970000Y-3060000I20000J0D01*
G01*
X6970000Y-3300000D02*
G75*
G02*
X6930000Y-3300000I-20000J0D01*
G01*
X6930000Y-3300000D02*
G75*
G02*
X6970000Y-3300000I20000J0D01*
G01*
X6980000Y-4280000D02*
G75*
G02*
X6940000Y-4280000I-20000J0D01*
G01*
X6940000Y-4280000D02*
G75*
G02*
X6980000Y-4280000I20000J0D01*
G01*
X6980000Y-5040000D02*
G75*
G02*
X6940000Y-5040000I-20000J0D01*
G01*
X6940000Y-5040000D02*
G75*
G02*
X6980000Y-5040000I20000J0D01*
G01*
X6980000Y-5240000D02*
G75*
G02*
X6940000Y-5240000I-20000J0D01*
G01*
X6940000Y-5240000D02*
G75*
G02*
X6980000Y-5240000I20000J0D01*
G01*
X6980000Y-5420000D02*
G75*
G02*
X6940000Y-5420000I-20000J0D01*
G01*
X6940000Y-5420000D02*
G75*
G02*
X6980000Y-5420000I20000J0D01*
G01*
X6980000Y-5650000D02*
G75*
G02*
X6940000Y-5650000I-20000J0D01*
G01*
X6940000Y-5650000D02*
G75*
G02*
X6980000Y-5650000I20000J0D01*
G01*
X6990000Y-2300000D02*
G75*
G02*
X6950000Y-2300000I-20000J0D01*
G01*
X6950000Y-2300000D02*
G75*
G02*
X6990000Y-2300000I20000J0D01*
G01*
X6990000Y-2530000D02*
G75*
G02*
X6950000Y-2530000I-20000J0D01*
G01*
X6950000Y-2530000D02*
G75*
G02*
X6990000Y-2530000I20000J0D01*
G01*
X6990000Y-2770000D02*
G75*
G02*
X6950000Y-2770000I-20000J0D01*
G01*
X6950000Y-2770000D02*
G75*
G02*
X6990000Y-2770000I20000J0D01*
G01*
X6990000Y-3560000D02*
G75*
G02*
X6950000Y-3560000I-20000J0D01*
G01*
X6950000Y-3560000D02*
G75*
G02*
X6990000Y-3560000I20000J0D01*
G01*
X6990000Y-3800000D02*
G75*
G02*
X6950000Y-3800000I-20000J0D01*
G01*
X6950000Y-3800000D02*
G75*
G02*
X6990000Y-3800000I20000J0D01*
G01*
X6990000Y-4050000D02*
G75*
G02*
X6950000Y-4050000I-20000J0D01*
G01*
X6950000Y-4050000D02*
G75*
G02*
X6990000Y-4050000I20000J0D01*
G01*
X6990000Y-4510000D02*
G75*
G02*
X6950000Y-4510000I-20000J0D01*
G01*
X6950000Y-4510000D02*
G75*
G02*
X6990000Y-4510000I20000J0D01*
G01*
X7000000Y-4760000D02*
G75*
G02*
X6960000Y-4760000I-20000J0D01*
G01*
X6960000Y-4760000D02*
G75*
G02*
X7000000Y-4760000I20000J0D01*
G01*
X4903500Y-4160500D02*
X4903500Y-4240500D01*
X4863500Y-4200500D02*
X4943500Y-4200500D01*
X4903500Y-4668500D02*
X4903500Y-4748500D01*
X4863500Y-4708500D02*
X4943500Y-4708500D01*
X5157500Y-4414500D02*
X5157500Y-4494500D01*
X5117500Y-4454500D02*
X5197500Y-4454500D01*
X6370976Y-4262500D02*
X6370976Y-4342500D01*
X6330976Y-4302500D02*
X6410976Y-4302500D01*
X6620976Y-4262500D02*
X6620976Y-4342500D01*
X6580976Y-4302500D02*
X6660976Y-4302500D01*
X2292856Y-2677856D02*
X2292856Y-2607144D01*
X2222144Y-2607144D01*
X2222144Y-2677856D01*
X2292856Y-2677856D01*
X2207500Y-2542500D02*
X2207500Y-2742500D01*
X2307500Y-2742500D02*
G75*
G02*
X2207500Y-2742500I-50000J0D01*
G01*
X2307500Y-2742500D02*
X2307500Y-2542500D01*
X2307500Y-2542500D02*
G75*
G03*
X2207500Y-2542500I-50000J0D01*
G01*
X2762856Y-2377856D02*
X2762856Y-2307144D01*
X2692144Y-2307144D01*
X2692144Y-2377856D01*
X2762856Y-2377856D01*
X2827500Y-2292500D02*
X2627500Y-2292500D01*
X2627500Y-2392500D02*
G75*
G02*
X2627500Y-2292500I0J50000D01*
G01*
X2627500Y-2392500D02*
X2827500Y-2392500D01*
X2827500Y-2392500D02*
G75*
G03*
X2827500Y-2292500I0J50000D01*
G01*
X2762856Y-2997856D02*
X2762856Y-2927144D01*
X2692144Y-2927144D01*
X2692144Y-2997856D01*
X2762856Y-2997856D01*
X2852500Y-2912500D02*
X2602500Y-2912500D01*
X2602500Y-3012500D02*
G75*
G02*
X2602500Y-2912500I0J50000D01*
G01*
X2602500Y-3012500D02*
X2852500Y-3012500D01*
X2852500Y-3012500D02*
G75*
G03*
X2852500Y-2912500I0J50000D01*
G01*
D13*
X2719000Y-5494000D02*
X2779000Y-5434000D01*
X2719000Y-5374000D01*
X2659000Y-5434000D01*
X2719000Y-5494000D01*
X3069000Y-5494000D02*
X3129000Y-5434000D01*
X3069000Y-5374000D01*
X3009000Y-5434000D01*
X3069000Y-5494000D01*
X6371000Y-5494000D02*
X6431000Y-5434000D01*
X6371000Y-5374000D01*
X6311000Y-5434000D01*
X6371000Y-5494000D01*
X6721000Y-5494000D02*
X6781000Y-5434000D01*
X6721000Y-5374000D01*
X6661000Y-5434000D01*
X6721000Y-5494000D01*
D11*
X2338277Y-6113984D02*
X2338277Y-5913984D01*
X2338277Y-5913984D02*
X2385896Y-5913984D01*
X2385896Y-5913984D02*
X2414467Y-5923508D01*
X2414467Y-5923508D02*
X2433515Y-5942555D01*
X2433515Y-5942555D02*
X2443039Y-5961603D01*
X2443039Y-5961603D02*
X2452563Y-5999698D01*
X2452563Y-5999698D02*
X2452563Y-6028269D01*
X2452563Y-6028269D02*
X2443039Y-6066365D01*
X2443039Y-6066365D02*
X2433515Y-6085412D01*
X2433515Y-6085412D02*
X2414467Y-6104460D01*
X2414467Y-6104460D02*
X2385896Y-6113984D01*
X2385896Y-6113984D02*
X2338277Y-6113984D01*
X2538277Y-6113984D02*
X2538277Y-5980650D01*
X2538277Y-6018746D02*
X2547801Y-5999698D01*
X2547801Y-5999698D02*
X2557324Y-5990174D01*
X2557324Y-5990174D02*
X2576372Y-5980650D01*
X2576372Y-5980650D02*
X2595420Y-5980650D01*
X2662086Y-6113984D02*
X2662086Y-5980650D01*
X2662086Y-5913984D02*
X2652563Y-5923508D01*
X2652563Y-5923508D02*
X2662086Y-5933031D01*
X2662086Y-5933031D02*
X2671610Y-5923508D01*
X2671610Y-5923508D02*
X2662086Y-5913984D01*
X2662086Y-5913984D02*
X2662086Y-5933031D01*
X2785896Y-6113984D02*
X2766848Y-6104460D01*
X2766848Y-6104460D02*
X2757324Y-6085412D01*
X2757324Y-6085412D02*
X2757324Y-5913984D01*
X2890658Y-6113984D02*
X2871610Y-6104460D01*
X2871610Y-6104460D02*
X2862086Y-6085412D01*
X2862086Y-6085412D02*
X2862086Y-5913984D01*
X3119229Y-6113984D02*
X3119229Y-5913984D01*
X3119229Y-5913984D02*
X3185896Y-6056841D01*
X3185896Y-6056841D02*
X3252562Y-5913984D01*
X3252562Y-5913984D02*
X3252562Y-6113984D01*
X3433515Y-6113984D02*
X3433515Y-6009222D01*
X3433515Y-6009222D02*
X3423991Y-5990174D01*
X3423991Y-5990174D02*
X3404943Y-5980650D01*
X3404943Y-5980650D02*
X3366848Y-5980650D01*
X3366848Y-5980650D02*
X3347801Y-5990174D01*
X3433515Y-6104460D02*
X3414467Y-6113984D01*
X3414467Y-6113984D02*
X3366848Y-6113984D01*
X3366848Y-6113984D02*
X3347801Y-6104460D01*
X3347801Y-6104460D02*
X3338277Y-6085412D01*
X3338277Y-6085412D02*
X3338277Y-6066365D01*
X3338277Y-6066365D02*
X3347801Y-6047317D01*
X3347801Y-6047317D02*
X3366848Y-6037793D01*
X3366848Y-6037793D02*
X3414467Y-6037793D01*
X3414467Y-6037793D02*
X3433515Y-6028269D01*
X3528753Y-5980650D02*
X3528753Y-6180650D01*
X3528753Y-5990174D02*
X3547801Y-5980650D01*
X3547801Y-5980650D02*
X3585896Y-5980650D01*
X3585896Y-5980650D02*
X3604943Y-5990174D01*
X3604943Y-5990174D02*
X3614467Y-5999698D01*
X3614467Y-5999698D02*
X3623991Y-6018746D01*
X3623991Y-6018746D02*
X3623991Y-6075888D01*
X3623991Y-6075888D02*
X3614467Y-6094936D01*
X3614467Y-6094936D02*
X3604943Y-6104460D01*
X3604943Y-6104460D02*
X3585896Y-6113984D01*
X3585896Y-6113984D02*
X3547801Y-6113984D01*
X3547801Y-6113984D02*
X3528753Y-6104460D01*
X3709705Y-6094936D02*
X3719229Y-6104460D01*
X3719229Y-6104460D02*
X3709705Y-6113984D01*
X3709705Y-6113984D02*
X3700182Y-6104460D01*
X3700182Y-6104460D02*
X3709705Y-6094936D01*
X3709705Y-6094936D02*
X3709705Y-6113984D01*
X3709705Y-5990174D02*
X3719229Y-5999698D01*
X3719229Y-5999698D02*
X3709705Y-6009222D01*
X3709705Y-6009222D02*
X3700182Y-5999698D01*
X3700182Y-5999698D02*
X3709705Y-5990174D01*
X3709705Y-5990174D02*
X3709705Y-6009222D01*
D12*
X2047500Y-6427500D02*
X2077500Y-6457500D01*
X2077500Y-6427500D02*
X2047500Y-6457500D01*
D11*
X2376372Y-6333984D02*
X2395420Y-6333984D01*
X2395420Y-6333984D02*
X2414467Y-6343508D01*
X2414467Y-6343508D02*
X2423991Y-6353031D01*
X2423991Y-6353031D02*
X2433515Y-6372079D01*
X2433515Y-6372079D02*
X2443039Y-6410174D01*
X2443039Y-6410174D02*
X2443039Y-6457793D01*
X2443039Y-6457793D02*
X2433515Y-6495888D01*
X2433515Y-6495888D02*
X2423991Y-6514936D01*
X2423991Y-6514936D02*
X2414467Y-6524460D01*
X2414467Y-6524460D02*
X2395420Y-6533984D01*
X2395420Y-6533984D02*
X2376372Y-6533984D01*
X2376372Y-6533984D02*
X2357324Y-6524460D01*
X2357324Y-6524460D02*
X2347801Y-6514936D01*
X2347801Y-6514936D02*
X2338277Y-6495888D01*
X2338277Y-6495888D02*
X2328753Y-6457793D01*
X2328753Y-6457793D02*
X2328753Y-6410174D01*
X2328753Y-6410174D02*
X2338277Y-6372079D01*
X2338277Y-6372079D02*
X2347801Y-6353031D01*
X2347801Y-6353031D02*
X2357324Y-6343508D01*
X2357324Y-6343508D02*
X2376372Y-6333984D01*
X2528753Y-6514936D02*
X2538277Y-6524460D01*
X2538277Y-6524460D02*
X2528753Y-6533984D01*
X2528753Y-6533984D02*
X2519229Y-6524460D01*
X2519229Y-6524460D02*
X2528753Y-6514936D01*
X2528753Y-6514936D02*
X2528753Y-6533984D01*
X2604944Y-6333984D02*
X2728753Y-6333984D01*
X2728753Y-6333984D02*
X2662086Y-6410174D01*
X2662086Y-6410174D02*
X2690658Y-6410174D01*
X2690658Y-6410174D02*
X2709705Y-6419698D01*
X2709705Y-6419698D02*
X2719229Y-6429222D01*
X2719229Y-6429222D02*
X2728753Y-6448269D01*
X2728753Y-6448269D02*
X2728753Y-6495888D01*
X2728753Y-6495888D02*
X2719229Y-6514936D01*
X2719229Y-6514936D02*
X2709705Y-6524460D01*
X2709705Y-6524460D02*
X2690658Y-6533984D01*
X2690658Y-6533984D02*
X2633515Y-6533984D01*
X2633515Y-6533984D02*
X2614467Y-6524460D01*
X2614467Y-6524460D02*
X2604944Y-6514936D01*
X2852562Y-6333984D02*
X2871610Y-6333984D01*
X2871610Y-6333984D02*
X2890658Y-6343508D01*
X2890658Y-6343508D02*
X2900182Y-6353031D01*
X2900182Y-6353031D02*
X2909705Y-6372079D01*
X2909705Y-6372079D02*
X2919229Y-6410174D01*
X2919229Y-6410174D02*
X2919229Y-6457793D01*
X2919229Y-6457793D02*
X2909705Y-6495888D01*
X2909705Y-6495888D02*
X2900182Y-6514936D01*
X2900182Y-6514936D02*
X2890658Y-6524460D01*
X2890658Y-6524460D02*
X2871610Y-6533984D01*
X2871610Y-6533984D02*
X2852562Y-6533984D01*
X2852562Y-6533984D02*
X2833515Y-6524460D01*
X2833515Y-6524460D02*
X2823991Y-6514936D01*
X2823991Y-6514936D02*
X2814467Y-6495888D01*
X2814467Y-6495888D02*
X2804943Y-6457793D01*
X2804943Y-6457793D02*
X2804943Y-6410174D01*
X2804943Y-6410174D02*
X2814467Y-6372079D01*
X2814467Y-6372079D02*
X2823991Y-6353031D01*
X2823991Y-6353031D02*
X2833515Y-6343508D01*
X2833515Y-6343508D02*
X2852562Y-6333984D01*
X3043039Y-6333984D02*
X3062086Y-6333984D01*
X3062086Y-6333984D02*
X3081134Y-6343508D01*
X3081134Y-6343508D02*
X3090658Y-6353031D01*
X3090658Y-6353031D02*
X3100182Y-6372079D01*
X3100182Y-6372079D02*
X3109705Y-6410174D01*
X3109705Y-6410174D02*
X3109705Y-6457793D01*
X3109705Y-6457793D02*
X3100182Y-6495888D01*
X3100182Y-6495888D02*
X3090658Y-6514936D01*
X3090658Y-6514936D02*
X3081134Y-6524460D01*
X3081134Y-6524460D02*
X3062086Y-6533984D01*
X3062086Y-6533984D02*
X3043039Y-6533984D01*
X3043039Y-6533984D02*
X3023991Y-6524460D01*
X3023991Y-6524460D02*
X3014467Y-6514936D01*
X3014467Y-6514936D02*
X3004943Y-6495888D01*
X3004943Y-6495888D02*
X2995420Y-6457793D01*
X2995420Y-6457793D02*
X2995420Y-6410174D01*
X2995420Y-6410174D02*
X3004943Y-6372079D01*
X3004943Y-6372079D02*
X3014467Y-6353031D01*
X3014467Y-6353031D02*
X3023991Y-6343508D01*
X3023991Y-6343508D02*
X3043039Y-6333984D01*
X3195420Y-6533984D02*
X3195420Y-6400650D01*
X3195420Y-6419698D02*
X3204943Y-6410174D01*
X3204943Y-6410174D02*
X3223991Y-6400650D01*
X3223991Y-6400650D02*
X3252563Y-6400650D01*
X3252563Y-6400650D02*
X3271610Y-6410174D01*
X3271610Y-6410174D02*
X3281134Y-6429222D01*
X3281134Y-6429222D02*
X3281134Y-6533984D01*
X3281134Y-6429222D02*
X3290658Y-6410174D01*
X3290658Y-6410174D02*
X3309705Y-6400650D01*
X3309705Y-6400650D02*
X3338277Y-6400650D01*
X3338277Y-6400650D02*
X3357324Y-6410174D01*
X3357324Y-6410174D02*
X3366848Y-6429222D01*
X3366848Y-6429222D02*
X3366848Y-6533984D01*
X3462086Y-6533984D02*
X3462086Y-6400650D01*
X3462086Y-6419698D02*
X3471610Y-6410174D01*
X3471610Y-6410174D02*
X3490658Y-6400650D01*
X3490658Y-6400650D02*
X3519229Y-6400650D01*
X3519229Y-6400650D02*
X3538277Y-6410174D01*
X3538277Y-6410174D02*
X3547801Y-6429222D01*
X3547801Y-6429222D02*
X3547801Y-6533984D01*
X3547801Y-6429222D02*
X3557324Y-6410174D01*
X3557324Y-6410174D02*
X3576372Y-6400650D01*
X3576372Y-6400650D02*
X3604943Y-6400650D01*
X3604943Y-6400650D02*
X3623991Y-6410174D01*
X3623991Y-6410174D02*
X3633515Y-6429222D01*
X3633515Y-6429222D02*
X3633515Y-6533984D01*
X4023991Y-6324460D02*
X3852563Y-6581603D01*
X4281134Y-6333984D02*
X4300182Y-6333984D01*
X4300182Y-6333984D02*
X4319229Y-6343508D01*
X4319229Y-6343508D02*
X4328753Y-6353031D01*
X4328753Y-6353031D02*
X4338277Y-6372079D01*
X4338277Y-6372079D02*
X4347801Y-6410174D01*
X4347801Y-6410174D02*
X4347801Y-6457793D01*
X4347801Y-6457793D02*
X4338277Y-6495888D01*
X4338277Y-6495888D02*
X4328753Y-6514936D01*
X4328753Y-6514936D02*
X4319229Y-6524460D01*
X4319229Y-6524460D02*
X4300182Y-6533984D01*
X4300182Y-6533984D02*
X4281134Y-6533984D01*
X4281134Y-6533984D02*
X4262087Y-6524460D01*
X4262087Y-6524460D02*
X4252563Y-6514936D01*
X4252563Y-6514936D02*
X4243039Y-6495888D01*
X4243039Y-6495888D02*
X4233515Y-6457793D01*
X4233515Y-6457793D02*
X4233515Y-6410174D01*
X4233515Y-6410174D02*
X4243039Y-6372079D01*
X4243039Y-6372079D02*
X4252563Y-6353031D01*
X4252563Y-6353031D02*
X4262087Y-6343508D01*
X4262087Y-6343508D02*
X4281134Y-6333984D01*
X4433515Y-6514936D02*
X4443039Y-6524460D01*
X4443039Y-6524460D02*
X4433515Y-6533984D01*
X4433515Y-6533984D02*
X4423991Y-6524460D01*
X4423991Y-6524460D02*
X4433515Y-6514936D01*
X4433515Y-6514936D02*
X4433515Y-6533984D01*
X4566848Y-6333984D02*
X4585896Y-6333984D01*
X4585896Y-6333984D02*
X4604944Y-6343508D01*
X4604944Y-6343508D02*
X4614468Y-6353031D01*
X4614468Y-6353031D02*
X4623991Y-6372079D01*
X4623991Y-6372079D02*
X4633515Y-6410174D01*
X4633515Y-6410174D02*
X4633515Y-6457793D01*
X4633515Y-6457793D02*
X4623991Y-6495888D01*
X4623991Y-6495888D02*
X4614468Y-6514936D01*
X4614468Y-6514936D02*
X4604944Y-6524460D01*
X4604944Y-6524460D02*
X4585896Y-6533984D01*
X4585896Y-6533984D02*
X4566848Y-6533984D01*
X4566848Y-6533984D02*
X4547801Y-6524460D01*
X4547801Y-6524460D02*
X4538277Y-6514936D01*
X4538277Y-6514936D02*
X4528753Y-6495888D01*
X4528753Y-6495888D02*
X4519229Y-6457793D01*
X4519229Y-6457793D02*
X4519229Y-6410174D01*
X4519229Y-6410174D02*
X4528753Y-6372079D01*
X4528753Y-6372079D02*
X4538277Y-6353031D01*
X4538277Y-6353031D02*
X4547801Y-6343508D01*
X4547801Y-6343508D02*
X4566848Y-6333984D01*
X4823991Y-6533984D02*
X4709706Y-6533984D01*
X4766848Y-6533984D02*
X4766848Y-6333984D01*
X4766848Y-6333984D02*
X4747801Y-6362555D01*
X4747801Y-6362555D02*
X4728753Y-6381603D01*
X4728753Y-6381603D02*
X4709706Y-6391127D01*
X5014468Y-6533984D02*
X4900182Y-6533984D01*
X4957325Y-6533984D02*
X4957325Y-6333984D01*
X4957325Y-6333984D02*
X4938277Y-6362555D01*
X4938277Y-6362555D02*
X4919229Y-6381603D01*
X4919229Y-6381603D02*
X4900182Y-6391127D01*
X5128753Y-6419698D02*
X5109706Y-6410174D01*
X5109706Y-6410174D02*
X5100182Y-6400650D01*
X5100182Y-6400650D02*
X5090658Y-6381603D01*
X5090658Y-6381603D02*
X5090658Y-6372079D01*
X5090658Y-6372079D02*
X5100182Y-6353031D01*
X5100182Y-6353031D02*
X5109706Y-6343508D01*
X5109706Y-6343508D02*
X5128753Y-6333984D01*
X5128753Y-6333984D02*
X5166849Y-6333984D01*
X5166849Y-6333984D02*
X5185896Y-6343508D01*
X5185896Y-6343508D02*
X5195420Y-6353031D01*
X5195420Y-6353031D02*
X5204944Y-6372079D01*
X5204944Y-6372079D02*
X5204944Y-6381603D01*
X5204944Y-6381603D02*
X5195420Y-6400650D01*
X5195420Y-6400650D02*
X5185896Y-6410174D01*
X5185896Y-6410174D02*
X5166849Y-6419698D01*
X5166849Y-6419698D02*
X5128753Y-6419698D01*
X5128753Y-6419698D02*
X5109706Y-6429222D01*
X5109706Y-6429222D02*
X5100182Y-6438746D01*
X5100182Y-6438746D02*
X5090658Y-6457793D01*
X5090658Y-6457793D02*
X5090658Y-6495888D01*
X5090658Y-6495888D02*
X5100182Y-6514936D01*
X5100182Y-6514936D02*
X5109706Y-6524460D01*
X5109706Y-6524460D02*
X5128753Y-6533984D01*
X5128753Y-6533984D02*
X5166849Y-6533984D01*
X5166849Y-6533984D02*
X5185896Y-6524460D01*
X5185896Y-6524460D02*
X5195420Y-6514936D01*
X5195420Y-6514936D02*
X5204944Y-6495888D01*
X5204944Y-6495888D02*
X5204944Y-6457793D01*
X5204944Y-6457793D02*
X5195420Y-6438746D01*
X5195420Y-6438746D02*
X5185896Y-6429222D01*
X5185896Y-6429222D02*
X5166849Y-6419698D01*
X5281134Y-6333984D02*
X5281134Y-6372079D01*
X5357325Y-6333984D02*
X5357325Y-6372079D01*
X5652563Y-6610174D02*
X5643039Y-6600650D01*
X5643039Y-6600650D02*
X5623991Y-6572079D01*
X5623991Y-6572079D02*
X5614468Y-6553031D01*
X5614468Y-6553031D02*
X5604944Y-6524460D01*
X5604944Y-6524460D02*
X5595420Y-6476841D01*
X5595420Y-6476841D02*
X5595420Y-6438746D01*
X5595420Y-6438746D02*
X5604944Y-6391127D01*
X5604944Y-6391127D02*
X5614468Y-6362555D01*
X5614468Y-6362555D02*
X5623991Y-6343508D01*
X5623991Y-6343508D02*
X5643039Y-6314936D01*
X5643039Y-6314936D02*
X5652563Y-6305412D01*
X5833515Y-6533984D02*
X5719229Y-6533984D01*
X5776372Y-6533984D02*
X5776372Y-6333984D01*
X5776372Y-6333984D02*
X5757325Y-6362555D01*
X5757325Y-6362555D02*
X5738277Y-6381603D01*
X5738277Y-6381603D02*
X5719229Y-6391127D01*
X5909706Y-6353031D02*
X5919229Y-6343508D01*
X5919229Y-6343508D02*
X5938277Y-6333984D01*
X5938277Y-6333984D02*
X5985896Y-6333984D01*
X5985896Y-6333984D02*
X6004944Y-6343508D01*
X6004944Y-6343508D02*
X6014468Y-6353031D01*
X6014468Y-6353031D02*
X6023991Y-6372079D01*
X6023991Y-6372079D02*
X6023991Y-6391127D01*
X6023991Y-6391127D02*
X6014468Y-6419698D01*
X6014468Y-6419698D02*
X5900182Y-6533984D01*
X5900182Y-6533984D02*
X6023991Y-6533984D01*
X6090658Y-6333984D02*
X6223991Y-6333984D01*
X6223991Y-6333984D02*
X6138277Y-6533984D01*
X6452563Y-6533984D02*
X6452563Y-6333984D01*
X6538277Y-6533984D02*
X6538277Y-6429222D01*
X6538277Y-6429222D02*
X6528753Y-6410174D01*
X6528753Y-6410174D02*
X6509706Y-6400650D01*
X6509706Y-6400650D02*
X6481134Y-6400650D01*
X6481134Y-6400650D02*
X6462087Y-6410174D01*
X6462087Y-6410174D02*
X6452563Y-6419698D01*
X6662087Y-6533984D02*
X6643039Y-6524460D01*
X6643039Y-6524460D02*
X6633515Y-6514936D01*
X6633515Y-6514936D02*
X6623991Y-6495888D01*
X6623991Y-6495888D02*
X6623991Y-6438746D01*
X6623991Y-6438746D02*
X6633515Y-6419698D01*
X6633515Y-6419698D02*
X6643039Y-6410174D01*
X6643039Y-6410174D02*
X6662087Y-6400650D01*
X6662087Y-6400650D02*
X6690658Y-6400650D01*
X6690658Y-6400650D02*
X6709706Y-6410174D01*
X6709706Y-6410174D02*
X6719230Y-6419698D01*
X6719230Y-6419698D02*
X6728753Y-6438746D01*
X6728753Y-6438746D02*
X6728753Y-6495888D01*
X6728753Y-6495888D02*
X6719230Y-6514936D01*
X6719230Y-6514936D02*
X6709706Y-6524460D01*
X6709706Y-6524460D02*
X6690658Y-6533984D01*
X6690658Y-6533984D02*
X6662087Y-6533984D01*
X6843039Y-6533984D02*
X6823991Y-6524460D01*
X6823991Y-6524460D02*
X6814468Y-6505412D01*
X6814468Y-6505412D02*
X6814468Y-6333984D01*
X6995420Y-6524460D02*
X6976372Y-6533984D01*
X6976372Y-6533984D02*
X6938277Y-6533984D01*
X6938277Y-6533984D02*
X6919230Y-6524460D01*
X6919230Y-6524460D02*
X6909706Y-6505412D01*
X6909706Y-6505412D02*
X6909706Y-6429222D01*
X6909706Y-6429222D02*
X6919230Y-6410174D01*
X6919230Y-6410174D02*
X6938277Y-6400650D01*
X6938277Y-6400650D02*
X6976372Y-6400650D01*
X6976372Y-6400650D02*
X6995420Y-6410174D01*
X6995420Y-6410174D02*
X7004944Y-6429222D01*
X7004944Y-6429222D02*
X7004944Y-6448269D01*
X7004944Y-6448269D02*
X6909706Y-6467317D01*
X7081134Y-6524460D02*
X7100182Y-6533984D01*
X7100182Y-6533984D02*
X7138277Y-6533984D01*
X7138277Y-6533984D02*
X7157325Y-6524460D01*
X7157325Y-6524460D02*
X7166849Y-6505412D01*
X7166849Y-6505412D02*
X7166849Y-6495888D01*
X7166849Y-6495888D02*
X7157325Y-6476841D01*
X7157325Y-6476841D02*
X7138277Y-6467317D01*
X7138277Y-6467317D02*
X7109706Y-6467317D01*
X7109706Y-6467317D02*
X7090658Y-6457793D01*
X7090658Y-6457793D02*
X7081134Y-6438746D01*
X7081134Y-6438746D02*
X7081134Y-6429222D01*
X7081134Y-6429222D02*
X7090658Y-6410174D01*
X7090658Y-6410174D02*
X7109706Y-6400650D01*
X7109706Y-6400650D02*
X7138277Y-6400650D01*
X7138277Y-6400650D02*
X7157325Y-6410174D01*
X7233515Y-6610174D02*
X7243039Y-6600650D01*
X7243039Y-6600650D02*
X7262087Y-6572079D01*
X7262087Y-6572079D02*
X7271611Y-6553031D01*
X7271611Y-6553031D02*
X7281134Y-6524460D01*
X7281134Y-6524460D02*
X7290658Y-6476841D01*
X7290658Y-6476841D02*
X7290658Y-6438746D01*
X7290658Y-6438746D02*
X7281134Y-6391127D01*
X7281134Y-6391127D02*
X7271611Y-6362555D01*
X7271611Y-6362555D02*
X7262087Y-6343508D01*
X7262087Y-6343508D02*
X7243039Y-6314936D01*
X7243039Y-6314936D02*
X7233515Y-6305412D01*
D12*
X2077500Y-6706500D02*
G75*
G02*
X2037500Y-6706500I-20000J0D01*
G01*
X2037500Y-6706500D02*
G75*
G02*
X2077500Y-6706500I20000J0D01*
G01*
D11*
X2376372Y-6597984D02*
X2395420Y-6597984D01*
X2395420Y-6597984D02*
X2414467Y-6607508D01*
X2414467Y-6607508D02*
X2423991Y-6617031D01*
X2423991Y-6617031D02*
X2433515Y-6636079D01*
X2433515Y-6636079D02*
X2443039Y-6674174D01*
X2443039Y-6674174D02*
X2443039Y-6721793D01*
X2443039Y-6721793D02*
X2433515Y-6759888D01*
X2433515Y-6759888D02*
X2423991Y-6778936D01*
X2423991Y-6778936D02*
X2414467Y-6788460D01*
X2414467Y-6788460D02*
X2395420Y-6797984D01*
X2395420Y-6797984D02*
X2376372Y-6797984D01*
X2376372Y-6797984D02*
X2357324Y-6788460D01*
X2357324Y-6788460D02*
X2347801Y-6778936D01*
X2347801Y-6778936D02*
X2338277Y-6759888D01*
X2338277Y-6759888D02*
X2328753Y-6721793D01*
X2328753Y-6721793D02*
X2328753Y-6674174D01*
X2328753Y-6674174D02*
X2338277Y-6636079D01*
X2338277Y-6636079D02*
X2347801Y-6617031D01*
X2347801Y-6617031D02*
X2357324Y-6607508D01*
X2357324Y-6607508D02*
X2376372Y-6597984D01*
X2528753Y-6778936D02*
X2538277Y-6788460D01*
X2538277Y-6788460D02*
X2528753Y-6797984D01*
X2528753Y-6797984D02*
X2519229Y-6788460D01*
X2519229Y-6788460D02*
X2528753Y-6778936D01*
X2528753Y-6778936D02*
X2528753Y-6797984D01*
X2709705Y-6664650D02*
X2709705Y-6797984D01*
X2662086Y-6588460D02*
X2614467Y-6731317D01*
X2614467Y-6731317D02*
X2738277Y-6731317D01*
X2852562Y-6597984D02*
X2871610Y-6597984D01*
X2871610Y-6597984D02*
X2890658Y-6607508D01*
X2890658Y-6607508D02*
X2900182Y-6617031D01*
X2900182Y-6617031D02*
X2909705Y-6636079D01*
X2909705Y-6636079D02*
X2919229Y-6674174D01*
X2919229Y-6674174D02*
X2919229Y-6721793D01*
X2919229Y-6721793D02*
X2909705Y-6759888D01*
X2909705Y-6759888D02*
X2900182Y-6778936D01*
X2900182Y-6778936D02*
X2890658Y-6788460D01*
X2890658Y-6788460D02*
X2871610Y-6797984D01*
X2871610Y-6797984D02*
X2852562Y-6797984D01*
X2852562Y-6797984D02*
X2833515Y-6788460D01*
X2833515Y-6788460D02*
X2823991Y-6778936D01*
X2823991Y-6778936D02*
X2814467Y-6759888D01*
X2814467Y-6759888D02*
X2804943Y-6721793D01*
X2804943Y-6721793D02*
X2804943Y-6674174D01*
X2804943Y-6674174D02*
X2814467Y-6636079D01*
X2814467Y-6636079D02*
X2823991Y-6617031D01*
X2823991Y-6617031D02*
X2833515Y-6607508D01*
X2833515Y-6607508D02*
X2852562Y-6597984D01*
X3043039Y-6597984D02*
X3062086Y-6597984D01*
X3062086Y-6597984D02*
X3081134Y-6607508D01*
X3081134Y-6607508D02*
X3090658Y-6617031D01*
X3090658Y-6617031D02*
X3100182Y-6636079D01*
X3100182Y-6636079D02*
X3109705Y-6674174D01*
X3109705Y-6674174D02*
X3109705Y-6721793D01*
X3109705Y-6721793D02*
X3100182Y-6759888D01*
X3100182Y-6759888D02*
X3090658Y-6778936D01*
X3090658Y-6778936D02*
X3081134Y-6788460D01*
X3081134Y-6788460D02*
X3062086Y-6797984D01*
X3062086Y-6797984D02*
X3043039Y-6797984D01*
X3043039Y-6797984D02*
X3023991Y-6788460D01*
X3023991Y-6788460D02*
X3014467Y-6778936D01*
X3014467Y-6778936D02*
X3004943Y-6759888D01*
X3004943Y-6759888D02*
X2995420Y-6721793D01*
X2995420Y-6721793D02*
X2995420Y-6674174D01*
X2995420Y-6674174D02*
X3004943Y-6636079D01*
X3004943Y-6636079D02*
X3014467Y-6617031D01*
X3014467Y-6617031D02*
X3023991Y-6607508D01*
X3023991Y-6607508D02*
X3043039Y-6597984D01*
X3195420Y-6797984D02*
X3195420Y-6664650D01*
X3195420Y-6683698D02*
X3204943Y-6674174D01*
X3204943Y-6674174D02*
X3223991Y-6664650D01*
X3223991Y-6664650D02*
X3252563Y-6664650D01*
X3252563Y-6664650D02*
X3271610Y-6674174D01*
X3271610Y-6674174D02*
X3281134Y-6693222D01*
X3281134Y-6693222D02*
X3281134Y-6797984D01*
X3281134Y-6693222D02*
X3290658Y-6674174D01*
X3290658Y-6674174D02*
X3309705Y-6664650D01*
X3309705Y-6664650D02*
X3338277Y-6664650D01*
X3338277Y-6664650D02*
X3357324Y-6674174D01*
X3357324Y-6674174D02*
X3366848Y-6693222D01*
X3366848Y-6693222D02*
X3366848Y-6797984D01*
X3462086Y-6797984D02*
X3462086Y-6664650D01*
X3462086Y-6683698D02*
X3471610Y-6674174D01*
X3471610Y-6674174D02*
X3490658Y-6664650D01*
X3490658Y-6664650D02*
X3519229Y-6664650D01*
X3519229Y-6664650D02*
X3538277Y-6674174D01*
X3538277Y-6674174D02*
X3547801Y-6693222D01*
X3547801Y-6693222D02*
X3547801Y-6797984D01*
X3547801Y-6693222D02*
X3557324Y-6674174D01*
X3557324Y-6674174D02*
X3576372Y-6664650D01*
X3576372Y-6664650D02*
X3604943Y-6664650D01*
X3604943Y-6664650D02*
X3623991Y-6674174D01*
X3623991Y-6674174D02*
X3633515Y-6693222D01*
X3633515Y-6693222D02*
X3633515Y-6797984D01*
X4023991Y-6588460D02*
X3852563Y-6845603D01*
X4281134Y-6597984D02*
X4300182Y-6597984D01*
X4300182Y-6597984D02*
X4319229Y-6607508D01*
X4319229Y-6607508D02*
X4328753Y-6617031D01*
X4328753Y-6617031D02*
X4338277Y-6636079D01*
X4338277Y-6636079D02*
X4347801Y-6674174D01*
X4347801Y-6674174D02*
X4347801Y-6721793D01*
X4347801Y-6721793D02*
X4338277Y-6759888D01*
X4338277Y-6759888D02*
X4328753Y-6778936D01*
X4328753Y-6778936D02*
X4319229Y-6788460D01*
X4319229Y-6788460D02*
X4300182Y-6797984D01*
X4300182Y-6797984D02*
X4281134Y-6797984D01*
X4281134Y-6797984D02*
X4262087Y-6788460D01*
X4262087Y-6788460D02*
X4252563Y-6778936D01*
X4252563Y-6778936D02*
X4243039Y-6759888D01*
X4243039Y-6759888D02*
X4233515Y-6721793D01*
X4233515Y-6721793D02*
X4233515Y-6674174D01*
X4233515Y-6674174D02*
X4243039Y-6636079D01*
X4243039Y-6636079D02*
X4252563Y-6617031D01*
X4252563Y-6617031D02*
X4262087Y-6607508D01*
X4262087Y-6607508D02*
X4281134Y-6597984D01*
X4433515Y-6778936D02*
X4443039Y-6788460D01*
X4443039Y-6788460D02*
X4433515Y-6797984D01*
X4433515Y-6797984D02*
X4423991Y-6788460D01*
X4423991Y-6788460D02*
X4433515Y-6778936D01*
X4433515Y-6778936D02*
X4433515Y-6797984D01*
X4566848Y-6597984D02*
X4585896Y-6597984D01*
X4585896Y-6597984D02*
X4604944Y-6607508D01*
X4604944Y-6607508D02*
X4614468Y-6617031D01*
X4614468Y-6617031D02*
X4623991Y-6636079D01*
X4623991Y-6636079D02*
X4633515Y-6674174D01*
X4633515Y-6674174D02*
X4633515Y-6721793D01*
X4633515Y-6721793D02*
X4623991Y-6759888D01*
X4623991Y-6759888D02*
X4614468Y-6778936D01*
X4614468Y-6778936D02*
X4604944Y-6788460D01*
X4604944Y-6788460D02*
X4585896Y-6797984D01*
X4585896Y-6797984D02*
X4566848Y-6797984D01*
X4566848Y-6797984D02*
X4547801Y-6788460D01*
X4547801Y-6788460D02*
X4538277Y-6778936D01*
X4538277Y-6778936D02*
X4528753Y-6759888D01*
X4528753Y-6759888D02*
X4519229Y-6721793D01*
X4519229Y-6721793D02*
X4519229Y-6674174D01*
X4519229Y-6674174D02*
X4528753Y-6636079D01*
X4528753Y-6636079D02*
X4538277Y-6617031D01*
X4538277Y-6617031D02*
X4547801Y-6607508D01*
X4547801Y-6607508D02*
X4566848Y-6597984D01*
X4823991Y-6797984D02*
X4709706Y-6797984D01*
X4766848Y-6797984D02*
X4766848Y-6597984D01*
X4766848Y-6597984D02*
X4747801Y-6626555D01*
X4747801Y-6626555D02*
X4728753Y-6645603D01*
X4728753Y-6645603D02*
X4709706Y-6655127D01*
X5004944Y-6597984D02*
X4909706Y-6597984D01*
X4909706Y-6597984D02*
X4900182Y-6693222D01*
X4900182Y-6693222D02*
X4909706Y-6683698D01*
X4909706Y-6683698D02*
X4928753Y-6674174D01*
X4928753Y-6674174D02*
X4976372Y-6674174D01*
X4976372Y-6674174D02*
X4995420Y-6683698D01*
X4995420Y-6683698D02*
X5004944Y-6693222D01*
X5004944Y-6693222D02*
X5014468Y-6712269D01*
X5014468Y-6712269D02*
X5014468Y-6759888D01*
X5014468Y-6759888D02*
X5004944Y-6778936D01*
X5004944Y-6778936D02*
X4995420Y-6788460D01*
X4995420Y-6788460D02*
X4976372Y-6797984D01*
X4976372Y-6797984D02*
X4928753Y-6797984D01*
X4928753Y-6797984D02*
X4909706Y-6788460D01*
X4909706Y-6788460D02*
X4900182Y-6778936D01*
X5081134Y-6597984D02*
X5214468Y-6597984D01*
X5214468Y-6597984D02*
X5128753Y-6797984D01*
X5281134Y-6597984D02*
X5281134Y-6636079D01*
X5357325Y-6597984D02*
X5357325Y-6636079D01*
X5652563Y-6874174D02*
X5643039Y-6864650D01*
X5643039Y-6864650D02*
X5623991Y-6836079D01*
X5623991Y-6836079D02*
X5614468Y-6817031D01*
X5614468Y-6817031D02*
X5604944Y-6788460D01*
X5604944Y-6788460D02*
X5595420Y-6740841D01*
X5595420Y-6740841D02*
X5595420Y-6702746D01*
X5595420Y-6702746D02*
X5604944Y-6655127D01*
X5604944Y-6655127D02*
X5614468Y-6626555D01*
X5614468Y-6626555D02*
X5623991Y-6607508D01*
X5623991Y-6607508D02*
X5643039Y-6578936D01*
X5643039Y-6578936D02*
X5652563Y-6569412D01*
X5833515Y-6797984D02*
X5719229Y-6797984D01*
X5776372Y-6797984D02*
X5776372Y-6597984D01*
X5776372Y-6597984D02*
X5757325Y-6626555D01*
X5757325Y-6626555D02*
X5738277Y-6645603D01*
X5738277Y-6645603D02*
X5719229Y-6655127D01*
X5909706Y-6617031D02*
X5919229Y-6607508D01*
X5919229Y-6607508D02*
X5938277Y-6597984D01*
X5938277Y-6597984D02*
X5985896Y-6597984D01*
X5985896Y-6597984D02*
X6004944Y-6607508D01*
X6004944Y-6607508D02*
X6014468Y-6617031D01*
X6014468Y-6617031D02*
X6023991Y-6636079D01*
X6023991Y-6636079D02*
X6023991Y-6655127D01*
X6023991Y-6655127D02*
X6014468Y-6683698D01*
X6014468Y-6683698D02*
X5900182Y-6797984D01*
X5900182Y-6797984D02*
X6023991Y-6797984D01*
X6195420Y-6664650D02*
X6195420Y-6797984D01*
X6147801Y-6588460D02*
X6100182Y-6731317D01*
X6100182Y-6731317D02*
X6223991Y-6731317D01*
X6452563Y-6797984D02*
X6452563Y-6597984D01*
X6538277Y-6797984D02*
X6538277Y-6693222D01*
X6538277Y-6693222D02*
X6528753Y-6674174D01*
X6528753Y-6674174D02*
X6509706Y-6664650D01*
X6509706Y-6664650D02*
X6481134Y-6664650D01*
X6481134Y-6664650D02*
X6462087Y-6674174D01*
X6462087Y-6674174D02*
X6452563Y-6683698D01*
X6662087Y-6797984D02*
X6643039Y-6788460D01*
X6643039Y-6788460D02*
X6633515Y-6778936D01*
X6633515Y-6778936D02*
X6623991Y-6759888D01*
X6623991Y-6759888D02*
X6623991Y-6702746D01*
X6623991Y-6702746D02*
X6633515Y-6683698D01*
X6633515Y-6683698D02*
X6643039Y-6674174D01*
X6643039Y-6674174D02*
X6662087Y-6664650D01*
X6662087Y-6664650D02*
X6690658Y-6664650D01*
X6690658Y-6664650D02*
X6709706Y-6674174D01*
X6709706Y-6674174D02*
X6719230Y-6683698D01*
X6719230Y-6683698D02*
X6728753Y-6702746D01*
X6728753Y-6702746D02*
X6728753Y-6759888D01*
X6728753Y-6759888D02*
X6719230Y-6778936D01*
X6719230Y-6778936D02*
X6709706Y-6788460D01*
X6709706Y-6788460D02*
X6690658Y-6797984D01*
X6690658Y-6797984D02*
X6662087Y-6797984D01*
X6843039Y-6797984D02*
X6823991Y-6788460D01*
X6823991Y-6788460D02*
X6814468Y-6769412D01*
X6814468Y-6769412D02*
X6814468Y-6597984D01*
X6995420Y-6788460D02*
X6976372Y-6797984D01*
X6976372Y-6797984D02*
X6938277Y-6797984D01*
X6938277Y-6797984D02*
X6919230Y-6788460D01*
X6919230Y-6788460D02*
X6909706Y-6769412D01*
X6909706Y-6769412D02*
X6909706Y-6693222D01*
X6909706Y-6693222D02*
X6919230Y-6674174D01*
X6919230Y-6674174D02*
X6938277Y-6664650D01*
X6938277Y-6664650D02*
X6976372Y-6664650D01*
X6976372Y-6664650D02*
X6995420Y-6674174D01*
X6995420Y-6674174D02*
X7004944Y-6693222D01*
X7004944Y-6693222D02*
X7004944Y-6712269D01*
X7004944Y-6712269D02*
X6909706Y-6731317D01*
X7081134Y-6788460D02*
X7100182Y-6797984D01*
X7100182Y-6797984D02*
X7138277Y-6797984D01*
X7138277Y-6797984D02*
X7157325Y-6788460D01*
X7157325Y-6788460D02*
X7166849Y-6769412D01*
X7166849Y-6769412D02*
X7166849Y-6759888D01*
X7166849Y-6759888D02*
X7157325Y-6740841D01*
X7157325Y-6740841D02*
X7138277Y-6731317D01*
X7138277Y-6731317D02*
X7109706Y-6731317D01*
X7109706Y-6731317D02*
X7090658Y-6721793D01*
X7090658Y-6721793D02*
X7081134Y-6702746D01*
X7081134Y-6702746D02*
X7081134Y-6693222D01*
X7081134Y-6693222D02*
X7090658Y-6674174D01*
X7090658Y-6674174D02*
X7109706Y-6664650D01*
X7109706Y-6664650D02*
X7138277Y-6664650D01*
X7138277Y-6664650D02*
X7157325Y-6674174D01*
X7233515Y-6874174D02*
X7243039Y-6864650D01*
X7243039Y-6864650D02*
X7262087Y-6836079D01*
X7262087Y-6836079D02*
X7271611Y-6817031D01*
X7271611Y-6817031D02*
X7281134Y-6788460D01*
X7281134Y-6788460D02*
X7290658Y-6740841D01*
X7290658Y-6740841D02*
X7290658Y-6702746D01*
X7290658Y-6702746D02*
X7281134Y-6655127D01*
X7281134Y-6655127D02*
X7271611Y-6626555D01*
X7271611Y-6626555D02*
X7262087Y-6607508D01*
X7262087Y-6607508D02*
X7243039Y-6578936D01*
X7243039Y-6578936D02*
X7233515Y-6569412D01*
D12*
X2037500Y-6930500D02*
X2037500Y-7010500D01*
X1997500Y-6970500D02*
X2077500Y-6970500D01*
D11*
X2376372Y-6861984D02*
X2395420Y-6861984D01*
X2395420Y-6861984D02*
X2414467Y-6871508D01*
X2414467Y-6871508D02*
X2423991Y-6881031D01*
X2423991Y-6881031D02*
X2433515Y-6900079D01*
X2433515Y-6900079D02*
X2443039Y-6938174D01*
X2443039Y-6938174D02*
X2443039Y-6985793D01*
X2443039Y-6985793D02*
X2433515Y-7023888D01*
X2433515Y-7023888D02*
X2423991Y-7042936D01*
X2423991Y-7042936D02*
X2414467Y-7052460D01*
X2414467Y-7052460D02*
X2395420Y-7061984D01*
X2395420Y-7061984D02*
X2376372Y-7061984D01*
X2376372Y-7061984D02*
X2357324Y-7052460D01*
X2357324Y-7052460D02*
X2347801Y-7042936D01*
X2347801Y-7042936D02*
X2338277Y-7023888D01*
X2338277Y-7023888D02*
X2328753Y-6985793D01*
X2328753Y-6985793D02*
X2328753Y-6938174D01*
X2328753Y-6938174D02*
X2338277Y-6900079D01*
X2338277Y-6900079D02*
X2347801Y-6881031D01*
X2347801Y-6881031D02*
X2357324Y-6871508D01*
X2357324Y-6871508D02*
X2376372Y-6861984D01*
X2528753Y-7042936D02*
X2538277Y-7052460D01*
X2538277Y-7052460D02*
X2528753Y-7061984D01*
X2528753Y-7061984D02*
X2519229Y-7052460D01*
X2519229Y-7052460D02*
X2528753Y-7042936D01*
X2528753Y-7042936D02*
X2528753Y-7061984D01*
X2652563Y-6947698D02*
X2633515Y-6938174D01*
X2633515Y-6938174D02*
X2623991Y-6928650D01*
X2623991Y-6928650D02*
X2614467Y-6909603D01*
X2614467Y-6909603D02*
X2614467Y-6900079D01*
X2614467Y-6900079D02*
X2623991Y-6881031D01*
X2623991Y-6881031D02*
X2633515Y-6871508D01*
X2633515Y-6871508D02*
X2652563Y-6861984D01*
X2652563Y-6861984D02*
X2690658Y-6861984D01*
X2690658Y-6861984D02*
X2709705Y-6871508D01*
X2709705Y-6871508D02*
X2719229Y-6881031D01*
X2719229Y-6881031D02*
X2728753Y-6900079D01*
X2728753Y-6900079D02*
X2728753Y-6909603D01*
X2728753Y-6909603D02*
X2719229Y-6928650D01*
X2719229Y-6928650D02*
X2709705Y-6938174D01*
X2709705Y-6938174D02*
X2690658Y-6947698D01*
X2690658Y-6947698D02*
X2652563Y-6947698D01*
X2652563Y-6947698D02*
X2633515Y-6957222D01*
X2633515Y-6957222D02*
X2623991Y-6966746D01*
X2623991Y-6966746D02*
X2614467Y-6985793D01*
X2614467Y-6985793D02*
X2614467Y-7023888D01*
X2614467Y-7023888D02*
X2623991Y-7042936D01*
X2623991Y-7042936D02*
X2633515Y-7052460D01*
X2633515Y-7052460D02*
X2652563Y-7061984D01*
X2652563Y-7061984D02*
X2690658Y-7061984D01*
X2690658Y-7061984D02*
X2709705Y-7052460D01*
X2709705Y-7052460D02*
X2719229Y-7042936D01*
X2719229Y-7042936D02*
X2728753Y-7023888D01*
X2728753Y-7023888D02*
X2728753Y-6985793D01*
X2728753Y-6985793D02*
X2719229Y-6966746D01*
X2719229Y-6966746D02*
X2709705Y-6957222D01*
X2709705Y-6957222D02*
X2690658Y-6947698D01*
X2852562Y-6861984D02*
X2871610Y-6861984D01*
X2871610Y-6861984D02*
X2890658Y-6871508D01*
X2890658Y-6871508D02*
X2900182Y-6881031D01*
X2900182Y-6881031D02*
X2909705Y-6900079D01*
X2909705Y-6900079D02*
X2919229Y-6938174D01*
X2919229Y-6938174D02*
X2919229Y-6985793D01*
X2919229Y-6985793D02*
X2909705Y-7023888D01*
X2909705Y-7023888D02*
X2900182Y-7042936D01*
X2900182Y-7042936D02*
X2890658Y-7052460D01*
X2890658Y-7052460D02*
X2871610Y-7061984D01*
X2871610Y-7061984D02*
X2852562Y-7061984D01*
X2852562Y-7061984D02*
X2833515Y-7052460D01*
X2833515Y-7052460D02*
X2823991Y-7042936D01*
X2823991Y-7042936D02*
X2814467Y-7023888D01*
X2814467Y-7023888D02*
X2804943Y-6985793D01*
X2804943Y-6985793D02*
X2804943Y-6938174D01*
X2804943Y-6938174D02*
X2814467Y-6900079D01*
X2814467Y-6900079D02*
X2823991Y-6881031D01*
X2823991Y-6881031D02*
X2833515Y-6871508D01*
X2833515Y-6871508D02*
X2852562Y-6861984D01*
X3043039Y-6861984D02*
X3062086Y-6861984D01*
X3062086Y-6861984D02*
X3081134Y-6871508D01*
X3081134Y-6871508D02*
X3090658Y-6881031D01*
X3090658Y-6881031D02*
X3100182Y-6900079D01*
X3100182Y-6900079D02*
X3109705Y-6938174D01*
X3109705Y-6938174D02*
X3109705Y-6985793D01*
X3109705Y-6985793D02*
X3100182Y-7023888D01*
X3100182Y-7023888D02*
X3090658Y-7042936D01*
X3090658Y-7042936D02*
X3081134Y-7052460D01*
X3081134Y-7052460D02*
X3062086Y-7061984D01*
X3062086Y-7061984D02*
X3043039Y-7061984D01*
X3043039Y-7061984D02*
X3023991Y-7052460D01*
X3023991Y-7052460D02*
X3014467Y-7042936D01*
X3014467Y-7042936D02*
X3004943Y-7023888D01*
X3004943Y-7023888D02*
X2995420Y-6985793D01*
X2995420Y-6985793D02*
X2995420Y-6938174D01*
X2995420Y-6938174D02*
X3004943Y-6900079D01*
X3004943Y-6900079D02*
X3014467Y-6881031D01*
X3014467Y-6881031D02*
X3023991Y-6871508D01*
X3023991Y-6871508D02*
X3043039Y-6861984D01*
X3195420Y-7061984D02*
X3195420Y-6928650D01*
X3195420Y-6947698D02*
X3204943Y-6938174D01*
X3204943Y-6938174D02*
X3223991Y-6928650D01*
X3223991Y-6928650D02*
X3252563Y-6928650D01*
X3252563Y-6928650D02*
X3271610Y-6938174D01*
X3271610Y-6938174D02*
X3281134Y-6957222D01*
X3281134Y-6957222D02*
X3281134Y-7061984D01*
X3281134Y-6957222D02*
X3290658Y-6938174D01*
X3290658Y-6938174D02*
X3309705Y-6928650D01*
X3309705Y-6928650D02*
X3338277Y-6928650D01*
X3338277Y-6928650D02*
X3357324Y-6938174D01*
X3357324Y-6938174D02*
X3366848Y-6957222D01*
X3366848Y-6957222D02*
X3366848Y-7061984D01*
X3462086Y-7061984D02*
X3462086Y-6928650D01*
X3462086Y-6947698D02*
X3471610Y-6938174D01*
X3471610Y-6938174D02*
X3490658Y-6928650D01*
X3490658Y-6928650D02*
X3519229Y-6928650D01*
X3519229Y-6928650D02*
X3538277Y-6938174D01*
X3538277Y-6938174D02*
X3547801Y-6957222D01*
X3547801Y-6957222D02*
X3547801Y-7061984D01*
X3547801Y-6957222D02*
X3557324Y-6938174D01*
X3557324Y-6938174D02*
X3576372Y-6928650D01*
X3576372Y-6928650D02*
X3604943Y-6928650D01*
X3604943Y-6928650D02*
X3623991Y-6938174D01*
X3623991Y-6938174D02*
X3633515Y-6957222D01*
X3633515Y-6957222D02*
X3633515Y-7061984D01*
X4023991Y-6852460D02*
X3852563Y-7109603D01*
X4281134Y-6861984D02*
X4300182Y-6861984D01*
X4300182Y-6861984D02*
X4319229Y-6871508D01*
X4319229Y-6871508D02*
X4328753Y-6881031D01*
X4328753Y-6881031D02*
X4338277Y-6900079D01*
X4338277Y-6900079D02*
X4347801Y-6938174D01*
X4347801Y-6938174D02*
X4347801Y-6985793D01*
X4347801Y-6985793D02*
X4338277Y-7023888D01*
X4338277Y-7023888D02*
X4328753Y-7042936D01*
X4328753Y-7042936D02*
X4319229Y-7052460D01*
X4319229Y-7052460D02*
X4300182Y-7061984D01*
X4300182Y-7061984D02*
X4281134Y-7061984D01*
X4281134Y-7061984D02*
X4262087Y-7052460D01*
X4262087Y-7052460D02*
X4252563Y-7042936D01*
X4252563Y-7042936D02*
X4243039Y-7023888D01*
X4243039Y-7023888D02*
X4233515Y-6985793D01*
X4233515Y-6985793D02*
X4233515Y-6938174D01*
X4233515Y-6938174D02*
X4243039Y-6900079D01*
X4243039Y-6900079D02*
X4252563Y-6881031D01*
X4252563Y-6881031D02*
X4262087Y-6871508D01*
X4262087Y-6871508D02*
X4281134Y-6861984D01*
X4433515Y-7042936D02*
X4443039Y-7052460D01*
X4443039Y-7052460D02*
X4433515Y-7061984D01*
X4433515Y-7061984D02*
X4423991Y-7052460D01*
X4423991Y-7052460D02*
X4433515Y-7042936D01*
X4433515Y-7042936D02*
X4433515Y-7061984D01*
X4566848Y-6861984D02*
X4585896Y-6861984D01*
X4585896Y-6861984D02*
X4604944Y-6871508D01*
X4604944Y-6871508D02*
X4614468Y-6881031D01*
X4614468Y-6881031D02*
X4623991Y-6900079D01*
X4623991Y-6900079D02*
X4633515Y-6938174D01*
X4633515Y-6938174D02*
X4633515Y-6985793D01*
X4633515Y-6985793D02*
X4623991Y-7023888D01*
X4623991Y-7023888D02*
X4614468Y-7042936D01*
X4614468Y-7042936D02*
X4604944Y-7052460D01*
X4604944Y-7052460D02*
X4585896Y-7061984D01*
X4585896Y-7061984D02*
X4566848Y-7061984D01*
X4566848Y-7061984D02*
X4547801Y-7052460D01*
X4547801Y-7052460D02*
X4538277Y-7042936D01*
X4538277Y-7042936D02*
X4528753Y-7023888D01*
X4528753Y-7023888D02*
X4519229Y-6985793D01*
X4519229Y-6985793D02*
X4519229Y-6938174D01*
X4519229Y-6938174D02*
X4528753Y-6900079D01*
X4528753Y-6900079D02*
X4538277Y-6881031D01*
X4538277Y-6881031D02*
X4547801Y-6871508D01*
X4547801Y-6871508D02*
X4566848Y-6861984D01*
X4700182Y-6861984D02*
X4823991Y-6861984D01*
X4823991Y-6861984D02*
X4757325Y-6938174D01*
X4757325Y-6938174D02*
X4785896Y-6938174D01*
X4785896Y-6938174D02*
X4804944Y-6947698D01*
X4804944Y-6947698D02*
X4814468Y-6957222D01*
X4814468Y-6957222D02*
X4823991Y-6976269D01*
X4823991Y-6976269D02*
X4823991Y-7023888D01*
X4823991Y-7023888D02*
X4814468Y-7042936D01*
X4814468Y-7042936D02*
X4804944Y-7052460D01*
X4804944Y-7052460D02*
X4785896Y-7061984D01*
X4785896Y-7061984D02*
X4728753Y-7061984D01*
X4728753Y-7061984D02*
X4709706Y-7052460D01*
X4709706Y-7052460D02*
X4700182Y-7042936D01*
X5014468Y-7061984D02*
X4900182Y-7061984D01*
X4957325Y-7061984D02*
X4957325Y-6861984D01*
X4957325Y-6861984D02*
X4938277Y-6890555D01*
X4938277Y-6890555D02*
X4919229Y-6909603D01*
X4919229Y-6909603D02*
X4900182Y-6919127D01*
X5195420Y-6861984D02*
X5100182Y-6861984D01*
X5100182Y-6861984D02*
X5090658Y-6957222D01*
X5090658Y-6957222D02*
X5100182Y-6947698D01*
X5100182Y-6947698D02*
X5119229Y-6938174D01*
X5119229Y-6938174D02*
X5166849Y-6938174D01*
X5166849Y-6938174D02*
X5185896Y-6947698D01*
X5185896Y-6947698D02*
X5195420Y-6957222D01*
X5195420Y-6957222D02*
X5204944Y-6976269D01*
X5204944Y-6976269D02*
X5204944Y-7023888D01*
X5204944Y-7023888D02*
X5195420Y-7042936D01*
X5195420Y-7042936D02*
X5185896Y-7052460D01*
X5185896Y-7052460D02*
X5166849Y-7061984D01*
X5166849Y-7061984D02*
X5119229Y-7061984D01*
X5119229Y-7061984D02*
X5100182Y-7052460D01*
X5100182Y-7052460D02*
X5090658Y-7042936D01*
X5281134Y-6861984D02*
X5281134Y-6900079D01*
X5357325Y-6861984D02*
X5357325Y-6900079D01*
X5652563Y-7138174D02*
X5643039Y-7128650D01*
X5643039Y-7128650D02*
X5623991Y-7100079D01*
X5623991Y-7100079D02*
X5614468Y-7081031D01*
X5614468Y-7081031D02*
X5604944Y-7052460D01*
X5604944Y-7052460D02*
X5595420Y-7004841D01*
X5595420Y-7004841D02*
X5595420Y-6966746D01*
X5595420Y-6966746D02*
X5604944Y-6919127D01*
X5604944Y-6919127D02*
X5614468Y-6890555D01*
X5614468Y-6890555D02*
X5623991Y-6871508D01*
X5623991Y-6871508D02*
X5643039Y-6842936D01*
X5643039Y-6842936D02*
X5652563Y-6833412D01*
X5823991Y-6861984D02*
X5728753Y-6861984D01*
X5728753Y-6861984D02*
X5719229Y-6957222D01*
X5719229Y-6957222D02*
X5728753Y-6947698D01*
X5728753Y-6947698D02*
X5747801Y-6938174D01*
X5747801Y-6938174D02*
X5795420Y-6938174D01*
X5795420Y-6938174D02*
X5814468Y-6947698D01*
X5814468Y-6947698D02*
X5823991Y-6957222D01*
X5823991Y-6957222D02*
X5833515Y-6976269D01*
X5833515Y-6976269D02*
X5833515Y-7023888D01*
X5833515Y-7023888D02*
X5823991Y-7042936D01*
X5823991Y-7042936D02*
X5814468Y-7052460D01*
X5814468Y-7052460D02*
X5795420Y-7061984D01*
X5795420Y-7061984D02*
X5747801Y-7061984D01*
X5747801Y-7061984D02*
X5728753Y-7052460D01*
X5728753Y-7052460D02*
X5719229Y-7042936D01*
X6071610Y-7061984D02*
X6071610Y-6861984D01*
X6157325Y-7061984D02*
X6157325Y-6957222D01*
X6157325Y-6957222D02*
X6147801Y-6938174D01*
X6147801Y-6938174D02*
X6128753Y-6928650D01*
X6128753Y-6928650D02*
X6100182Y-6928650D01*
X6100182Y-6928650D02*
X6081134Y-6938174D01*
X6081134Y-6938174D02*
X6071610Y-6947698D01*
X6281134Y-7061984D02*
X6262087Y-7052460D01*
X6262087Y-7052460D02*
X6252563Y-7042936D01*
X6252563Y-7042936D02*
X6243039Y-7023888D01*
X6243039Y-7023888D02*
X6243039Y-6966746D01*
X6243039Y-6966746D02*
X6252563Y-6947698D01*
X6252563Y-6947698D02*
X6262087Y-6938174D01*
X6262087Y-6938174D02*
X6281134Y-6928650D01*
X6281134Y-6928650D02*
X6309706Y-6928650D01*
X6309706Y-6928650D02*
X6328753Y-6938174D01*
X6328753Y-6938174D02*
X6338277Y-6947698D01*
X6338277Y-6947698D02*
X6347801Y-6966746D01*
X6347801Y-6966746D02*
X6347801Y-7023888D01*
X6347801Y-7023888D02*
X6338277Y-7042936D01*
X6338277Y-7042936D02*
X6328753Y-7052460D01*
X6328753Y-7052460D02*
X6309706Y-7061984D01*
X6309706Y-7061984D02*
X6281134Y-7061984D01*
X6462087Y-7061984D02*
X6443039Y-7052460D01*
X6443039Y-7052460D02*
X6433515Y-7033412D01*
X6433515Y-7033412D02*
X6433515Y-6861984D01*
X6614468Y-7052460D02*
X6595420Y-7061984D01*
X6595420Y-7061984D02*
X6557325Y-7061984D01*
X6557325Y-7061984D02*
X6538277Y-7052460D01*
X6538277Y-7052460D02*
X6528753Y-7033412D01*
X6528753Y-7033412D02*
X6528753Y-6957222D01*
X6528753Y-6957222D02*
X6538277Y-6938174D01*
X6538277Y-6938174D02*
X6557325Y-6928650D01*
X6557325Y-6928650D02*
X6595420Y-6928650D01*
X6595420Y-6928650D02*
X6614468Y-6938174D01*
X6614468Y-6938174D02*
X6623991Y-6957222D01*
X6623991Y-6957222D02*
X6623991Y-6976269D01*
X6623991Y-6976269D02*
X6528753Y-6995317D01*
X6700182Y-7052460D02*
X6719230Y-7061984D01*
X6719230Y-7061984D02*
X6757325Y-7061984D01*
X6757325Y-7061984D02*
X6776372Y-7052460D01*
X6776372Y-7052460D02*
X6785896Y-7033412D01*
X6785896Y-7033412D02*
X6785896Y-7023888D01*
X6785896Y-7023888D02*
X6776372Y-7004841D01*
X6776372Y-7004841D02*
X6757325Y-6995317D01*
X6757325Y-6995317D02*
X6728753Y-6995317D01*
X6728753Y-6995317D02*
X6709706Y-6985793D01*
X6709706Y-6985793D02*
X6700182Y-6966746D01*
X6700182Y-6966746D02*
X6700182Y-6957222D01*
X6700182Y-6957222D02*
X6709706Y-6938174D01*
X6709706Y-6938174D02*
X6728753Y-6928650D01*
X6728753Y-6928650D02*
X6757325Y-6928650D01*
X6757325Y-6928650D02*
X6776372Y-6938174D01*
X6852563Y-7138174D02*
X6862087Y-7128650D01*
X6862087Y-7128650D02*
X6881134Y-7100079D01*
X6881134Y-7100079D02*
X6890658Y-7081031D01*
X6890658Y-7081031D02*
X6900182Y-7052460D01*
X6900182Y-7052460D02*
X6909706Y-7004841D01*
X6909706Y-7004841D02*
X6909706Y-6966746D01*
X6909706Y-6966746D02*
X6900182Y-6919127D01*
X6900182Y-6919127D02*
X6890658Y-6890555D01*
X6890658Y-6890555D02*
X6881134Y-6871508D01*
X6881134Y-6871508D02*
X6862087Y-6842936D01*
X6862087Y-6842936D02*
X6852563Y-6833412D01*
D12*
X2062856Y-7269856D02*
X2062856Y-7199144D01*
X1992144Y-7199144D01*
X1992144Y-7269856D01*
X2062856Y-7269856D01*
D11*
X2443039Y-7325984D02*
X2328753Y-7325984D01*
X2385896Y-7325984D02*
X2385896Y-7125984D01*
X2385896Y-7125984D02*
X2366848Y-7154555D01*
X2366848Y-7154555D02*
X2347801Y-7173603D01*
X2347801Y-7173603D02*
X2328753Y-7183127D01*
X2528753Y-7306936D02*
X2538277Y-7316460D01*
X2538277Y-7316460D02*
X2528753Y-7325984D01*
X2528753Y-7325984D02*
X2519229Y-7316460D01*
X2519229Y-7316460D02*
X2528753Y-7306936D01*
X2528753Y-7306936D02*
X2528753Y-7325984D01*
X2662086Y-7125984D02*
X2681134Y-7125984D01*
X2681134Y-7125984D02*
X2700182Y-7135508D01*
X2700182Y-7135508D02*
X2709705Y-7145031D01*
X2709705Y-7145031D02*
X2719229Y-7164079D01*
X2719229Y-7164079D02*
X2728753Y-7202174D01*
X2728753Y-7202174D02*
X2728753Y-7249793D01*
X2728753Y-7249793D02*
X2719229Y-7287888D01*
X2719229Y-7287888D02*
X2709705Y-7306936D01*
X2709705Y-7306936D02*
X2700182Y-7316460D01*
X2700182Y-7316460D02*
X2681134Y-7325984D01*
X2681134Y-7325984D02*
X2662086Y-7325984D01*
X2662086Y-7325984D02*
X2643039Y-7316460D01*
X2643039Y-7316460D02*
X2633515Y-7306936D01*
X2633515Y-7306936D02*
X2623991Y-7287888D01*
X2623991Y-7287888D02*
X2614467Y-7249793D01*
X2614467Y-7249793D02*
X2614467Y-7202174D01*
X2614467Y-7202174D02*
X2623991Y-7164079D01*
X2623991Y-7164079D02*
X2633515Y-7145031D01*
X2633515Y-7145031D02*
X2643039Y-7135508D01*
X2643039Y-7135508D02*
X2662086Y-7125984D01*
X2852562Y-7125984D02*
X2871610Y-7125984D01*
X2871610Y-7125984D02*
X2890658Y-7135508D01*
X2890658Y-7135508D02*
X2900182Y-7145031D01*
X2900182Y-7145031D02*
X2909705Y-7164079D01*
X2909705Y-7164079D02*
X2919229Y-7202174D01*
X2919229Y-7202174D02*
X2919229Y-7249793D01*
X2919229Y-7249793D02*
X2909705Y-7287888D01*
X2909705Y-7287888D02*
X2900182Y-7306936D01*
X2900182Y-7306936D02*
X2890658Y-7316460D01*
X2890658Y-7316460D02*
X2871610Y-7325984D01*
X2871610Y-7325984D02*
X2852562Y-7325984D01*
X2852562Y-7325984D02*
X2833515Y-7316460D01*
X2833515Y-7316460D02*
X2823991Y-7306936D01*
X2823991Y-7306936D02*
X2814467Y-7287888D01*
X2814467Y-7287888D02*
X2804943Y-7249793D01*
X2804943Y-7249793D02*
X2804943Y-7202174D01*
X2804943Y-7202174D02*
X2814467Y-7164079D01*
X2814467Y-7164079D02*
X2823991Y-7145031D01*
X2823991Y-7145031D02*
X2833515Y-7135508D01*
X2833515Y-7135508D02*
X2852562Y-7125984D01*
X3043039Y-7125984D02*
X3062086Y-7125984D01*
X3062086Y-7125984D02*
X3081134Y-7135508D01*
X3081134Y-7135508D02*
X3090658Y-7145031D01*
X3090658Y-7145031D02*
X3100182Y-7164079D01*
X3100182Y-7164079D02*
X3109705Y-7202174D01*
X3109705Y-7202174D02*
X3109705Y-7249793D01*
X3109705Y-7249793D02*
X3100182Y-7287888D01*
X3100182Y-7287888D02*
X3090658Y-7306936D01*
X3090658Y-7306936D02*
X3081134Y-7316460D01*
X3081134Y-7316460D02*
X3062086Y-7325984D01*
X3062086Y-7325984D02*
X3043039Y-7325984D01*
X3043039Y-7325984D02*
X3023991Y-7316460D01*
X3023991Y-7316460D02*
X3014467Y-7306936D01*
X3014467Y-7306936D02*
X3004943Y-7287888D01*
X3004943Y-7287888D02*
X2995420Y-7249793D01*
X2995420Y-7249793D02*
X2995420Y-7202174D01*
X2995420Y-7202174D02*
X3004943Y-7164079D01*
X3004943Y-7164079D02*
X3014467Y-7145031D01*
X3014467Y-7145031D02*
X3023991Y-7135508D01*
X3023991Y-7135508D02*
X3043039Y-7125984D01*
X3195420Y-7325984D02*
X3195420Y-7192650D01*
X3195420Y-7211698D02*
X3204943Y-7202174D01*
X3204943Y-7202174D02*
X3223991Y-7192650D01*
X3223991Y-7192650D02*
X3252563Y-7192650D01*
X3252563Y-7192650D02*
X3271610Y-7202174D01*
X3271610Y-7202174D02*
X3281134Y-7221222D01*
X3281134Y-7221222D02*
X3281134Y-7325984D01*
X3281134Y-7221222D02*
X3290658Y-7202174D01*
X3290658Y-7202174D02*
X3309705Y-7192650D01*
X3309705Y-7192650D02*
X3338277Y-7192650D01*
X3338277Y-7192650D02*
X3357324Y-7202174D01*
X3357324Y-7202174D02*
X3366848Y-7221222D01*
X3366848Y-7221222D02*
X3366848Y-7325984D01*
X3462086Y-7325984D02*
X3462086Y-7192650D01*
X3462086Y-7211698D02*
X3471610Y-7202174D01*
X3471610Y-7202174D02*
X3490658Y-7192650D01*
X3490658Y-7192650D02*
X3519229Y-7192650D01*
X3519229Y-7192650D02*
X3538277Y-7202174D01*
X3538277Y-7202174D02*
X3547801Y-7221222D01*
X3547801Y-7221222D02*
X3547801Y-7325984D01*
X3547801Y-7221222D02*
X3557324Y-7202174D01*
X3557324Y-7202174D02*
X3576372Y-7192650D01*
X3576372Y-7192650D02*
X3604943Y-7192650D01*
X3604943Y-7192650D02*
X3623991Y-7202174D01*
X3623991Y-7202174D02*
X3633515Y-7221222D01*
X3633515Y-7221222D02*
X3633515Y-7325984D01*
X4023991Y-7116460D02*
X3852563Y-7373603D01*
X4281134Y-7125984D02*
X4300182Y-7125984D01*
X4300182Y-7125984D02*
X4319229Y-7135508D01*
X4319229Y-7135508D02*
X4328753Y-7145031D01*
X4328753Y-7145031D02*
X4338277Y-7164079D01*
X4338277Y-7164079D02*
X4347801Y-7202174D01*
X4347801Y-7202174D02*
X4347801Y-7249793D01*
X4347801Y-7249793D02*
X4338277Y-7287888D01*
X4338277Y-7287888D02*
X4328753Y-7306936D01*
X4328753Y-7306936D02*
X4319229Y-7316460D01*
X4319229Y-7316460D02*
X4300182Y-7325984D01*
X4300182Y-7325984D02*
X4281134Y-7325984D01*
X4281134Y-7325984D02*
X4262087Y-7316460D01*
X4262087Y-7316460D02*
X4252563Y-7306936D01*
X4252563Y-7306936D02*
X4243039Y-7287888D01*
X4243039Y-7287888D02*
X4233515Y-7249793D01*
X4233515Y-7249793D02*
X4233515Y-7202174D01*
X4233515Y-7202174D02*
X4243039Y-7164079D01*
X4243039Y-7164079D02*
X4252563Y-7145031D01*
X4252563Y-7145031D02*
X4262087Y-7135508D01*
X4262087Y-7135508D02*
X4281134Y-7125984D01*
X4433515Y-7306936D02*
X4443039Y-7316460D01*
X4443039Y-7316460D02*
X4433515Y-7325984D01*
X4433515Y-7325984D02*
X4423991Y-7316460D01*
X4423991Y-7316460D02*
X4433515Y-7306936D01*
X4433515Y-7306936D02*
X4433515Y-7325984D01*
X4566848Y-7125984D02*
X4585896Y-7125984D01*
X4585896Y-7125984D02*
X4604944Y-7135508D01*
X4604944Y-7135508D02*
X4614468Y-7145031D01*
X4614468Y-7145031D02*
X4623991Y-7164079D01*
X4623991Y-7164079D02*
X4633515Y-7202174D01*
X4633515Y-7202174D02*
X4633515Y-7249793D01*
X4633515Y-7249793D02*
X4623991Y-7287888D01*
X4623991Y-7287888D02*
X4614468Y-7306936D01*
X4614468Y-7306936D02*
X4604944Y-7316460D01*
X4604944Y-7316460D02*
X4585896Y-7325984D01*
X4585896Y-7325984D02*
X4566848Y-7325984D01*
X4566848Y-7325984D02*
X4547801Y-7316460D01*
X4547801Y-7316460D02*
X4538277Y-7306936D01*
X4538277Y-7306936D02*
X4528753Y-7287888D01*
X4528753Y-7287888D02*
X4519229Y-7249793D01*
X4519229Y-7249793D02*
X4519229Y-7202174D01*
X4519229Y-7202174D02*
X4528753Y-7164079D01*
X4528753Y-7164079D02*
X4538277Y-7145031D01*
X4538277Y-7145031D02*
X4547801Y-7135508D01*
X4547801Y-7135508D02*
X4566848Y-7125984D01*
X4700182Y-7125984D02*
X4823991Y-7125984D01*
X4823991Y-7125984D02*
X4757325Y-7202174D01*
X4757325Y-7202174D02*
X4785896Y-7202174D01*
X4785896Y-7202174D02*
X4804944Y-7211698D01*
X4804944Y-7211698D02*
X4814468Y-7221222D01*
X4814468Y-7221222D02*
X4823991Y-7240269D01*
X4823991Y-7240269D02*
X4823991Y-7287888D01*
X4823991Y-7287888D02*
X4814468Y-7306936D01*
X4814468Y-7306936D02*
X4804944Y-7316460D01*
X4804944Y-7316460D02*
X4785896Y-7325984D01*
X4785896Y-7325984D02*
X4728753Y-7325984D01*
X4728753Y-7325984D02*
X4709706Y-7316460D01*
X4709706Y-7316460D02*
X4700182Y-7306936D01*
X4919229Y-7325984D02*
X4957325Y-7325984D01*
X4957325Y-7325984D02*
X4976372Y-7316460D01*
X4976372Y-7316460D02*
X4985896Y-7306936D01*
X4985896Y-7306936D02*
X5004944Y-7278365D01*
X5004944Y-7278365D02*
X5014468Y-7240269D01*
X5014468Y-7240269D02*
X5014468Y-7164079D01*
X5014468Y-7164079D02*
X5004944Y-7145031D01*
X5004944Y-7145031D02*
X4995420Y-7135508D01*
X4995420Y-7135508D02*
X4976372Y-7125984D01*
X4976372Y-7125984D02*
X4938277Y-7125984D01*
X4938277Y-7125984D02*
X4919229Y-7135508D01*
X4919229Y-7135508D02*
X4909706Y-7145031D01*
X4909706Y-7145031D02*
X4900182Y-7164079D01*
X4900182Y-7164079D02*
X4900182Y-7211698D01*
X4900182Y-7211698D02*
X4909706Y-7230746D01*
X4909706Y-7230746D02*
X4919229Y-7240269D01*
X4919229Y-7240269D02*
X4938277Y-7249793D01*
X4938277Y-7249793D02*
X4976372Y-7249793D01*
X4976372Y-7249793D02*
X4995420Y-7240269D01*
X4995420Y-7240269D02*
X5004944Y-7230746D01*
X5004944Y-7230746D02*
X5014468Y-7211698D01*
X5185896Y-7192650D02*
X5185896Y-7325984D01*
X5138277Y-7116460D02*
X5090658Y-7259317D01*
X5090658Y-7259317D02*
X5214468Y-7259317D01*
X5281134Y-7125984D02*
X5281134Y-7164079D01*
X5357325Y-7125984D02*
X5357325Y-7164079D01*
X5652563Y-7402174D02*
X5643039Y-7392650D01*
X5643039Y-7392650D02*
X5623991Y-7364079D01*
X5623991Y-7364079D02*
X5614468Y-7345031D01*
X5614468Y-7345031D02*
X5604944Y-7316460D01*
X5604944Y-7316460D02*
X5595420Y-7268841D01*
X5595420Y-7268841D02*
X5595420Y-7230746D01*
X5595420Y-7230746D02*
X5604944Y-7183127D01*
X5604944Y-7183127D02*
X5614468Y-7154555D01*
X5614468Y-7154555D02*
X5623991Y-7135508D01*
X5623991Y-7135508D02*
X5643039Y-7106936D01*
X5643039Y-7106936D02*
X5652563Y-7097412D01*
X5766848Y-7125984D02*
X5785896Y-7125984D01*
X5785896Y-7125984D02*
X5804944Y-7135508D01*
X5804944Y-7135508D02*
X5814468Y-7145031D01*
X5814468Y-7145031D02*
X5823991Y-7164079D01*
X5823991Y-7164079D02*
X5833515Y-7202174D01*
X5833515Y-7202174D02*
X5833515Y-7249793D01*
X5833515Y-7249793D02*
X5823991Y-7287888D01*
X5823991Y-7287888D02*
X5814468Y-7306936D01*
X5814468Y-7306936D02*
X5804944Y-7316460D01*
X5804944Y-7316460D02*
X5785896Y-7325984D01*
X5785896Y-7325984D02*
X5766848Y-7325984D01*
X5766848Y-7325984D02*
X5747801Y-7316460D01*
X5747801Y-7316460D02*
X5738277Y-7306936D01*
X5738277Y-7306936D02*
X5728753Y-7287888D01*
X5728753Y-7287888D02*
X5719229Y-7249793D01*
X5719229Y-7249793D02*
X5719229Y-7202174D01*
X5719229Y-7202174D02*
X5728753Y-7164079D01*
X5728753Y-7164079D02*
X5738277Y-7145031D01*
X5738277Y-7145031D02*
X5747801Y-7135508D01*
X5747801Y-7135508D02*
X5766848Y-7125984D01*
X6071610Y-7325984D02*
X6071610Y-7125984D01*
X6157325Y-7325984D02*
X6157325Y-7221222D01*
X6157325Y-7221222D02*
X6147801Y-7202174D01*
X6147801Y-7202174D02*
X6128753Y-7192650D01*
X6128753Y-7192650D02*
X6100182Y-7192650D01*
X6100182Y-7192650D02*
X6081134Y-7202174D01*
X6081134Y-7202174D02*
X6071610Y-7211698D01*
X6281134Y-7325984D02*
X6262087Y-7316460D01*
X6262087Y-7316460D02*
X6252563Y-7306936D01*
X6252563Y-7306936D02*
X6243039Y-7287888D01*
X6243039Y-7287888D02*
X6243039Y-7230746D01*
X6243039Y-7230746D02*
X6252563Y-7211698D01*
X6252563Y-7211698D02*
X6262087Y-7202174D01*
X6262087Y-7202174D02*
X6281134Y-7192650D01*
X6281134Y-7192650D02*
X6309706Y-7192650D01*
X6309706Y-7192650D02*
X6328753Y-7202174D01*
X6328753Y-7202174D02*
X6338277Y-7211698D01*
X6338277Y-7211698D02*
X6347801Y-7230746D01*
X6347801Y-7230746D02*
X6347801Y-7287888D01*
X6347801Y-7287888D02*
X6338277Y-7306936D01*
X6338277Y-7306936D02*
X6328753Y-7316460D01*
X6328753Y-7316460D02*
X6309706Y-7325984D01*
X6309706Y-7325984D02*
X6281134Y-7325984D01*
X6462087Y-7325984D02*
X6443039Y-7316460D01*
X6443039Y-7316460D02*
X6433515Y-7297412D01*
X6433515Y-7297412D02*
X6433515Y-7125984D01*
X6614468Y-7316460D02*
X6595420Y-7325984D01*
X6595420Y-7325984D02*
X6557325Y-7325984D01*
X6557325Y-7325984D02*
X6538277Y-7316460D01*
X6538277Y-7316460D02*
X6528753Y-7297412D01*
X6528753Y-7297412D02*
X6528753Y-7221222D01*
X6528753Y-7221222D02*
X6538277Y-7202174D01*
X6538277Y-7202174D02*
X6557325Y-7192650D01*
X6557325Y-7192650D02*
X6595420Y-7192650D01*
X6595420Y-7192650D02*
X6614468Y-7202174D01*
X6614468Y-7202174D02*
X6623991Y-7221222D01*
X6623991Y-7221222D02*
X6623991Y-7240269D01*
X6623991Y-7240269D02*
X6528753Y-7259317D01*
X6700182Y-7316460D02*
X6719230Y-7325984D01*
X6719230Y-7325984D02*
X6757325Y-7325984D01*
X6757325Y-7325984D02*
X6776372Y-7316460D01*
X6776372Y-7316460D02*
X6785896Y-7297412D01*
X6785896Y-7297412D02*
X6785896Y-7287888D01*
X6785896Y-7287888D02*
X6776372Y-7268841D01*
X6776372Y-7268841D02*
X6757325Y-7259317D01*
X6757325Y-7259317D02*
X6728753Y-7259317D01*
X6728753Y-7259317D02*
X6709706Y-7249793D01*
X6709706Y-7249793D02*
X6700182Y-7230746D01*
X6700182Y-7230746D02*
X6700182Y-7221222D01*
X6700182Y-7221222D02*
X6709706Y-7202174D01*
X6709706Y-7202174D02*
X6728753Y-7192650D01*
X6728753Y-7192650D02*
X6757325Y-7192650D01*
X6757325Y-7192650D02*
X6776372Y-7202174D01*
X7023992Y-7249793D02*
X7176373Y-7249793D01*
X7100182Y-7325984D02*
X7100182Y-7173603D01*
X7404944Y-7125984D02*
X7528753Y-7125984D01*
X7528753Y-7125984D02*
X7462087Y-7202174D01*
X7462087Y-7202174D02*
X7490658Y-7202174D01*
X7490658Y-7202174D02*
X7509706Y-7211698D01*
X7509706Y-7211698D02*
X7519230Y-7221222D01*
X7519230Y-7221222D02*
X7528753Y-7240269D01*
X7528753Y-7240269D02*
X7528753Y-7287888D01*
X7528753Y-7287888D02*
X7519230Y-7306936D01*
X7519230Y-7306936D02*
X7509706Y-7316460D01*
X7509706Y-7316460D02*
X7490658Y-7325984D01*
X7490658Y-7325984D02*
X7433515Y-7325984D01*
X7433515Y-7325984D02*
X7414468Y-7316460D01*
X7414468Y-7316460D02*
X7404944Y-7306936D01*
X7757325Y-7316460D02*
X7776373Y-7325984D01*
X7776373Y-7325984D02*
X7814468Y-7325984D01*
X7814468Y-7325984D02*
X7833515Y-7316460D01*
X7833515Y-7316460D02*
X7843039Y-7297412D01*
X7843039Y-7297412D02*
X7843039Y-7287888D01*
X7843039Y-7287888D02*
X7833515Y-7268841D01*
X7833515Y-7268841D02*
X7814468Y-7259317D01*
X7814468Y-7259317D02*
X7785896Y-7259317D01*
X7785896Y-7259317D02*
X7766849Y-7249793D01*
X7766849Y-7249793D02*
X7757325Y-7230746D01*
X7757325Y-7230746D02*
X7757325Y-7221222D01*
X7757325Y-7221222D02*
X7766849Y-7202174D01*
X7766849Y-7202174D02*
X7785896Y-7192650D01*
X7785896Y-7192650D02*
X7814468Y-7192650D01*
X7814468Y-7192650D02*
X7833515Y-7202174D01*
X7957325Y-7325984D02*
X7938277Y-7316460D01*
X7938277Y-7316460D02*
X7928754Y-7297412D01*
X7928754Y-7297412D02*
X7928754Y-7125984D01*
X8062087Y-7325984D02*
X8043039Y-7316460D01*
X8043039Y-7316460D02*
X8033515Y-7306936D01*
X8033515Y-7306936D02*
X8023992Y-7287888D01*
X8023992Y-7287888D02*
X8023992Y-7230746D01*
X8023992Y-7230746D02*
X8033515Y-7211698D01*
X8033515Y-7211698D02*
X8043039Y-7202174D01*
X8043039Y-7202174D02*
X8062087Y-7192650D01*
X8062087Y-7192650D02*
X8090658Y-7192650D01*
X8090658Y-7192650D02*
X8109706Y-7202174D01*
X8109706Y-7202174D02*
X8119230Y-7211698D01*
X8119230Y-7211698D02*
X8128754Y-7230746D01*
X8128754Y-7230746D02*
X8128754Y-7287888D01*
X8128754Y-7287888D02*
X8119230Y-7306936D01*
X8119230Y-7306936D02*
X8109706Y-7316460D01*
X8109706Y-7316460D02*
X8090658Y-7325984D01*
X8090658Y-7325984D02*
X8062087Y-7325984D01*
X8185896Y-7192650D02*
X8262087Y-7192650D01*
X8214468Y-7125984D02*
X8214468Y-7297412D01*
X8214468Y-7297412D02*
X8223992Y-7316460D01*
X8223992Y-7316460D02*
X8243039Y-7325984D01*
X8243039Y-7325984D02*
X8262087Y-7325984D01*
X8319230Y-7316460D02*
X8338277Y-7325984D01*
X8338277Y-7325984D02*
X8376373Y-7325984D01*
X8376373Y-7325984D02*
X8395420Y-7316460D01*
X8395420Y-7316460D02*
X8404944Y-7297412D01*
X8404944Y-7297412D02*
X8404944Y-7287888D01*
X8404944Y-7287888D02*
X8395420Y-7268841D01*
X8395420Y-7268841D02*
X8376373Y-7259317D01*
X8376373Y-7259317D02*
X8347801Y-7259317D01*
X8347801Y-7259317D02*
X8328754Y-7249793D01*
X8328754Y-7249793D02*
X8319230Y-7230746D01*
X8319230Y-7230746D02*
X8319230Y-7221222D01*
X8319230Y-7221222D02*
X8328754Y-7202174D01*
X8328754Y-7202174D02*
X8347801Y-7192650D01*
X8347801Y-7192650D02*
X8376373Y-7192650D01*
X8376373Y-7192650D02*
X8395420Y-7202174D01*
X8471611Y-7402174D02*
X8481135Y-7392650D01*
X8481135Y-7392650D02*
X8500182Y-7364079D01*
X8500182Y-7364079D02*
X8509706Y-7345031D01*
X8509706Y-7345031D02*
X8519230Y-7316460D01*
X8519230Y-7316460D02*
X8528754Y-7268841D01*
X8528754Y-7268841D02*
X8528754Y-7230746D01*
X8528754Y-7230746D02*
X8519230Y-7183127D01*
X8519230Y-7183127D02*
X8509706Y-7154555D01*
X8509706Y-7154555D02*
X8500182Y-7135508D01*
X8500182Y-7135508D02*
X8481135Y-7106936D01*
X8481135Y-7106936D02*
X8471611Y-7097412D01*
D13*
X2017500Y-7558500D02*
X2077500Y-7498500D01*
X2017500Y-7438500D01*
X1957500Y-7498500D01*
X2017500Y-7558500D01*
D11*
X2443039Y-7589984D02*
X2328753Y-7589984D01*
X2385896Y-7589984D02*
X2385896Y-7389984D01*
X2385896Y-7389984D02*
X2366848Y-7418555D01*
X2366848Y-7418555D02*
X2347801Y-7437603D01*
X2347801Y-7437603D02*
X2328753Y-7447127D01*
X2528753Y-7570936D02*
X2538277Y-7580460D01*
X2538277Y-7580460D02*
X2528753Y-7589984D01*
X2528753Y-7589984D02*
X2519229Y-7580460D01*
X2519229Y-7580460D02*
X2528753Y-7570936D01*
X2528753Y-7570936D02*
X2528753Y-7589984D01*
X2614467Y-7409031D02*
X2623991Y-7399508D01*
X2623991Y-7399508D02*
X2643039Y-7389984D01*
X2643039Y-7389984D02*
X2690658Y-7389984D01*
X2690658Y-7389984D02*
X2709705Y-7399508D01*
X2709705Y-7399508D02*
X2719229Y-7409031D01*
X2719229Y-7409031D02*
X2728753Y-7428079D01*
X2728753Y-7428079D02*
X2728753Y-7447127D01*
X2728753Y-7447127D02*
X2719229Y-7475698D01*
X2719229Y-7475698D02*
X2604944Y-7589984D01*
X2604944Y-7589984D02*
X2728753Y-7589984D01*
X2852562Y-7389984D02*
X2871610Y-7389984D01*
X2871610Y-7389984D02*
X2890658Y-7399508D01*
X2890658Y-7399508D02*
X2900182Y-7409031D01*
X2900182Y-7409031D02*
X2909705Y-7428079D01*
X2909705Y-7428079D02*
X2919229Y-7466174D01*
X2919229Y-7466174D02*
X2919229Y-7513793D01*
X2919229Y-7513793D02*
X2909705Y-7551888D01*
X2909705Y-7551888D02*
X2900182Y-7570936D01*
X2900182Y-7570936D02*
X2890658Y-7580460D01*
X2890658Y-7580460D02*
X2871610Y-7589984D01*
X2871610Y-7589984D02*
X2852562Y-7589984D01*
X2852562Y-7589984D02*
X2833515Y-7580460D01*
X2833515Y-7580460D02*
X2823991Y-7570936D01*
X2823991Y-7570936D02*
X2814467Y-7551888D01*
X2814467Y-7551888D02*
X2804943Y-7513793D01*
X2804943Y-7513793D02*
X2804943Y-7466174D01*
X2804943Y-7466174D02*
X2814467Y-7428079D01*
X2814467Y-7428079D02*
X2823991Y-7409031D01*
X2823991Y-7409031D02*
X2833515Y-7399508D01*
X2833515Y-7399508D02*
X2852562Y-7389984D01*
X3043039Y-7389984D02*
X3062086Y-7389984D01*
X3062086Y-7389984D02*
X3081134Y-7399508D01*
X3081134Y-7399508D02*
X3090658Y-7409031D01*
X3090658Y-7409031D02*
X3100182Y-7428079D01*
X3100182Y-7428079D02*
X3109705Y-7466174D01*
X3109705Y-7466174D02*
X3109705Y-7513793D01*
X3109705Y-7513793D02*
X3100182Y-7551888D01*
X3100182Y-7551888D02*
X3090658Y-7570936D01*
X3090658Y-7570936D02*
X3081134Y-7580460D01*
X3081134Y-7580460D02*
X3062086Y-7589984D01*
X3062086Y-7589984D02*
X3043039Y-7589984D01*
X3043039Y-7589984D02*
X3023991Y-7580460D01*
X3023991Y-7580460D02*
X3014467Y-7570936D01*
X3014467Y-7570936D02*
X3004943Y-7551888D01*
X3004943Y-7551888D02*
X2995420Y-7513793D01*
X2995420Y-7513793D02*
X2995420Y-7466174D01*
X2995420Y-7466174D02*
X3004943Y-7428079D01*
X3004943Y-7428079D02*
X3014467Y-7409031D01*
X3014467Y-7409031D02*
X3023991Y-7399508D01*
X3023991Y-7399508D02*
X3043039Y-7389984D01*
X3195420Y-7589984D02*
X3195420Y-7456650D01*
X3195420Y-7475698D02*
X3204943Y-7466174D01*
X3204943Y-7466174D02*
X3223991Y-7456650D01*
X3223991Y-7456650D02*
X3252563Y-7456650D01*
X3252563Y-7456650D02*
X3271610Y-7466174D01*
X3271610Y-7466174D02*
X3281134Y-7485222D01*
X3281134Y-7485222D02*
X3281134Y-7589984D01*
X3281134Y-7485222D02*
X3290658Y-7466174D01*
X3290658Y-7466174D02*
X3309705Y-7456650D01*
X3309705Y-7456650D02*
X3338277Y-7456650D01*
X3338277Y-7456650D02*
X3357324Y-7466174D01*
X3357324Y-7466174D02*
X3366848Y-7485222D01*
X3366848Y-7485222D02*
X3366848Y-7589984D01*
X3462086Y-7589984D02*
X3462086Y-7456650D01*
X3462086Y-7475698D02*
X3471610Y-7466174D01*
X3471610Y-7466174D02*
X3490658Y-7456650D01*
X3490658Y-7456650D02*
X3519229Y-7456650D01*
X3519229Y-7456650D02*
X3538277Y-7466174D01*
X3538277Y-7466174D02*
X3547801Y-7485222D01*
X3547801Y-7485222D02*
X3547801Y-7589984D01*
X3547801Y-7485222D02*
X3557324Y-7466174D01*
X3557324Y-7466174D02*
X3576372Y-7456650D01*
X3576372Y-7456650D02*
X3604943Y-7456650D01*
X3604943Y-7456650D02*
X3623991Y-7466174D01*
X3623991Y-7466174D02*
X3633515Y-7485222D01*
X3633515Y-7485222D02*
X3633515Y-7589984D01*
X4023991Y-7380460D02*
X3852563Y-7637603D01*
X4281134Y-7389984D02*
X4300182Y-7389984D01*
X4300182Y-7389984D02*
X4319229Y-7399508D01*
X4319229Y-7399508D02*
X4328753Y-7409031D01*
X4328753Y-7409031D02*
X4338277Y-7428079D01*
X4338277Y-7428079D02*
X4347801Y-7466174D01*
X4347801Y-7466174D02*
X4347801Y-7513793D01*
X4347801Y-7513793D02*
X4338277Y-7551888D01*
X4338277Y-7551888D02*
X4328753Y-7570936D01*
X4328753Y-7570936D02*
X4319229Y-7580460D01*
X4319229Y-7580460D02*
X4300182Y-7589984D01*
X4300182Y-7589984D02*
X4281134Y-7589984D01*
X4281134Y-7589984D02*
X4262087Y-7580460D01*
X4262087Y-7580460D02*
X4252563Y-7570936D01*
X4252563Y-7570936D02*
X4243039Y-7551888D01*
X4243039Y-7551888D02*
X4233515Y-7513793D01*
X4233515Y-7513793D02*
X4233515Y-7466174D01*
X4233515Y-7466174D02*
X4243039Y-7428079D01*
X4243039Y-7428079D02*
X4252563Y-7409031D01*
X4252563Y-7409031D02*
X4262087Y-7399508D01*
X4262087Y-7399508D02*
X4281134Y-7389984D01*
X4433515Y-7570936D02*
X4443039Y-7580460D01*
X4443039Y-7580460D02*
X4433515Y-7589984D01*
X4433515Y-7589984D02*
X4423991Y-7580460D01*
X4423991Y-7580460D02*
X4433515Y-7570936D01*
X4433515Y-7570936D02*
X4433515Y-7589984D01*
X4566848Y-7389984D02*
X4585896Y-7389984D01*
X4585896Y-7389984D02*
X4604944Y-7399508D01*
X4604944Y-7399508D02*
X4614468Y-7409031D01*
X4614468Y-7409031D02*
X4623991Y-7428079D01*
X4623991Y-7428079D02*
X4633515Y-7466174D01*
X4633515Y-7466174D02*
X4633515Y-7513793D01*
X4633515Y-7513793D02*
X4623991Y-7551888D01*
X4623991Y-7551888D02*
X4614468Y-7570936D01*
X4614468Y-7570936D02*
X4604944Y-7580460D01*
X4604944Y-7580460D02*
X4585896Y-7589984D01*
X4585896Y-7589984D02*
X4566848Y-7589984D01*
X4566848Y-7589984D02*
X4547801Y-7580460D01*
X4547801Y-7580460D02*
X4538277Y-7570936D01*
X4538277Y-7570936D02*
X4528753Y-7551888D01*
X4528753Y-7551888D02*
X4519229Y-7513793D01*
X4519229Y-7513793D02*
X4519229Y-7466174D01*
X4519229Y-7466174D02*
X4528753Y-7428079D01*
X4528753Y-7428079D02*
X4538277Y-7409031D01*
X4538277Y-7409031D02*
X4547801Y-7399508D01*
X4547801Y-7399508D02*
X4566848Y-7389984D01*
X4804944Y-7456650D02*
X4804944Y-7589984D01*
X4757325Y-7380460D02*
X4709706Y-7523317D01*
X4709706Y-7523317D02*
X4833515Y-7523317D01*
X4890658Y-7389984D02*
X5023991Y-7389984D01*
X5023991Y-7389984D02*
X4938277Y-7589984D01*
X5090658Y-7409031D02*
X5100182Y-7399508D01*
X5100182Y-7399508D02*
X5119229Y-7389984D01*
X5119229Y-7389984D02*
X5166849Y-7389984D01*
X5166849Y-7389984D02*
X5185896Y-7399508D01*
X5185896Y-7399508D02*
X5195420Y-7409031D01*
X5195420Y-7409031D02*
X5204944Y-7428079D01*
X5204944Y-7428079D02*
X5204944Y-7447127D01*
X5204944Y-7447127D02*
X5195420Y-7475698D01*
X5195420Y-7475698D02*
X5081134Y-7589984D01*
X5081134Y-7589984D02*
X5204944Y-7589984D01*
X5281134Y-7389984D02*
X5281134Y-7428079D01*
X5357325Y-7389984D02*
X5357325Y-7428079D01*
X5652563Y-7666174D02*
X5643039Y-7656650D01*
X5643039Y-7656650D02*
X5623991Y-7628079D01*
X5623991Y-7628079D02*
X5614468Y-7609031D01*
X5614468Y-7609031D02*
X5604944Y-7580460D01*
X5604944Y-7580460D02*
X5595420Y-7532841D01*
X5595420Y-7532841D02*
X5595420Y-7494746D01*
X5595420Y-7494746D02*
X5604944Y-7447127D01*
X5604944Y-7447127D02*
X5614468Y-7418555D01*
X5614468Y-7418555D02*
X5623991Y-7399508D01*
X5623991Y-7399508D02*
X5643039Y-7370936D01*
X5643039Y-7370936D02*
X5652563Y-7361412D01*
X5814468Y-7456650D02*
X5814468Y-7589984D01*
X5766848Y-7380460D02*
X5719229Y-7523317D01*
X5719229Y-7523317D02*
X5843039Y-7523317D01*
X6071610Y-7589984D02*
X6071610Y-7389984D01*
X6157325Y-7589984D02*
X6157325Y-7485222D01*
X6157325Y-7485222D02*
X6147801Y-7466174D01*
X6147801Y-7466174D02*
X6128753Y-7456650D01*
X6128753Y-7456650D02*
X6100182Y-7456650D01*
X6100182Y-7456650D02*
X6081134Y-7466174D01*
X6081134Y-7466174D02*
X6071610Y-7475698D01*
X6281134Y-7589984D02*
X6262087Y-7580460D01*
X6262087Y-7580460D02*
X6252563Y-7570936D01*
X6252563Y-7570936D02*
X6243039Y-7551888D01*
X6243039Y-7551888D02*
X6243039Y-7494746D01*
X6243039Y-7494746D02*
X6252563Y-7475698D01*
X6252563Y-7475698D02*
X6262087Y-7466174D01*
X6262087Y-7466174D02*
X6281134Y-7456650D01*
X6281134Y-7456650D02*
X6309706Y-7456650D01*
X6309706Y-7456650D02*
X6328753Y-7466174D01*
X6328753Y-7466174D02*
X6338277Y-7475698D01*
X6338277Y-7475698D02*
X6347801Y-7494746D01*
X6347801Y-7494746D02*
X6347801Y-7551888D01*
X6347801Y-7551888D02*
X6338277Y-7570936D01*
X6338277Y-7570936D02*
X6328753Y-7580460D01*
X6328753Y-7580460D02*
X6309706Y-7589984D01*
X6309706Y-7589984D02*
X6281134Y-7589984D01*
X6462087Y-7589984D02*
X6443039Y-7580460D01*
X6443039Y-7580460D02*
X6433515Y-7561412D01*
X6433515Y-7561412D02*
X6433515Y-7389984D01*
X6614468Y-7580460D02*
X6595420Y-7589984D01*
X6595420Y-7589984D02*
X6557325Y-7589984D01*
X6557325Y-7589984D02*
X6538277Y-7580460D01*
X6538277Y-7580460D02*
X6528753Y-7561412D01*
X6528753Y-7561412D02*
X6528753Y-7485222D01*
X6528753Y-7485222D02*
X6538277Y-7466174D01*
X6538277Y-7466174D02*
X6557325Y-7456650D01*
X6557325Y-7456650D02*
X6595420Y-7456650D01*
X6595420Y-7456650D02*
X6614468Y-7466174D01*
X6614468Y-7466174D02*
X6623991Y-7485222D01*
X6623991Y-7485222D02*
X6623991Y-7504269D01*
X6623991Y-7504269D02*
X6528753Y-7523317D01*
X6700182Y-7580460D02*
X6719230Y-7589984D01*
X6719230Y-7589984D02*
X6757325Y-7589984D01*
X6757325Y-7589984D02*
X6776372Y-7580460D01*
X6776372Y-7580460D02*
X6785896Y-7561412D01*
X6785896Y-7561412D02*
X6785896Y-7551888D01*
X6785896Y-7551888D02*
X6776372Y-7532841D01*
X6776372Y-7532841D02*
X6757325Y-7523317D01*
X6757325Y-7523317D02*
X6728753Y-7523317D01*
X6728753Y-7523317D02*
X6709706Y-7513793D01*
X6709706Y-7513793D02*
X6700182Y-7494746D01*
X6700182Y-7494746D02*
X6700182Y-7485222D01*
X6700182Y-7485222D02*
X6709706Y-7466174D01*
X6709706Y-7466174D02*
X6728753Y-7456650D01*
X6728753Y-7456650D02*
X6757325Y-7456650D01*
X6757325Y-7456650D02*
X6776372Y-7466174D01*
X6852563Y-7666174D02*
X6862087Y-7656650D01*
X6862087Y-7656650D02*
X6881134Y-7628079D01*
X6881134Y-7628079D02*
X6890658Y-7609031D01*
X6890658Y-7609031D02*
X6900182Y-7580460D01*
X6900182Y-7580460D02*
X6909706Y-7532841D01*
X6909706Y-7532841D02*
X6909706Y-7494746D01*
X6909706Y-7494746D02*
X6900182Y-7447127D01*
X6900182Y-7447127D02*
X6890658Y-7418555D01*
X6890658Y-7418555D02*
X6881134Y-7399508D01*
X6881134Y-7399508D02*
X6862087Y-7370936D01*
X6862087Y-7370936D02*
X6852563Y-7361412D01*
M02*
