G04 #@! TF.GenerationSoftware,KiCad,Pcbnew,8.0.5*
G04 #@! TF.CreationDate,2025-01-03T23:13:30-05:00*
G04 #@! TF.ProjectId,PierogiNixiePSU,50696572-6f67-4694-9e69-786965505355,rev?*
G04 #@! TF.SameCoordinates,Original*
G04 #@! TF.FileFunction,Paste,Top*
G04 #@! TF.FilePolarity,Positive*
%FSLAX46Y46*%
G04 Gerber Fmt 4.6, Leading zero omitted, Abs format (unit mm)*
G04 Created by KiCad (PCBNEW 8.0.5) date 2025-01-03 23:13:30*
%MOMM*%
%LPD*%
G01*
G04 APERTURE LIST*
G04 Aperture macros list*
%AMRoundRect*
0 Rectangle with rounded corners*
0 $1 Rounding radius*
0 $2 $3 $4 $5 $6 $7 $8 $9 X,Y pos of 4 corners*
0 Add a 4 corners polygon primitive as box body*
4,1,4,$2,$3,$4,$5,$6,$7,$8,$9,$2,$3,0*
0 Add four circle primitives for the rounded corners*
1,1,$1+$1,$2,$3*
1,1,$1+$1,$4,$5*
1,1,$1+$1,$6,$7*
1,1,$1+$1,$8,$9*
0 Add four rect primitives between the rounded corners*
20,1,$1+$1,$2,$3,$4,$5,0*
20,1,$1+$1,$4,$5,$6,$7,0*
20,1,$1+$1,$6,$7,$8,$9,0*
20,1,$1+$1,$8,$9,$2,$3,0*%
G04 Aperture macros list end*
%ADD10RoundRect,0.250000X0.300000X-2.050000X0.300000X2.050000X-0.300000X2.050000X-0.300000X-2.050000X0*%
%ADD11RoundRect,0.250000X2.375000X-2.025000X2.375000X2.025000X-2.375000X2.025000X-2.375000X-2.025000X0*%
%ADD12R,3.175000X4.950000*%
%ADD13RoundRect,0.150000X-0.725000X-0.150000X0.725000X-0.150000X0.725000X0.150000X-0.725000X0.150000X0*%
%ADD14RoundRect,0.250000X-0.475000X0.250000X-0.475000X-0.250000X0.475000X-0.250000X0.475000X0.250000X0*%
%ADD15RoundRect,0.250000X0.262500X0.450000X-0.262500X0.450000X-0.262500X-0.450000X0.262500X-0.450000X0*%
%ADD16RoundRect,0.250000X0.900000X-1.500000X0.900000X1.500000X-0.900000X1.500000X-0.900000X-1.500000X0*%
%ADD17RoundRect,0.250000X0.250000X0.475000X-0.250000X0.475000X-0.250000X-0.475000X0.250000X-0.475000X0*%
%ADD18RoundRect,0.250000X-0.250000X-0.475000X0.250000X-0.475000X0.250000X0.475000X-0.250000X0.475000X0*%
%ADD19RoundRect,0.250000X-0.262500X-0.450000X0.262500X-0.450000X0.262500X0.450000X-0.262500X0.450000X0*%
%ADD20RoundRect,0.250000X-0.787500X-1.025000X0.787500X-1.025000X0.787500X1.025000X-0.787500X1.025000X0*%
G04 APERTURE END LIST*
D10*
X52885000Y-36325000D03*
D11*
X52650000Y-29600000D03*
X58200000Y-29600000D03*
X52650000Y-24750000D03*
X58200000Y-24750000D03*
D10*
X57965000Y-36325000D03*
D12*
X35897500Y-29625000D03*
X44912500Y-29625000D03*
D13*
X41750000Y-51870000D03*
X41750000Y-53140000D03*
X41750000Y-54410000D03*
X41750000Y-55680000D03*
X46900000Y-55680000D03*
X46900000Y-54410000D03*
X46900000Y-53140000D03*
X46900000Y-51870000D03*
D14*
X36775000Y-53105000D03*
X36775000Y-55005000D03*
D15*
X58912500Y-47125000D03*
X57087500Y-47125000D03*
D16*
X63735000Y-34980000D03*
X63735000Y-29580000D03*
D15*
X59807500Y-40125000D03*
X57982500Y-40125000D03*
D17*
X63695000Y-48445000D03*
X61795000Y-48445000D03*
D18*
X49015000Y-55655000D03*
X50915000Y-55655000D03*
D14*
X48295000Y-29575000D03*
X48295000Y-31475000D03*
D19*
X57087500Y-43025000D03*
X58912500Y-43025000D03*
D18*
X27205000Y-48305000D03*
X29105000Y-48305000D03*
D15*
X58912500Y-45095000D03*
X57087500Y-45095000D03*
D14*
X38785000Y-53105000D03*
X38785000Y-55005000D03*
D18*
X63705000Y-38345000D03*
X65605000Y-38345000D03*
D20*
X27237500Y-44715000D03*
X33462500Y-44715000D03*
M02*
