%TF.GenerationSoftware,KiCad,Pcbnew,8.0.5*%
%TF.CreationDate,2025-01-03T23:13:27-05:00*%
%TF.ProjectId,PierogiNixiePSU,50696572-6f67-4694-9e69-786965505355,rev?*%
%TF.SameCoordinates,Original*%
%TF.FileFunction,Drillmap*%
%TF.FilePolarity,Positive*%
%FSLAX45Y45*%
G04 Gerber Fmt 4.5, Leading zero omitted, Abs format (unit mm)*
G04 Created by KiCad (PCBNEW 8.0.5) date 2025-01-03 23:13:27*
%MOMM*%
%LPD*%
G01*
G04 APERTURE LIST*
%ADD10C,0.050000*%
%ADD11C,0.200000*%
%ADD12C,0.350000*%
G04 APERTURE END LIST*
D10*
X2080000Y-2140000D02*
X7050000Y-2140000D01*
X7050000Y-5800000D01*
X2080000Y-5800000D01*
X2080000Y-2140000D01*
D11*
D12*
X3740500Y-3792500D02*
X4090500Y-4142500D01*
X4090500Y-3792500D02*
X3740500Y-4142500D01*
X5470500Y-5147500D02*
X5820500Y-5497500D01*
X5820500Y-5147500D02*
X5470500Y-5497500D01*
D11*
X2338277Y-6113984D02*
X2338277Y-5913984D01*
X2338277Y-5913984D02*
X2385896Y-5913984D01*
X2385896Y-5913984D02*
X2414467Y-5923508D01*
X2414467Y-5923508D02*
X2433515Y-5942555D01*
X2433515Y-5942555D02*
X2443039Y-5961603D01*
X2443039Y-5961603D02*
X2452563Y-5999698D01*
X2452563Y-5999698D02*
X2452563Y-6028269D01*
X2452563Y-6028269D02*
X2443039Y-6066365D01*
X2443039Y-6066365D02*
X2433515Y-6085412D01*
X2433515Y-6085412D02*
X2414467Y-6104460D01*
X2414467Y-6104460D02*
X2385896Y-6113984D01*
X2385896Y-6113984D02*
X2338277Y-6113984D01*
X2538277Y-6113984D02*
X2538277Y-5980650D01*
X2538277Y-6018746D02*
X2547801Y-5999698D01*
X2547801Y-5999698D02*
X2557324Y-5990174D01*
X2557324Y-5990174D02*
X2576372Y-5980650D01*
X2576372Y-5980650D02*
X2595420Y-5980650D01*
X2662086Y-6113984D02*
X2662086Y-5980650D01*
X2662086Y-5913984D02*
X2652563Y-5923508D01*
X2652563Y-5923508D02*
X2662086Y-5933031D01*
X2662086Y-5933031D02*
X2671610Y-5923508D01*
X2671610Y-5923508D02*
X2662086Y-5913984D01*
X2662086Y-5913984D02*
X2662086Y-5933031D01*
X2785896Y-6113984D02*
X2766848Y-6104460D01*
X2766848Y-6104460D02*
X2757324Y-6085412D01*
X2757324Y-6085412D02*
X2757324Y-5913984D01*
X2890658Y-6113984D02*
X2871610Y-6104460D01*
X2871610Y-6104460D02*
X2862086Y-6085412D01*
X2862086Y-6085412D02*
X2862086Y-5913984D01*
X3119229Y-6113984D02*
X3119229Y-5913984D01*
X3119229Y-5913984D02*
X3185896Y-6056841D01*
X3185896Y-6056841D02*
X3252562Y-5913984D01*
X3252562Y-5913984D02*
X3252562Y-6113984D01*
X3433515Y-6113984D02*
X3433515Y-6009222D01*
X3433515Y-6009222D02*
X3423991Y-5990174D01*
X3423991Y-5990174D02*
X3404943Y-5980650D01*
X3404943Y-5980650D02*
X3366848Y-5980650D01*
X3366848Y-5980650D02*
X3347801Y-5990174D01*
X3433515Y-6104460D02*
X3414467Y-6113984D01*
X3414467Y-6113984D02*
X3366848Y-6113984D01*
X3366848Y-6113984D02*
X3347801Y-6104460D01*
X3347801Y-6104460D02*
X3338277Y-6085412D01*
X3338277Y-6085412D02*
X3338277Y-6066365D01*
X3338277Y-6066365D02*
X3347801Y-6047317D01*
X3347801Y-6047317D02*
X3366848Y-6037793D01*
X3366848Y-6037793D02*
X3414467Y-6037793D01*
X3414467Y-6037793D02*
X3433515Y-6028269D01*
X3528753Y-5980650D02*
X3528753Y-6180650D01*
X3528753Y-5990174D02*
X3547801Y-5980650D01*
X3547801Y-5980650D02*
X3585896Y-5980650D01*
X3585896Y-5980650D02*
X3604943Y-5990174D01*
X3604943Y-5990174D02*
X3614467Y-5999698D01*
X3614467Y-5999698D02*
X3623991Y-6018746D01*
X3623991Y-6018746D02*
X3623991Y-6075888D01*
X3623991Y-6075888D02*
X3614467Y-6094936D01*
X3614467Y-6094936D02*
X3604943Y-6104460D01*
X3604943Y-6104460D02*
X3585896Y-6113984D01*
X3585896Y-6113984D02*
X3547801Y-6113984D01*
X3547801Y-6113984D02*
X3528753Y-6104460D01*
X3709705Y-6094936D02*
X3719229Y-6104460D01*
X3719229Y-6104460D02*
X3709705Y-6113984D01*
X3709705Y-6113984D02*
X3700182Y-6104460D01*
X3700182Y-6104460D02*
X3709705Y-6094936D01*
X3709705Y-6094936D02*
X3709705Y-6113984D01*
X3709705Y-5990174D02*
X3719229Y-5999698D01*
X3719229Y-5999698D02*
X3709705Y-6009222D01*
X3709705Y-6009222D02*
X3700182Y-5999698D01*
X3700182Y-5999698D02*
X3709705Y-5990174D01*
X3709705Y-5990174D02*
X3709705Y-6009222D01*
X1877500Y-6342500D02*
X2077500Y-6542500D01*
X2077500Y-6342500D02*
X1877500Y-6542500D01*
X2319229Y-6333984D02*
X2443039Y-6333984D01*
X2443039Y-6333984D02*
X2376372Y-6410174D01*
X2376372Y-6410174D02*
X2404944Y-6410174D01*
X2404944Y-6410174D02*
X2423991Y-6419698D01*
X2423991Y-6419698D02*
X2433515Y-6429222D01*
X2433515Y-6429222D02*
X2443039Y-6448269D01*
X2443039Y-6448269D02*
X2443039Y-6495888D01*
X2443039Y-6495888D02*
X2433515Y-6514936D01*
X2433515Y-6514936D02*
X2423991Y-6524460D01*
X2423991Y-6524460D02*
X2404944Y-6533984D01*
X2404944Y-6533984D02*
X2347801Y-6533984D01*
X2347801Y-6533984D02*
X2328753Y-6524460D01*
X2328753Y-6524460D02*
X2319229Y-6514936D01*
X2528753Y-6514936D02*
X2538277Y-6524460D01*
X2538277Y-6524460D02*
X2528753Y-6533984D01*
X2528753Y-6533984D02*
X2519229Y-6524460D01*
X2519229Y-6524460D02*
X2528753Y-6514936D01*
X2528753Y-6514936D02*
X2528753Y-6533984D01*
X2719229Y-6333984D02*
X2623991Y-6333984D01*
X2623991Y-6333984D02*
X2614467Y-6429222D01*
X2614467Y-6429222D02*
X2623991Y-6419698D01*
X2623991Y-6419698D02*
X2643039Y-6410174D01*
X2643039Y-6410174D02*
X2690658Y-6410174D01*
X2690658Y-6410174D02*
X2709705Y-6419698D01*
X2709705Y-6419698D02*
X2719229Y-6429222D01*
X2719229Y-6429222D02*
X2728753Y-6448269D01*
X2728753Y-6448269D02*
X2728753Y-6495888D01*
X2728753Y-6495888D02*
X2719229Y-6514936D01*
X2719229Y-6514936D02*
X2709705Y-6524460D01*
X2709705Y-6524460D02*
X2690658Y-6533984D01*
X2690658Y-6533984D02*
X2643039Y-6533984D01*
X2643039Y-6533984D02*
X2623991Y-6524460D01*
X2623991Y-6524460D02*
X2614467Y-6514936D01*
X2852562Y-6333984D02*
X2871610Y-6333984D01*
X2871610Y-6333984D02*
X2890658Y-6343508D01*
X2890658Y-6343508D02*
X2900182Y-6353031D01*
X2900182Y-6353031D02*
X2909705Y-6372079D01*
X2909705Y-6372079D02*
X2919229Y-6410174D01*
X2919229Y-6410174D02*
X2919229Y-6457793D01*
X2919229Y-6457793D02*
X2909705Y-6495888D01*
X2909705Y-6495888D02*
X2900182Y-6514936D01*
X2900182Y-6514936D02*
X2890658Y-6524460D01*
X2890658Y-6524460D02*
X2871610Y-6533984D01*
X2871610Y-6533984D02*
X2852562Y-6533984D01*
X2852562Y-6533984D02*
X2833515Y-6524460D01*
X2833515Y-6524460D02*
X2823991Y-6514936D01*
X2823991Y-6514936D02*
X2814467Y-6495888D01*
X2814467Y-6495888D02*
X2804943Y-6457793D01*
X2804943Y-6457793D02*
X2804943Y-6410174D01*
X2804943Y-6410174D02*
X2814467Y-6372079D01*
X2814467Y-6372079D02*
X2823991Y-6353031D01*
X2823991Y-6353031D02*
X2833515Y-6343508D01*
X2833515Y-6343508D02*
X2852562Y-6333984D01*
X3043039Y-6333984D02*
X3062086Y-6333984D01*
X3062086Y-6333984D02*
X3081134Y-6343508D01*
X3081134Y-6343508D02*
X3090658Y-6353031D01*
X3090658Y-6353031D02*
X3100182Y-6372079D01*
X3100182Y-6372079D02*
X3109705Y-6410174D01*
X3109705Y-6410174D02*
X3109705Y-6457793D01*
X3109705Y-6457793D02*
X3100182Y-6495888D01*
X3100182Y-6495888D02*
X3090658Y-6514936D01*
X3090658Y-6514936D02*
X3081134Y-6524460D01*
X3081134Y-6524460D02*
X3062086Y-6533984D01*
X3062086Y-6533984D02*
X3043039Y-6533984D01*
X3043039Y-6533984D02*
X3023991Y-6524460D01*
X3023991Y-6524460D02*
X3014467Y-6514936D01*
X3014467Y-6514936D02*
X3004943Y-6495888D01*
X3004943Y-6495888D02*
X2995420Y-6457793D01*
X2995420Y-6457793D02*
X2995420Y-6410174D01*
X2995420Y-6410174D02*
X3004943Y-6372079D01*
X3004943Y-6372079D02*
X3014467Y-6353031D01*
X3014467Y-6353031D02*
X3023991Y-6343508D01*
X3023991Y-6343508D02*
X3043039Y-6333984D01*
X3195420Y-6533984D02*
X3195420Y-6400650D01*
X3195420Y-6419698D02*
X3204943Y-6410174D01*
X3204943Y-6410174D02*
X3223991Y-6400650D01*
X3223991Y-6400650D02*
X3252563Y-6400650D01*
X3252563Y-6400650D02*
X3271610Y-6410174D01*
X3271610Y-6410174D02*
X3281134Y-6429222D01*
X3281134Y-6429222D02*
X3281134Y-6533984D01*
X3281134Y-6429222D02*
X3290658Y-6410174D01*
X3290658Y-6410174D02*
X3309705Y-6400650D01*
X3309705Y-6400650D02*
X3338277Y-6400650D01*
X3338277Y-6400650D02*
X3357324Y-6410174D01*
X3357324Y-6410174D02*
X3366848Y-6429222D01*
X3366848Y-6429222D02*
X3366848Y-6533984D01*
X3462086Y-6533984D02*
X3462086Y-6400650D01*
X3462086Y-6419698D02*
X3471610Y-6410174D01*
X3471610Y-6410174D02*
X3490658Y-6400650D01*
X3490658Y-6400650D02*
X3519229Y-6400650D01*
X3519229Y-6400650D02*
X3538277Y-6410174D01*
X3538277Y-6410174D02*
X3547801Y-6429222D01*
X3547801Y-6429222D02*
X3547801Y-6533984D01*
X3547801Y-6429222D02*
X3557324Y-6410174D01*
X3557324Y-6410174D02*
X3576372Y-6400650D01*
X3576372Y-6400650D02*
X3604943Y-6400650D01*
X3604943Y-6400650D02*
X3623991Y-6410174D01*
X3623991Y-6410174D02*
X3633515Y-6429222D01*
X3633515Y-6429222D02*
X3633515Y-6533984D01*
X4023991Y-6324460D02*
X3852563Y-6581603D01*
X4281134Y-6333984D02*
X4300182Y-6333984D01*
X4300182Y-6333984D02*
X4319229Y-6343508D01*
X4319229Y-6343508D02*
X4328753Y-6353031D01*
X4328753Y-6353031D02*
X4338277Y-6372079D01*
X4338277Y-6372079D02*
X4347801Y-6410174D01*
X4347801Y-6410174D02*
X4347801Y-6457793D01*
X4347801Y-6457793D02*
X4338277Y-6495888D01*
X4338277Y-6495888D02*
X4328753Y-6514936D01*
X4328753Y-6514936D02*
X4319229Y-6524460D01*
X4319229Y-6524460D02*
X4300182Y-6533984D01*
X4300182Y-6533984D02*
X4281134Y-6533984D01*
X4281134Y-6533984D02*
X4262087Y-6524460D01*
X4262087Y-6524460D02*
X4252563Y-6514936D01*
X4252563Y-6514936D02*
X4243039Y-6495888D01*
X4243039Y-6495888D02*
X4233515Y-6457793D01*
X4233515Y-6457793D02*
X4233515Y-6410174D01*
X4233515Y-6410174D02*
X4243039Y-6372079D01*
X4243039Y-6372079D02*
X4252563Y-6353031D01*
X4252563Y-6353031D02*
X4262087Y-6343508D01*
X4262087Y-6343508D02*
X4281134Y-6333984D01*
X4433515Y-6514936D02*
X4443039Y-6524460D01*
X4443039Y-6524460D02*
X4433515Y-6533984D01*
X4433515Y-6533984D02*
X4423991Y-6524460D01*
X4423991Y-6524460D02*
X4433515Y-6514936D01*
X4433515Y-6514936D02*
X4433515Y-6533984D01*
X4633515Y-6533984D02*
X4519229Y-6533984D01*
X4576372Y-6533984D02*
X4576372Y-6333984D01*
X4576372Y-6333984D02*
X4557325Y-6362555D01*
X4557325Y-6362555D02*
X4538277Y-6381603D01*
X4538277Y-6381603D02*
X4519229Y-6391127D01*
X4700182Y-6333984D02*
X4823991Y-6333984D01*
X4823991Y-6333984D02*
X4757325Y-6410174D01*
X4757325Y-6410174D02*
X4785896Y-6410174D01*
X4785896Y-6410174D02*
X4804944Y-6419698D01*
X4804944Y-6419698D02*
X4814468Y-6429222D01*
X4814468Y-6429222D02*
X4823991Y-6448269D01*
X4823991Y-6448269D02*
X4823991Y-6495888D01*
X4823991Y-6495888D02*
X4814468Y-6514936D01*
X4814468Y-6514936D02*
X4804944Y-6524460D01*
X4804944Y-6524460D02*
X4785896Y-6533984D01*
X4785896Y-6533984D02*
X4728753Y-6533984D01*
X4728753Y-6533984D02*
X4709706Y-6524460D01*
X4709706Y-6524460D02*
X4700182Y-6514936D01*
X4890658Y-6333984D02*
X5023991Y-6333984D01*
X5023991Y-6333984D02*
X4938277Y-6533984D01*
X5128753Y-6419698D02*
X5109706Y-6410174D01*
X5109706Y-6410174D02*
X5100182Y-6400650D01*
X5100182Y-6400650D02*
X5090658Y-6381603D01*
X5090658Y-6381603D02*
X5090658Y-6372079D01*
X5090658Y-6372079D02*
X5100182Y-6353031D01*
X5100182Y-6353031D02*
X5109706Y-6343508D01*
X5109706Y-6343508D02*
X5128753Y-6333984D01*
X5128753Y-6333984D02*
X5166849Y-6333984D01*
X5166849Y-6333984D02*
X5185896Y-6343508D01*
X5185896Y-6343508D02*
X5195420Y-6353031D01*
X5195420Y-6353031D02*
X5204944Y-6372079D01*
X5204944Y-6372079D02*
X5204944Y-6381603D01*
X5204944Y-6381603D02*
X5195420Y-6400650D01*
X5195420Y-6400650D02*
X5185896Y-6410174D01*
X5185896Y-6410174D02*
X5166849Y-6419698D01*
X5166849Y-6419698D02*
X5128753Y-6419698D01*
X5128753Y-6419698D02*
X5109706Y-6429222D01*
X5109706Y-6429222D02*
X5100182Y-6438746D01*
X5100182Y-6438746D02*
X5090658Y-6457793D01*
X5090658Y-6457793D02*
X5090658Y-6495888D01*
X5090658Y-6495888D02*
X5100182Y-6514936D01*
X5100182Y-6514936D02*
X5109706Y-6524460D01*
X5109706Y-6524460D02*
X5128753Y-6533984D01*
X5128753Y-6533984D02*
X5166849Y-6533984D01*
X5166849Y-6533984D02*
X5185896Y-6524460D01*
X5185896Y-6524460D02*
X5195420Y-6514936D01*
X5195420Y-6514936D02*
X5204944Y-6495888D01*
X5204944Y-6495888D02*
X5204944Y-6457793D01*
X5204944Y-6457793D02*
X5195420Y-6438746D01*
X5195420Y-6438746D02*
X5185896Y-6429222D01*
X5185896Y-6429222D02*
X5166849Y-6419698D01*
X5281134Y-6333984D02*
X5281134Y-6372079D01*
X5357325Y-6333984D02*
X5357325Y-6372079D01*
X5652563Y-6610174D02*
X5643039Y-6600650D01*
X5643039Y-6600650D02*
X5623991Y-6572079D01*
X5623991Y-6572079D02*
X5614468Y-6553031D01*
X5614468Y-6553031D02*
X5604944Y-6524460D01*
X5604944Y-6524460D02*
X5595420Y-6476841D01*
X5595420Y-6476841D02*
X5595420Y-6438746D01*
X5595420Y-6438746D02*
X5604944Y-6391127D01*
X5604944Y-6391127D02*
X5614468Y-6362555D01*
X5614468Y-6362555D02*
X5623991Y-6343508D01*
X5623991Y-6343508D02*
X5643039Y-6314936D01*
X5643039Y-6314936D02*
X5652563Y-6305412D01*
X5719229Y-6353031D02*
X5728753Y-6343508D01*
X5728753Y-6343508D02*
X5747801Y-6333984D01*
X5747801Y-6333984D02*
X5795420Y-6333984D01*
X5795420Y-6333984D02*
X5814468Y-6343508D01*
X5814468Y-6343508D02*
X5823991Y-6353031D01*
X5823991Y-6353031D02*
X5833515Y-6372079D01*
X5833515Y-6372079D02*
X5833515Y-6391127D01*
X5833515Y-6391127D02*
X5823991Y-6419698D01*
X5823991Y-6419698D02*
X5709706Y-6533984D01*
X5709706Y-6533984D02*
X5833515Y-6533984D01*
X6071610Y-6533984D02*
X6071610Y-6333984D01*
X6157325Y-6533984D02*
X6157325Y-6429222D01*
X6157325Y-6429222D02*
X6147801Y-6410174D01*
X6147801Y-6410174D02*
X6128753Y-6400650D01*
X6128753Y-6400650D02*
X6100182Y-6400650D01*
X6100182Y-6400650D02*
X6081134Y-6410174D01*
X6081134Y-6410174D02*
X6071610Y-6419698D01*
X6281134Y-6533984D02*
X6262087Y-6524460D01*
X6262087Y-6524460D02*
X6252563Y-6514936D01*
X6252563Y-6514936D02*
X6243039Y-6495888D01*
X6243039Y-6495888D02*
X6243039Y-6438746D01*
X6243039Y-6438746D02*
X6252563Y-6419698D01*
X6252563Y-6419698D02*
X6262087Y-6410174D01*
X6262087Y-6410174D02*
X6281134Y-6400650D01*
X6281134Y-6400650D02*
X6309706Y-6400650D01*
X6309706Y-6400650D02*
X6328753Y-6410174D01*
X6328753Y-6410174D02*
X6338277Y-6419698D01*
X6338277Y-6419698D02*
X6347801Y-6438746D01*
X6347801Y-6438746D02*
X6347801Y-6495888D01*
X6347801Y-6495888D02*
X6338277Y-6514936D01*
X6338277Y-6514936D02*
X6328753Y-6524460D01*
X6328753Y-6524460D02*
X6309706Y-6533984D01*
X6309706Y-6533984D02*
X6281134Y-6533984D01*
X6462087Y-6533984D02*
X6443039Y-6524460D01*
X6443039Y-6524460D02*
X6433515Y-6505412D01*
X6433515Y-6505412D02*
X6433515Y-6333984D01*
X6614468Y-6524460D02*
X6595420Y-6533984D01*
X6595420Y-6533984D02*
X6557325Y-6533984D01*
X6557325Y-6533984D02*
X6538277Y-6524460D01*
X6538277Y-6524460D02*
X6528753Y-6505412D01*
X6528753Y-6505412D02*
X6528753Y-6429222D01*
X6528753Y-6429222D02*
X6538277Y-6410174D01*
X6538277Y-6410174D02*
X6557325Y-6400650D01*
X6557325Y-6400650D02*
X6595420Y-6400650D01*
X6595420Y-6400650D02*
X6614468Y-6410174D01*
X6614468Y-6410174D02*
X6623991Y-6429222D01*
X6623991Y-6429222D02*
X6623991Y-6448269D01*
X6623991Y-6448269D02*
X6528753Y-6467317D01*
X6700182Y-6524460D02*
X6719230Y-6533984D01*
X6719230Y-6533984D02*
X6757325Y-6533984D01*
X6757325Y-6533984D02*
X6776372Y-6524460D01*
X6776372Y-6524460D02*
X6785896Y-6505412D01*
X6785896Y-6505412D02*
X6785896Y-6495888D01*
X6785896Y-6495888D02*
X6776372Y-6476841D01*
X6776372Y-6476841D02*
X6757325Y-6467317D01*
X6757325Y-6467317D02*
X6728753Y-6467317D01*
X6728753Y-6467317D02*
X6709706Y-6457793D01*
X6709706Y-6457793D02*
X6700182Y-6438746D01*
X6700182Y-6438746D02*
X6700182Y-6429222D01*
X6700182Y-6429222D02*
X6709706Y-6410174D01*
X6709706Y-6410174D02*
X6728753Y-6400650D01*
X6728753Y-6400650D02*
X6757325Y-6400650D01*
X6757325Y-6400650D02*
X6776372Y-6410174D01*
X6852563Y-6610174D02*
X6862087Y-6600650D01*
X6862087Y-6600650D02*
X6881134Y-6572079D01*
X6881134Y-6572079D02*
X6890658Y-6553031D01*
X6890658Y-6553031D02*
X6900182Y-6524460D01*
X6900182Y-6524460D02*
X6909706Y-6476841D01*
X6909706Y-6476841D02*
X6909706Y-6438746D01*
X6909706Y-6438746D02*
X6900182Y-6391127D01*
X6900182Y-6391127D02*
X6890658Y-6362555D01*
X6890658Y-6362555D02*
X6881134Y-6343508D01*
X6881134Y-6343508D02*
X6862087Y-6314936D01*
X6862087Y-6314936D02*
X6852563Y-6305412D01*
X7214468Y-6610174D02*
X7204944Y-6600650D01*
X7204944Y-6600650D02*
X7185896Y-6572079D01*
X7185896Y-6572079D02*
X7176372Y-6553031D01*
X7176372Y-6553031D02*
X7166849Y-6524460D01*
X7166849Y-6524460D02*
X7157325Y-6476841D01*
X7157325Y-6476841D02*
X7157325Y-6438746D01*
X7157325Y-6438746D02*
X7166849Y-6391127D01*
X7166849Y-6391127D02*
X7176372Y-6362555D01*
X7176372Y-6362555D02*
X7185896Y-6343508D01*
X7185896Y-6343508D02*
X7204944Y-6314936D01*
X7204944Y-6314936D02*
X7214468Y-6305412D01*
X7290658Y-6400650D02*
X7290658Y-6533984D01*
X7290658Y-6419698D02*
X7300182Y-6410174D01*
X7300182Y-6410174D02*
X7319230Y-6400650D01*
X7319230Y-6400650D02*
X7347801Y-6400650D01*
X7347801Y-6400650D02*
X7366849Y-6410174D01*
X7366849Y-6410174D02*
X7376372Y-6429222D01*
X7376372Y-6429222D02*
X7376372Y-6533984D01*
X7500182Y-6533984D02*
X7481134Y-6524460D01*
X7481134Y-6524460D02*
X7471611Y-6514936D01*
X7471611Y-6514936D02*
X7462087Y-6495888D01*
X7462087Y-6495888D02*
X7462087Y-6438746D01*
X7462087Y-6438746D02*
X7471611Y-6419698D01*
X7471611Y-6419698D02*
X7481134Y-6410174D01*
X7481134Y-6410174D02*
X7500182Y-6400650D01*
X7500182Y-6400650D02*
X7528753Y-6400650D01*
X7528753Y-6400650D02*
X7547801Y-6410174D01*
X7547801Y-6410174D02*
X7557325Y-6419698D01*
X7557325Y-6419698D02*
X7566849Y-6438746D01*
X7566849Y-6438746D02*
X7566849Y-6495888D01*
X7566849Y-6495888D02*
X7557325Y-6514936D01*
X7557325Y-6514936D02*
X7547801Y-6524460D01*
X7547801Y-6524460D02*
X7528753Y-6533984D01*
X7528753Y-6533984D02*
X7500182Y-6533984D01*
X7623992Y-6400650D02*
X7700182Y-6400650D01*
X7652563Y-6333984D02*
X7652563Y-6505412D01*
X7652563Y-6505412D02*
X7662087Y-6524460D01*
X7662087Y-6524460D02*
X7681134Y-6533984D01*
X7681134Y-6533984D02*
X7700182Y-6533984D01*
X7919230Y-6400650D02*
X7919230Y-6600650D01*
X7919230Y-6410174D02*
X7938277Y-6400650D01*
X7938277Y-6400650D02*
X7976373Y-6400650D01*
X7976373Y-6400650D02*
X7995420Y-6410174D01*
X7995420Y-6410174D02*
X8004944Y-6419698D01*
X8004944Y-6419698D02*
X8014468Y-6438746D01*
X8014468Y-6438746D02*
X8014468Y-6495888D01*
X8014468Y-6495888D02*
X8004944Y-6514936D01*
X8004944Y-6514936D02*
X7995420Y-6524460D01*
X7995420Y-6524460D02*
X7976373Y-6533984D01*
X7976373Y-6533984D02*
X7938277Y-6533984D01*
X7938277Y-6533984D02*
X7919230Y-6524460D01*
X8128753Y-6533984D02*
X8109706Y-6524460D01*
X8109706Y-6524460D02*
X8100182Y-6505412D01*
X8100182Y-6505412D02*
X8100182Y-6333984D01*
X8290658Y-6533984D02*
X8290658Y-6429222D01*
X8290658Y-6429222D02*
X8281134Y-6410174D01*
X8281134Y-6410174D02*
X8262087Y-6400650D01*
X8262087Y-6400650D02*
X8223992Y-6400650D01*
X8223992Y-6400650D02*
X8204944Y-6410174D01*
X8290658Y-6524460D02*
X8271611Y-6533984D01*
X8271611Y-6533984D02*
X8223992Y-6533984D01*
X8223992Y-6533984D02*
X8204944Y-6524460D01*
X8204944Y-6524460D02*
X8195420Y-6505412D01*
X8195420Y-6505412D02*
X8195420Y-6486365D01*
X8195420Y-6486365D02*
X8204944Y-6467317D01*
X8204944Y-6467317D02*
X8223992Y-6457793D01*
X8223992Y-6457793D02*
X8271611Y-6457793D01*
X8271611Y-6457793D02*
X8290658Y-6448269D01*
X8357325Y-6400650D02*
X8433515Y-6400650D01*
X8385896Y-6333984D02*
X8385896Y-6505412D01*
X8385896Y-6505412D02*
X8395420Y-6524460D01*
X8395420Y-6524460D02*
X8414468Y-6533984D01*
X8414468Y-6533984D02*
X8433515Y-6533984D01*
X8576373Y-6524460D02*
X8557325Y-6533984D01*
X8557325Y-6533984D02*
X8519230Y-6533984D01*
X8519230Y-6533984D02*
X8500182Y-6524460D01*
X8500182Y-6524460D02*
X8490658Y-6505412D01*
X8490658Y-6505412D02*
X8490658Y-6429222D01*
X8490658Y-6429222D02*
X8500182Y-6410174D01*
X8500182Y-6410174D02*
X8519230Y-6400650D01*
X8519230Y-6400650D02*
X8557325Y-6400650D01*
X8557325Y-6400650D02*
X8576373Y-6410174D01*
X8576373Y-6410174D02*
X8585896Y-6429222D01*
X8585896Y-6429222D02*
X8585896Y-6448269D01*
X8585896Y-6448269D02*
X8490658Y-6467317D01*
X8757325Y-6533984D02*
X8757325Y-6333984D01*
X8757325Y-6524460D02*
X8738277Y-6533984D01*
X8738277Y-6533984D02*
X8700182Y-6533984D01*
X8700182Y-6533984D02*
X8681135Y-6524460D01*
X8681135Y-6524460D02*
X8671611Y-6514936D01*
X8671611Y-6514936D02*
X8662087Y-6495888D01*
X8662087Y-6495888D02*
X8662087Y-6438746D01*
X8662087Y-6438746D02*
X8671611Y-6419698D01*
X8671611Y-6419698D02*
X8681135Y-6410174D01*
X8681135Y-6410174D02*
X8700182Y-6400650D01*
X8700182Y-6400650D02*
X8738277Y-6400650D01*
X8738277Y-6400650D02*
X8757325Y-6410174D01*
X8833516Y-6610174D02*
X8843039Y-6600650D01*
X8843039Y-6600650D02*
X8862087Y-6572079D01*
X8862087Y-6572079D02*
X8871611Y-6553031D01*
X8871611Y-6553031D02*
X8881135Y-6524460D01*
X8881135Y-6524460D02*
X8890658Y-6476841D01*
X8890658Y-6476841D02*
X8890658Y-6438746D01*
X8890658Y-6438746D02*
X8881135Y-6391127D01*
X8881135Y-6391127D02*
X8871611Y-6362555D01*
X8871611Y-6362555D02*
X8862087Y-6343508D01*
X8862087Y-6343508D02*
X8843039Y-6314936D01*
X8843039Y-6314936D02*
X8833516Y-6305412D01*
M02*
