%TF.GenerationSoftware,KiCad,Pcbnew,7.0.5-0*%
%TF.CreationDate,2023-07-08T10:54:15-04:00*%
%TF.ProjectId,PierogiNixiePSU,50696572-6f67-4694-9e69-786965505355,rev?*%
%TF.SameCoordinates,Original*%
%TF.FileFunction,Copper,L4,Bot*%
%TF.FilePolarity,Positive*%
%FSLAX46Y46*%
G04 Gerber Fmt 4.6, Leading zero omitted, Abs format (unit mm)*
G04 Created by KiCad (PCBNEW 7.0.5-0) date 2023-07-08 10:54:15*
%MOMM*%
%LPD*%
G01*
G04 APERTURE LIST*
%TA.AperFunction,ComponentPad*%
%ADD10C,1.950000*%
%TD*%
%TA.AperFunction,ComponentPad*%
%ADD11C,0.800000*%
%TD*%
%TA.AperFunction,ComponentPad*%
%ADD12C,7.000000*%
%TD*%
%TA.AperFunction,ComponentPad*%
%ADD13R,1.100000X1.100000*%
%TD*%
%TA.AperFunction,ComponentPad*%
%ADD14C,1.100000*%
%TD*%
%TA.AperFunction,ComponentPad*%
%ADD15O,5.000000X2.500000*%
%TD*%
%TA.AperFunction,ComponentPad*%
%ADD16O,4.500000X2.250000*%
%TD*%
%TA.AperFunction,ComponentPad*%
%ADD17O,2.250000X4.500000*%
%TD*%
%TA.AperFunction,ViaPad*%
%ADD18C,1.000000*%
%TD*%
G04 APERTURE END LIST*
D10*
%TO.P,J1,1,1*%
%TO.N,GND*%
X130430000Y-117000000D03*
%TO.P,J1,2,2*%
%TO.N,Net-(C1-+)*%
X132970000Y-117000000D03*
%TD*%
D11*
%TO.P,H1,1*%
%TO.N,N/C*%
X162600000Y-106500000D03*
X163368845Y-104643845D03*
X163368845Y-108356155D03*
X165225000Y-103875000D03*
D12*
X165225000Y-106500000D03*
D11*
X165225000Y-109125000D03*
X167081155Y-104643845D03*
X167081155Y-108356155D03*
X167850000Y-106500000D03*
%TD*%
D13*
%TO.P,C4,1,+*%
%TO.N,Net-(C4-+)*%
X162800000Y-97450000D03*
D14*
%TO.P,C4,2,-*%
%TO.N,GND*%
X162800000Y-99950000D03*
%TD*%
D10*
%TO.P,J2,1,1*%
%TO.N,Net-(C4-+)*%
X163730000Y-116900000D03*
%TO.P,J2,2,2*%
%TO.N,GND*%
X166270000Y-116900000D03*
%TD*%
D15*
%TO.P,J3,1*%
%TO.N,Net-(C1-+)*%
X121500000Y-112300000D03*
D16*
%TO.P,J3,2*%
%TO.N,GND*%
X121500000Y-118300000D03*
D17*
%TO.P,J3,3*%
X126200000Y-115300000D03*
%TD*%
D11*
%TO.P,H2,1*%
%TO.N,N/C*%
X119218845Y-101043845D03*
X119987690Y-99187690D03*
X119987690Y-102900000D03*
X121843845Y-98418845D03*
D12*
X121843845Y-101043845D03*
D11*
X121843845Y-103668845D03*
X123700000Y-99187690D03*
X123700000Y-102900000D03*
X124468845Y-101043845D03*
%TD*%
D18*
%TO.N,GND*%
X126900000Y-101100000D03*
X142700000Y-117600000D03*
X125900000Y-107300000D03*
X160700000Y-113400000D03*
X152000000Y-111400000D03*
X122000000Y-94500000D03*
X137400000Y-114100000D03*
X167600000Y-96000000D03*
X166500000Y-111600000D03*
X166900000Y-101100000D03*
X128900000Y-111800000D03*
X154700000Y-111900000D03*
X142000000Y-108500000D03*
X164700000Y-94000000D03*
X156900000Y-106500000D03*
X118800000Y-94700000D03*
X118600000Y-107900000D03*
X139900000Y-95300000D03*
X121900000Y-90500000D03*
X141000000Y-102500000D03*
X157700000Y-103400000D03*
X122700000Y-107700000D03*
X154300000Y-103000000D03*
X143800000Y-113500000D03*
X156900000Y-101200000D03*
X154500000Y-99200000D03*
X126200000Y-94600000D03*
X125900000Y-90800000D03*
X148700000Y-111200000D03*
X139300000Y-105600000D03*
X147300000Y-106200000D03*
X148300000Y-113700000D03*
X142300000Y-116300000D03*
X136800000Y-103600000D03*
X154700000Y-90600000D03*
X129200000Y-103800000D03*
X138000000Y-119700000D03*
X167700000Y-89900000D03*
X118700000Y-91400000D03*
%TD*%
M02*
